%TF.GenerationSoftware,KiCad,Pcbnew,9.0.0*%
%TF.CreationDate,2025-03-29T01:57:50-05:00*%
%TF.ProjectId,dronedrivers,64726f6e-6564-4726-9976-6572732e6b69,rev?*%
%TF.SameCoordinates,Original*%
%TF.FileFunction,Copper,L1,Top*%
%TF.FilePolarity,Positive*%
%FSLAX46Y46*%
G04 Gerber Fmt 4.6, Leading zero omitted, Abs format (unit mm)*
G04 Created by KiCad (PCBNEW 9.0.0) date 2025-03-29 01:57:50*
%MOMM*%
%LPD*%
G01*
G04 APERTURE LIST*
G04 Aperture macros list*
%AMRoundRect*
0 Rectangle with rounded corners*
0 $1 Rounding radius*
0 $2 $3 $4 $5 $6 $7 $8 $9 X,Y pos of 4 corners*
0 Add a 4 corners polygon primitive as box body*
4,1,4,$2,$3,$4,$5,$6,$7,$8,$9,$2,$3,0*
0 Add four circle primitives for the rounded corners*
1,1,$1+$1,$2,$3*
1,1,$1+$1,$4,$5*
1,1,$1+$1,$6,$7*
1,1,$1+$1,$8,$9*
0 Add four rect primitives between the rounded corners*
20,1,$1+$1,$2,$3,$4,$5,0*
20,1,$1+$1,$4,$5,$6,$7,0*
20,1,$1+$1,$6,$7,$8,$9,0*
20,1,$1+$1,$8,$9,$2,$3,0*%
%AMFreePoly0*
4,1,6,1.000000,0.000000,0.500000,-0.750000,-0.500000,-0.750000,-0.500000,0.750000,0.500000,0.750000,1.000000,0.000000,1.000000,0.000000,$1*%
%AMFreePoly1*
4,1,6,0.500000,-0.750000,-0.650000,-0.750000,-0.150000,0.000000,-0.650000,0.750000,0.500000,0.750000,0.500000,-0.750000,0.500000,-0.750000,$1*%
G04 Aperture macros list end*
%ADD10C,0.100000*%
%ADD11C,0.150000*%
%ADD12C,0.300000*%
%ADD13C,0.400000*%
%TA.AperFunction,SMDPad,CuDef*%
%ADD14RoundRect,0.250000X-0.650000X1.000000X-0.650000X-1.000000X0.650000X-1.000000X0.650000X1.000000X0*%
%TD*%
%TA.AperFunction,SMDPad,CuDef*%
%ADD15RoundRect,0.375000X0.375000X-0.625000X0.375000X0.625000X-0.375000X0.625000X-0.375000X-0.625000X0*%
%TD*%
%TA.AperFunction,SMDPad,CuDef*%
%ADD16RoundRect,0.500000X1.400000X-0.500000X1.400000X0.500000X-1.400000X0.500000X-1.400000X-0.500000X0*%
%TD*%
%TA.AperFunction,SMDPad,CuDef*%
%ADD17RoundRect,0.250000X0.262500X0.450000X-0.262500X0.450000X-0.262500X-0.450000X0.262500X-0.450000X0*%
%TD*%
%TA.AperFunction,SMDPad,CuDef*%
%ADD18RoundRect,0.250000X-0.450000X0.262500X-0.450000X-0.262500X0.450000X-0.262500X0.450000X0.262500X0*%
%TD*%
%TA.AperFunction,SMDPad,CuDef*%
%ADD19R,0.900000X1.700000*%
%TD*%
%TA.AperFunction,SMDPad,CuDef*%
%ADD20RoundRect,0.225000X0.225000X0.375000X-0.225000X0.375000X-0.225000X-0.375000X0.225000X-0.375000X0*%
%TD*%
%TA.AperFunction,SMDPad,CuDef*%
%ADD21RoundRect,0.250000X-0.250000X-0.475000X0.250000X-0.475000X0.250000X0.475000X-0.250000X0.475000X0*%
%TD*%
%TA.AperFunction,SMDPad,CuDef*%
%ADD22R,1.500000X0.900000*%
%TD*%
%TA.AperFunction,SMDPad,CuDef*%
%ADD23R,0.900000X1.500000*%
%TD*%
%TA.AperFunction,HeatsinkPad*%
%ADD24C,0.600000*%
%TD*%
%TA.AperFunction,HeatsinkPad*%
%ADD25R,3.900000X3.900000*%
%TD*%
%TA.AperFunction,HeatsinkPad*%
%ADD26O,1.000000X1.800000*%
%TD*%
%TA.AperFunction,HeatsinkPad*%
%ADD27O,1.000000X2.100000*%
%TD*%
%TA.AperFunction,SMDPad,CuDef*%
%ADD28RoundRect,0.150000X-0.150000X-0.425000X0.150000X-0.425000X0.150000X0.425000X-0.150000X0.425000X0*%
%TD*%
%TA.AperFunction,SMDPad,CuDef*%
%ADD29RoundRect,0.075000X-0.075000X-0.500000X0.075000X-0.500000X0.075000X0.500000X-0.075000X0.500000X0*%
%TD*%
%TA.AperFunction,SMDPad,CuDef*%
%ADD30RoundRect,0.150000X0.150000X-0.825000X0.150000X0.825000X-0.150000X0.825000X-0.150000X-0.825000X0*%
%TD*%
%TA.AperFunction,SMDPad,CuDef*%
%ADD31RoundRect,0.250000X0.475000X-0.250000X0.475000X0.250000X-0.475000X0.250000X-0.475000X-0.250000X0*%
%TD*%
%TA.AperFunction,SMDPad,CuDef*%
%ADD32FreePoly0,90.000000*%
%TD*%
%TA.AperFunction,SMDPad,CuDef*%
%ADD33FreePoly1,90.000000*%
%TD*%
%TA.AperFunction,SMDPad,CuDef*%
%ADD34RoundRect,0.225000X0.375000X-0.225000X0.375000X0.225000X-0.375000X0.225000X-0.375000X-0.225000X0*%
%TD*%
%TA.AperFunction,ComponentPad*%
%ADD35R,1.700000X1.700000*%
%TD*%
%TA.AperFunction,ComponentPad*%
%ADD36O,1.700000X1.700000*%
%TD*%
%TA.AperFunction,ComponentPad*%
%ADD37O,1.200000X1.750000*%
%TD*%
%TA.AperFunction,ComponentPad*%
%ADD38RoundRect,0.250000X-0.350000X-0.625000X0.350000X-0.625000X0.350000X0.625000X-0.350000X0.625000X0*%
%TD*%
%TA.AperFunction,SMDPad,CuDef*%
%ADD39RoundRect,0.150000X0.587500X0.150000X-0.587500X0.150000X-0.587500X-0.150000X0.587500X-0.150000X0*%
%TD*%
%TA.AperFunction,SMDPad,CuDef*%
%ADD40RoundRect,0.150000X-0.587500X-0.150000X0.587500X-0.150000X0.587500X0.150000X-0.587500X0.150000X0*%
%TD*%
%TA.AperFunction,SMDPad,CuDef*%
%ADD41RoundRect,0.250000X0.450000X-0.262500X0.450000X0.262500X-0.450000X0.262500X-0.450000X-0.262500X0*%
%TD*%
%TA.AperFunction,SMDPad,CuDef*%
%ADD42RoundRect,0.150000X0.150000X-0.587500X0.150000X0.587500X-0.150000X0.587500X-0.150000X-0.587500X0*%
%TD*%
%TA.AperFunction,SMDPad,CuDef*%
%ADD43RoundRect,0.250000X-0.262500X-0.450000X0.262500X-0.450000X0.262500X0.450000X-0.262500X0.450000X0*%
%TD*%
%TA.AperFunction,SMDPad,CuDef*%
%ADD44RoundRect,0.375000X-0.375000X0.625000X-0.375000X-0.625000X0.375000X-0.625000X0.375000X0.625000X0*%
%TD*%
%TA.AperFunction,SMDPad,CuDef*%
%ADD45RoundRect,0.500000X-1.400000X0.500000X-1.400000X-0.500000X1.400000X-0.500000X1.400000X0.500000X0*%
%TD*%
%TA.AperFunction,SMDPad,CuDef*%
%ADD46RoundRect,0.050000X-0.225000X-0.050000X0.225000X-0.050000X0.225000X0.050000X-0.225000X0.050000X0*%
%TD*%
%TA.AperFunction,SMDPad,CuDef*%
%ADD47RoundRect,0.050000X0.050000X-0.225000X0.050000X0.225000X-0.050000X0.225000X-0.050000X-0.225000X0*%
%TD*%
%TA.AperFunction,SMDPad,CuDef*%
%ADD48RoundRect,0.250000X-0.475000X0.250000X-0.475000X-0.250000X0.475000X-0.250000X0.475000X0.250000X0*%
%TD*%
%TA.AperFunction,SMDPad,CuDef*%
%ADD49RoundRect,0.250000X0.250000X0.475000X-0.250000X0.475000X-0.250000X-0.475000X0.250000X-0.475000X0*%
%TD*%
%TA.AperFunction,SMDPad,CuDef*%
%ADD50RoundRect,0.225000X-0.225000X-0.375000X0.225000X-0.375000X0.225000X0.375000X-0.225000X0.375000X0*%
%TD*%
%TA.AperFunction,ViaPad*%
%ADD51C,0.600000*%
%TD*%
%TA.AperFunction,Conductor*%
%ADD52C,0.200000*%
%TD*%
%TA.AperFunction,Conductor*%
%ADD53C,0.400000*%
%TD*%
%TA.AperFunction,Conductor*%
%ADD54C,0.300000*%
%TD*%
%TA.AperFunction,Profile*%
%ADD55C,0.050000*%
%TD*%
G04 APERTURE END LIST*
D10*
D11*
X177002200Y-166007200D02*
X285002200Y-166007200D01*
X285002200Y-198007200D01*
X177002200Y-198007200D01*
X177002200Y-166007200D01*
D10*
D11*
X10000000Y-10000000D02*
X287002200Y-10000000D01*
X287002200Y-200007200D01*
X10000000Y-200007200D01*
X10000000Y-10000000D01*
D10*
D11*
X12000000Y-12000000D02*
X285002200Y-12000000D01*
X285002200Y-198007200D01*
X12000000Y-198007200D01*
X12000000Y-12000000D01*
D10*
D11*
X60000000Y-12000000D02*
X60000000Y-10000000D01*
D10*
D11*
X110000000Y-12000000D02*
X110000000Y-10000000D01*
D10*
D11*
X160000000Y-12000000D02*
X160000000Y-10000000D01*
D10*
D11*
X210000000Y-12000000D02*
X210000000Y-10000000D01*
D10*
D11*
X260000000Y-12000000D02*
X260000000Y-10000000D01*
D10*
D11*
X36089160Y-11593604D02*
X35346303Y-11593604D01*
X35717731Y-11593604D02*
X35717731Y-10293604D01*
X35717731Y-10293604D02*
X35593922Y-10479319D01*
X35593922Y-10479319D02*
X35470112Y-10603128D01*
X35470112Y-10603128D02*
X35346303Y-10665033D01*
D10*
D11*
X85346303Y-10417414D02*
X85408207Y-10355509D01*
X85408207Y-10355509D02*
X85532017Y-10293604D01*
X85532017Y-10293604D02*
X85841541Y-10293604D01*
X85841541Y-10293604D02*
X85965350Y-10355509D01*
X85965350Y-10355509D02*
X86027255Y-10417414D01*
X86027255Y-10417414D02*
X86089160Y-10541223D01*
X86089160Y-10541223D02*
X86089160Y-10665033D01*
X86089160Y-10665033D02*
X86027255Y-10850747D01*
X86027255Y-10850747D02*
X85284398Y-11593604D01*
X85284398Y-11593604D02*
X86089160Y-11593604D01*
D10*
D11*
X135284398Y-10293604D02*
X136089160Y-10293604D01*
X136089160Y-10293604D02*
X135655826Y-10788842D01*
X135655826Y-10788842D02*
X135841541Y-10788842D01*
X135841541Y-10788842D02*
X135965350Y-10850747D01*
X135965350Y-10850747D02*
X136027255Y-10912652D01*
X136027255Y-10912652D02*
X136089160Y-11036461D01*
X136089160Y-11036461D02*
X136089160Y-11345985D01*
X136089160Y-11345985D02*
X136027255Y-11469795D01*
X136027255Y-11469795D02*
X135965350Y-11531700D01*
X135965350Y-11531700D02*
X135841541Y-11593604D01*
X135841541Y-11593604D02*
X135470112Y-11593604D01*
X135470112Y-11593604D02*
X135346303Y-11531700D01*
X135346303Y-11531700D02*
X135284398Y-11469795D01*
D10*
D11*
X185965350Y-10726938D02*
X185965350Y-11593604D01*
X185655826Y-10231700D02*
X185346303Y-11160271D01*
X185346303Y-11160271D02*
X186151064Y-11160271D01*
D10*
D11*
X236027255Y-10293604D02*
X235408207Y-10293604D01*
X235408207Y-10293604D02*
X235346303Y-10912652D01*
X235346303Y-10912652D02*
X235408207Y-10850747D01*
X235408207Y-10850747D02*
X235532017Y-10788842D01*
X235532017Y-10788842D02*
X235841541Y-10788842D01*
X235841541Y-10788842D02*
X235965350Y-10850747D01*
X235965350Y-10850747D02*
X236027255Y-10912652D01*
X236027255Y-10912652D02*
X236089160Y-11036461D01*
X236089160Y-11036461D02*
X236089160Y-11345985D01*
X236089160Y-11345985D02*
X236027255Y-11469795D01*
X236027255Y-11469795D02*
X235965350Y-11531700D01*
X235965350Y-11531700D02*
X235841541Y-11593604D01*
X235841541Y-11593604D02*
X235532017Y-11593604D01*
X235532017Y-11593604D02*
X235408207Y-11531700D01*
X235408207Y-11531700D02*
X235346303Y-11469795D01*
D10*
D11*
X285965350Y-10293604D02*
X285717731Y-10293604D01*
X285717731Y-10293604D02*
X285593922Y-10355509D01*
X285593922Y-10355509D02*
X285532017Y-10417414D01*
X285532017Y-10417414D02*
X285408207Y-10603128D01*
X285408207Y-10603128D02*
X285346303Y-10850747D01*
X285346303Y-10850747D02*
X285346303Y-11345985D01*
X285346303Y-11345985D02*
X285408207Y-11469795D01*
X285408207Y-11469795D02*
X285470112Y-11531700D01*
X285470112Y-11531700D02*
X285593922Y-11593604D01*
X285593922Y-11593604D02*
X285841541Y-11593604D01*
X285841541Y-11593604D02*
X285965350Y-11531700D01*
X285965350Y-11531700D02*
X286027255Y-11469795D01*
X286027255Y-11469795D02*
X286089160Y-11345985D01*
X286089160Y-11345985D02*
X286089160Y-11036461D01*
X286089160Y-11036461D02*
X286027255Y-10912652D01*
X286027255Y-10912652D02*
X285965350Y-10850747D01*
X285965350Y-10850747D02*
X285841541Y-10788842D01*
X285841541Y-10788842D02*
X285593922Y-10788842D01*
X285593922Y-10788842D02*
X285470112Y-10850747D01*
X285470112Y-10850747D02*
X285408207Y-10912652D01*
X285408207Y-10912652D02*
X285346303Y-11036461D01*
D10*
D11*
X60000000Y-198007200D02*
X60000000Y-200007200D01*
D10*
D11*
X110000000Y-198007200D02*
X110000000Y-200007200D01*
D10*
D11*
X160000000Y-198007200D02*
X160000000Y-200007200D01*
D10*
D11*
X210000000Y-198007200D02*
X210000000Y-200007200D01*
D10*
D11*
X260000000Y-198007200D02*
X260000000Y-200007200D01*
D10*
D11*
X36089160Y-199600804D02*
X35346303Y-199600804D01*
X35717731Y-199600804D02*
X35717731Y-198300804D01*
X35717731Y-198300804D02*
X35593922Y-198486519D01*
X35593922Y-198486519D02*
X35470112Y-198610328D01*
X35470112Y-198610328D02*
X35346303Y-198672233D01*
D10*
D11*
X85346303Y-198424614D02*
X85408207Y-198362709D01*
X85408207Y-198362709D02*
X85532017Y-198300804D01*
X85532017Y-198300804D02*
X85841541Y-198300804D01*
X85841541Y-198300804D02*
X85965350Y-198362709D01*
X85965350Y-198362709D02*
X86027255Y-198424614D01*
X86027255Y-198424614D02*
X86089160Y-198548423D01*
X86089160Y-198548423D02*
X86089160Y-198672233D01*
X86089160Y-198672233D02*
X86027255Y-198857947D01*
X86027255Y-198857947D02*
X85284398Y-199600804D01*
X85284398Y-199600804D02*
X86089160Y-199600804D01*
D10*
D11*
X135284398Y-198300804D02*
X136089160Y-198300804D01*
X136089160Y-198300804D02*
X135655826Y-198796042D01*
X135655826Y-198796042D02*
X135841541Y-198796042D01*
X135841541Y-198796042D02*
X135965350Y-198857947D01*
X135965350Y-198857947D02*
X136027255Y-198919852D01*
X136027255Y-198919852D02*
X136089160Y-199043661D01*
X136089160Y-199043661D02*
X136089160Y-199353185D01*
X136089160Y-199353185D02*
X136027255Y-199476995D01*
X136027255Y-199476995D02*
X135965350Y-199538900D01*
X135965350Y-199538900D02*
X135841541Y-199600804D01*
X135841541Y-199600804D02*
X135470112Y-199600804D01*
X135470112Y-199600804D02*
X135346303Y-199538900D01*
X135346303Y-199538900D02*
X135284398Y-199476995D01*
D10*
D11*
X185965350Y-198734138D02*
X185965350Y-199600804D01*
X185655826Y-198238900D02*
X185346303Y-199167471D01*
X185346303Y-199167471D02*
X186151064Y-199167471D01*
D10*
D11*
X236027255Y-198300804D02*
X235408207Y-198300804D01*
X235408207Y-198300804D02*
X235346303Y-198919852D01*
X235346303Y-198919852D02*
X235408207Y-198857947D01*
X235408207Y-198857947D02*
X235532017Y-198796042D01*
X235532017Y-198796042D02*
X235841541Y-198796042D01*
X235841541Y-198796042D02*
X235965350Y-198857947D01*
X235965350Y-198857947D02*
X236027255Y-198919852D01*
X236027255Y-198919852D02*
X236089160Y-199043661D01*
X236089160Y-199043661D02*
X236089160Y-199353185D01*
X236089160Y-199353185D02*
X236027255Y-199476995D01*
X236027255Y-199476995D02*
X235965350Y-199538900D01*
X235965350Y-199538900D02*
X235841541Y-199600804D01*
X235841541Y-199600804D02*
X235532017Y-199600804D01*
X235532017Y-199600804D02*
X235408207Y-199538900D01*
X235408207Y-199538900D02*
X235346303Y-199476995D01*
D10*
D11*
X285965350Y-198300804D02*
X285717731Y-198300804D01*
X285717731Y-198300804D02*
X285593922Y-198362709D01*
X285593922Y-198362709D02*
X285532017Y-198424614D01*
X285532017Y-198424614D02*
X285408207Y-198610328D01*
X285408207Y-198610328D02*
X285346303Y-198857947D01*
X285346303Y-198857947D02*
X285346303Y-199353185D01*
X285346303Y-199353185D02*
X285408207Y-199476995D01*
X285408207Y-199476995D02*
X285470112Y-199538900D01*
X285470112Y-199538900D02*
X285593922Y-199600804D01*
X285593922Y-199600804D02*
X285841541Y-199600804D01*
X285841541Y-199600804D02*
X285965350Y-199538900D01*
X285965350Y-199538900D02*
X286027255Y-199476995D01*
X286027255Y-199476995D02*
X286089160Y-199353185D01*
X286089160Y-199353185D02*
X286089160Y-199043661D01*
X286089160Y-199043661D02*
X286027255Y-198919852D01*
X286027255Y-198919852D02*
X285965350Y-198857947D01*
X285965350Y-198857947D02*
X285841541Y-198796042D01*
X285841541Y-198796042D02*
X285593922Y-198796042D01*
X285593922Y-198796042D02*
X285470112Y-198857947D01*
X285470112Y-198857947D02*
X285408207Y-198919852D01*
X285408207Y-198919852D02*
X285346303Y-199043661D01*
D10*
D11*
X10000000Y-60000000D02*
X12000000Y-60000000D01*
D10*
D11*
X10000000Y-110000000D02*
X12000000Y-110000000D01*
D10*
D11*
X10000000Y-160000000D02*
X12000000Y-160000000D01*
D10*
D11*
X10690476Y-35222176D02*
X11309523Y-35222176D01*
X10566666Y-35593604D02*
X10999999Y-34293604D01*
X10999999Y-34293604D02*
X11433333Y-35593604D01*
D10*
D11*
X11092857Y-84912652D02*
X11278571Y-84974557D01*
X11278571Y-84974557D02*
X11340476Y-85036461D01*
X11340476Y-85036461D02*
X11402380Y-85160271D01*
X11402380Y-85160271D02*
X11402380Y-85345985D01*
X11402380Y-85345985D02*
X11340476Y-85469795D01*
X11340476Y-85469795D02*
X11278571Y-85531700D01*
X11278571Y-85531700D02*
X11154761Y-85593604D01*
X11154761Y-85593604D02*
X10659523Y-85593604D01*
X10659523Y-85593604D02*
X10659523Y-84293604D01*
X10659523Y-84293604D02*
X11092857Y-84293604D01*
X11092857Y-84293604D02*
X11216666Y-84355509D01*
X11216666Y-84355509D02*
X11278571Y-84417414D01*
X11278571Y-84417414D02*
X11340476Y-84541223D01*
X11340476Y-84541223D02*
X11340476Y-84665033D01*
X11340476Y-84665033D02*
X11278571Y-84788842D01*
X11278571Y-84788842D02*
X11216666Y-84850747D01*
X11216666Y-84850747D02*
X11092857Y-84912652D01*
X11092857Y-84912652D02*
X10659523Y-84912652D01*
D10*
D11*
X11402380Y-135469795D02*
X11340476Y-135531700D01*
X11340476Y-135531700D02*
X11154761Y-135593604D01*
X11154761Y-135593604D02*
X11030952Y-135593604D01*
X11030952Y-135593604D02*
X10845238Y-135531700D01*
X10845238Y-135531700D02*
X10721428Y-135407890D01*
X10721428Y-135407890D02*
X10659523Y-135284080D01*
X10659523Y-135284080D02*
X10597619Y-135036461D01*
X10597619Y-135036461D02*
X10597619Y-134850747D01*
X10597619Y-134850747D02*
X10659523Y-134603128D01*
X10659523Y-134603128D02*
X10721428Y-134479319D01*
X10721428Y-134479319D02*
X10845238Y-134355509D01*
X10845238Y-134355509D02*
X11030952Y-134293604D01*
X11030952Y-134293604D02*
X11154761Y-134293604D01*
X11154761Y-134293604D02*
X11340476Y-134355509D01*
X11340476Y-134355509D02*
X11402380Y-134417414D01*
D10*
D11*
X10659523Y-185593604D02*
X10659523Y-184293604D01*
X10659523Y-184293604D02*
X10969047Y-184293604D01*
X10969047Y-184293604D02*
X11154761Y-184355509D01*
X11154761Y-184355509D02*
X11278571Y-184479319D01*
X11278571Y-184479319D02*
X11340476Y-184603128D01*
X11340476Y-184603128D02*
X11402380Y-184850747D01*
X11402380Y-184850747D02*
X11402380Y-185036461D01*
X11402380Y-185036461D02*
X11340476Y-185284080D01*
X11340476Y-185284080D02*
X11278571Y-185407890D01*
X11278571Y-185407890D02*
X11154761Y-185531700D01*
X11154761Y-185531700D02*
X10969047Y-185593604D01*
X10969047Y-185593604D02*
X10659523Y-185593604D01*
D10*
D11*
X287002200Y-60000000D02*
X285002200Y-60000000D01*
D10*
D11*
X287002200Y-110000000D02*
X285002200Y-110000000D01*
D10*
D11*
X287002200Y-160000000D02*
X285002200Y-160000000D01*
D10*
D11*
X285692676Y-35222176D02*
X286311723Y-35222176D01*
X285568866Y-35593604D02*
X286002199Y-34293604D01*
X286002199Y-34293604D02*
X286435533Y-35593604D01*
D10*
D11*
X286095057Y-84912652D02*
X286280771Y-84974557D01*
X286280771Y-84974557D02*
X286342676Y-85036461D01*
X286342676Y-85036461D02*
X286404580Y-85160271D01*
X286404580Y-85160271D02*
X286404580Y-85345985D01*
X286404580Y-85345985D02*
X286342676Y-85469795D01*
X286342676Y-85469795D02*
X286280771Y-85531700D01*
X286280771Y-85531700D02*
X286156961Y-85593604D01*
X286156961Y-85593604D02*
X285661723Y-85593604D01*
X285661723Y-85593604D02*
X285661723Y-84293604D01*
X285661723Y-84293604D02*
X286095057Y-84293604D01*
X286095057Y-84293604D02*
X286218866Y-84355509D01*
X286218866Y-84355509D02*
X286280771Y-84417414D01*
X286280771Y-84417414D02*
X286342676Y-84541223D01*
X286342676Y-84541223D02*
X286342676Y-84665033D01*
X286342676Y-84665033D02*
X286280771Y-84788842D01*
X286280771Y-84788842D02*
X286218866Y-84850747D01*
X286218866Y-84850747D02*
X286095057Y-84912652D01*
X286095057Y-84912652D02*
X285661723Y-84912652D01*
D10*
D11*
X286404580Y-135469795D02*
X286342676Y-135531700D01*
X286342676Y-135531700D02*
X286156961Y-135593604D01*
X286156961Y-135593604D02*
X286033152Y-135593604D01*
X286033152Y-135593604D02*
X285847438Y-135531700D01*
X285847438Y-135531700D02*
X285723628Y-135407890D01*
X285723628Y-135407890D02*
X285661723Y-135284080D01*
X285661723Y-135284080D02*
X285599819Y-135036461D01*
X285599819Y-135036461D02*
X285599819Y-134850747D01*
X285599819Y-134850747D02*
X285661723Y-134603128D01*
X285661723Y-134603128D02*
X285723628Y-134479319D01*
X285723628Y-134479319D02*
X285847438Y-134355509D01*
X285847438Y-134355509D02*
X286033152Y-134293604D01*
X286033152Y-134293604D02*
X286156961Y-134293604D01*
X286156961Y-134293604D02*
X286342676Y-134355509D01*
X286342676Y-134355509D02*
X286404580Y-134417414D01*
D10*
D11*
X285661723Y-185593604D02*
X285661723Y-184293604D01*
X285661723Y-184293604D02*
X285971247Y-184293604D01*
X285971247Y-184293604D02*
X286156961Y-184355509D01*
X286156961Y-184355509D02*
X286280771Y-184479319D01*
X286280771Y-184479319D02*
X286342676Y-184603128D01*
X286342676Y-184603128D02*
X286404580Y-184850747D01*
X286404580Y-184850747D02*
X286404580Y-185036461D01*
X286404580Y-185036461D02*
X286342676Y-185284080D01*
X286342676Y-185284080D02*
X286280771Y-185407890D01*
X286280771Y-185407890D02*
X286156961Y-185531700D01*
X286156961Y-185531700D02*
X285971247Y-185593604D01*
X285971247Y-185593604D02*
X285661723Y-185593604D01*
D10*
D11*
X200458026Y-193793328D02*
X200458026Y-192293328D01*
X200458026Y-192293328D02*
X200815169Y-192293328D01*
X200815169Y-192293328D02*
X201029455Y-192364757D01*
X201029455Y-192364757D02*
X201172312Y-192507614D01*
X201172312Y-192507614D02*
X201243741Y-192650471D01*
X201243741Y-192650471D02*
X201315169Y-192936185D01*
X201315169Y-192936185D02*
X201315169Y-193150471D01*
X201315169Y-193150471D02*
X201243741Y-193436185D01*
X201243741Y-193436185D02*
X201172312Y-193579042D01*
X201172312Y-193579042D02*
X201029455Y-193721900D01*
X201029455Y-193721900D02*
X200815169Y-193793328D01*
X200815169Y-193793328D02*
X200458026Y-193793328D01*
X202600884Y-193793328D02*
X202600884Y-193007614D01*
X202600884Y-193007614D02*
X202529455Y-192864757D01*
X202529455Y-192864757D02*
X202386598Y-192793328D01*
X202386598Y-192793328D02*
X202100884Y-192793328D01*
X202100884Y-192793328D02*
X201958026Y-192864757D01*
X202600884Y-193721900D02*
X202458026Y-193793328D01*
X202458026Y-193793328D02*
X202100884Y-193793328D01*
X202100884Y-193793328D02*
X201958026Y-193721900D01*
X201958026Y-193721900D02*
X201886598Y-193579042D01*
X201886598Y-193579042D02*
X201886598Y-193436185D01*
X201886598Y-193436185D02*
X201958026Y-193293328D01*
X201958026Y-193293328D02*
X202100884Y-193221900D01*
X202100884Y-193221900D02*
X202458026Y-193221900D01*
X202458026Y-193221900D02*
X202600884Y-193150471D01*
X203100884Y-192793328D02*
X203672312Y-192793328D01*
X203315169Y-192293328D02*
X203315169Y-193579042D01*
X203315169Y-193579042D02*
X203386598Y-193721900D01*
X203386598Y-193721900D02*
X203529455Y-193793328D01*
X203529455Y-193793328D02*
X203672312Y-193793328D01*
X204743741Y-193721900D02*
X204600884Y-193793328D01*
X204600884Y-193793328D02*
X204315170Y-193793328D01*
X204315170Y-193793328D02*
X204172312Y-193721900D01*
X204172312Y-193721900D02*
X204100884Y-193579042D01*
X204100884Y-193579042D02*
X204100884Y-193007614D01*
X204100884Y-193007614D02*
X204172312Y-192864757D01*
X204172312Y-192864757D02*
X204315170Y-192793328D01*
X204315170Y-192793328D02*
X204600884Y-192793328D01*
X204600884Y-192793328D02*
X204743741Y-192864757D01*
X204743741Y-192864757D02*
X204815170Y-193007614D01*
X204815170Y-193007614D02*
X204815170Y-193150471D01*
X204815170Y-193150471D02*
X204100884Y-193293328D01*
X205458026Y-193650471D02*
X205529455Y-193721900D01*
X205529455Y-193721900D02*
X205458026Y-193793328D01*
X205458026Y-193793328D02*
X205386598Y-193721900D01*
X205386598Y-193721900D02*
X205458026Y-193650471D01*
X205458026Y-193650471D02*
X205458026Y-193793328D01*
X205458026Y-192864757D02*
X205529455Y-192936185D01*
X205529455Y-192936185D02*
X205458026Y-193007614D01*
X205458026Y-193007614D02*
X205386598Y-192936185D01*
X205386598Y-192936185D02*
X205458026Y-192864757D01*
X205458026Y-192864757D02*
X205458026Y-193007614D01*
D10*
D11*
X177002200Y-194507200D02*
X285002200Y-194507200D01*
D10*
D11*
X178458026Y-196593328D02*
X178458026Y-195093328D01*
X179315169Y-196593328D02*
X178672312Y-195736185D01*
X179315169Y-195093328D02*
X178458026Y-195950471D01*
X179958026Y-196593328D02*
X179958026Y-195593328D01*
X179958026Y-195093328D02*
X179886598Y-195164757D01*
X179886598Y-195164757D02*
X179958026Y-195236185D01*
X179958026Y-195236185D02*
X180029455Y-195164757D01*
X180029455Y-195164757D02*
X179958026Y-195093328D01*
X179958026Y-195093328D02*
X179958026Y-195236185D01*
X181529455Y-196450471D02*
X181458027Y-196521900D01*
X181458027Y-196521900D02*
X181243741Y-196593328D01*
X181243741Y-196593328D02*
X181100884Y-196593328D01*
X181100884Y-196593328D02*
X180886598Y-196521900D01*
X180886598Y-196521900D02*
X180743741Y-196379042D01*
X180743741Y-196379042D02*
X180672312Y-196236185D01*
X180672312Y-196236185D02*
X180600884Y-195950471D01*
X180600884Y-195950471D02*
X180600884Y-195736185D01*
X180600884Y-195736185D02*
X180672312Y-195450471D01*
X180672312Y-195450471D02*
X180743741Y-195307614D01*
X180743741Y-195307614D02*
X180886598Y-195164757D01*
X180886598Y-195164757D02*
X181100884Y-195093328D01*
X181100884Y-195093328D02*
X181243741Y-195093328D01*
X181243741Y-195093328D02*
X181458027Y-195164757D01*
X181458027Y-195164757D02*
X181529455Y-195236185D01*
X182815170Y-196593328D02*
X182815170Y-195807614D01*
X182815170Y-195807614D02*
X182743741Y-195664757D01*
X182743741Y-195664757D02*
X182600884Y-195593328D01*
X182600884Y-195593328D02*
X182315170Y-195593328D01*
X182315170Y-195593328D02*
X182172312Y-195664757D01*
X182815170Y-196521900D02*
X182672312Y-196593328D01*
X182672312Y-196593328D02*
X182315170Y-196593328D01*
X182315170Y-196593328D02*
X182172312Y-196521900D01*
X182172312Y-196521900D02*
X182100884Y-196379042D01*
X182100884Y-196379042D02*
X182100884Y-196236185D01*
X182100884Y-196236185D02*
X182172312Y-196093328D01*
X182172312Y-196093328D02*
X182315170Y-196021900D01*
X182315170Y-196021900D02*
X182672312Y-196021900D01*
X182672312Y-196021900D02*
X182815170Y-195950471D01*
X184172313Y-196593328D02*
X184172313Y-195093328D01*
X184172313Y-196521900D02*
X184029455Y-196593328D01*
X184029455Y-196593328D02*
X183743741Y-196593328D01*
X183743741Y-196593328D02*
X183600884Y-196521900D01*
X183600884Y-196521900D02*
X183529455Y-196450471D01*
X183529455Y-196450471D02*
X183458027Y-196307614D01*
X183458027Y-196307614D02*
X183458027Y-195879042D01*
X183458027Y-195879042D02*
X183529455Y-195736185D01*
X183529455Y-195736185D02*
X183600884Y-195664757D01*
X183600884Y-195664757D02*
X183743741Y-195593328D01*
X183743741Y-195593328D02*
X184029455Y-195593328D01*
X184029455Y-195593328D02*
X184172313Y-195664757D01*
X186029455Y-195807614D02*
X186529455Y-195807614D01*
X186743741Y-196593328D02*
X186029455Y-196593328D01*
X186029455Y-196593328D02*
X186029455Y-195093328D01*
X186029455Y-195093328D02*
X186743741Y-195093328D01*
X187386598Y-196450471D02*
X187458027Y-196521900D01*
X187458027Y-196521900D02*
X187386598Y-196593328D01*
X187386598Y-196593328D02*
X187315170Y-196521900D01*
X187315170Y-196521900D02*
X187386598Y-196450471D01*
X187386598Y-196450471D02*
X187386598Y-196593328D01*
X188100884Y-196593328D02*
X188100884Y-195093328D01*
X188100884Y-195093328D02*
X188458027Y-195093328D01*
X188458027Y-195093328D02*
X188672313Y-195164757D01*
X188672313Y-195164757D02*
X188815170Y-195307614D01*
X188815170Y-195307614D02*
X188886599Y-195450471D01*
X188886599Y-195450471D02*
X188958027Y-195736185D01*
X188958027Y-195736185D02*
X188958027Y-195950471D01*
X188958027Y-195950471D02*
X188886599Y-196236185D01*
X188886599Y-196236185D02*
X188815170Y-196379042D01*
X188815170Y-196379042D02*
X188672313Y-196521900D01*
X188672313Y-196521900D02*
X188458027Y-196593328D01*
X188458027Y-196593328D02*
X188100884Y-196593328D01*
X189600884Y-196450471D02*
X189672313Y-196521900D01*
X189672313Y-196521900D02*
X189600884Y-196593328D01*
X189600884Y-196593328D02*
X189529456Y-196521900D01*
X189529456Y-196521900D02*
X189600884Y-196450471D01*
X189600884Y-196450471D02*
X189600884Y-196593328D01*
X190243742Y-196164757D02*
X190958028Y-196164757D01*
X190100885Y-196593328D02*
X190600885Y-195093328D01*
X190600885Y-195093328D02*
X191100885Y-196593328D01*
X191600884Y-196450471D02*
X191672313Y-196521900D01*
X191672313Y-196521900D02*
X191600884Y-196593328D01*
X191600884Y-196593328D02*
X191529456Y-196521900D01*
X191529456Y-196521900D02*
X191600884Y-196450471D01*
X191600884Y-196450471D02*
X191600884Y-196593328D01*
X193529456Y-196593328D02*
X193815170Y-196593328D01*
X193815170Y-196593328D02*
X193958027Y-196521900D01*
X193958027Y-196521900D02*
X194029456Y-196450471D01*
X194029456Y-196450471D02*
X194172313Y-196236185D01*
X194172313Y-196236185D02*
X194243742Y-195950471D01*
X194243742Y-195950471D02*
X194243742Y-195379042D01*
X194243742Y-195379042D02*
X194172313Y-195236185D01*
X194172313Y-195236185D02*
X194100885Y-195164757D01*
X194100885Y-195164757D02*
X193958027Y-195093328D01*
X193958027Y-195093328D02*
X193672313Y-195093328D01*
X193672313Y-195093328D02*
X193529456Y-195164757D01*
X193529456Y-195164757D02*
X193458027Y-195236185D01*
X193458027Y-195236185D02*
X193386599Y-195379042D01*
X193386599Y-195379042D02*
X193386599Y-195736185D01*
X193386599Y-195736185D02*
X193458027Y-195879042D01*
X193458027Y-195879042D02*
X193529456Y-195950471D01*
X193529456Y-195950471D02*
X193672313Y-196021900D01*
X193672313Y-196021900D02*
X193958027Y-196021900D01*
X193958027Y-196021900D02*
X194100885Y-195950471D01*
X194100885Y-195950471D02*
X194172313Y-195879042D01*
X194172313Y-195879042D02*
X194243742Y-195736185D01*
X194886598Y-196450471D02*
X194958027Y-196521900D01*
X194958027Y-196521900D02*
X194886598Y-196593328D01*
X194886598Y-196593328D02*
X194815170Y-196521900D01*
X194815170Y-196521900D02*
X194886598Y-196450471D01*
X194886598Y-196450471D02*
X194886598Y-196593328D01*
X195886599Y-195093328D02*
X196029456Y-195093328D01*
X196029456Y-195093328D02*
X196172313Y-195164757D01*
X196172313Y-195164757D02*
X196243742Y-195236185D01*
X196243742Y-195236185D02*
X196315170Y-195379042D01*
X196315170Y-195379042D02*
X196386599Y-195664757D01*
X196386599Y-195664757D02*
X196386599Y-196021900D01*
X196386599Y-196021900D02*
X196315170Y-196307614D01*
X196315170Y-196307614D02*
X196243742Y-196450471D01*
X196243742Y-196450471D02*
X196172313Y-196521900D01*
X196172313Y-196521900D02*
X196029456Y-196593328D01*
X196029456Y-196593328D02*
X195886599Y-196593328D01*
X195886599Y-196593328D02*
X195743742Y-196521900D01*
X195743742Y-196521900D02*
X195672313Y-196450471D01*
X195672313Y-196450471D02*
X195600884Y-196307614D01*
X195600884Y-196307614D02*
X195529456Y-196021900D01*
X195529456Y-196021900D02*
X195529456Y-195664757D01*
X195529456Y-195664757D02*
X195600884Y-195379042D01*
X195600884Y-195379042D02*
X195672313Y-195236185D01*
X195672313Y-195236185D02*
X195743742Y-195164757D01*
X195743742Y-195164757D02*
X195886599Y-195093328D01*
X197029455Y-196450471D02*
X197100884Y-196521900D01*
X197100884Y-196521900D02*
X197029455Y-196593328D01*
X197029455Y-196593328D02*
X196958027Y-196521900D01*
X196958027Y-196521900D02*
X197029455Y-196450471D01*
X197029455Y-196450471D02*
X197029455Y-196593328D01*
X198029456Y-195093328D02*
X198172313Y-195093328D01*
X198172313Y-195093328D02*
X198315170Y-195164757D01*
X198315170Y-195164757D02*
X198386599Y-195236185D01*
X198386599Y-195236185D02*
X198458027Y-195379042D01*
X198458027Y-195379042D02*
X198529456Y-195664757D01*
X198529456Y-195664757D02*
X198529456Y-196021900D01*
X198529456Y-196021900D02*
X198458027Y-196307614D01*
X198458027Y-196307614D02*
X198386599Y-196450471D01*
X198386599Y-196450471D02*
X198315170Y-196521900D01*
X198315170Y-196521900D02*
X198172313Y-196593328D01*
X198172313Y-196593328D02*
X198029456Y-196593328D01*
X198029456Y-196593328D02*
X197886599Y-196521900D01*
X197886599Y-196521900D02*
X197815170Y-196450471D01*
X197815170Y-196450471D02*
X197743741Y-196307614D01*
X197743741Y-196307614D02*
X197672313Y-196021900D01*
X197672313Y-196021900D02*
X197672313Y-195664757D01*
X197672313Y-195664757D02*
X197743741Y-195379042D01*
X197743741Y-195379042D02*
X197815170Y-195236185D01*
X197815170Y-195236185D02*
X197886599Y-195164757D01*
X197886599Y-195164757D02*
X198029456Y-195093328D01*
D10*
D11*
X177002200Y-191507200D02*
X285002200Y-191507200D01*
D10*
D12*
X264413853Y-193785528D02*
X263913853Y-193071242D01*
X263556710Y-193785528D02*
X263556710Y-192285528D01*
X263556710Y-192285528D02*
X264128139Y-192285528D01*
X264128139Y-192285528D02*
X264270996Y-192356957D01*
X264270996Y-192356957D02*
X264342425Y-192428385D01*
X264342425Y-192428385D02*
X264413853Y-192571242D01*
X264413853Y-192571242D02*
X264413853Y-192785528D01*
X264413853Y-192785528D02*
X264342425Y-192928385D01*
X264342425Y-192928385D02*
X264270996Y-192999814D01*
X264270996Y-192999814D02*
X264128139Y-193071242D01*
X264128139Y-193071242D02*
X263556710Y-193071242D01*
X265628139Y-193714100D02*
X265485282Y-193785528D01*
X265485282Y-193785528D02*
X265199568Y-193785528D01*
X265199568Y-193785528D02*
X265056710Y-193714100D01*
X265056710Y-193714100D02*
X264985282Y-193571242D01*
X264985282Y-193571242D02*
X264985282Y-192999814D01*
X264985282Y-192999814D02*
X265056710Y-192856957D01*
X265056710Y-192856957D02*
X265199568Y-192785528D01*
X265199568Y-192785528D02*
X265485282Y-192785528D01*
X265485282Y-192785528D02*
X265628139Y-192856957D01*
X265628139Y-192856957D02*
X265699568Y-192999814D01*
X265699568Y-192999814D02*
X265699568Y-193142671D01*
X265699568Y-193142671D02*
X264985282Y-193285528D01*
X266199567Y-192785528D02*
X266556710Y-193785528D01*
X266556710Y-193785528D02*
X266913853Y-192785528D01*
X267485281Y-193642671D02*
X267556710Y-193714100D01*
X267556710Y-193714100D02*
X267485281Y-193785528D01*
X267485281Y-193785528D02*
X267413853Y-193714100D01*
X267413853Y-193714100D02*
X267485281Y-193642671D01*
X267485281Y-193642671D02*
X267485281Y-193785528D01*
X267485281Y-192856957D02*
X267556710Y-192928385D01*
X267556710Y-192928385D02*
X267485281Y-192999814D01*
X267485281Y-192999814D02*
X267413853Y-192928385D01*
X267413853Y-192928385D02*
X267485281Y-192856957D01*
X267485281Y-192856957D02*
X267485281Y-192999814D01*
D10*
D11*
X178386598Y-193721900D02*
X178600884Y-193793328D01*
X178600884Y-193793328D02*
X178958026Y-193793328D01*
X178958026Y-193793328D02*
X179100884Y-193721900D01*
X179100884Y-193721900D02*
X179172312Y-193650471D01*
X179172312Y-193650471D02*
X179243741Y-193507614D01*
X179243741Y-193507614D02*
X179243741Y-193364757D01*
X179243741Y-193364757D02*
X179172312Y-193221900D01*
X179172312Y-193221900D02*
X179100884Y-193150471D01*
X179100884Y-193150471D02*
X178958026Y-193079042D01*
X178958026Y-193079042D02*
X178672312Y-193007614D01*
X178672312Y-193007614D02*
X178529455Y-192936185D01*
X178529455Y-192936185D02*
X178458026Y-192864757D01*
X178458026Y-192864757D02*
X178386598Y-192721900D01*
X178386598Y-192721900D02*
X178386598Y-192579042D01*
X178386598Y-192579042D02*
X178458026Y-192436185D01*
X178458026Y-192436185D02*
X178529455Y-192364757D01*
X178529455Y-192364757D02*
X178672312Y-192293328D01*
X178672312Y-192293328D02*
X179029455Y-192293328D01*
X179029455Y-192293328D02*
X179243741Y-192364757D01*
X179886597Y-193793328D02*
X179886597Y-192793328D01*
X179886597Y-192293328D02*
X179815169Y-192364757D01*
X179815169Y-192364757D02*
X179886597Y-192436185D01*
X179886597Y-192436185D02*
X179958026Y-192364757D01*
X179958026Y-192364757D02*
X179886597Y-192293328D01*
X179886597Y-192293328D02*
X179886597Y-192436185D01*
X180458026Y-192793328D02*
X181243741Y-192793328D01*
X181243741Y-192793328D02*
X180458026Y-193793328D01*
X180458026Y-193793328D02*
X181243741Y-193793328D01*
X182386598Y-193721900D02*
X182243741Y-193793328D01*
X182243741Y-193793328D02*
X181958027Y-193793328D01*
X181958027Y-193793328D02*
X181815169Y-193721900D01*
X181815169Y-193721900D02*
X181743741Y-193579042D01*
X181743741Y-193579042D02*
X181743741Y-193007614D01*
X181743741Y-193007614D02*
X181815169Y-192864757D01*
X181815169Y-192864757D02*
X181958027Y-192793328D01*
X181958027Y-192793328D02*
X182243741Y-192793328D01*
X182243741Y-192793328D02*
X182386598Y-192864757D01*
X182386598Y-192864757D02*
X182458027Y-193007614D01*
X182458027Y-193007614D02*
X182458027Y-193150471D01*
X182458027Y-193150471D02*
X181743741Y-193293328D01*
X183100883Y-193650471D02*
X183172312Y-193721900D01*
X183172312Y-193721900D02*
X183100883Y-193793328D01*
X183100883Y-193793328D02*
X183029455Y-193721900D01*
X183029455Y-193721900D02*
X183100883Y-193650471D01*
X183100883Y-193650471D02*
X183100883Y-193793328D01*
X183100883Y-192864757D02*
X183172312Y-192936185D01*
X183172312Y-192936185D02*
X183100883Y-193007614D01*
X183100883Y-193007614D02*
X183029455Y-192936185D01*
X183029455Y-192936185D02*
X183100883Y-192864757D01*
X183100883Y-192864757D02*
X183100883Y-193007614D01*
X184886598Y-193364757D02*
X185600884Y-193364757D01*
X184743741Y-193793328D02*
X185243741Y-192293328D01*
X185243741Y-192293328D02*
X185743741Y-193793328D01*
X186886598Y-192793328D02*
X186886598Y-193793328D01*
X186529455Y-192221900D02*
X186172312Y-193293328D01*
X186172312Y-193293328D02*
X187100883Y-193293328D01*
D10*
D11*
X263458026Y-196593328D02*
X263458026Y-195093328D01*
X264815170Y-196593328D02*
X264815170Y-195093328D01*
X264815170Y-196521900D02*
X264672312Y-196593328D01*
X264672312Y-196593328D02*
X264386598Y-196593328D01*
X264386598Y-196593328D02*
X264243741Y-196521900D01*
X264243741Y-196521900D02*
X264172312Y-196450471D01*
X264172312Y-196450471D02*
X264100884Y-196307614D01*
X264100884Y-196307614D02*
X264100884Y-195879042D01*
X264100884Y-195879042D02*
X264172312Y-195736185D01*
X264172312Y-195736185D02*
X264243741Y-195664757D01*
X264243741Y-195664757D02*
X264386598Y-195593328D01*
X264386598Y-195593328D02*
X264672312Y-195593328D01*
X264672312Y-195593328D02*
X264815170Y-195664757D01*
X265529455Y-196450471D02*
X265600884Y-196521900D01*
X265600884Y-196521900D02*
X265529455Y-196593328D01*
X265529455Y-196593328D02*
X265458027Y-196521900D01*
X265458027Y-196521900D02*
X265529455Y-196450471D01*
X265529455Y-196450471D02*
X265529455Y-196593328D01*
X265529455Y-195664757D02*
X265600884Y-195736185D01*
X265600884Y-195736185D02*
X265529455Y-195807614D01*
X265529455Y-195807614D02*
X265458027Y-195736185D01*
X265458027Y-195736185D02*
X265529455Y-195664757D01*
X265529455Y-195664757D02*
X265529455Y-195807614D01*
X268172313Y-196593328D02*
X267315170Y-196593328D01*
X267743741Y-196593328D02*
X267743741Y-195093328D01*
X267743741Y-195093328D02*
X267600884Y-195307614D01*
X267600884Y-195307614D02*
X267458027Y-195450471D01*
X267458027Y-195450471D02*
X267315170Y-195521900D01*
X269886598Y-195021900D02*
X268600884Y-196950471D01*
X271172313Y-196593328D02*
X270315170Y-196593328D01*
X270743741Y-196593328D02*
X270743741Y-195093328D01*
X270743741Y-195093328D02*
X270600884Y-195307614D01*
X270600884Y-195307614D02*
X270458027Y-195450471D01*
X270458027Y-195450471D02*
X270315170Y-195521900D01*
X272600884Y-196593328D02*
X271743741Y-196593328D01*
X272172312Y-196593328D02*
X272172312Y-195093328D01*
X272172312Y-195093328D02*
X272029455Y-195307614D01*
X272029455Y-195307614D02*
X271886598Y-195450471D01*
X271886598Y-195450471D02*
X271743741Y-195521900D01*
D10*
D11*
X177002200Y-187507200D02*
X285002200Y-187507200D01*
D10*
D13*
X178693928Y-188211638D02*
X179836785Y-188211638D01*
X179015357Y-190211638D02*
X179265357Y-188211638D01*
X180253452Y-190211638D02*
X180420119Y-188878304D01*
X180503452Y-188211638D02*
X180396309Y-188306876D01*
X180396309Y-188306876D02*
X180479643Y-188402114D01*
X180479643Y-188402114D02*
X180586786Y-188306876D01*
X180586786Y-188306876D02*
X180503452Y-188211638D01*
X180503452Y-188211638D02*
X180479643Y-188402114D01*
X181086786Y-188878304D02*
X181848690Y-188878304D01*
X181455833Y-188211638D02*
X181241548Y-189925923D01*
X181241548Y-189925923D02*
X181312976Y-190116400D01*
X181312976Y-190116400D02*
X181491548Y-190211638D01*
X181491548Y-190211638D02*
X181682024Y-190211638D01*
X182634405Y-190211638D02*
X182455833Y-190116400D01*
X182455833Y-190116400D02*
X182384405Y-189925923D01*
X182384405Y-189925923D02*
X182598690Y-188211638D01*
X184170119Y-190116400D02*
X183967738Y-190211638D01*
X183967738Y-190211638D02*
X183586785Y-190211638D01*
X183586785Y-190211638D02*
X183408214Y-190116400D01*
X183408214Y-190116400D02*
X183336785Y-189925923D01*
X183336785Y-189925923D02*
X183432024Y-189164019D01*
X183432024Y-189164019D02*
X183551071Y-188973542D01*
X183551071Y-188973542D02*
X183753452Y-188878304D01*
X183753452Y-188878304D02*
X184134404Y-188878304D01*
X184134404Y-188878304D02*
X184312976Y-188973542D01*
X184312976Y-188973542D02*
X184384404Y-189164019D01*
X184384404Y-189164019D02*
X184360595Y-189354495D01*
X184360595Y-189354495D02*
X183384404Y-189544971D01*
X185134405Y-190021161D02*
X185217738Y-190116400D01*
X185217738Y-190116400D02*
X185110595Y-190211638D01*
X185110595Y-190211638D02*
X185027262Y-190116400D01*
X185027262Y-190116400D02*
X185134405Y-190021161D01*
X185134405Y-190021161D02*
X185110595Y-190211638D01*
X185265357Y-188973542D02*
X185348690Y-189068780D01*
X185348690Y-189068780D02*
X185241548Y-189164019D01*
X185241548Y-189164019D02*
X185158214Y-189068780D01*
X185158214Y-189068780D02*
X185265357Y-188973542D01*
X185265357Y-188973542D02*
X185241548Y-189164019D01*
D10*
D11*
X178958026Y-185607614D02*
X178458026Y-185607614D01*
X178458026Y-186393328D02*
X178458026Y-184893328D01*
X178458026Y-184893328D02*
X179172312Y-184893328D01*
X179743740Y-186393328D02*
X179743740Y-185393328D01*
X179743740Y-184893328D02*
X179672312Y-184964757D01*
X179672312Y-184964757D02*
X179743740Y-185036185D01*
X179743740Y-185036185D02*
X179815169Y-184964757D01*
X179815169Y-184964757D02*
X179743740Y-184893328D01*
X179743740Y-184893328D02*
X179743740Y-185036185D01*
X180672312Y-186393328D02*
X180529455Y-186321900D01*
X180529455Y-186321900D02*
X180458026Y-186179042D01*
X180458026Y-186179042D02*
X180458026Y-184893328D01*
X181815169Y-186321900D02*
X181672312Y-186393328D01*
X181672312Y-186393328D02*
X181386598Y-186393328D01*
X181386598Y-186393328D02*
X181243740Y-186321900D01*
X181243740Y-186321900D02*
X181172312Y-186179042D01*
X181172312Y-186179042D02*
X181172312Y-185607614D01*
X181172312Y-185607614D02*
X181243740Y-185464757D01*
X181243740Y-185464757D02*
X181386598Y-185393328D01*
X181386598Y-185393328D02*
X181672312Y-185393328D01*
X181672312Y-185393328D02*
X181815169Y-185464757D01*
X181815169Y-185464757D02*
X181886598Y-185607614D01*
X181886598Y-185607614D02*
X181886598Y-185750471D01*
X181886598Y-185750471D02*
X181172312Y-185893328D01*
X182529454Y-186250471D02*
X182600883Y-186321900D01*
X182600883Y-186321900D02*
X182529454Y-186393328D01*
X182529454Y-186393328D02*
X182458026Y-186321900D01*
X182458026Y-186321900D02*
X182529454Y-186250471D01*
X182529454Y-186250471D02*
X182529454Y-186393328D01*
X182529454Y-185464757D02*
X182600883Y-185536185D01*
X182600883Y-185536185D02*
X182529454Y-185607614D01*
X182529454Y-185607614D02*
X182458026Y-185536185D01*
X182458026Y-185536185D02*
X182529454Y-185464757D01*
X182529454Y-185464757D02*
X182529454Y-185607614D01*
X185029455Y-186393328D02*
X185029455Y-184893328D01*
X185029455Y-186321900D02*
X184886597Y-186393328D01*
X184886597Y-186393328D02*
X184600883Y-186393328D01*
X184600883Y-186393328D02*
X184458026Y-186321900D01*
X184458026Y-186321900D02*
X184386597Y-186250471D01*
X184386597Y-186250471D02*
X184315169Y-186107614D01*
X184315169Y-186107614D02*
X184315169Y-185679042D01*
X184315169Y-185679042D02*
X184386597Y-185536185D01*
X184386597Y-185536185D02*
X184458026Y-185464757D01*
X184458026Y-185464757D02*
X184600883Y-185393328D01*
X184600883Y-185393328D02*
X184886597Y-185393328D01*
X184886597Y-185393328D02*
X185029455Y-185464757D01*
X185743740Y-186393328D02*
X185743740Y-185393328D01*
X185743740Y-185679042D02*
X185815169Y-185536185D01*
X185815169Y-185536185D02*
X185886598Y-185464757D01*
X185886598Y-185464757D02*
X186029455Y-185393328D01*
X186029455Y-185393328D02*
X186172312Y-185393328D01*
X186886597Y-186393328D02*
X186743740Y-186321900D01*
X186743740Y-186321900D02*
X186672311Y-186250471D01*
X186672311Y-186250471D02*
X186600883Y-186107614D01*
X186600883Y-186107614D02*
X186600883Y-185679042D01*
X186600883Y-185679042D02*
X186672311Y-185536185D01*
X186672311Y-185536185D02*
X186743740Y-185464757D01*
X186743740Y-185464757D02*
X186886597Y-185393328D01*
X186886597Y-185393328D02*
X187100883Y-185393328D01*
X187100883Y-185393328D02*
X187243740Y-185464757D01*
X187243740Y-185464757D02*
X187315169Y-185536185D01*
X187315169Y-185536185D02*
X187386597Y-185679042D01*
X187386597Y-185679042D02*
X187386597Y-186107614D01*
X187386597Y-186107614D02*
X187315169Y-186250471D01*
X187315169Y-186250471D02*
X187243740Y-186321900D01*
X187243740Y-186321900D02*
X187100883Y-186393328D01*
X187100883Y-186393328D02*
X186886597Y-186393328D01*
X188029454Y-185393328D02*
X188029454Y-186393328D01*
X188029454Y-185536185D02*
X188100883Y-185464757D01*
X188100883Y-185464757D02*
X188243740Y-185393328D01*
X188243740Y-185393328D02*
X188458026Y-185393328D01*
X188458026Y-185393328D02*
X188600883Y-185464757D01*
X188600883Y-185464757D02*
X188672312Y-185607614D01*
X188672312Y-185607614D02*
X188672312Y-186393328D01*
X189958026Y-186321900D02*
X189815169Y-186393328D01*
X189815169Y-186393328D02*
X189529455Y-186393328D01*
X189529455Y-186393328D02*
X189386597Y-186321900D01*
X189386597Y-186321900D02*
X189315169Y-186179042D01*
X189315169Y-186179042D02*
X189315169Y-185607614D01*
X189315169Y-185607614D02*
X189386597Y-185464757D01*
X189386597Y-185464757D02*
X189529455Y-185393328D01*
X189529455Y-185393328D02*
X189815169Y-185393328D01*
X189815169Y-185393328D02*
X189958026Y-185464757D01*
X189958026Y-185464757D02*
X190029455Y-185607614D01*
X190029455Y-185607614D02*
X190029455Y-185750471D01*
X190029455Y-185750471D02*
X189315169Y-185893328D01*
X191315169Y-186393328D02*
X191315169Y-184893328D01*
X191315169Y-186321900D02*
X191172311Y-186393328D01*
X191172311Y-186393328D02*
X190886597Y-186393328D01*
X190886597Y-186393328D02*
X190743740Y-186321900D01*
X190743740Y-186321900D02*
X190672311Y-186250471D01*
X190672311Y-186250471D02*
X190600883Y-186107614D01*
X190600883Y-186107614D02*
X190600883Y-185679042D01*
X190600883Y-185679042D02*
X190672311Y-185536185D01*
X190672311Y-185536185D02*
X190743740Y-185464757D01*
X190743740Y-185464757D02*
X190886597Y-185393328D01*
X190886597Y-185393328D02*
X191172311Y-185393328D01*
X191172311Y-185393328D02*
X191315169Y-185464757D01*
X192029454Y-186393328D02*
X192029454Y-185393328D01*
X192029454Y-185679042D02*
X192100883Y-185536185D01*
X192100883Y-185536185D02*
X192172312Y-185464757D01*
X192172312Y-185464757D02*
X192315169Y-185393328D01*
X192315169Y-185393328D02*
X192458026Y-185393328D01*
X192958025Y-186393328D02*
X192958025Y-185393328D01*
X192958025Y-184893328D02*
X192886597Y-184964757D01*
X192886597Y-184964757D02*
X192958025Y-185036185D01*
X192958025Y-185036185D02*
X193029454Y-184964757D01*
X193029454Y-184964757D02*
X192958025Y-184893328D01*
X192958025Y-184893328D02*
X192958025Y-185036185D01*
X193529454Y-185393328D02*
X193886597Y-186393328D01*
X193886597Y-186393328D02*
X194243740Y-185393328D01*
X195386597Y-186321900D02*
X195243740Y-186393328D01*
X195243740Y-186393328D02*
X194958026Y-186393328D01*
X194958026Y-186393328D02*
X194815168Y-186321900D01*
X194815168Y-186321900D02*
X194743740Y-186179042D01*
X194743740Y-186179042D02*
X194743740Y-185607614D01*
X194743740Y-185607614D02*
X194815168Y-185464757D01*
X194815168Y-185464757D02*
X194958026Y-185393328D01*
X194958026Y-185393328D02*
X195243740Y-185393328D01*
X195243740Y-185393328D02*
X195386597Y-185464757D01*
X195386597Y-185464757D02*
X195458026Y-185607614D01*
X195458026Y-185607614D02*
X195458026Y-185750471D01*
X195458026Y-185750471D02*
X194743740Y-185893328D01*
X196100882Y-186393328D02*
X196100882Y-185393328D01*
X196100882Y-185679042D02*
X196172311Y-185536185D01*
X196172311Y-185536185D02*
X196243740Y-185464757D01*
X196243740Y-185464757D02*
X196386597Y-185393328D01*
X196386597Y-185393328D02*
X196529454Y-185393328D01*
X196958025Y-186321900D02*
X197100882Y-186393328D01*
X197100882Y-186393328D02*
X197386596Y-186393328D01*
X197386596Y-186393328D02*
X197529453Y-186321900D01*
X197529453Y-186321900D02*
X197600882Y-186179042D01*
X197600882Y-186179042D02*
X197600882Y-186107614D01*
X197600882Y-186107614D02*
X197529453Y-185964757D01*
X197529453Y-185964757D02*
X197386596Y-185893328D01*
X197386596Y-185893328D02*
X197172311Y-185893328D01*
X197172311Y-185893328D02*
X197029453Y-185821900D01*
X197029453Y-185821900D02*
X196958025Y-185679042D01*
X196958025Y-185679042D02*
X196958025Y-185607614D01*
X196958025Y-185607614D02*
X197029453Y-185464757D01*
X197029453Y-185464757D02*
X197172311Y-185393328D01*
X197172311Y-185393328D02*
X197386596Y-185393328D01*
X197386596Y-185393328D02*
X197529453Y-185464757D01*
X198243739Y-186250471D02*
X198315168Y-186321900D01*
X198315168Y-186321900D02*
X198243739Y-186393328D01*
X198243739Y-186393328D02*
X198172311Y-186321900D01*
X198172311Y-186321900D02*
X198243739Y-186250471D01*
X198243739Y-186250471D02*
X198243739Y-186393328D01*
X198958025Y-186393328D02*
X198958025Y-184893328D01*
X199100883Y-185821900D02*
X199529454Y-186393328D01*
X199529454Y-185393328D02*
X198958025Y-185964757D01*
X200172311Y-186393328D02*
X200172311Y-185393328D01*
X200172311Y-184893328D02*
X200100883Y-184964757D01*
X200100883Y-184964757D02*
X200172311Y-185036185D01*
X200172311Y-185036185D02*
X200243740Y-184964757D01*
X200243740Y-184964757D02*
X200172311Y-184893328D01*
X200172311Y-184893328D02*
X200172311Y-185036185D01*
X201529455Y-186321900D02*
X201386597Y-186393328D01*
X201386597Y-186393328D02*
X201100883Y-186393328D01*
X201100883Y-186393328D02*
X200958026Y-186321900D01*
X200958026Y-186321900D02*
X200886597Y-186250471D01*
X200886597Y-186250471D02*
X200815169Y-186107614D01*
X200815169Y-186107614D02*
X200815169Y-185679042D01*
X200815169Y-185679042D02*
X200886597Y-185536185D01*
X200886597Y-185536185D02*
X200958026Y-185464757D01*
X200958026Y-185464757D02*
X201100883Y-185393328D01*
X201100883Y-185393328D02*
X201386597Y-185393328D01*
X201386597Y-185393328D02*
X201529455Y-185464757D01*
X202815169Y-186393328D02*
X202815169Y-185607614D01*
X202815169Y-185607614D02*
X202743740Y-185464757D01*
X202743740Y-185464757D02*
X202600883Y-185393328D01*
X202600883Y-185393328D02*
X202315169Y-185393328D01*
X202315169Y-185393328D02*
X202172311Y-185464757D01*
X202815169Y-186321900D02*
X202672311Y-186393328D01*
X202672311Y-186393328D02*
X202315169Y-186393328D01*
X202315169Y-186393328D02*
X202172311Y-186321900D01*
X202172311Y-186321900D02*
X202100883Y-186179042D01*
X202100883Y-186179042D02*
X202100883Y-186036185D01*
X202100883Y-186036185D02*
X202172311Y-185893328D01*
X202172311Y-185893328D02*
X202315169Y-185821900D01*
X202315169Y-185821900D02*
X202672311Y-185821900D01*
X202672311Y-185821900D02*
X202815169Y-185750471D01*
X204172312Y-186393328D02*
X204172312Y-184893328D01*
X204172312Y-186321900D02*
X204029454Y-186393328D01*
X204029454Y-186393328D02*
X203743740Y-186393328D01*
X203743740Y-186393328D02*
X203600883Y-186321900D01*
X203600883Y-186321900D02*
X203529454Y-186250471D01*
X203529454Y-186250471D02*
X203458026Y-186107614D01*
X203458026Y-186107614D02*
X203458026Y-185679042D01*
X203458026Y-185679042D02*
X203529454Y-185536185D01*
X203529454Y-185536185D02*
X203600883Y-185464757D01*
X203600883Y-185464757D02*
X203743740Y-185393328D01*
X203743740Y-185393328D02*
X204029454Y-185393328D01*
X204029454Y-185393328D02*
X204172312Y-185464757D01*
X204529455Y-186536185D02*
X205672312Y-186536185D01*
X206029454Y-185393328D02*
X206029454Y-186893328D01*
X206029454Y-185464757D02*
X206172312Y-185393328D01*
X206172312Y-185393328D02*
X206458026Y-185393328D01*
X206458026Y-185393328D02*
X206600883Y-185464757D01*
X206600883Y-185464757D02*
X206672312Y-185536185D01*
X206672312Y-185536185D02*
X206743740Y-185679042D01*
X206743740Y-185679042D02*
X206743740Y-186107614D01*
X206743740Y-186107614D02*
X206672312Y-186250471D01*
X206672312Y-186250471D02*
X206600883Y-186321900D01*
X206600883Y-186321900D02*
X206458026Y-186393328D01*
X206458026Y-186393328D02*
X206172312Y-186393328D01*
X206172312Y-186393328D02*
X206029454Y-186321900D01*
X208029455Y-186321900D02*
X207886597Y-186393328D01*
X207886597Y-186393328D02*
X207600883Y-186393328D01*
X207600883Y-186393328D02*
X207458026Y-186321900D01*
X207458026Y-186321900D02*
X207386597Y-186250471D01*
X207386597Y-186250471D02*
X207315169Y-186107614D01*
X207315169Y-186107614D02*
X207315169Y-185679042D01*
X207315169Y-185679042D02*
X207386597Y-185536185D01*
X207386597Y-185536185D02*
X207458026Y-185464757D01*
X207458026Y-185464757D02*
X207600883Y-185393328D01*
X207600883Y-185393328D02*
X207886597Y-185393328D01*
X207886597Y-185393328D02*
X208029455Y-185464757D01*
X208672311Y-186393328D02*
X208672311Y-184893328D01*
X208672311Y-185464757D02*
X208815169Y-185393328D01*
X208815169Y-185393328D02*
X209100883Y-185393328D01*
X209100883Y-185393328D02*
X209243740Y-185464757D01*
X209243740Y-185464757D02*
X209315169Y-185536185D01*
X209315169Y-185536185D02*
X209386597Y-185679042D01*
X209386597Y-185679042D02*
X209386597Y-186107614D01*
X209386597Y-186107614D02*
X209315169Y-186250471D01*
X209315169Y-186250471D02*
X209243740Y-186321900D01*
X209243740Y-186321900D02*
X209100883Y-186393328D01*
X209100883Y-186393328D02*
X208815169Y-186393328D01*
X208815169Y-186393328D02*
X208672311Y-186321900D01*
D10*
D11*
X177002200Y-181507200D02*
X285002200Y-181507200D01*
D10*
D11*
X178386598Y-183621900D02*
X178600884Y-183693328D01*
X178600884Y-183693328D02*
X178958026Y-183693328D01*
X178958026Y-183693328D02*
X179100884Y-183621900D01*
X179100884Y-183621900D02*
X179172312Y-183550471D01*
X179172312Y-183550471D02*
X179243741Y-183407614D01*
X179243741Y-183407614D02*
X179243741Y-183264757D01*
X179243741Y-183264757D02*
X179172312Y-183121900D01*
X179172312Y-183121900D02*
X179100884Y-183050471D01*
X179100884Y-183050471D02*
X178958026Y-182979042D01*
X178958026Y-182979042D02*
X178672312Y-182907614D01*
X178672312Y-182907614D02*
X178529455Y-182836185D01*
X178529455Y-182836185D02*
X178458026Y-182764757D01*
X178458026Y-182764757D02*
X178386598Y-182621900D01*
X178386598Y-182621900D02*
X178386598Y-182479042D01*
X178386598Y-182479042D02*
X178458026Y-182336185D01*
X178458026Y-182336185D02*
X178529455Y-182264757D01*
X178529455Y-182264757D02*
X178672312Y-182193328D01*
X178672312Y-182193328D02*
X179029455Y-182193328D01*
X179029455Y-182193328D02*
X179243741Y-182264757D01*
X179886597Y-183693328D02*
X179886597Y-182193328D01*
X180529455Y-183693328D02*
X180529455Y-182907614D01*
X180529455Y-182907614D02*
X180458026Y-182764757D01*
X180458026Y-182764757D02*
X180315169Y-182693328D01*
X180315169Y-182693328D02*
X180100883Y-182693328D01*
X180100883Y-182693328D02*
X179958026Y-182764757D01*
X179958026Y-182764757D02*
X179886597Y-182836185D01*
X181815169Y-183621900D02*
X181672312Y-183693328D01*
X181672312Y-183693328D02*
X181386598Y-183693328D01*
X181386598Y-183693328D02*
X181243740Y-183621900D01*
X181243740Y-183621900D02*
X181172312Y-183479042D01*
X181172312Y-183479042D02*
X181172312Y-182907614D01*
X181172312Y-182907614D02*
X181243740Y-182764757D01*
X181243740Y-182764757D02*
X181386598Y-182693328D01*
X181386598Y-182693328D02*
X181672312Y-182693328D01*
X181672312Y-182693328D02*
X181815169Y-182764757D01*
X181815169Y-182764757D02*
X181886598Y-182907614D01*
X181886598Y-182907614D02*
X181886598Y-183050471D01*
X181886598Y-183050471D02*
X181172312Y-183193328D01*
X183100883Y-183621900D02*
X182958026Y-183693328D01*
X182958026Y-183693328D02*
X182672312Y-183693328D01*
X182672312Y-183693328D02*
X182529454Y-183621900D01*
X182529454Y-183621900D02*
X182458026Y-183479042D01*
X182458026Y-183479042D02*
X182458026Y-182907614D01*
X182458026Y-182907614D02*
X182529454Y-182764757D01*
X182529454Y-182764757D02*
X182672312Y-182693328D01*
X182672312Y-182693328D02*
X182958026Y-182693328D01*
X182958026Y-182693328D02*
X183100883Y-182764757D01*
X183100883Y-182764757D02*
X183172312Y-182907614D01*
X183172312Y-182907614D02*
X183172312Y-183050471D01*
X183172312Y-183050471D02*
X182458026Y-183193328D01*
X183600883Y-182693328D02*
X184172311Y-182693328D01*
X183815168Y-182193328D02*
X183815168Y-183479042D01*
X183815168Y-183479042D02*
X183886597Y-183621900D01*
X183886597Y-183621900D02*
X184029454Y-183693328D01*
X184029454Y-183693328D02*
X184172311Y-183693328D01*
X184672311Y-183550471D02*
X184743740Y-183621900D01*
X184743740Y-183621900D02*
X184672311Y-183693328D01*
X184672311Y-183693328D02*
X184600883Y-183621900D01*
X184600883Y-183621900D02*
X184672311Y-183550471D01*
X184672311Y-183550471D02*
X184672311Y-183693328D01*
X184672311Y-182764757D02*
X184743740Y-182836185D01*
X184743740Y-182836185D02*
X184672311Y-182907614D01*
X184672311Y-182907614D02*
X184600883Y-182836185D01*
X184600883Y-182836185D02*
X184672311Y-182764757D01*
X184672311Y-182764757D02*
X184672311Y-182907614D01*
D10*
D11*
X197002200Y-191507200D02*
X197002200Y-194507200D01*
D10*
D11*
X261002200Y-191507200D02*
X261002200Y-198007200D01*
D14*
%TO.P,D2,2,A*%
%TO.N,Net-(D2-A)*%
X127750000Y-100000000D03*
%TO.P,D2,1,K*%
%TO.N,VIN*%
X127750000Y-96000000D03*
%TD*%
D15*
%TO.P,U6,1,GND*%
%TO.N,GND*%
X131450000Y-99150000D03*
%TO.P,U6,2,VO*%
%TO.N,+3.3V*%
X133750000Y-99150000D03*
D16*
X133750000Y-92850000D03*
D15*
%TO.P,U6,3,VI*%
%TO.N,VIN*%
X136050000Y-99150000D03*
%TD*%
D17*
%TO.P,R3,2*%
%TO.N,IO0*%
X153500000Y-101425000D03*
%TO.P,R3,1*%
%TO.N,+3.3V*%
X155325000Y-101425000D03*
%TD*%
D18*
%TO.P,R8,2*%
%TO.N,GND*%
X151500000Y-101662500D03*
%TO.P,R8,1*%
%TO.N,Net-(J9-CC2)*%
X151500000Y-99837500D03*
%TD*%
D19*
%TO.P,SW2,1,1*%
%TO.N,GND*%
X151800000Y-104975000D03*
%TO.P,SW2,2,2*%
%TO.N,IO0*%
X155200000Y-104975000D03*
%TD*%
D18*
%TO.P,R7,2*%
%TO.N,GND*%
X138500000Y-101662500D03*
%TO.P,R7,1*%
%TO.N,Net-(J9-CC1)*%
X138500000Y-99837500D03*
%TD*%
D19*
%TO.P,SW1,1,1*%
%TO.N,GND*%
X138200000Y-104975000D03*
%TO.P,SW1,2,2*%
%TO.N,EN*%
X134800000Y-104975000D03*
%TD*%
D20*
%TO.P,D5,1,K*%
%TO.N,+BATT*%
X162274964Y-69750000D03*
%TO.P,D5,2,A*%
%TO.N,Net-(D5-A)*%
X158974964Y-69750000D03*
%TD*%
D21*
%TO.P,C8,2*%
%TO.N,GND*%
X133200000Y-103750000D03*
%TO.P,C8,1*%
%TO.N,VIN*%
X131300000Y-103750000D03*
%TD*%
%TO.P,C13,2*%
%TO.N,GND*%
X133200000Y-105750000D03*
%TO.P,C13,1*%
%TO.N,+3.3V*%
X131300000Y-105750000D03*
%TD*%
D22*
%TO.P,U1,1,GND*%
%TO.N,GND*%
X136250000Y-58930000D03*
%TO.P,U1,2,3V3*%
%TO.N,+3.3V*%
X136250000Y-60200000D03*
%TO.P,U1,3,EN*%
%TO.N,EN*%
X136250000Y-61470000D03*
%TO.P,U1,4,IO4*%
%TO.N,unconnected-(U1-IO4-Pad4)*%
X136250000Y-62740000D03*
%TO.P,U1,5,IO5*%
%TO.N,unconnected-(U1-IO5-Pad5)*%
X136250000Y-64010000D03*
%TO.P,U1,6,IO6*%
%TO.N,unconnected-(U1-IO6-Pad6)*%
X136250000Y-65280000D03*
%TO.P,U1,7,IO7*%
%TO.N,unconnected-(U1-IO7-Pad7)*%
X136250000Y-66550000D03*
%TO.P,U1,8,IO15*%
%TO.N,unconnected-(U1-IO15-Pad8)*%
X136250000Y-67820000D03*
%TO.P,U1,9,IO16*%
%TO.N,IO1*%
X136250000Y-69090000D03*
%TO.P,U1,10,IO17*%
%TO.N,unconnected-(U1-IO17-Pad10)*%
X136250000Y-70360000D03*
%TO.P,U1,11,IO18*%
%TO.N,unconnected-(U1-IO18-Pad11)*%
X136250000Y-71630000D03*
%TO.P,U1,12,IO8*%
%TO.N,unconnected-(U1-IO8-Pad12)*%
X136250000Y-72900000D03*
%TO.P,U1,13,USB_D-*%
%TO.N,D-*%
X136250000Y-74170000D03*
%TO.P,U1,14,USB_D+*%
%TO.N,D+*%
X136250000Y-75440000D03*
D23*
%TO.P,U1,15,IO3*%
%TO.N,IO2*%
X138015000Y-76690000D03*
%TO.P,U1,16,IO46*%
%TO.N,unconnected-(U1-IO46-Pad16)*%
X139285000Y-76690000D03*
%TO.P,U1,17,IO9*%
%TO.N,IO12*%
X140555000Y-76690000D03*
%TO.P,U1,18,IO10*%
%TO.N,IO11*%
X141825000Y-76690000D03*
%TO.P,U1,19,IO11*%
%TO.N,unconnected-(U1-IO11-Pad19)*%
X143095000Y-76690000D03*
%TO.P,U1,20,IO12*%
%TO.N,unconnected-(U1-IO12-Pad20)*%
X144365000Y-76690000D03*
%TO.P,U1,21,IO13*%
%TO.N,IO5*%
X145635000Y-76690000D03*
%TO.P,U1,22,IO14*%
%TO.N,IO6*%
X146905000Y-76690000D03*
%TO.P,U1,23,IO21*%
%TO.N,IO7*%
X148175000Y-76690000D03*
%TO.P,U1,24,IO47*%
%TO.N,IO8*%
X149445000Y-76690000D03*
%TO.P,U1,25,IO48*%
%TO.N,unconnected-(U1-IO48-Pad25)*%
X150715000Y-76690000D03*
%TO.P,U1,26,IO45*%
%TO.N,unconnected-(U1-IO45-Pad26)*%
X151985000Y-76690000D03*
D22*
%TO.P,U1,27,IO0*%
%TO.N,IO0*%
X153750000Y-75440000D03*
%TO.P,U1,28,IO35*%
%TO.N,unconnected-(U1-IO35-Pad28)*%
X153750000Y-74170000D03*
%TO.P,U1,29,IO36*%
%TO.N,unconnected-(U1-IO36-Pad29)*%
X153750000Y-72900000D03*
%TO.P,U1,30,IO37*%
%TO.N,unconnected-(U1-IO37-Pad30)*%
X153750000Y-71630000D03*
%TO.P,U1,31,IO38*%
%TO.N,IO3*%
X153750000Y-70360000D03*
%TO.P,U1,32,IO39*%
%TO.N,unconnected-(U1-IO39-Pad32)*%
X153750000Y-69090000D03*
%TO.P,U1,33,IO40*%
%TO.N,unconnected-(U1-IO40-Pad33)*%
X153750000Y-67820000D03*
%TO.P,U1,34,IO41*%
%TO.N,unconnected-(U1-IO41-Pad34)*%
X153750000Y-66550000D03*
%TO.P,U1,35,IO42*%
%TO.N,IO4*%
X153750000Y-65280000D03*
%TO.P,U1,36,RXD0*%
%TO.N,unconnected-(U1-RXD0-Pad36)*%
X153750000Y-64010000D03*
%TO.P,U1,37,TXD0*%
%TO.N,unconnected-(U1-TXD0-Pad37)*%
X153750000Y-62740000D03*
%TO.P,U1,38,IO2*%
%TO.N,IO10*%
X153750000Y-61470000D03*
%TO.P,U1,39,IO1*%
%TO.N,IO9*%
X153750000Y-60200000D03*
%TO.P,U1,40,GND*%
%TO.N,GND*%
X153750000Y-58930000D03*
D24*
%TO.P,U1,41,GND*%
X142100000Y-65950000D03*
X142100000Y-67350000D03*
X142800000Y-65250000D03*
X142800000Y-66650000D03*
X142800000Y-68050000D03*
X143500000Y-65950000D03*
D25*
X143500000Y-66650000D03*
D24*
X143500000Y-67350000D03*
X144200000Y-65250000D03*
X144200000Y-66650000D03*
X144200000Y-68050000D03*
X144900000Y-65950000D03*
X144900000Y-67350000D03*
%TD*%
D26*
%TO.P,J9,S1,SHIELD*%
%TO.N,GND*%
X149320000Y-104825000D03*
D27*
X149320000Y-100645000D03*
D26*
X140680000Y-104825000D03*
D27*
X140680000Y-100645000D03*
D28*
%TO.P,J9,B12,GND*%
X141800000Y-100070000D03*
%TO.P,J9,B9,VBUS*%
%TO.N,Net-(D2-A)*%
X142600000Y-100070000D03*
D29*
%TO.P,J9,B8,SBU2*%
%TO.N,unconnected-(J9-SBU2-PadB8)*%
X143250000Y-100070000D03*
%TO.P,J9,B7,D-*%
%TO.N,D-*%
X144250000Y-100070000D03*
%TO.P,J9,B6,D+*%
%TO.N,D+*%
X145750000Y-100070000D03*
%TO.P,J9,B5,CC2*%
%TO.N,Net-(J9-CC2)*%
X146750000Y-100070000D03*
D28*
%TO.P,J9,B4,VBUS*%
%TO.N,Net-(D2-A)*%
X147400000Y-100070000D03*
%TO.P,J9,B1,GND*%
%TO.N,GND*%
X148200000Y-100070000D03*
%TO.P,J9,A12,GND*%
X148200000Y-100070000D03*
%TO.P,J9,A9,VBUS*%
%TO.N,Net-(D2-A)*%
X147400000Y-100070000D03*
D29*
%TO.P,J9,A8,SBU1*%
%TO.N,unconnected-(J9-SBU1-PadA8)*%
X146250000Y-100070000D03*
%TO.P,J9,A7,D-*%
%TO.N,D-*%
X145250000Y-100070000D03*
%TO.P,J9,A6,D+*%
%TO.N,D+*%
X144750000Y-100070000D03*
%TO.P,J9,A5,CC1*%
%TO.N,Net-(J9-CC1)*%
X143750000Y-100070000D03*
D28*
%TO.P,J9,A4,VBUS*%
%TO.N,Net-(D2-A)*%
X142600000Y-100070000D03*
%TO.P,J9,A1,GND*%
%TO.N,GND*%
X141800000Y-100070000D03*
%TD*%
D30*
%TO.P,U3,1,VCCA*%
%TO.N,+1V8*%
X143440000Y-84225000D03*
%TO.P,U3,2,A1*%
%TO.N,Net-(U3-A1)*%
X144710000Y-84225000D03*
%TO.P,U3,3,A2*%
%TO.N,Net-(U3-A2)*%
X145980000Y-84225000D03*
%TO.P,U3,4,A3*%
%TO.N,Net-(U3-A3)*%
X147250000Y-84225000D03*
%TO.P,U3,5,A4*%
%TO.N,Net-(U3-A4)*%
X148520000Y-84225000D03*
%TO.P,U3,6,NC*%
%TO.N,unconnected-(U3-NC-Pad6)*%
X149790000Y-84225000D03*
%TO.P,U3,7,GND*%
%TO.N,GND*%
X151060000Y-84225000D03*
%TO.P,U3,8,OE*%
%TO.N,+1V8*%
X151060000Y-79275000D03*
%TO.P,U3,9,NC*%
%TO.N,unconnected-(U3-NC-Pad9)*%
X149790000Y-79275000D03*
%TO.P,U3,10,B4*%
%TO.N,IO8*%
X148520000Y-79275000D03*
%TO.P,U3,11,B3*%
%TO.N,IO7*%
X147250000Y-79275000D03*
%TO.P,U3,12,B2*%
%TO.N,IO6*%
X145980000Y-79275000D03*
%TO.P,U3,13,B1*%
%TO.N,IO5*%
X144710000Y-79275000D03*
%TO.P,U3,14,VCCB*%
%TO.N,+3.3V*%
X143440000Y-79275000D03*
%TD*%
D31*
%TO.P,C15,1*%
%TO.N,+1V8*%
X139000000Y-81450000D03*
%TO.P,C15,2*%
%TO.N,GND*%
X139000000Y-79550000D03*
%TD*%
D32*
%TO.P,J4,1,Pin_1*%
%TO.N,+BATT*%
X128000000Y-89000000D03*
D33*
%TO.P,J4,2,Pin_2*%
%TO.N,Net-(D3-A)*%
X128000000Y-87550000D03*
%TD*%
%TO.P,J6,2,Pin_2*%
%TO.N,Net-(D5-A)*%
X161974964Y-66000000D03*
D32*
%TO.P,J6,1,Pin_1*%
%TO.N,+BATT*%
X161974964Y-67450000D03*
%TD*%
%TO.P,J5,1,Pin_1*%
%TO.N,+BATT*%
X161974964Y-88975000D03*
D33*
%TO.P,J5,2,Pin_2*%
%TO.N,Net-(D4-A)*%
X161974964Y-87525000D03*
%TD*%
%TO.P,J1,2,Pin_2*%
%TO.N,Net-(D1-A)*%
X127474964Y-66000000D03*
D32*
%TO.P,J1,1,Pin_1*%
%TO.N,+BATT*%
X127474964Y-67450000D03*
%TD*%
D34*
%TO.P,D3,2,A*%
%TO.N,Net-(D3-A)*%
X130500000Y-86600000D03*
%TO.P,D3,1,K*%
%TO.N,+BATT*%
X130500000Y-89900000D03*
%TD*%
%TO.P,D4,2,A*%
%TO.N,Net-(D4-A)*%
X159474964Y-86675000D03*
%TO.P,D4,1,K*%
%TO.N,+BATT*%
X159474964Y-89975000D03*
%TD*%
D35*
%TO.P,J3,1,Pin_1*%
%TO.N,+3.3V*%
X158500000Y-92750000D03*
D36*
%TO.P,J3,2,Pin_2*%
%TO.N,IO9*%
X155960000Y-92750000D03*
%TO.P,J3,3,Pin_3*%
%TO.N,IO10*%
X153420000Y-92750000D03*
%TO.P,J3,4,Pin_4*%
%TO.N,GND*%
X150880000Y-92750000D03*
%TD*%
D37*
%TO.P,J2,2,Pin_2*%
%TO.N,GND*%
X146000000Y-95450000D03*
D38*
%TO.P,J2,1,Pin_1*%
%TO.N,+BATT*%
X144000000Y-95450000D03*
%TD*%
D39*
%TO.P,Q1,1,G*%
%TO.N,IO1*%
X131599964Y-66950000D03*
%TO.P,Q1,2,S*%
%TO.N,GND*%
X131599964Y-65050000D03*
%TO.P,Q1,3,D*%
%TO.N,Net-(D1-A)*%
X129724964Y-66000000D03*
%TD*%
D40*
%TO.P,Q5,3,D*%
%TO.N,Net-(D5-A)*%
X159724964Y-66000000D03*
%TO.P,Q5,2,S*%
%TO.N,GND*%
X157849964Y-66950000D03*
%TO.P,Q5,1,G*%
%TO.N,IO4*%
X157849964Y-65050000D03*
%TD*%
D18*
%TO.P,R2,2*%
%TO.N,GND*%
X132224964Y-70662500D03*
%TO.P,R2,1*%
%TO.N,IO1*%
X132224964Y-68837500D03*
%TD*%
D41*
%TO.P,R4,2*%
%TO.N,GND*%
X132000000Y-83250000D03*
%TO.P,R4,1*%
%TO.N,IO2*%
X132000000Y-85075000D03*
%TD*%
D18*
%TO.P,R5,2*%
%TO.N,GND*%
X157974964Y-85050000D03*
%TO.P,R5,1*%
%TO.N,IO3*%
X157974964Y-83225000D03*
%TD*%
D35*
%TO.P,J8,1,Pin_1*%
%TO.N,+3.3V*%
X158550000Y-96500000D03*
D36*
%TO.P,J8,2,Pin_2*%
%TO.N,IO11*%
X156010000Y-96500000D03*
%TO.P,J8,3,Pin_3*%
%TO.N,IO12*%
X153470000Y-96500000D03*
%TO.P,J8,4,Pin_4*%
%TO.N,GND*%
X150930000Y-96500000D03*
%TD*%
D42*
%TO.P,Q2,1,G*%
%TO.N,Net-(D2-A)*%
X138300000Y-97687500D03*
%TO.P,Q2,2,S*%
%TO.N,+BATT*%
X140200000Y-97687500D03*
%TO.P,Q2,3,D*%
%TO.N,VIN*%
X139250000Y-95812500D03*
%TD*%
D39*
%TO.P,Q3,3,D*%
%TO.N,Net-(D3-A)*%
X128000000Y-84000000D03*
%TO.P,Q3,2,S*%
%TO.N,GND*%
X129875000Y-83050000D03*
%TO.P,Q3,1,G*%
%TO.N,IO2*%
X129875000Y-84950000D03*
%TD*%
D40*
%TO.P,Q4,3,D*%
%TO.N,Net-(D4-A)*%
X161974964Y-83975000D03*
%TO.P,Q4,2,S*%
%TO.N,GND*%
X160099964Y-84925000D03*
%TO.P,Q4,1,G*%
%TO.N,IO3*%
X160099964Y-83025000D03*
%TD*%
D43*
%TO.P,R1,1*%
%TO.N,+3.3V*%
X130087500Y-63250000D03*
%TO.P,R1,2*%
%TO.N,EN*%
X131912500Y-63250000D03*
%TD*%
D44*
%TO.P,U5,1,GND*%
%TO.N,GND*%
X141300000Y-83600000D03*
%TO.P,U5,2,VO*%
%TO.N,+1V8*%
X139000000Y-83600000D03*
D45*
X139000000Y-89900000D03*
D44*
%TO.P,U5,3,VI*%
%TO.N,VIN*%
X136700000Y-83600000D03*
%TD*%
D18*
%TO.P,R6,2*%
%TO.N,GND*%
X157224964Y-70662500D03*
%TO.P,R6,1*%
%TO.N,IO4*%
X157224964Y-68837500D03*
%TD*%
D46*
%TO.P,U4,1,NC*%
%TO.N,unconnected-(U4-NC-Pad1)*%
X143500000Y-87250000D03*
%TO.P,U4,2,NC*%
%TO.N,unconnected-(U4-NC-Pad2)*%
X143500000Y-87650000D03*
%TO.P,U4,3,NC*%
%TO.N,unconnected-(U4-NC-Pad3)*%
X143500000Y-88050000D03*
%TO.P,U4,4,NC*%
%TO.N,unconnected-(U4-NC-Pad4)*%
X143500000Y-88450000D03*
%TO.P,U4,5,NC*%
%TO.N,unconnected-(U4-NC-Pad5)*%
X143500000Y-88850000D03*
%TO.P,U4,6,NC*%
%TO.N,unconnected-(U4-NC-Pad6)*%
X143500000Y-89250000D03*
D47*
%TO.P,U4,7,AUX_CL*%
%TO.N,unconnected-(U4-AUX_CL-Pad7)*%
X144000000Y-89750000D03*
%TO.P,U4,8,VDDIO*%
%TO.N,+1V8*%
X144400000Y-89750000D03*
%TO.P,U4,9,SDO/AD0*%
%TO.N,Net-(U3-A1)*%
X144800000Y-89750000D03*
%TO.P,U4,10,REGOUT*%
%TO.N,Net-(U4-REGOUT)*%
X145200000Y-89750000D03*
%TO.P,U4,11,FSYNC*%
%TO.N,unconnected-(U4-FSYNC-Pad11)*%
X145600000Y-89750000D03*
%TO.P,U4,12,INT1*%
%TO.N,unconnected-(U4-INT1-Pad12)*%
X146000000Y-89750000D03*
D46*
%TO.P,U4,13,VDD*%
%TO.N,+3.3V*%
X146500000Y-89250000D03*
%TO.P,U4,14,NC*%
%TO.N,unconnected-(U4-NC-Pad14)*%
X146500000Y-88850000D03*
%TO.P,U4,15,NC*%
%TO.N,unconnected-(U4-NC-Pad15)*%
X146500000Y-88450000D03*
%TO.P,U4,16,NC*%
%TO.N,unconnected-(U4-NC-Pad16)*%
X146500000Y-88050000D03*
%TO.P,U4,17,NC*%
%TO.N,unconnected-(U4-NC-Pad17)*%
X146500000Y-87650000D03*
%TO.P,U4,18,GND*%
%TO.N,GND*%
X146500000Y-87250000D03*
D47*
%TO.P,U4,19,RESV*%
%TO.N,unconnected-(U4-RESV-Pad19)*%
X146000000Y-86750000D03*
%TO.P,U4,20,GND*%
%TO.N,GND*%
X145600000Y-86750000D03*
%TO.P,U4,21,AUX_DA*%
%TO.N,unconnected-(U4-AUX_DA-Pad21)*%
X145200000Y-86750000D03*
%TO.P,U4,22,~{CS}*%
%TO.N,Net-(U3-A4)*%
X144800000Y-86750000D03*
%TO.P,U4,23,SCL/SCLK*%
%TO.N,Net-(U3-A3)*%
X144400000Y-86750000D03*
%TO.P,U4,24,SDA/SDI*%
%TO.N,Net-(U3-A2)*%
X144000000Y-86750000D03*
%TD*%
D31*
%TO.P,C1,2*%
%TO.N,GND*%
X131500000Y-58550000D03*
%TO.P,C1,1*%
%TO.N,+3.3V*%
X131500000Y-60450000D03*
%TD*%
D48*
%TO.P,C4,1*%
%TO.N,EN*%
X133750000Y-62050000D03*
%TO.P,C4,2*%
%TO.N,GND*%
X133750000Y-63950000D03*
%TD*%
D21*
%TO.P,C9,2*%
%TO.N,Net-(D1-A)*%
X129724964Y-72100000D03*
%TO.P,C9,1*%
%TO.N,+BATT*%
X127824964Y-72100000D03*
%TD*%
D49*
%TO.P,C12,2*%
%TO.N,Net-(D5-A)*%
X159774964Y-72000000D03*
%TO.P,C12,1*%
%TO.N,+BATT*%
X161674964Y-72000000D03*
%TD*%
%TO.P,C5,1*%
%TO.N,D-*%
X133700000Y-72750000D03*
%TO.P,C5,2*%
%TO.N,GND*%
X131800000Y-72750000D03*
%TD*%
%TO.P,C6,1*%
%TO.N,D+*%
X133700000Y-77250000D03*
%TO.P,C6,2*%
%TO.N,GND*%
X131800000Y-77250000D03*
%TD*%
D21*
%TO.P,C3,2*%
%TO.N,GND*%
X147950000Y-91750000D03*
%TO.P,C3,1*%
%TO.N,Net-(U4-REGOUT)*%
X146050000Y-91750000D03*
%TD*%
%TO.P,C7,2*%
%TO.N,EN*%
X136500000Y-101425000D03*
%TO.P,C7,1*%
%TO.N,GND*%
X134600000Y-101425000D03*
%TD*%
D31*
%TO.P,C2,2*%
%TO.N,GND*%
X133750000Y-58550000D03*
%TO.P,C2,1*%
%TO.N,+3.3V*%
X133750000Y-60450000D03*
%TD*%
%TO.P,C11,2*%
%TO.N,Net-(D4-A)*%
X157224964Y-87525000D03*
%TO.P,C11,1*%
%TO.N,+BATT*%
X157224964Y-89425000D03*
%TD*%
%TO.P,C10,2*%
%TO.N,Net-(D3-A)*%
X132750000Y-87300000D03*
%TO.P,C10,1*%
%TO.N,+BATT*%
X132750000Y-89200000D03*
%TD*%
%TO.P,C16,1*%
%TO.N,+3.3V*%
X148250000Y-89200000D03*
%TO.P,C16,2*%
%TO.N,GND*%
X148250000Y-87300000D03*
%TD*%
%TO.P,C14,1*%
%TO.N,VIN*%
X136750000Y-81450000D03*
%TO.P,C14,2*%
%TO.N,GND*%
X136750000Y-79550000D03*
%TD*%
D50*
%TO.P,D1,1,K*%
%TO.N,+BATT*%
X127224964Y-69850000D03*
%TO.P,D1,2,A*%
%TO.N,Net-(D1-A)*%
X130524964Y-69850000D03*
%TD*%
D49*
%TO.P,C17,2*%
%TO.N,GND*%
X142100000Y-92250000D03*
%TO.P,C17,1*%
%TO.N,+1V8*%
X144000000Y-92250000D03*
%TD*%
D51*
%TO.N,Net-(U3-A2)*%
X145950735Y-82799265D03*
X142900000Y-86000000D03*
%TO.N,+3.3V*%
X129250000Y-102250000D03*
X136500000Y-105250000D03*
%TO.N,VIN*%
X130000000Y-96000000D03*
X136000000Y-96000000D03*
%TO.N,Net-(D2-A)*%
X139250000Y-98500000D03*
X130000000Y-101250000D03*
%TO.N,+BATT*%
X162000000Y-90750000D03*
X128250000Y-91250000D03*
X138250000Y-93500000D03*
%TO.N,+3.3V*%
X142000000Y-80000000D03*
X147000000Y-90250000D03*
X158250000Y-99750000D03*
X156250000Y-99750000D03*
%TO.N,GND*%
X128750000Y-64500000D03*
X130750000Y-82000000D03*
X158500000Y-71750000D03*
X142000000Y-81250000D03*
X152000000Y-82250000D03*
X156560000Y-81750000D03*
X139750000Y-101900000D03*
%TO.N,EN*%
X138000000Y-61500000D03*
X135975000Y-103275000D03*
%TO.N,IO9*%
X155250000Y-60250000D03*
%TO.N,IO10*%
X155250000Y-61750000D03*
%TO.N,IO11*%
X141825000Y-78750000D03*
%TO.N,IO12*%
X140500000Y-78750000D03*
%TO.N,D-*%
X133434720Y-74575000D03*
%TO.N,D+*%
X133434720Y-75425000D03*
%TO.N,D-*%
X144075000Y-98589652D03*
%TO.N,D+*%
X144925000Y-98589652D03*
%TO.N,Net-(U3-A1)*%
X144750000Y-82250000D03*
X144950000Y-91004291D03*
%TO.N,GND*%
X130000000Y-97250000D03*
%TD*%
D52*
%TO.N,GND*%
X151375000Y-104825000D02*
X149320000Y-104825000D01*
X151525000Y-104975000D02*
X151375000Y-104825000D01*
X151800000Y-104975000D02*
X151525000Y-104975000D01*
%TO.N,Net-(U3-A2)*%
X145950735Y-84195735D02*
X145980000Y-84225000D01*
X143650000Y-86750000D02*
X142900000Y-86000000D01*
X145950735Y-82799265D02*
X145950735Y-84195735D01*
X144000000Y-86750000D02*
X143650000Y-86750000D01*
%TO.N,Net-(U3-A4)*%
X144800000Y-86377226D02*
X144800000Y-86750000D01*
X145578226Y-85599000D02*
X144800000Y-86377226D01*
X148120999Y-85599000D02*
X145578226Y-85599000D01*
X148520000Y-85199999D02*
X148120999Y-85599000D01*
X148520000Y-84225000D02*
X148520000Y-85199999D01*
%TO.N,Net-(U3-A3)*%
X147250000Y-83250001D02*
X147250000Y-84225000D01*
X145648999Y-81649000D02*
X147250000Y-83250001D01*
X144109000Y-85240968D02*
X144109000Y-81891000D01*
X144109000Y-81891000D02*
X144351000Y-81649000D01*
X144400000Y-85531968D02*
X144109000Y-85240968D01*
X144351000Y-81649000D02*
X145648999Y-81649000D01*
X144400000Y-86750000D02*
X144400000Y-85531968D01*
%TO.N,GND*%
X147000000Y-86977226D02*
X147000000Y-87249000D01*
X146022774Y-86000000D02*
X147000000Y-86977226D01*
X145750000Y-86000000D02*
X146022774Y-86000000D01*
X147749000Y-87249000D02*
X147000000Y-87249000D01*
X145600000Y-86150000D02*
X145750000Y-86000000D01*
X145600000Y-86750000D02*
X145600000Y-86150000D01*
%TO.N,Net-(D2-A)*%
X147400000Y-100644999D02*
X147400000Y-100070000D01*
X146544999Y-101500000D02*
X147400000Y-100644999D01*
X143571176Y-101500000D02*
X146544999Y-101500000D01*
X142600000Y-100070000D02*
X142600000Y-100528824D01*
X142600000Y-100528824D02*
X143571176Y-101500000D01*
%TO.N,D+*%
X145482824Y-99194000D02*
X145750000Y-99461176D01*
X145017176Y-99194000D02*
X145482824Y-99194000D01*
X144750000Y-99461176D02*
X145017176Y-99194000D01*
X144750000Y-100070000D02*
X144750000Y-99461176D01*
X145750000Y-99461176D02*
X145750000Y-100070000D01*
%TO.N,D-*%
X144250000Y-100678824D02*
X144250000Y-100070000D01*
X144517176Y-100946000D02*
X144250000Y-100678824D01*
X145250000Y-100678824D02*
X144982824Y-100946000D01*
X144982824Y-100946000D02*
X144517176Y-100946000D01*
X145250000Y-100070000D02*
X145250000Y-100678824D01*
%TO.N,+3.3V*%
X133750000Y-60450000D02*
X131500000Y-60450000D01*
X134000000Y-60200000D02*
X133750000Y-60450000D01*
X136250000Y-60200000D02*
X134000000Y-60200000D01*
%TO.N,VIN*%
X136000000Y-99000000D02*
X136050000Y-99050000D01*
X136050000Y-99050000D02*
X136050000Y-99150000D01*
X136000000Y-96000000D02*
X136000000Y-99000000D01*
X130000000Y-96000000D02*
X127750000Y-96000000D01*
%TO.N,Net-(D2-A)*%
X139112500Y-98500000D02*
X138300000Y-97687500D01*
X139250000Y-98500000D02*
X139112500Y-98500000D01*
X128750000Y-100000000D02*
X130000000Y-101250000D01*
X127750000Y-100000000D02*
X128750000Y-100000000D01*
%TO.N,VIN*%
X131300000Y-100956008D02*
X131300000Y-103750000D01*
X127750000Y-97406008D02*
X131300000Y-100956008D01*
X127750000Y-96000000D02*
X127750000Y-97406008D01*
%TO.N,GND*%
X133200000Y-102825000D02*
X134600000Y-101425000D01*
X133200000Y-103750000D02*
X133200000Y-102825000D01*
X133200000Y-105750000D02*
X133200000Y-103750000D01*
X130000000Y-97700000D02*
X131450000Y-99150000D01*
X130000000Y-97250000D02*
X130000000Y-97700000D01*
X138350000Y-104825000D02*
X138200000Y-104975000D01*
X140680000Y-104825000D02*
X138350000Y-104825000D01*
%TO.N,EN*%
X135975000Y-103800000D02*
X134800000Y-104975000D01*
X135975000Y-103275000D02*
X135975000Y-103800000D01*
%TO.N,GND*%
X156198964Y-86826000D02*
X157974964Y-85050000D01*
X157161000Y-104916000D02*
X157161000Y-90872196D01*
X155951000Y-106126000D02*
X157161000Y-104916000D01*
X157161000Y-90872196D02*
X156198964Y-89910160D01*
X152951000Y-106126000D02*
X155951000Y-106126000D01*
X151800000Y-104975000D02*
X152951000Y-106126000D01*
X156198964Y-89910160D02*
X156198964Y-86826000D01*
X151500000Y-101662500D02*
X151800000Y-101962500D01*
X151800000Y-101962500D02*
X151800000Y-104975000D01*
%TO.N,IO0*%
X155200000Y-103200000D02*
X155200000Y-104975000D01*
X153500000Y-101500000D02*
X155200000Y-103200000D01*
X153500000Y-101425000D02*
X153500000Y-101500000D01*
D53*
%TO.N,+BATT*%
X162000000Y-90750000D02*
X162000000Y-89000036D01*
X162000000Y-89000036D02*
X161974964Y-88975000D01*
X128250000Y-89250000D02*
X128000000Y-89000000D01*
X128250000Y-91250000D02*
X128250000Y-89250000D01*
X138458388Y-93500000D02*
X138250000Y-93500000D01*
X141762500Y-96804112D02*
X138458388Y-93500000D01*
X141762500Y-97687500D02*
X141762500Y-96804112D01*
X141762500Y-97687500D02*
X140200000Y-97687500D01*
X144000000Y-95450000D02*
X141762500Y-97687500D01*
%TO.N,GND*%
X156500000Y-81810000D02*
X156560000Y-81750000D01*
X157050000Y-85050000D02*
X156500000Y-84500000D01*
X156500000Y-84500000D02*
X156500000Y-81810000D01*
X157974964Y-85050000D02*
X157050000Y-85050000D01*
D52*
%TO.N,+3.3V*%
X142725000Y-79275000D02*
X142000000Y-80000000D01*
X143440000Y-79275000D02*
X142725000Y-79275000D01*
X148050000Y-89200000D02*
X147000000Y-90250000D01*
X148250000Y-89200000D02*
X148050000Y-89200000D01*
%TO.N,GND*%
X147800000Y-87300000D02*
X147749000Y-87249000D01*
X147000000Y-87249000D02*
X146500000Y-87249000D01*
X148250000Y-87300000D02*
X147800000Y-87300000D01*
%TO.N,+3.3V*%
X148199000Y-89251000D02*
X146500000Y-89251000D01*
X148250000Y-89200000D02*
X148199000Y-89251000D01*
D53*
%TO.N,GND*%
X130075000Y-83250000D02*
X129875000Y-83050000D01*
X132000000Y-83250000D02*
X130075000Y-83250000D01*
%TO.N,+BATT*%
X127000000Y-89000000D02*
X128000000Y-89000000D01*
X126500000Y-73424964D02*
X126500000Y-88500000D01*
X126500000Y-88500000D02*
X127000000Y-89000000D01*
X127824964Y-72100000D02*
X126500000Y-73424964D01*
%TO.N,GND*%
X155500000Y-68000000D02*
X156550000Y-66950000D01*
X155500000Y-69750000D02*
X155500000Y-68000000D01*
X157224964Y-70662500D02*
X156412500Y-70662500D01*
X156412500Y-70662500D02*
X155500000Y-69750000D01*
X156550000Y-66950000D02*
X157849964Y-66950000D01*
D52*
%TO.N,IO4*%
X159250000Y-66904504D02*
X157849964Y-65504468D01*
X159250000Y-67512464D02*
X159250000Y-66904504D01*
X157924964Y-68837500D02*
X159250000Y-67512464D01*
X157224964Y-68837500D02*
X157924964Y-68837500D01*
X157849964Y-65504468D02*
X157849964Y-65050000D01*
D53*
%TO.N,+BATT*%
X163475000Y-88975000D02*
X161974964Y-88975000D01*
X163500000Y-89000000D02*
X163475000Y-88975000D01*
X161674964Y-72000000D02*
X163500000Y-73825036D01*
X163500000Y-73825036D02*
X163500000Y-89000000D01*
%TO.N,Net-(D3-A)*%
X128000000Y-84000000D02*
X128000000Y-87550000D01*
%TO.N,GND*%
X132000000Y-83250000D02*
X130750000Y-82000000D01*
%TO.N,Net-(D1-A)*%
X127474964Y-66000000D02*
X129724964Y-66000000D01*
%TO.N,GND*%
X131599964Y-65050000D02*
X129300000Y-65050000D01*
X129300000Y-65050000D02*
X128750000Y-64500000D01*
%TO.N,Net-(D5-A)*%
X161974964Y-66000000D02*
X159724964Y-66000000D01*
%TO.N,GND*%
X157412500Y-70662500D02*
X158500000Y-71750000D01*
%TO.N,Net-(D4-A)*%
X161974964Y-83975000D02*
X161974964Y-87525000D01*
%TO.N,GND*%
X160099964Y-84925000D02*
X158099964Y-84925000D01*
D54*
X158099964Y-84925000D02*
X157974964Y-85050000D01*
D52*
X160099964Y-84404468D02*
X161138464Y-83365968D01*
X160099964Y-84925000D02*
X160099964Y-84404468D01*
X157224964Y-70662500D02*
X157412500Y-70662500D01*
X141300000Y-81950000D02*
X142000000Y-81250000D01*
X141300000Y-83600000D02*
X141300000Y-81950000D01*
%TO.N,+1V8*%
X140301000Y-84901000D02*
X139000000Y-83600000D01*
X143440000Y-84225000D02*
X142764000Y-84901000D01*
X142764000Y-84901000D02*
X140301000Y-84901000D01*
%TO.N,GND*%
X141300000Y-81850000D02*
X139000000Y-79550000D01*
X141300000Y-83600000D02*
X141300000Y-81850000D01*
X139000000Y-79550000D02*
X136750000Y-79550000D01*
X151060000Y-83190000D02*
X152000000Y-82250000D01*
X151060000Y-84225000D02*
X151060000Y-83190000D01*
X139512500Y-101662500D02*
X139750000Y-101900000D01*
X138500000Y-101662500D02*
X139512500Y-101662500D01*
X141225000Y-100645000D02*
X141800000Y-100070000D01*
X140680000Y-100645000D02*
X141225000Y-100645000D01*
X139517500Y-100645000D02*
X138500000Y-101662500D01*
X140680000Y-100645000D02*
X139517500Y-100645000D01*
X133936160Y-101425000D02*
X134600000Y-101425000D01*
X131661160Y-99150000D02*
X133936160Y-101425000D01*
X131450000Y-99150000D02*
X131661160Y-99150000D01*
X132000000Y-77500000D02*
X132000000Y-83250000D01*
X131800000Y-77250000D02*
X131800000Y-77300000D01*
X131800000Y-77300000D02*
X132000000Y-77500000D01*
X131800000Y-72750000D02*
X131800000Y-77250000D01*
X132224964Y-72325036D02*
X131800000Y-72750000D01*
X132224964Y-70662500D02*
X132224964Y-72325036D01*
X132650000Y-65050000D02*
X133750000Y-63950000D01*
X131599964Y-65050000D02*
X132650000Y-65050000D01*
X131500000Y-58550000D02*
X133750000Y-58550000D01*
X135440000Y-58550000D02*
X133750000Y-58550000D01*
X135820000Y-58930000D02*
X135440000Y-58550000D01*
X136250000Y-58930000D02*
X135820000Y-58930000D01*
X136782000Y-58930000D02*
X136250000Y-58930000D01*
X143500000Y-65648000D02*
X136782000Y-58930000D01*
X143500000Y-66650000D02*
X143500000Y-65648000D01*
X151220000Y-58930000D02*
X143500000Y-66650000D01*
X153750000Y-58930000D02*
X151220000Y-58930000D01*
X161138464Y-83365968D02*
X161138464Y-75638464D01*
X161138464Y-75638464D02*
X157224964Y-71724964D01*
X157224964Y-71724964D02*
X157224964Y-70662500D01*
X159974964Y-85050000D02*
X160099964Y-84925000D01*
X149320000Y-100645000D02*
X149320000Y-104825000D01*
X149320000Y-100645000D02*
X148775000Y-100645000D01*
X148775000Y-100645000D02*
X148200000Y-100070000D01*
X152501000Y-98071000D02*
X152501000Y-100661500D01*
X150930000Y-96500000D02*
X152501000Y-98071000D01*
X144124000Y-94274000D02*
X142100000Y-92250000D01*
X146000000Y-95450000D02*
X144824000Y-94274000D01*
X144824000Y-94274000D02*
X144124000Y-94274000D01*
X146000000Y-93700000D02*
X147950000Y-91750000D01*
X146000000Y-95450000D02*
X146000000Y-93700000D01*
X149880000Y-95450000D02*
X150930000Y-96500000D01*
X146000000Y-95450000D02*
X149880000Y-95450000D01*
X150930000Y-92800000D02*
X150880000Y-92750000D01*
X150930000Y-96500000D02*
X150930000Y-92800000D01*
X151060000Y-84225000D02*
X151060000Y-92570000D01*
X151060000Y-92570000D02*
X150880000Y-92750000D01*
X151060000Y-85215000D02*
X151060000Y-84225000D01*
X148975000Y-87300000D02*
X151060000Y-85215000D01*
X148250000Y-87300000D02*
X148975000Y-87300000D01*
X149950000Y-89000000D02*
X148250000Y-87300000D01*
X149950000Y-89750000D02*
X149950000Y-89000000D01*
X147950000Y-91750000D02*
X149950000Y-89750000D01*
%TO.N,Net-(D2-A)*%
X142786000Y-100256000D02*
X142600000Y-100070000D01*
X141711008Y-102500000D02*
X142786000Y-101425008D01*
X142786000Y-101425008D02*
X142786000Y-100256000D01*
X137750000Y-102500000D02*
X137750000Y-102411160D01*
X137750000Y-102500000D02*
X141711008Y-102500000D01*
%TO.N,Net-(U3-A1)*%
X144800000Y-90854291D02*
X144950000Y-91004291D01*
X144800000Y-89750000D02*
X144800000Y-90854291D01*
%TO.N,+1V8*%
X144000000Y-90750000D02*
X144000000Y-92250000D01*
X144400000Y-90350000D02*
X144000000Y-90750000D01*
X144400000Y-89750000D02*
X144400000Y-90350000D01*
X139000000Y-89900000D02*
X141650000Y-89900000D01*
X141650000Y-89900000D02*
X144000000Y-92250000D01*
X151060000Y-80440000D02*
X151060000Y-79275000D01*
X143440000Y-81742900D02*
X144631900Y-80551000D01*
X150949000Y-80551000D02*
X151060000Y-80440000D01*
X143440000Y-84225000D02*
X143440000Y-81742900D01*
X144631900Y-80551000D02*
X150949000Y-80551000D01*
X139000000Y-81450000D02*
X139000000Y-83600000D01*
X139000000Y-89900000D02*
X139000000Y-83600000D01*
%TO.N,EN*%
X136280000Y-61500000D02*
X136250000Y-61470000D01*
X138000000Y-61500000D02*
X136280000Y-61500000D01*
X136500000Y-103275000D02*
X135975000Y-103275000D01*
X136500000Y-103275000D02*
X136500000Y-101425000D01*
%TO.N,+BATT*%
X127224964Y-67700000D02*
X127474964Y-67450000D01*
D53*
X127224964Y-69850000D02*
X127224964Y-67700000D01*
X127824964Y-70450000D02*
X127224964Y-69850000D01*
X127824964Y-72100000D02*
X127824964Y-70450000D01*
D52*
%TO.N,IO2*%
X134750000Y-79955000D02*
X138015000Y-76690000D01*
X134750000Y-82325000D02*
X134750000Y-79955000D01*
X132000000Y-85075000D02*
X134750000Y-82325000D01*
%TO.N,Net-(D2-A)*%
X137499000Y-102160160D02*
X137499000Y-98488500D01*
X137750000Y-102411160D02*
X137499000Y-102160160D01*
X137499000Y-98488500D02*
X138300000Y-97687500D01*
%TO.N,VIN*%
X136700000Y-81500000D02*
X136750000Y-81450000D01*
X136700000Y-83850000D02*
X136700000Y-81500000D01*
X136700000Y-93262500D02*
X136700000Y-83850000D01*
X139250000Y-95812500D02*
X136700000Y-93262500D01*
X136050000Y-98150000D02*
X138387500Y-95812500D01*
X136050000Y-99150000D02*
X136050000Y-98150000D01*
X138387500Y-95812500D02*
X139250000Y-95812500D01*
%TO.N,IO9*%
X155200000Y-60200000D02*
X155250000Y-60250000D01*
X153750000Y-60200000D02*
X155200000Y-60200000D01*
X153700000Y-60200000D02*
X153500000Y-60000000D01*
X153750000Y-60200000D02*
X153700000Y-60200000D01*
%TO.N,IO10*%
X154030000Y-61750000D02*
X153750000Y-61470000D01*
X155250000Y-61750000D02*
X154030000Y-61750000D01*
%TO.N,IO11*%
X141825000Y-78750000D02*
X141825000Y-76690000D01*
%TO.N,IO12*%
X140555000Y-78695000D02*
X140555000Y-76690000D01*
X140500000Y-78750000D02*
X140555000Y-78695000D01*
%TO.N,D+*%
X135510000Y-75440000D02*
X133700000Y-77250000D01*
X136250000Y-75440000D02*
X135510000Y-75440000D01*
%TO.N,D-*%
X135120000Y-74170000D02*
X133700000Y-72750000D01*
X136250000Y-74170000D02*
X135120000Y-74170000D01*
X133434720Y-74575000D02*
X133648323Y-74575000D01*
%TO.N,D+*%
X135199000Y-74921000D02*
X135731000Y-74921000D01*
X135731000Y-74921000D02*
X136250000Y-75440000D01*
%TO.N,D-*%
X134053323Y-74170000D02*
X136250000Y-74170000D01*
%TO.N,D+*%
X135199000Y-74620001D02*
X135199000Y-74921000D01*
%TO.N,D-*%
X133648323Y-74575000D02*
X134053323Y-74170000D01*
%TO.N,D+*%
X134239719Y-74620001D02*
X135199000Y-74620001D01*
X133434720Y-75425000D02*
X134239719Y-74620001D01*
%TO.N,D-*%
X144274999Y-98789651D02*
X144075000Y-98589652D01*
%TO.N,D+*%
X144725001Y-100045001D02*
X144725001Y-98789651D01*
X144750000Y-100070000D02*
X144725001Y-100045001D01*
%TO.N,D-*%
X144274999Y-100045001D02*
X144274999Y-98789651D01*
%TO.N,D+*%
X144725001Y-98789651D02*
X144925000Y-98589652D01*
%TO.N,D-*%
X144250000Y-100070000D02*
X144274999Y-100045001D01*
%TO.N,Net-(J9-CC1)*%
X143750000Y-99461176D02*
X143750000Y-100070000D01*
X139643500Y-99194000D02*
X143482824Y-99194000D01*
X138750000Y-100087500D02*
X139643500Y-99194000D01*
X143482824Y-99194000D02*
X143750000Y-99461176D01*
%TO.N,EN*%
X134330000Y-61470000D02*
X136250000Y-61470000D01*
X133750000Y-62050000D02*
X134330000Y-61470000D01*
X132550000Y-63250000D02*
X133750000Y-62050000D01*
X131912500Y-63250000D02*
X132550000Y-63250000D01*
%TO.N,IO1*%
X135997500Y-68837500D02*
X136250000Y-69090000D01*
X132224964Y-68837500D02*
X135997500Y-68837500D01*
X131599964Y-66950000D02*
X132224964Y-67575000D01*
X132224964Y-67575000D02*
X132224964Y-68837500D01*
%TO.N,IO8*%
X149445000Y-77375001D02*
X149445000Y-76690000D01*
X148520000Y-78300001D02*
X149445000Y-77375001D01*
X148520000Y-79275000D02*
X148520000Y-78300001D01*
%TO.N,IO7*%
X148175000Y-77375001D02*
X148175000Y-76690000D01*
X147250000Y-78300001D02*
X148175000Y-77375001D01*
X147250000Y-79275000D02*
X147250000Y-78300001D01*
%TO.N,IO6*%
X145980000Y-78300001D02*
X146905000Y-77375001D01*
X146905000Y-77375001D02*
X146905000Y-76690000D01*
X145980000Y-79275000D02*
X145980000Y-78300001D01*
%TO.N,IO5*%
X145116000Y-77209000D02*
X145635000Y-76690000D01*
X144710000Y-79275000D02*
X145116000Y-78869000D01*
X145116000Y-78869000D02*
X145116000Y-77209000D01*
%TO.N,IO3*%
X154700000Y-70360000D02*
X153750000Y-70360000D01*
X157974964Y-73634964D02*
X154700000Y-70360000D01*
X157974964Y-83225000D02*
X157974964Y-73634964D01*
X160099964Y-83025000D02*
X158174964Y-83025000D01*
%TO.N,IO2*%
X131875000Y-84950000D02*
X132000000Y-85075000D01*
X129875000Y-84950000D02*
X131875000Y-84950000D01*
%TO.N,+BATT*%
X128900000Y-89900000D02*
X128000000Y-89000000D01*
X130500000Y-89900000D02*
X128900000Y-89900000D01*
X131200000Y-89200000D02*
X130500000Y-89900000D01*
X132750000Y-89200000D02*
X131200000Y-89200000D01*
X160974964Y-89975000D02*
X161974964Y-88975000D01*
X159474964Y-89975000D02*
X160974964Y-89975000D01*
X158924964Y-89425000D02*
X159474964Y-89975000D01*
X157224964Y-89425000D02*
X158924964Y-89425000D01*
X162274964Y-67750000D02*
X161974964Y-67450000D01*
D53*
X162274964Y-69750000D02*
X162274964Y-67750000D01*
X161674964Y-70350000D02*
X162274964Y-69750000D01*
X161674964Y-72000000D02*
X161674964Y-70350000D01*
D52*
%TO.N,IO4*%
X157720000Y-65280000D02*
X153750000Y-65280000D01*
X157849964Y-65150036D02*
X157720000Y-65280000D01*
X157849964Y-65050000D02*
X157849964Y-65150036D01*
%TO.N,Net-(U3-A1)*%
X144750000Y-84185000D02*
X144710000Y-84225000D01*
X144750000Y-82250000D02*
X144750000Y-84185000D01*
%TO.N,Net-(U4-REGOUT)*%
X145550000Y-90550000D02*
X145550000Y-91750000D01*
X145200000Y-90200000D02*
X145550000Y-90550000D01*
X145200000Y-89750000D02*
X145200000Y-90200000D01*
%TO.N,Net-(D5-A)*%
X158974964Y-69750000D02*
X158974964Y-71200000D01*
X158974964Y-71200000D02*
X159774964Y-72000000D01*
X158974964Y-68775036D02*
X158974964Y-69750000D01*
X159750000Y-68000000D02*
X158974964Y-68775036D01*
X159724964Y-67974964D02*
X159750000Y-68000000D01*
X159724964Y-66000000D02*
X159724964Y-67974964D01*
%TO.N,Net-(D1-A)*%
X130524964Y-70225036D02*
X129724964Y-71025036D01*
X129724964Y-71025036D02*
X129724964Y-72100000D01*
X130524964Y-69850000D02*
X130524964Y-70225036D01*
X130524964Y-69024964D02*
X130524964Y-69850000D01*
X129724964Y-68224964D02*
X130524964Y-69024964D01*
X129724964Y-66000000D02*
X129724964Y-68224964D01*
%TO.N,Net-(D3-A)*%
X130500000Y-86600000D02*
X128950000Y-86600000D01*
X128950000Y-86600000D02*
X128000000Y-87550000D01*
X132750000Y-87300000D02*
X131200000Y-87300000D01*
X131200000Y-87300000D02*
X130500000Y-86600000D01*
%TO.N,Net-(D4-A)*%
X161124964Y-86675000D02*
X161974964Y-87525000D01*
X159474964Y-86675000D02*
X161124964Y-86675000D01*
X158624964Y-87525000D02*
X159474964Y-86675000D01*
X157224964Y-87525000D02*
X158624964Y-87525000D01*
%TO.N,IO8*%
X149520000Y-76765000D02*
X149445000Y-76690000D01*
%TO.N,IO7*%
X148250000Y-76765000D02*
X148175000Y-76690000D01*
%TO.N,IO6*%
X146980000Y-76765000D02*
X146905000Y-76690000D01*
%TO.N,IO5*%
X145710000Y-76765000D02*
X145635000Y-76690000D01*
%TO.N,Net-(J9-CC2)*%
X146806000Y-99194000D02*
X146750000Y-99250000D01*
X146750000Y-99250000D02*
X146750000Y-100070000D01*
X150356500Y-99194000D02*
X146806000Y-99194000D01*
X151250000Y-100087500D02*
X150356500Y-99194000D01*
%TO.N,GND*%
X152501000Y-100661500D02*
X151500000Y-101662500D01*
X150337500Y-101662500D02*
X149320000Y-100645000D01*
X151500000Y-101662500D02*
X150337500Y-101662500D01*
%TO.N,IO0*%
X154750000Y-100175000D02*
X154750000Y-76440000D01*
X154750000Y-76440000D02*
X153750000Y-75440000D01*
X153500000Y-101425000D02*
X154750000Y-100175000D01*
%TO.N,+3.3V*%
X155325000Y-100675000D02*
X156250000Y-99750000D01*
X155325000Y-101425000D02*
X155325000Y-100675000D01*
%TD*%
%TA.AperFunction,Conductor*%
%TO.N,+3.3V*%
G36*
X130230091Y-58020185D02*
G01*
X130275846Y-58072989D01*
X130285546Y-58140453D01*
X130285689Y-58140468D01*
X130285630Y-58141038D01*
X130285790Y-58142147D01*
X130285154Y-58145701D01*
X130274500Y-58249983D01*
X130274500Y-58850001D01*
X130274501Y-58850019D01*
X130285000Y-58952796D01*
X130285001Y-58952799D01*
X130340185Y-59119331D01*
X130340186Y-59119334D01*
X130432288Y-59268656D01*
X130556344Y-59392712D01*
X130559628Y-59394737D01*
X130559653Y-59394753D01*
X130561445Y-59396746D01*
X130562011Y-59397193D01*
X130561934Y-59397289D01*
X130606379Y-59446699D01*
X130617603Y-59515661D01*
X130589761Y-59579744D01*
X130559665Y-59605826D01*
X130556660Y-59607679D01*
X130556655Y-59607683D01*
X130432684Y-59731654D01*
X130340643Y-59880875D01*
X130340641Y-59880880D01*
X130285494Y-60047302D01*
X130285493Y-60047309D01*
X130275000Y-60150013D01*
X130275000Y-60200000D01*
X133626000Y-60200000D01*
X133693039Y-60219685D01*
X133738794Y-60272489D01*
X133750000Y-60324000D01*
X133750000Y-60576000D01*
X133730315Y-60643039D01*
X133677511Y-60688794D01*
X133626000Y-60700000D01*
X131750000Y-60700000D01*
X131750000Y-61449999D01*
X132024972Y-61449999D01*
X132024986Y-61449998D01*
X132127697Y-61439505D01*
X132294119Y-61384358D01*
X132294130Y-61384353D01*
X132422574Y-61305128D01*
X132489966Y-61286687D01*
X132556630Y-61307609D01*
X132601399Y-61361251D01*
X132610061Y-61430582D01*
X132593213Y-61475758D01*
X132590189Y-61480660D01*
X132590186Y-61480666D01*
X132535001Y-61647203D01*
X132535001Y-61647204D01*
X132535000Y-61647204D01*
X132524500Y-61749983D01*
X132524500Y-61953462D01*
X132504815Y-62020501D01*
X132452011Y-62066256D01*
X132382853Y-62076200D01*
X132361498Y-62071168D01*
X132327797Y-62060001D01*
X132327795Y-62060000D01*
X132225010Y-62049500D01*
X131599998Y-62049500D01*
X131599980Y-62049501D01*
X131497203Y-62060000D01*
X131497200Y-62060001D01*
X131330668Y-62115185D01*
X131330663Y-62115187D01*
X131181345Y-62207287D01*
X131087327Y-62301305D01*
X131026003Y-62334789D01*
X130956312Y-62329805D01*
X130911965Y-62301304D01*
X130818345Y-62207684D01*
X130669124Y-62115643D01*
X130669119Y-62115641D01*
X130502697Y-62060494D01*
X130502690Y-62060493D01*
X130399986Y-62050000D01*
X130337500Y-62050000D01*
X130337500Y-63126000D01*
X130317815Y-63193039D01*
X130265011Y-63238794D01*
X130213500Y-63250000D01*
X130087500Y-63250000D01*
X130087500Y-63376000D01*
X130067815Y-63443039D01*
X130015011Y-63488794D01*
X129963500Y-63500000D01*
X129075001Y-63500000D01*
X129075001Y-63597369D01*
X129055316Y-63664408D01*
X129002512Y-63710163D01*
X128933354Y-63720107D01*
X128926810Y-63718986D01*
X128828846Y-63699500D01*
X128828842Y-63699500D01*
X128671158Y-63699500D01*
X128671155Y-63699500D01*
X128516510Y-63730261D01*
X128516498Y-63730264D01*
X128370827Y-63790602D01*
X128370814Y-63790609D01*
X128239711Y-63878210D01*
X128239707Y-63878213D01*
X128128213Y-63989707D01*
X128128210Y-63989711D01*
X128040609Y-64120814D01*
X128040602Y-64120827D01*
X127980264Y-64266498D01*
X127980261Y-64266510D01*
X127949500Y-64421153D01*
X127949500Y-64578846D01*
X127978079Y-64722518D01*
X127980263Y-64733497D01*
X128004790Y-64792712D01*
X128017356Y-64823047D01*
X128024825Y-64892517D01*
X127993550Y-64954996D01*
X127933461Y-64990648D01*
X127902795Y-64994500D01*
X126724961Y-64994500D01*
X126653023Y-64999644D01*
X126514969Y-65040182D01*
X126393933Y-65117967D01*
X126393929Y-65117971D01*
X126299714Y-65226700D01*
X126299708Y-65226709D01*
X126239940Y-65357580D01*
X126239939Y-65357585D01*
X126219464Y-65499999D01*
X126219464Y-66650021D01*
X126225887Y-66730330D01*
X126225889Y-66730338D01*
X126234751Y-66758745D01*
X126239115Y-66813319D01*
X126219464Y-66949999D01*
X126219464Y-67950002D01*
X126224608Y-68021940D01*
X126249392Y-68106342D01*
X126261009Y-68145907D01*
X126265146Y-68159994D01*
X126342931Y-68281030D01*
X126342935Y-68281034D01*
X126444124Y-68368716D01*
X126451670Y-68375254D01*
X126451673Y-68375255D01*
X126451674Y-68375256D01*
X126451971Y-68375392D01*
X126452217Y-68375605D01*
X126459133Y-68380050D01*
X126458494Y-68381043D01*
X126504777Y-68421145D01*
X126524464Y-68488184D01*
X126524464Y-68873126D01*
X126504779Y-68940165D01*
X126488145Y-68960807D01*
X126426996Y-69021955D01*
X126426993Y-69021959D01*
X126337965Y-69166294D01*
X126337960Y-69166305D01*
X126284615Y-69327290D01*
X126274464Y-69426647D01*
X126274464Y-70273337D01*
X126274465Y-70273355D01*
X126284614Y-70372707D01*
X126284615Y-70372710D01*
X126337960Y-70533694D01*
X126337965Y-70533705D01*
X126426993Y-70678040D01*
X126426996Y-70678044D01*
X126546919Y-70797967D01*
X126546923Y-70797970D01*
X126691258Y-70886998D01*
X126691261Y-70886999D01*
X126691267Y-70887003D01*
X126852256Y-70940349D01*
X126906579Y-70945898D01*
X126971270Y-70972293D01*
X127011422Y-71029473D01*
X127014286Y-71099284D01*
X126985674Y-71149846D01*
X126986730Y-71150681D01*
X126982254Y-71156341D01*
X126890151Y-71305663D01*
X126890150Y-71305666D01*
X126834965Y-71472203D01*
X126834965Y-71472204D01*
X126834964Y-71472204D01*
X126824464Y-71574983D01*
X126824464Y-72058480D01*
X126804779Y-72125519D01*
X126788145Y-72146161D01*
X125955890Y-72978415D01*
X125955884Y-72978422D01*
X125912298Y-73043655D01*
X125912298Y-73043656D01*
X125912297Y-73043658D01*
X125879225Y-73093152D01*
X125879221Y-73093159D01*
X125826421Y-73220631D01*
X125826418Y-73220641D01*
X125799500Y-73355968D01*
X125799500Y-73355971D01*
X125799500Y-88431006D01*
X125799500Y-88568994D01*
X125799500Y-88568996D01*
X125799499Y-88568996D01*
X125826418Y-88704322D01*
X125826421Y-88704332D01*
X125879222Y-88831807D01*
X125955887Y-88946545D01*
X126553454Y-89544112D01*
X126553457Y-89544114D01*
X126668189Y-89620775D01*
X126668192Y-89620776D01*
X126668195Y-89620778D01*
X126723316Y-89643609D01*
X126777720Y-89687449D01*
X126788657Y-89706656D01*
X126790179Y-89709990D01*
X126867967Y-89831030D01*
X126867971Y-89831034D01*
X126970416Y-89919804D01*
X126976706Y-89925254D01*
X127017174Y-89943735D01*
X127107580Y-89985023D01*
X127107583Y-89985023D01*
X127107584Y-89985024D01*
X127250000Y-90005500D01*
X127425500Y-90005500D01*
X127492539Y-90025185D01*
X127538294Y-90077989D01*
X127549500Y-90129500D01*
X127549500Y-90824684D01*
X127540061Y-90872136D01*
X127480264Y-91016498D01*
X127480261Y-91016510D01*
X127449500Y-91171153D01*
X127449500Y-91328846D01*
X127480261Y-91483489D01*
X127480264Y-91483501D01*
X127540602Y-91629172D01*
X127540609Y-91629185D01*
X127628210Y-91760288D01*
X127628213Y-91760292D01*
X127739707Y-91871786D01*
X127739711Y-91871789D01*
X127870814Y-91959390D01*
X127870827Y-91959397D01*
X128016498Y-92019735D01*
X128016503Y-92019737D01*
X128129326Y-92042179D01*
X128171153Y-92050499D01*
X128171156Y-92050500D01*
X128171158Y-92050500D01*
X128328844Y-92050500D01*
X128328845Y-92050499D01*
X128483497Y-92019737D01*
X128629179Y-91959394D01*
X128760289Y-91871789D01*
X128871789Y-91760289D01*
X128959394Y-91629179D01*
X129019737Y-91483497D01*
X129050500Y-91328842D01*
X129050500Y-91171158D01*
X129050500Y-91171155D01*
X129050499Y-91171153D01*
X129034394Y-91090187D01*
X129019737Y-91016503D01*
X128959939Y-90872136D01*
X128958312Y-90863959D01*
X128955523Y-90859619D01*
X128950500Y-90824684D01*
X128950500Y-90624500D01*
X128970185Y-90557461D01*
X129022989Y-90511706D01*
X129074500Y-90500500D01*
X129434996Y-90500500D01*
X129502035Y-90520185D01*
X129540535Y-90559404D01*
X129552031Y-90578043D01*
X129671957Y-90697969D01*
X129816294Y-90786998D01*
X129816297Y-90786999D01*
X129816303Y-90787003D01*
X129977292Y-90840349D01*
X130076655Y-90850500D01*
X130923344Y-90850499D01*
X130923352Y-90850498D01*
X130923355Y-90850498D01*
X130977760Y-90844940D01*
X131022708Y-90840349D01*
X131183697Y-90787003D01*
X131306456Y-90711284D01*
X131328043Y-90697969D01*
X131328043Y-90697968D01*
X131328044Y-90697968D01*
X131447968Y-90578044D01*
X131537003Y-90433697D01*
X131590349Y-90272708D01*
X131600500Y-90173345D01*
X131600499Y-90136076D01*
X131620182Y-90069040D01*
X131672985Y-90023284D01*
X131742143Y-90013339D01*
X131801407Y-90038809D01*
X131806337Y-90042707D01*
X131806342Y-90042710D01*
X131806344Y-90042712D01*
X131955666Y-90134814D01*
X132122203Y-90189999D01*
X132224991Y-90200500D01*
X133275008Y-90200499D01*
X133275016Y-90200498D01*
X133275019Y-90200498D01*
X133331302Y-90194748D01*
X133377797Y-90189999D01*
X133544334Y-90134814D01*
X133693656Y-90042712D01*
X133817712Y-89918656D01*
X133909814Y-89769334D01*
X133964999Y-89602797D01*
X133975500Y-89500009D01*
X133975499Y-88899992D01*
X133964999Y-88797203D01*
X133909814Y-88630666D01*
X133817712Y-88481344D01*
X133693656Y-88357288D01*
X133690819Y-88355538D01*
X133689283Y-88353830D01*
X133687989Y-88352807D01*
X133688163Y-88352585D01*
X133644096Y-88303594D01*
X133632872Y-88234632D01*
X133660713Y-88170549D01*
X133690817Y-88144462D01*
X133693656Y-88142712D01*
X133817712Y-88018656D01*
X133909814Y-87869334D01*
X133964999Y-87702797D01*
X133975500Y-87600009D01*
X133975499Y-86999992D01*
X133964999Y-86897203D01*
X133909814Y-86730666D01*
X133817712Y-86581344D01*
X133693656Y-86457288D01*
X133567030Y-86379185D01*
X133544336Y-86365187D01*
X133544331Y-86365185D01*
X133542862Y-86364698D01*
X133377797Y-86310001D01*
X133377795Y-86310000D01*
X133275016Y-86299500D01*
X132701265Y-86299500D01*
X132634226Y-86279815D01*
X132588471Y-86227011D01*
X132578527Y-86157853D01*
X132607552Y-86094297D01*
X132662259Y-86057795D01*
X132769334Y-86022314D01*
X132918656Y-85930212D01*
X133042712Y-85806156D01*
X133134814Y-85656834D01*
X133189999Y-85490297D01*
X133200500Y-85387509D01*
X133200499Y-84775095D01*
X133220183Y-84708057D01*
X133236813Y-84687420D01*
X135118713Y-82805521D01*
X135118716Y-82805520D01*
X135230520Y-82693716D01*
X135257301Y-82647329D01*
X135265591Y-82637967D01*
X135285013Y-82625776D01*
X135301608Y-82609953D01*
X135314044Y-82607555D01*
X135324770Y-82600824D01*
X135347698Y-82601069D01*
X135370215Y-82596729D01*
X135381971Y-82601435D01*
X135394636Y-82601571D01*
X135413792Y-82614173D01*
X135435080Y-82622696D01*
X135442426Y-82633012D01*
X135453006Y-82639973D01*
X135462307Y-82660930D01*
X135475609Y-82679609D01*
X135476211Y-82692258D01*
X135481350Y-82703835D01*
X135477843Y-82726498D01*
X135478935Y-82749400D01*
X135478765Y-82750094D01*
X135452400Y-82856106D01*
X135449500Y-82898879D01*
X135449500Y-84301122D01*
X135449501Y-84301125D01*
X135452399Y-84343886D01*
X135452399Y-84343887D01*
X135498360Y-84528696D01*
X135582967Y-84699292D01*
X135582969Y-84699295D01*
X135702277Y-84847721D01*
X135702278Y-84847722D01*
X135850704Y-84967030D01*
X135850707Y-84967032D01*
X136027330Y-85054628D01*
X136026381Y-85056539D01*
X136074397Y-85092113D01*
X136099139Y-85157456D01*
X136099500Y-85166915D01*
X136099500Y-91583751D01*
X136079815Y-91650790D01*
X136027011Y-91696545D01*
X135957853Y-91706489D01*
X135894297Y-91677464D01*
X135879399Y-91662114D01*
X135860751Y-91639245D01*
X135703129Y-91510721D01*
X135522861Y-91416557D01*
X135327328Y-91360609D01*
X135327325Y-91360608D01*
X135208000Y-91350000D01*
X134000000Y-91350000D01*
X134000000Y-94350000D01*
X135207998Y-94350000D01*
X135208000Y-94349999D01*
X135327325Y-94339391D01*
X135327328Y-94339390D01*
X135522861Y-94283442D01*
X135703129Y-94189278D01*
X135860753Y-94060753D01*
X135989278Y-93903129D01*
X136083381Y-93722977D01*
X136102484Y-93703156D01*
X136118979Y-93681122D01*
X136126382Y-93678360D01*
X136131867Y-93672670D01*
X136158652Y-93666323D01*
X136184443Y-93656704D01*
X136192165Y-93658383D01*
X136199855Y-93656562D01*
X136225816Y-93665703D01*
X136252716Y-93671555D01*
X136261847Y-93678391D01*
X136265758Y-93679768D01*
X136280970Y-93692706D01*
X136331284Y-93743020D01*
X136331285Y-93743020D01*
X136338353Y-93750088D01*
X137881833Y-95293568D01*
X137915318Y-95354891D01*
X137910334Y-95424583D01*
X137881833Y-95468930D01*
X136964798Y-96385966D01*
X136903475Y-96419451D01*
X136833784Y-96414467D01*
X136777850Y-96372595D01*
X136753433Y-96307131D01*
X136762557Y-96250830D01*
X136769735Y-96233501D01*
X136769737Y-96233497D01*
X136800500Y-96078842D01*
X136800500Y-95921158D01*
X136800500Y-95921155D01*
X136800499Y-95921153D01*
X136786692Y-95851742D01*
X136769737Y-95766503D01*
X136769735Y-95766498D01*
X136709397Y-95620827D01*
X136709390Y-95620814D01*
X136621789Y-95489711D01*
X136621786Y-95489707D01*
X136510292Y-95378213D01*
X136510288Y-95378210D01*
X136379185Y-95290609D01*
X136379172Y-95290602D01*
X136233501Y-95230264D01*
X136233489Y-95230261D01*
X136078845Y-95199500D01*
X136078842Y-95199500D01*
X135921158Y-95199500D01*
X135921155Y-95199500D01*
X135766510Y-95230261D01*
X135766498Y-95230264D01*
X135620827Y-95290602D01*
X135620814Y-95290609D01*
X135489711Y-95378210D01*
X135489707Y-95378213D01*
X135378213Y-95489707D01*
X135378210Y-95489711D01*
X135290609Y-95620814D01*
X135290602Y-95620827D01*
X135230264Y-95766498D01*
X135230261Y-95766510D01*
X135199500Y-95921153D01*
X135199500Y-96078846D01*
X135230261Y-96233489D01*
X135230264Y-96233501D01*
X135290602Y-96379172D01*
X135290609Y-96379185D01*
X135378602Y-96510874D01*
X135399480Y-96577551D01*
X135399500Y-96579765D01*
X135399500Y-97607462D01*
X135379815Y-97674501D01*
X135330595Y-97718550D01*
X135200704Y-97782969D01*
X135063075Y-97893599D01*
X135052278Y-97902278D01*
X135041688Y-97915453D01*
X134996326Y-97971885D01*
X134938982Y-98011803D01*
X134869160Y-98014383D01*
X134809027Y-97978804D01*
X134803031Y-97971884D01*
X134747364Y-97902630D01*
X134599025Y-97783392D01*
X134599022Y-97783390D01*
X134428523Y-97698831D01*
X134243824Y-97652897D01*
X134201097Y-97650000D01*
X134000000Y-97650000D01*
X134000000Y-99026000D01*
X133980315Y-99093039D01*
X133927511Y-99138794D01*
X133876000Y-99150000D01*
X133624000Y-99150000D01*
X133556961Y-99130315D01*
X133511206Y-99077511D01*
X133500000Y-99026000D01*
X133500000Y-97650000D01*
X133298903Y-97650000D01*
X133256175Y-97652897D01*
X133071476Y-97698831D01*
X132900977Y-97783390D01*
X132900974Y-97783392D01*
X132752635Y-97902631D01*
X132696967Y-97971885D01*
X132639624Y-98011803D01*
X132569801Y-98014383D01*
X132509669Y-97978804D01*
X132503673Y-97971884D01*
X132447722Y-97902278D01*
X132447721Y-97902277D01*
X132299295Y-97782969D01*
X132299292Y-97782967D01*
X132128697Y-97698360D01*
X131943892Y-97652400D01*
X131922506Y-97650950D01*
X131901123Y-97649500D01*
X131901120Y-97649500D01*
X130998877Y-97649500D01*
X130998874Y-97649501D01*
X130956113Y-97652399D01*
X130956109Y-97652400D01*
X130908897Y-97664141D01*
X130839089Y-97661217D01*
X130781943Y-97621016D01*
X130755603Y-97556301D01*
X130764411Y-97496354D01*
X130769737Y-97483497D01*
X130800500Y-97328842D01*
X130800500Y-97171158D01*
X130800500Y-97171155D01*
X130800499Y-97171153D01*
X130796848Y-97152797D01*
X130769737Y-97016503D01*
X130748787Y-96965925D01*
X130709397Y-96870827D01*
X130709390Y-96870814D01*
X130621789Y-96739711D01*
X130621786Y-96739707D01*
X130594760Y-96712681D01*
X130561275Y-96651358D01*
X130566259Y-96581666D01*
X130594760Y-96537319D01*
X130621786Y-96510292D01*
X130621789Y-96510289D01*
X130709394Y-96379179D01*
X130769737Y-96233497D01*
X130800500Y-96078842D01*
X130800500Y-95921158D01*
X130800500Y-95921155D01*
X130800499Y-95921153D01*
X130786692Y-95851742D01*
X130769737Y-95766503D01*
X130769735Y-95766498D01*
X130709397Y-95620827D01*
X130709390Y-95620814D01*
X130621789Y-95489711D01*
X130621786Y-95489707D01*
X130510292Y-95378213D01*
X130510288Y-95378210D01*
X130379185Y-95290609D01*
X130379172Y-95290602D01*
X130233501Y-95230264D01*
X130233489Y-95230261D01*
X130078845Y-95199500D01*
X130078842Y-95199500D01*
X129921158Y-95199500D01*
X129921155Y-95199500D01*
X129766510Y-95230261D01*
X129766498Y-95230264D01*
X129620827Y-95290602D01*
X129620814Y-95290609D01*
X129489125Y-95378602D01*
X129471078Y-95384252D01*
X129455169Y-95394477D01*
X129424207Y-95398928D01*
X129422447Y-95399480D01*
X129420234Y-95399500D01*
X129274499Y-95399500D01*
X129207460Y-95379815D01*
X129161705Y-95327011D01*
X129150499Y-95275500D01*
X129150499Y-94949998D01*
X129150498Y-94949981D01*
X129139999Y-94847203D01*
X129139998Y-94847200D01*
X129124804Y-94801347D01*
X129084814Y-94680666D01*
X128992712Y-94531344D01*
X128868656Y-94407288D01*
X128719334Y-94315186D01*
X128552797Y-94260001D01*
X128552795Y-94260000D01*
X128450010Y-94249500D01*
X127049998Y-94249500D01*
X127049981Y-94249501D01*
X126947203Y-94260000D01*
X126947200Y-94260001D01*
X126780668Y-94315185D01*
X126780663Y-94315187D01*
X126631342Y-94407289D01*
X126507289Y-94531342D01*
X126415187Y-94680663D01*
X126415186Y-94680666D01*
X126360001Y-94847203D01*
X126360001Y-94847204D01*
X126360000Y-94847204D01*
X126349500Y-94949983D01*
X126349500Y-97050001D01*
X126349501Y-97050018D01*
X126360000Y-97152796D01*
X126360001Y-97152799D01*
X126415185Y-97319331D01*
X126415187Y-97319336D01*
X126421052Y-97328844D01*
X126507288Y-97468656D01*
X126631344Y-97592712D01*
X126780666Y-97684814D01*
X126947203Y-97739999D01*
X127049991Y-97750500D01*
X127193893Y-97750499D01*
X127223340Y-97759145D01*
X127253319Y-97765667D01*
X127258331Y-97769419D01*
X127260932Y-97770183D01*
X127281568Y-97786812D01*
X127381284Y-97886528D01*
X127381286Y-97886529D01*
X127388356Y-97893599D01*
X127532576Y-98037819D01*
X127566061Y-98099142D01*
X127561077Y-98168834D01*
X127519205Y-98224767D01*
X127453741Y-98249184D01*
X127444895Y-98249500D01*
X127049998Y-98249500D01*
X127049980Y-98249501D01*
X126947203Y-98260000D01*
X126947200Y-98260001D01*
X126780668Y-98315185D01*
X126780663Y-98315187D01*
X126631342Y-98407289D01*
X126507289Y-98531342D01*
X126415187Y-98680663D01*
X126415185Y-98680668D01*
X126404313Y-98713477D01*
X126360001Y-98847203D01*
X126360001Y-98847204D01*
X126360000Y-98847204D01*
X126349500Y-98949983D01*
X126349500Y-101050001D01*
X126349501Y-101050018D01*
X126360000Y-101152796D01*
X126360001Y-101152799D01*
X126415185Y-101319331D01*
X126415187Y-101319336D01*
X126450069Y-101375888D01*
X126507288Y-101468656D01*
X126631344Y-101592712D01*
X126780666Y-101684814D01*
X126947203Y-101739999D01*
X127049991Y-101750500D01*
X128450008Y-101750499D01*
X128552797Y-101739999D01*
X128719334Y-101684814D01*
X128868656Y-101592712D01*
X128992712Y-101468656D01*
X129004561Y-101449444D01*
X129056507Y-101402720D01*
X129125470Y-101391497D01*
X129189552Y-101419340D01*
X129228409Y-101477408D01*
X129228759Y-101478539D01*
X129230264Y-101483501D01*
X129290602Y-101629172D01*
X129290609Y-101629185D01*
X129378210Y-101760288D01*
X129378213Y-101760292D01*
X129489707Y-101871786D01*
X129489711Y-101871789D01*
X129620814Y-101959390D01*
X129620827Y-101959397D01*
X129706859Y-101995032D01*
X129766503Y-102019737D01*
X129921153Y-102050499D01*
X129921156Y-102050500D01*
X129921158Y-102050500D01*
X130078844Y-102050500D01*
X130078845Y-102050499D01*
X130233497Y-102019737D01*
X130379179Y-101959394D01*
X130506609Y-101874248D01*
X130573286Y-101853370D01*
X130640666Y-101871854D01*
X130687357Y-101923833D01*
X130699500Y-101977350D01*
X130699500Y-102540201D01*
X130679815Y-102607240D01*
X130640598Y-102645739D01*
X130581344Y-102682287D01*
X130457289Y-102806342D01*
X130365187Y-102955663D01*
X130365185Y-102955668D01*
X130356950Y-102980520D01*
X130310001Y-103122203D01*
X130310001Y-103122204D01*
X130310000Y-103122204D01*
X130299500Y-103224983D01*
X130299500Y-104275001D01*
X130299501Y-104275019D01*
X130310000Y-104377796D01*
X130310001Y-104377799D01*
X130365185Y-104544331D01*
X130365189Y-104544340D01*
X130452183Y-104685380D01*
X130470623Y-104752772D01*
X130452183Y-104815573D01*
X130365643Y-104955875D01*
X130365641Y-104955880D01*
X130310494Y-105122302D01*
X130310493Y-105122309D01*
X130300000Y-105225013D01*
X130300000Y-105500000D01*
X131176000Y-105500000D01*
X131243039Y-105519685D01*
X131288794Y-105572489D01*
X131300000Y-105624000D01*
X131300000Y-105876000D01*
X131280315Y-105943039D01*
X131227511Y-105988794D01*
X131176000Y-106000000D01*
X130300001Y-106000000D01*
X130300001Y-106274986D01*
X130310494Y-106377697D01*
X130365641Y-106544119D01*
X130365643Y-106544124D01*
X130457684Y-106693345D01*
X130552158Y-106787819D01*
X130585643Y-106849142D01*
X130580659Y-106918834D01*
X130538787Y-106974767D01*
X130473323Y-106999184D01*
X130464477Y-106999500D01*
X127504067Y-106999500D01*
X127495957Y-106999235D01*
X127247116Y-106982925D01*
X127231035Y-106980807D01*
X126990464Y-106932954D01*
X126974797Y-106928756D01*
X126742520Y-106849909D01*
X126727534Y-106843702D01*
X126507539Y-106735212D01*
X126493492Y-106727102D01*
X126289539Y-106590825D01*
X126276671Y-106580951D01*
X126092250Y-106419218D01*
X126080781Y-106407749D01*
X125958923Y-106268797D01*
X125919045Y-106223325D01*
X125909174Y-106210460D01*
X125905671Y-106205218D01*
X125772897Y-106006507D01*
X125764787Y-105992460D01*
X125740415Y-105943039D01*
X125656294Y-105772458D01*
X125650090Y-105757479D01*
X125571243Y-105525202D01*
X125567045Y-105509535D01*
X125546596Y-105406732D01*
X125519190Y-105268953D01*
X125517075Y-105252895D01*
X125500765Y-105004043D01*
X125500500Y-104995933D01*
X125500500Y-104897648D01*
X126199500Y-104897648D01*
X126199500Y-105102352D01*
X126202644Y-105122203D01*
X126231522Y-105304534D01*
X126294781Y-105499223D01*
X126387715Y-105681613D01*
X126508028Y-105847213D01*
X126652786Y-105991971D01*
X126807749Y-106104556D01*
X126818390Y-106112287D01*
X126934607Y-106171503D01*
X127000776Y-106205218D01*
X127000778Y-106205218D01*
X127000781Y-106205220D01*
X127105137Y-106239127D01*
X127195465Y-106268477D01*
X127236700Y-106275008D01*
X127397648Y-106300500D01*
X127397649Y-106300500D01*
X127602351Y-106300500D01*
X127602352Y-106300500D01*
X127804534Y-106268477D01*
X127999219Y-106205220D01*
X128181610Y-106112287D01*
X128274590Y-106044732D01*
X128347213Y-105991971D01*
X128347215Y-105991968D01*
X128347219Y-105991966D01*
X128491966Y-105847219D01*
X128491968Y-105847215D01*
X128491971Y-105847213D01*
X128544732Y-105774590D01*
X128612287Y-105681610D01*
X128705220Y-105499219D01*
X128768477Y-105304534D01*
X128800500Y-105102352D01*
X128800500Y-104897648D01*
X128799936Y-104894085D01*
X128768477Y-104695465D01*
X128705218Y-104500776D01*
X128642556Y-104377797D01*
X128612287Y-104318390D01*
X128604556Y-104307749D01*
X128491971Y-104152786D01*
X128347213Y-104008028D01*
X128181613Y-103887715D01*
X128181612Y-103887714D01*
X128181610Y-103887713D01*
X128124653Y-103858691D01*
X127999223Y-103794781D01*
X127804534Y-103731522D01*
X127629995Y-103703878D01*
X127602352Y-103699500D01*
X127397648Y-103699500D01*
X127373329Y-103703351D01*
X127195465Y-103731522D01*
X127000776Y-103794781D01*
X126818386Y-103887715D01*
X126652786Y-104008028D01*
X126508028Y-104152786D01*
X126387715Y-104318386D01*
X126294781Y-104500776D01*
X126231522Y-104695465D01*
X126200064Y-104894085D01*
X126199500Y-104897648D01*
X125500500Y-104897648D01*
X125500500Y-93408000D01*
X131350000Y-93408000D01*
X131360608Y-93527325D01*
X131360609Y-93527328D01*
X131416557Y-93722861D01*
X131510721Y-93903129D01*
X131639246Y-94060753D01*
X131796870Y-94189278D01*
X131977138Y-94283442D01*
X132172671Y-94339390D01*
X132172674Y-94339391D01*
X132291999Y-94349999D01*
X132292002Y-94350000D01*
X133500000Y-94350000D01*
X133500000Y-93100000D01*
X131350000Y-93100000D01*
X131350000Y-93408000D01*
X125500500Y-93408000D01*
X125500500Y-92291999D01*
X131350000Y-92291999D01*
X131350000Y-92600000D01*
X133500000Y-92600000D01*
X133500000Y-91350000D01*
X132291999Y-91350000D01*
X132172674Y-91360608D01*
X132172671Y-91360609D01*
X131977138Y-91416557D01*
X131796870Y-91510721D01*
X131639246Y-91639246D01*
X131510721Y-91796870D01*
X131416557Y-91977138D01*
X131360609Y-92172671D01*
X131360608Y-92172674D01*
X131350000Y-92291999D01*
X125500500Y-92291999D01*
X125500500Y-62750013D01*
X129075000Y-62750013D01*
X129075000Y-63000000D01*
X129837500Y-63000000D01*
X129837500Y-62050000D01*
X129837499Y-62049999D01*
X129775028Y-62050000D01*
X129775011Y-62050001D01*
X129672302Y-62060494D01*
X129505880Y-62115641D01*
X129505875Y-62115643D01*
X129356654Y-62207684D01*
X129232684Y-62331654D01*
X129140643Y-62480875D01*
X129140641Y-62480880D01*
X129085494Y-62647302D01*
X129085493Y-62647309D01*
X129075000Y-62750013D01*
X125500500Y-62750013D01*
X125500500Y-60004066D01*
X125500765Y-59995956D01*
X125507208Y-59897648D01*
X126199500Y-59897648D01*
X126199500Y-60102351D01*
X126231522Y-60304534D01*
X126294781Y-60499223D01*
X126342229Y-60592343D01*
X126360994Y-60629172D01*
X126387715Y-60681613D01*
X126508028Y-60847213D01*
X126652786Y-60991971D01*
X126805748Y-61103102D01*
X126818390Y-61112287D01*
X126928410Y-61168345D01*
X127000776Y-61205218D01*
X127000778Y-61205218D01*
X127000781Y-61205220D01*
X127105137Y-61239127D01*
X127195465Y-61268477D01*
X127296557Y-61284488D01*
X127397648Y-61300500D01*
X127397649Y-61300500D01*
X127602351Y-61300500D01*
X127602352Y-61300500D01*
X127804534Y-61268477D01*
X127999219Y-61205220D01*
X128181610Y-61112287D01*
X128309846Y-61019119D01*
X128347213Y-60991971D01*
X128347215Y-60991968D01*
X128347219Y-60991966D01*
X128491966Y-60847219D01*
X128491968Y-60847215D01*
X128491971Y-60847213D01*
X128555124Y-60760289D01*
X128562609Y-60749986D01*
X130275001Y-60749986D01*
X130285494Y-60852697D01*
X130340641Y-61019119D01*
X130340643Y-61019124D01*
X130432684Y-61168345D01*
X130556654Y-61292315D01*
X130705875Y-61384356D01*
X130705880Y-61384358D01*
X130872302Y-61439505D01*
X130872309Y-61439506D01*
X130975019Y-61449999D01*
X131249999Y-61449999D01*
X131250000Y-61449998D01*
X131250000Y-60700000D01*
X130275001Y-60700000D01*
X130275001Y-60749986D01*
X128562609Y-60749986D01*
X128612287Y-60681610D01*
X128705220Y-60499219D01*
X128768477Y-60304534D01*
X128800500Y-60102352D01*
X128800500Y-59897648D01*
X128768477Y-59695466D01*
X128705220Y-59500781D01*
X128705218Y-59500778D01*
X128705218Y-59500776D01*
X128650155Y-59392711D01*
X128612287Y-59318390D01*
X128604556Y-59307749D01*
X128491971Y-59152786D01*
X128347213Y-59008028D01*
X128181613Y-58887715D01*
X128181612Y-58887714D01*
X128181610Y-58887713D01*
X128124653Y-58858691D01*
X127999223Y-58794781D01*
X127804534Y-58731522D01*
X127629995Y-58703878D01*
X127602352Y-58699500D01*
X127397648Y-58699500D01*
X127373329Y-58703351D01*
X127195465Y-58731522D01*
X127000776Y-58794781D01*
X126818386Y-58887715D01*
X126652786Y-59008028D01*
X126508028Y-59152786D01*
X126387715Y-59318386D01*
X126294781Y-59500776D01*
X126231522Y-59695465D01*
X126199500Y-59897648D01*
X125507208Y-59897648D01*
X125517075Y-59747102D01*
X125519190Y-59731048D01*
X125567045Y-59490462D01*
X125571243Y-59474797D01*
X125599107Y-59392711D01*
X125650093Y-59242512D01*
X125656291Y-59227547D01*
X125764790Y-59007533D01*
X125772893Y-58993498D01*
X125909182Y-58789527D01*
X125919039Y-58776681D01*
X126080786Y-58592244D01*
X126092244Y-58580786D01*
X126276681Y-58419039D01*
X126289527Y-58409182D01*
X126493498Y-58272893D01*
X126507533Y-58264790D01*
X126727547Y-58156291D01*
X126742512Y-58150093D01*
X126969653Y-58072989D01*
X126974797Y-58071243D01*
X126990464Y-58067045D01*
X127000373Y-58065074D01*
X127231048Y-58019190D01*
X127247102Y-58017075D01*
X127495957Y-58000765D01*
X127504067Y-58000500D01*
X127565892Y-58000500D01*
X130163052Y-58000500D01*
X130230091Y-58020185D01*
G37*
%TD.AperFunction*%
%TA.AperFunction,Conductor*%
G36*
X162504043Y-58000765D02*
G01*
X162752895Y-58017075D01*
X162768953Y-58019190D01*
X162976105Y-58060395D01*
X163009535Y-58067045D01*
X163025202Y-58071243D01*
X163176066Y-58122454D01*
X163257481Y-58150091D01*
X163272458Y-58156294D01*
X163462457Y-58249991D01*
X163492460Y-58264787D01*
X163506508Y-58272897D01*
X163710464Y-58409177D01*
X163723328Y-58419048D01*
X163907749Y-58580781D01*
X163919218Y-58592250D01*
X164080951Y-58776671D01*
X164090825Y-58789539D01*
X164227102Y-58993492D01*
X164235212Y-59007539D01*
X164343702Y-59227534D01*
X164349909Y-59242520D01*
X164428756Y-59474797D01*
X164432954Y-59490464D01*
X164480807Y-59731035D01*
X164482925Y-59747116D01*
X164499235Y-59995956D01*
X164499500Y-60004066D01*
X164499500Y-104995933D01*
X164499235Y-105004043D01*
X164482925Y-105252883D01*
X164480807Y-105268964D01*
X164432954Y-105509535D01*
X164428756Y-105525202D01*
X164349909Y-105757479D01*
X164343702Y-105772465D01*
X164235212Y-105992460D01*
X164227102Y-106006507D01*
X164090825Y-106210460D01*
X164080951Y-106223328D01*
X163919218Y-106407749D01*
X163907749Y-106419218D01*
X163723328Y-106580951D01*
X163710460Y-106590825D01*
X163506507Y-106727102D01*
X163492460Y-106735212D01*
X163272465Y-106843702D01*
X163257479Y-106849909D01*
X163025202Y-106928756D01*
X163009535Y-106932954D01*
X162768964Y-106980807D01*
X162752883Y-106982925D01*
X162504043Y-106999235D01*
X162495933Y-106999500D01*
X134036230Y-106999500D01*
X133969191Y-106979815D01*
X133923436Y-106927011D01*
X133913492Y-106857853D01*
X133942517Y-106794297D01*
X133948549Y-106787819D01*
X134042712Y-106693656D01*
X134134814Y-106544334D01*
X134179198Y-106410390D01*
X134218968Y-106352949D01*
X134283483Y-106326125D01*
X134298806Y-106325708D01*
X134298806Y-106325500D01*
X134302126Y-106325499D01*
X134302127Y-106325500D01*
X135297872Y-106325499D01*
X135357483Y-106319091D01*
X135492331Y-106268796D01*
X135607546Y-106182546D01*
X135693796Y-106067331D01*
X135744091Y-105932483D01*
X135750500Y-105872873D01*
X135750499Y-104925095D01*
X135770183Y-104858057D01*
X135786813Y-104837420D01*
X136333506Y-104290728D01*
X136333511Y-104290724D01*
X136343714Y-104280520D01*
X136343716Y-104280520D01*
X136455520Y-104168716D01*
X136508398Y-104077128D01*
X136508399Y-104077127D01*
X137249500Y-104077127D01*
X137249500Y-105872870D01*
X137249501Y-105872876D01*
X137255908Y-105932483D01*
X137306202Y-106067328D01*
X137306206Y-106067335D01*
X137392452Y-106182544D01*
X137392455Y-106182547D01*
X137507664Y-106268793D01*
X137507671Y-106268797D01*
X137642517Y-106319091D01*
X137642516Y-106319091D01*
X137649444Y-106319835D01*
X137702127Y-106325500D01*
X138697872Y-106325499D01*
X138757483Y-106319091D01*
X138892331Y-106268796D01*
X139007546Y-106182546D01*
X139093796Y-106067331D01*
X139144091Y-105932483D01*
X139150500Y-105872873D01*
X139150500Y-105549500D01*
X139170185Y-105482461D01*
X139222989Y-105436706D01*
X139274500Y-105425500D01*
X139598278Y-105425500D01*
X139665317Y-105445185D01*
X139711072Y-105497989D01*
X139716937Y-105513501D01*
X139717947Y-105516832D01*
X139793364Y-105698907D01*
X139793371Y-105698920D01*
X139902860Y-105862781D01*
X139902863Y-105862785D01*
X140042214Y-106002136D01*
X140042218Y-106002139D01*
X140206079Y-106111628D01*
X140206092Y-106111635D01*
X140377284Y-106182544D01*
X140388165Y-106187051D01*
X140388169Y-106187051D01*
X140388170Y-106187052D01*
X140581456Y-106225500D01*
X140581459Y-106225500D01*
X140778543Y-106225500D01*
X140908582Y-106199632D01*
X140971835Y-106187051D01*
X141153914Y-106111632D01*
X141317782Y-106002139D01*
X141457139Y-105862782D01*
X141566632Y-105698914D01*
X141573800Y-105681610D01*
X141597662Y-105624000D01*
X141642051Y-105516835D01*
X141665983Y-105396521D01*
X141680500Y-105323543D01*
X141680500Y-104326456D01*
X141642052Y-104133170D01*
X141642051Y-104133167D01*
X141642051Y-104133165D01*
X141628521Y-104100500D01*
X141566635Y-103951092D01*
X141566628Y-103951079D01*
X141457139Y-103787218D01*
X141457136Y-103787214D01*
X141317785Y-103647863D01*
X141317781Y-103647860D01*
X141153920Y-103538371D01*
X141153907Y-103538364D01*
X140971839Y-103462950D01*
X140971829Y-103462947D01*
X140778543Y-103424500D01*
X140778541Y-103424500D01*
X140581459Y-103424500D01*
X140581457Y-103424500D01*
X140388170Y-103462947D01*
X140388160Y-103462950D01*
X140206092Y-103538364D01*
X140206079Y-103538371D01*
X140042218Y-103647860D01*
X140042214Y-103647863D01*
X139902863Y-103787214D01*
X139902860Y-103787218D01*
X139793371Y-103951079D01*
X139793364Y-103951092D01*
X139717947Y-104133167D01*
X139716937Y-104136499D01*
X139715933Y-104138029D01*
X139715618Y-104138792D01*
X139715473Y-104138732D01*
X139678638Y-104194937D01*
X139614825Y-104223391D01*
X139598278Y-104224500D01*
X139274499Y-104224500D01*
X139207460Y-104204815D01*
X139161705Y-104152011D01*
X139150499Y-104100500D01*
X139150499Y-104077127D01*
X139150498Y-104077123D01*
X139150497Y-104077116D01*
X139144091Y-104017517D01*
X139119311Y-103951079D01*
X139093797Y-103882671D01*
X139093793Y-103882664D01*
X139007547Y-103767455D01*
X139007544Y-103767452D01*
X138892335Y-103681206D01*
X138892328Y-103681202D01*
X138757482Y-103630908D01*
X138757483Y-103630908D01*
X138697883Y-103624501D01*
X138697881Y-103624500D01*
X138697873Y-103624500D01*
X138697864Y-103624500D01*
X137702129Y-103624500D01*
X137702123Y-103624501D01*
X137642516Y-103630908D01*
X137507671Y-103681202D01*
X137507664Y-103681206D01*
X137392455Y-103767452D01*
X137392452Y-103767455D01*
X137306206Y-103882664D01*
X137306202Y-103882671D01*
X137255908Y-104017517D01*
X137249501Y-104077116D01*
X137249500Y-104077127D01*
X136508399Y-104077127D01*
X136534577Y-104031785D01*
X136557724Y-103945399D01*
X136594087Y-103885743D01*
X136645400Y-103857723D01*
X136731784Y-103834577D01*
X136868716Y-103755520D01*
X136980520Y-103643716D01*
X137059577Y-103506784D01*
X137100500Y-103354057D01*
X137100500Y-102999098D01*
X137120185Y-102932059D01*
X137172989Y-102886304D01*
X137242147Y-102876360D01*
X137305703Y-102905385D01*
X137312181Y-102911417D01*
X137381284Y-102980520D01*
X137381286Y-102980521D01*
X137381290Y-102980524D01*
X137518209Y-103059573D01*
X137518216Y-103059577D01*
X137670943Y-103100500D01*
X141624339Y-103100500D01*
X141624355Y-103100501D01*
X141631951Y-103100501D01*
X141790062Y-103100501D01*
X141790065Y-103100501D01*
X141942793Y-103059577D01*
X141992912Y-103030639D01*
X142079724Y-102980520D01*
X142191528Y-102868716D01*
X142191528Y-102868714D01*
X142201736Y-102858507D01*
X142201738Y-102858504D01*
X143057368Y-102002873D01*
X143081802Y-101989531D01*
X143104489Y-101973376D01*
X143112048Y-101973015D01*
X143118689Y-101969390D01*
X143146463Y-101971376D01*
X143174280Y-101970051D01*
X143184360Y-101974086D01*
X143188381Y-101974374D01*
X143207046Y-101983168D01*
X143227596Y-101995032D01*
X143280370Y-102025501D01*
X143339391Y-102059577D01*
X143492118Y-102100500D01*
X143492119Y-102100500D01*
X146458330Y-102100500D01*
X146458346Y-102100501D01*
X146465942Y-102100501D01*
X146624053Y-102100501D01*
X146624056Y-102100501D01*
X146776784Y-102059577D01*
X146835805Y-102025501D01*
X146913715Y-101980520D01*
X147025519Y-101868716D01*
X147025519Y-101868714D01*
X147035723Y-101858511D01*
X147035727Y-101858506D01*
X147324997Y-101569235D01*
X147386318Y-101535752D01*
X147456010Y-101540736D01*
X147500357Y-101569237D01*
X147536635Y-101605515D01*
X147667865Y-101681281D01*
X147814234Y-101720500D01*
X147814236Y-101720500D01*
X147965764Y-101720500D01*
X147965766Y-101720500D01*
X148112135Y-101681281D01*
X148243365Y-101605515D01*
X148243366Y-101605513D01*
X148250403Y-101601451D01*
X148251749Y-101603783D01*
X148304553Y-101583357D01*
X148373001Y-101597381D01*
X148423001Y-101646185D01*
X148429458Y-101659474D01*
X148433367Y-101668913D01*
X148433371Y-101668920D01*
X148542860Y-101832781D01*
X148542863Y-101832785D01*
X148683181Y-101973103D01*
X148716666Y-102034426D01*
X148719500Y-102060784D01*
X148719500Y-103559216D01*
X148699815Y-103626255D01*
X148683181Y-103646897D01*
X148542863Y-103787214D01*
X148542860Y-103787218D01*
X148433371Y-103951079D01*
X148433364Y-103951092D01*
X148357950Y-104133160D01*
X148357947Y-104133170D01*
X148319500Y-104326456D01*
X148319500Y-104326459D01*
X148319500Y-105323541D01*
X148319500Y-105323543D01*
X148319499Y-105323543D01*
X148357947Y-105516829D01*
X148357950Y-105516839D01*
X148433364Y-105698907D01*
X148433371Y-105698920D01*
X148542860Y-105862781D01*
X148542863Y-105862785D01*
X148682214Y-106002136D01*
X148682218Y-106002139D01*
X148846079Y-106111628D01*
X148846092Y-106111635D01*
X149017284Y-106182544D01*
X149028165Y-106187051D01*
X149028169Y-106187051D01*
X149028170Y-106187052D01*
X149221456Y-106225500D01*
X149221459Y-106225500D01*
X149418543Y-106225500D01*
X149548582Y-106199632D01*
X149611835Y-106187051D01*
X149793914Y-106111632D01*
X149957782Y-106002139D01*
X150097139Y-105862782D01*
X150206632Y-105698914D01*
X150213800Y-105681610D01*
X150237662Y-105624000D01*
X150282051Y-105516835D01*
X150282052Y-105516832D01*
X150283063Y-105513501D01*
X150284066Y-105511970D01*
X150284382Y-105511208D01*
X150284526Y-105511267D01*
X150321362Y-105455063D01*
X150385175Y-105426609D01*
X150401722Y-105425500D01*
X150725501Y-105425500D01*
X150792540Y-105445185D01*
X150838295Y-105497989D01*
X150849501Y-105549500D01*
X150849501Y-105872876D01*
X150855908Y-105932483D01*
X150906202Y-106067328D01*
X150906206Y-106067335D01*
X150992452Y-106182544D01*
X150992455Y-106182547D01*
X151107664Y-106268793D01*
X151107671Y-106268797D01*
X151242517Y-106319091D01*
X151242516Y-106319091D01*
X151249444Y-106319835D01*
X151302127Y-106325500D01*
X152249902Y-106325499D01*
X152279348Y-106334145D01*
X152309329Y-106340667D01*
X152314342Y-106344419D01*
X152316941Y-106345183D01*
X152337583Y-106361818D01*
X152466139Y-106490374D01*
X152466149Y-106490385D01*
X152470479Y-106494715D01*
X152470480Y-106494716D01*
X152582284Y-106606520D01*
X152582286Y-106606521D01*
X152634094Y-106636432D01*
X152634093Y-106636432D01*
X152634096Y-106636433D01*
X152719209Y-106685574D01*
X152719210Y-106685575D01*
X152719212Y-106685575D01*
X152719215Y-106685577D01*
X152871943Y-106726501D01*
X152871946Y-106726501D01*
X153037654Y-106726501D01*
X153037670Y-106726500D01*
X155864331Y-106726500D01*
X155864347Y-106726501D01*
X155871943Y-106726501D01*
X156030054Y-106726501D01*
X156030057Y-106726501D01*
X156182785Y-106685577D01*
X156267906Y-106636432D01*
X156319716Y-106606520D01*
X156431520Y-106494716D01*
X156431520Y-106494714D01*
X156441724Y-106484511D01*
X156441728Y-106484506D01*
X157519506Y-105406728D01*
X157519511Y-105406724D01*
X157529714Y-105396520D01*
X157529716Y-105396520D01*
X157641520Y-105284716D01*
X157720577Y-105147784D01*
X157761500Y-104995057D01*
X157761500Y-104897648D01*
X161199500Y-104897648D01*
X161199500Y-105102352D01*
X161202644Y-105122203D01*
X161231522Y-105304534D01*
X161294781Y-105499223D01*
X161387715Y-105681613D01*
X161508028Y-105847213D01*
X161652786Y-105991971D01*
X161807749Y-106104556D01*
X161818390Y-106112287D01*
X161934607Y-106171503D01*
X162000776Y-106205218D01*
X162000778Y-106205218D01*
X162000781Y-106205220D01*
X162105137Y-106239127D01*
X162195465Y-106268477D01*
X162236700Y-106275008D01*
X162397648Y-106300500D01*
X162397649Y-106300500D01*
X162602351Y-106300500D01*
X162602352Y-106300500D01*
X162804534Y-106268477D01*
X162999219Y-106205220D01*
X163181610Y-106112287D01*
X163274590Y-106044732D01*
X163347213Y-105991971D01*
X163347215Y-105991968D01*
X163347219Y-105991966D01*
X163491966Y-105847219D01*
X163491968Y-105847215D01*
X163491971Y-105847213D01*
X163544732Y-105774590D01*
X163612287Y-105681610D01*
X163705220Y-105499219D01*
X163768477Y-105304534D01*
X163800500Y-105102352D01*
X163800500Y-104897648D01*
X163799936Y-104894085D01*
X163768477Y-104695465D01*
X163705218Y-104500776D01*
X163642556Y-104377797D01*
X163612287Y-104318390D01*
X163604556Y-104307749D01*
X163491971Y-104152786D01*
X163347213Y-104008028D01*
X163181613Y-103887715D01*
X163181612Y-103887714D01*
X163181610Y-103887713D01*
X163124653Y-103858691D01*
X162999223Y-103794781D01*
X162804534Y-103731522D01*
X162629995Y-103703878D01*
X162602352Y-103699500D01*
X162397648Y-103699500D01*
X162373329Y-103703351D01*
X162195465Y-103731522D01*
X162000776Y-103794781D01*
X161818386Y-103887715D01*
X161652786Y-104008028D01*
X161508028Y-104152786D01*
X161387715Y-104318386D01*
X161294781Y-104500776D01*
X161231522Y-104695465D01*
X161200064Y-104894085D01*
X161199500Y-104897648D01*
X157761500Y-104897648D01*
X157761500Y-97974000D01*
X157781185Y-97906961D01*
X157833989Y-97861206D01*
X157885500Y-97850000D01*
X158300000Y-97850000D01*
X158300000Y-96933012D01*
X158357007Y-96965925D01*
X158484174Y-97000000D01*
X158615826Y-97000000D01*
X158742993Y-96965925D01*
X158800000Y-96933012D01*
X158800000Y-97850000D01*
X159447828Y-97850000D01*
X159447844Y-97849999D01*
X159507372Y-97843598D01*
X159507379Y-97843596D01*
X159642086Y-97793354D01*
X159642093Y-97793350D01*
X159757187Y-97707190D01*
X159757190Y-97707187D01*
X159843350Y-97592093D01*
X159843354Y-97592086D01*
X159893596Y-97457379D01*
X159893598Y-97457372D01*
X159899999Y-97397844D01*
X159900000Y-97397827D01*
X159900000Y-96750000D01*
X158983012Y-96750000D01*
X159015925Y-96692993D01*
X159050000Y-96565826D01*
X159050000Y-96434174D01*
X159015925Y-96307007D01*
X158983012Y-96250000D01*
X159900000Y-96250000D01*
X159900000Y-95602172D01*
X159899999Y-95602155D01*
X159893598Y-95542627D01*
X159893596Y-95542620D01*
X159843354Y-95407913D01*
X159843350Y-95407906D01*
X159757190Y-95292812D01*
X159757187Y-95292809D01*
X159642093Y-95206649D01*
X159642086Y-95206645D01*
X159507379Y-95156403D01*
X159507372Y-95156401D01*
X159447844Y-95150000D01*
X158800000Y-95150000D01*
X158800000Y-96066988D01*
X158742993Y-96034075D01*
X158615826Y-96000000D01*
X158484174Y-96000000D01*
X158357007Y-96034075D01*
X158300000Y-96066988D01*
X158300000Y-95150000D01*
X157885500Y-95150000D01*
X157818461Y-95130315D01*
X157772706Y-95077511D01*
X157761500Y-95026000D01*
X157761500Y-94224000D01*
X157781185Y-94156961D01*
X157833989Y-94111206D01*
X157885500Y-94100000D01*
X158250000Y-94100000D01*
X158250000Y-93183012D01*
X158307007Y-93215925D01*
X158434174Y-93250000D01*
X158565826Y-93250000D01*
X158692993Y-93215925D01*
X158750000Y-93183012D01*
X158750000Y-94100000D01*
X159397828Y-94100000D01*
X159397844Y-94099999D01*
X159457372Y-94093598D01*
X159457379Y-94093596D01*
X159592086Y-94043354D01*
X159592093Y-94043350D01*
X159707187Y-93957190D01*
X159707190Y-93957187D01*
X159793350Y-93842093D01*
X159793354Y-93842086D01*
X159843596Y-93707379D01*
X159843598Y-93707372D01*
X159849999Y-93647844D01*
X159850000Y-93647827D01*
X159850000Y-93000000D01*
X158933012Y-93000000D01*
X158965925Y-92942993D01*
X159000000Y-92815826D01*
X159000000Y-92684174D01*
X158965925Y-92557007D01*
X158933012Y-92500000D01*
X159850000Y-92500000D01*
X159850000Y-91852172D01*
X159849999Y-91852155D01*
X159843598Y-91792627D01*
X159843596Y-91792620D01*
X159793354Y-91657913D01*
X159793350Y-91657906D01*
X159707190Y-91542812D01*
X159707187Y-91542809D01*
X159592093Y-91456649D01*
X159592086Y-91456645D01*
X159457379Y-91406403D01*
X159457372Y-91406401D01*
X159397844Y-91400000D01*
X158750000Y-91400000D01*
X158750000Y-92316988D01*
X158692993Y-92284075D01*
X158565826Y-92250000D01*
X158434174Y-92250000D01*
X158307007Y-92284075D01*
X158250000Y-92316988D01*
X158250000Y-91400000D01*
X157885500Y-91400000D01*
X157818461Y-91380315D01*
X157772706Y-91327511D01*
X157761500Y-91276000D01*
X157761500Y-90793139D01*
X157756702Y-90775234D01*
X157735999Y-90697968D01*
X157720577Y-90640412D01*
X157694817Y-90595795D01*
X157690922Y-90584442D01*
X157689869Y-90561050D01*
X157684349Y-90538294D01*
X157688328Y-90526795D01*
X157687782Y-90514643D01*
X157699542Y-90494396D01*
X157707202Y-90472268D01*
X157716765Y-90464747D01*
X157722877Y-90454226D01*
X157743717Y-90443551D01*
X157762123Y-90429077D01*
X157781089Y-90424409D01*
X157785064Y-90422374D01*
X157788136Y-90422675D01*
X157795606Y-90420837D01*
X157852761Y-90414999D01*
X158019298Y-90359814D01*
X158168620Y-90267712D01*
X158172658Y-90263673D01*
X158233977Y-90230186D01*
X158303669Y-90235167D01*
X158359605Y-90277035D01*
X158383700Y-90338750D01*
X158384615Y-90347708D01*
X158384615Y-90347710D01*
X158437960Y-90508694D01*
X158437965Y-90508705D01*
X158526993Y-90653040D01*
X158526996Y-90653044D01*
X158646919Y-90772967D01*
X158646923Y-90772970D01*
X158791258Y-90861998D01*
X158791261Y-90861999D01*
X158791267Y-90862003D01*
X158952256Y-90915349D01*
X159051619Y-90925500D01*
X159898308Y-90925499D01*
X159898316Y-90925498D01*
X159898319Y-90925498D01*
X159952724Y-90919940D01*
X159997672Y-90915349D01*
X160158661Y-90862003D01*
X160303008Y-90772968D01*
X160422932Y-90653044D01*
X160434429Y-90634403D01*
X160486376Y-90587679D01*
X160539968Y-90575500D01*
X160895903Y-90575500D01*
X160895907Y-90575501D01*
X161054021Y-90575501D01*
X161060066Y-90573880D01*
X161074336Y-90573747D01*
X161100980Y-90581299D01*
X161128339Y-90585564D01*
X161134119Y-90590693D01*
X161141557Y-90592802D01*
X161159887Y-90613558D01*
X161180599Y-90631938D01*
X161182759Y-90639459D01*
X161187806Y-90645174D01*
X161191707Y-90670612D01*
X161199500Y-90697742D01*
X161199500Y-90828846D01*
X161230261Y-90983489D01*
X161230264Y-90983501D01*
X161290602Y-91129172D01*
X161290609Y-91129185D01*
X161378210Y-91260288D01*
X161378213Y-91260292D01*
X161489707Y-91371786D01*
X161489711Y-91371789D01*
X161620814Y-91459390D01*
X161620827Y-91459397D01*
X161766498Y-91519735D01*
X161766503Y-91519737D01*
X161892774Y-91544854D01*
X161921153Y-91550499D01*
X161921156Y-91550500D01*
X161921158Y-91550500D01*
X162078844Y-91550500D01*
X162078845Y-91550499D01*
X162233497Y-91519737D01*
X162347842Y-91472374D01*
X162379172Y-91459397D01*
X162379172Y-91459396D01*
X162379179Y-91459394D01*
X162510289Y-91371789D01*
X162621789Y-91260289D01*
X162709394Y-91129179D01*
X162769737Y-90983497D01*
X162800500Y-90828842D01*
X162800500Y-90671158D01*
X162800500Y-90671155D01*
X162800499Y-90671153D01*
X162792699Y-90631938D01*
X162769737Y-90516503D01*
X162769735Y-90516498D01*
X162709939Y-90372136D01*
X162708312Y-90363959D01*
X162705523Y-90359619D01*
X162700500Y-90324684D01*
X162700500Y-90096378D01*
X162720185Y-90029339D01*
X162772989Y-89983584D01*
X162790760Y-89978024D01*
X162790526Y-89977228D01*
X162811312Y-89971124D01*
X162934956Y-89934819D01*
X163055996Y-89857031D01*
X163150218Y-89748294D01*
X163150222Y-89748286D01*
X163150359Y-89747987D01*
X163150574Y-89747738D01*
X163155013Y-89740832D01*
X163156005Y-89741470D01*
X163162032Y-89734515D01*
X163169439Y-89718297D01*
X163184437Y-89708657D01*
X163196114Y-89695183D01*
X163213221Y-89690160D01*
X163228217Y-89680523D01*
X163263152Y-89675500D01*
X163293113Y-89675500D01*
X163317303Y-89677882D01*
X163343463Y-89683086D01*
X163431004Y-89700500D01*
X163431007Y-89700500D01*
X163568995Y-89700500D01*
X163669423Y-89680523D01*
X163704328Y-89673580D01*
X163831811Y-89620775D01*
X163946542Y-89544114D01*
X164044114Y-89446542D01*
X164120775Y-89331811D01*
X164173580Y-89204328D01*
X164182389Y-89160041D01*
X164200500Y-89068995D01*
X164200500Y-73756042D01*
X164196320Y-73735032D01*
X164192141Y-73714022D01*
X164188090Y-73693658D01*
X164181537Y-73660713D01*
X164173580Y-73620708D01*
X164138079Y-73535000D01*
X164120777Y-73493228D01*
X164044112Y-73378490D01*
X162711782Y-72046160D01*
X162678297Y-71984837D01*
X162675463Y-71958479D01*
X162675463Y-71474998D01*
X162675462Y-71474981D01*
X162664963Y-71372203D01*
X162664962Y-71372200D01*
X162642914Y-71305663D01*
X162609778Y-71205666D01*
X162517676Y-71056344D01*
X162517673Y-71056341D01*
X162513198Y-71050681D01*
X162514353Y-71049767D01*
X162484784Y-70995614D01*
X162489768Y-70925922D01*
X162531640Y-70869989D01*
X162593348Y-70845898D01*
X162647672Y-70840349D01*
X162808661Y-70787003D01*
X162953008Y-70697968D01*
X163072932Y-70578044D01*
X163161967Y-70433697D01*
X163215313Y-70272708D01*
X163225464Y-70173345D01*
X163225463Y-69326656D01*
X163215313Y-69227292D01*
X163161967Y-69066303D01*
X163161963Y-69066297D01*
X163161962Y-69066294D01*
X163072934Y-68921959D01*
X163072931Y-68921955D01*
X163011783Y-68860807D01*
X162978298Y-68799484D01*
X162975464Y-68773126D01*
X162975464Y-68451494D01*
X162995149Y-68384455D01*
X163032425Y-68347178D01*
X163055996Y-68332031D01*
X163150218Y-68223294D01*
X163200604Y-68112964D01*
X163209987Y-68092419D01*
X163209988Y-68092414D01*
X163211908Y-68079059D01*
X163230464Y-67950000D01*
X163230464Y-66950000D01*
X163226457Y-66886478D01*
X163213623Y-66839891D01*
X163210433Y-66789318D01*
X163230464Y-66650000D01*
X163230464Y-65500000D01*
X163225319Y-65428060D01*
X163222575Y-65418716D01*
X163216893Y-65399365D01*
X163184783Y-65290008D01*
X163106995Y-65168968D01*
X163058574Y-65127011D01*
X162998263Y-65074750D01*
X162998261Y-65074748D01*
X162998258Y-65074746D01*
X162998254Y-65074744D01*
X162867383Y-65014976D01*
X162867378Y-65014975D01*
X162724964Y-64994500D01*
X161224964Y-64994500D01*
X161224961Y-64994500D01*
X161153023Y-64999644D01*
X161014969Y-65040182D01*
X160893933Y-65117967D01*
X160893929Y-65117971D01*
X160799714Y-65226700D01*
X160794915Y-65234168D01*
X160793108Y-65233006D01*
X160755216Y-65276725D01*
X160688173Y-65296400D01*
X160625071Y-65279132D01*
X160572862Y-65248256D01*
X160572861Y-65248255D01*
X160572860Y-65248255D01*
X160572857Y-65248254D01*
X160415037Y-65202402D01*
X160415031Y-65202401D01*
X160378165Y-65199500D01*
X160378158Y-65199500D01*
X159211964Y-65199500D01*
X159144925Y-65179815D01*
X159099170Y-65127011D01*
X159087964Y-65075500D01*
X159087964Y-64834313D01*
X159087963Y-64834298D01*
X159085062Y-64797432D01*
X159085061Y-64797426D01*
X159039209Y-64639606D01*
X159039208Y-64639603D01*
X159039208Y-64639602D01*
X158955545Y-64498135D01*
X158955543Y-64498133D01*
X158955540Y-64498129D01*
X158839334Y-64381923D01*
X158839326Y-64381917D01*
X158761145Y-64335681D01*
X158697862Y-64298256D01*
X158697861Y-64298255D01*
X158697860Y-64298255D01*
X158697857Y-64298254D01*
X158540037Y-64252402D01*
X158540031Y-64252401D01*
X158503165Y-64249500D01*
X158503158Y-64249500D01*
X157196770Y-64249500D01*
X157196762Y-64249500D01*
X157159896Y-64252401D01*
X157159890Y-64252402D01*
X157002070Y-64298254D01*
X157002067Y-64298255D01*
X156860601Y-64381917D01*
X156860593Y-64381923D01*
X156744387Y-64498129D01*
X156744381Y-64498137D01*
X156673128Y-64618621D01*
X156622059Y-64666304D01*
X156566396Y-64679500D01*
X155120094Y-64679500D01*
X155053055Y-64659815D01*
X155007300Y-64607011D01*
X154996804Y-64542246D01*
X155000500Y-64507873D01*
X155000499Y-63512128D01*
X154994091Y-63452517D01*
X154981340Y-63418332D01*
X154976357Y-63348642D01*
X154981340Y-63331669D01*
X154994091Y-63297483D01*
X155000500Y-63237873D01*
X155000499Y-62667647D01*
X155020183Y-62600609D01*
X155072987Y-62554854D01*
X155142146Y-62544910D01*
X155148684Y-62546029D01*
X155160081Y-62548296D01*
X155171157Y-62550500D01*
X155171158Y-62550500D01*
X155328844Y-62550500D01*
X155328845Y-62550499D01*
X155483497Y-62519737D01*
X155629179Y-62459394D01*
X155760289Y-62371789D01*
X155871789Y-62260289D01*
X155959394Y-62129179D01*
X155965191Y-62115185D01*
X155992398Y-62049500D01*
X156019737Y-61983497D01*
X156050500Y-61828842D01*
X156050500Y-61671158D01*
X156050500Y-61671155D01*
X156050499Y-61671153D01*
X156019738Y-61516510D01*
X156019737Y-61516503D01*
X156004893Y-61480666D01*
X155959397Y-61370827D01*
X155959390Y-61370814D01*
X155871789Y-61239711D01*
X155871786Y-61239707D01*
X155760292Y-61128213D01*
X155760284Y-61128207D01*
X155722712Y-61103102D01*
X155677906Y-61049490D01*
X155669199Y-60980165D01*
X155699353Y-60917138D01*
X155722712Y-60896898D01*
X155750678Y-60878211D01*
X155760289Y-60871789D01*
X155871789Y-60760289D01*
X155959394Y-60629179D01*
X156019737Y-60483497D01*
X156050500Y-60328842D01*
X156050500Y-60171158D01*
X156050500Y-60171155D01*
X156050499Y-60171153D01*
X156046294Y-60150013D01*
X156019737Y-60016503D01*
X155970506Y-59897648D01*
X161199500Y-59897648D01*
X161199500Y-60102351D01*
X161231522Y-60304534D01*
X161294781Y-60499223D01*
X161342229Y-60592343D01*
X161360994Y-60629172D01*
X161387715Y-60681613D01*
X161508028Y-60847213D01*
X161652786Y-60991971D01*
X161805748Y-61103102D01*
X161818390Y-61112287D01*
X161928410Y-61168345D01*
X162000776Y-61205218D01*
X162000778Y-61205218D01*
X162000781Y-61205220D01*
X162105137Y-61239127D01*
X162195465Y-61268477D01*
X162296557Y-61284488D01*
X162397648Y-61300500D01*
X162397649Y-61300500D01*
X162602351Y-61300500D01*
X162602352Y-61300500D01*
X162804534Y-61268477D01*
X162999219Y-61205220D01*
X163181610Y-61112287D01*
X163309846Y-61019119D01*
X163347213Y-60991971D01*
X163347215Y-60991968D01*
X163347219Y-60991966D01*
X163491966Y-60847219D01*
X163491968Y-60847215D01*
X163491971Y-60847213D01*
X163555124Y-60760289D01*
X163612287Y-60681610D01*
X163705220Y-60499219D01*
X163768477Y-60304534D01*
X163800500Y-60102352D01*
X163800500Y-59897648D01*
X163768477Y-59695466D01*
X163705220Y-59500781D01*
X163705218Y-59500778D01*
X163705218Y-59500776D01*
X163650155Y-59392711D01*
X163612287Y-59318390D01*
X163604556Y-59307749D01*
X163491971Y-59152786D01*
X163347213Y-59008028D01*
X163181613Y-58887715D01*
X163181612Y-58887714D01*
X163181610Y-58887713D01*
X163124653Y-58858691D01*
X162999223Y-58794781D01*
X162804534Y-58731522D01*
X162629995Y-58703878D01*
X162602352Y-58699500D01*
X162397648Y-58699500D01*
X162373329Y-58703351D01*
X162195465Y-58731522D01*
X162000776Y-58794781D01*
X161818386Y-58887715D01*
X161652786Y-59008028D01*
X161508028Y-59152786D01*
X161387715Y-59318386D01*
X161294781Y-59500776D01*
X161231522Y-59695465D01*
X161199500Y-59897648D01*
X155970506Y-59897648D01*
X155959394Y-59870821D01*
X155959392Y-59870818D01*
X155959390Y-59870814D01*
X155871789Y-59739711D01*
X155871786Y-59739707D01*
X155760292Y-59628213D01*
X155760288Y-59628210D01*
X155629185Y-59540609D01*
X155629172Y-59540602D01*
X155483501Y-59480264D01*
X155483489Y-59480261D01*
X155328845Y-59449500D01*
X155328842Y-59449500D01*
X155171158Y-59449500D01*
X155171157Y-59449500D01*
X155148688Y-59453969D01*
X155079097Y-59447740D01*
X155023920Y-59404876D01*
X155000677Y-59338986D01*
X155000499Y-59332384D01*
X155000499Y-58432128D01*
X154994091Y-58372517D01*
X154990753Y-58363568D01*
X154943797Y-58237671D01*
X154943795Y-58237668D01*
X154914707Y-58198811D01*
X154890290Y-58133347D01*
X154905142Y-58065074D01*
X154954547Y-58015668D01*
X155013974Y-58000500D01*
X162434108Y-58000500D01*
X162495933Y-58000500D01*
X162504043Y-58000765D01*
G37*
%TD.AperFunction*%
%TA.AperFunction,Conductor*%
G36*
X155488265Y-97754205D02*
G01*
X155492147Y-97753647D01*
X155512803Y-97758450D01*
X155693757Y-97817246D01*
X155903713Y-97850500D01*
X155903714Y-97850500D01*
X156116286Y-97850500D01*
X156116287Y-97850500D01*
X156326243Y-97817246D01*
X156398183Y-97793870D01*
X156468023Y-97791876D01*
X156527856Y-97827956D01*
X156558684Y-97890657D01*
X156560500Y-97911802D01*
X156560500Y-100758517D01*
X156540815Y-100825556D01*
X156488011Y-100871311D01*
X156418853Y-100881255D01*
X156355297Y-100852230D01*
X156318794Y-100797521D01*
X156271858Y-100655880D01*
X156271856Y-100655875D01*
X156179815Y-100506654D01*
X156055845Y-100382684D01*
X155906624Y-100290643D01*
X155906619Y-100290641D01*
X155740197Y-100235494D01*
X155740190Y-100235493D01*
X155637486Y-100225000D01*
X155474501Y-100225000D01*
X155407462Y-100205315D01*
X155361707Y-100152511D01*
X155350501Y-100101000D01*
X155350501Y-100088348D01*
X155350500Y-100088330D01*
X155350500Y-97876385D01*
X155358425Y-97849394D01*
X155363223Y-97821673D01*
X155368137Y-97816317D01*
X155370185Y-97809346D01*
X155391439Y-97790928D01*
X155410467Y-97770197D01*
X155417497Y-97768349D01*
X155422989Y-97763591D01*
X155450833Y-97759587D01*
X155478042Y-97752436D01*
X155488265Y-97754205D01*
G37*
%TD.AperFunction*%
%TA.AperFunction,Conductor*%
G36*
X148443039Y-89219685D02*
G01*
X148488794Y-89272489D01*
X148500000Y-89324000D01*
X148500000Y-90202982D01*
X148508521Y-90225830D01*
X148521186Y-90249023D01*
X148520540Y-90258052D01*
X148523704Y-90266535D01*
X148518087Y-90292355D01*
X148516202Y-90318715D01*
X148510383Y-90327768D01*
X148508852Y-90334808D01*
X148487701Y-90363062D01*
X148360861Y-90489902D01*
X148299538Y-90523387D01*
X148260582Y-90525579D01*
X148250028Y-90524501D01*
X148250012Y-90524500D01*
X148250009Y-90524500D01*
X148250004Y-90524500D01*
X147649998Y-90524500D01*
X147649980Y-90524501D01*
X147547203Y-90535000D01*
X147547200Y-90535001D01*
X147380668Y-90590185D01*
X147380663Y-90590187D01*
X147231342Y-90682289D01*
X147107285Y-90806346D01*
X147105537Y-90809182D01*
X147103829Y-90810717D01*
X147102807Y-90812011D01*
X147102585Y-90811836D01*
X147053589Y-90855905D01*
X146984626Y-90867126D01*
X146920544Y-90839282D01*
X146894463Y-90809182D01*
X146892714Y-90806346D01*
X146768657Y-90682289D01*
X146768656Y-90682288D01*
X146657226Y-90613558D01*
X146619336Y-90590187D01*
X146619331Y-90590185D01*
X146602000Y-90584442D01*
X146508179Y-90553352D01*
X146450736Y-90513581D01*
X146423913Y-90449066D01*
X146436228Y-90380290D01*
X146448376Y-90360728D01*
X146534361Y-90247342D01*
X146589877Y-90106564D01*
X146600500Y-90018102D01*
X146600500Y-89974000D01*
X146620185Y-89906961D01*
X146672989Y-89861206D01*
X146724500Y-89850000D01*
X146768054Y-89850000D01*
X146856443Y-89839386D01*
X146983136Y-89789425D01*
X147052723Y-89783144D01*
X147114659Y-89815481D01*
X147134165Y-89839683D01*
X147182684Y-89918345D01*
X147306654Y-90042315D01*
X147455875Y-90134356D01*
X147455880Y-90134358D01*
X147622302Y-90189505D01*
X147622309Y-90189506D01*
X147725019Y-90199999D01*
X147999999Y-90199999D01*
X148000000Y-90199998D01*
X148000000Y-89324000D01*
X148019685Y-89256961D01*
X148072489Y-89211206D01*
X148124000Y-89200000D01*
X148376000Y-89200000D01*
X148443039Y-89219685D01*
G37*
%TD.AperFunction*%
%TA.AperFunction,Conductor*%
G36*
X143383039Y-79044685D02*
G01*
X143428794Y-79097489D01*
X143440000Y-79149000D01*
X143440000Y-79401000D01*
X143420315Y-79468039D01*
X143367511Y-79513794D01*
X143316000Y-79525000D01*
X142640000Y-79525000D01*
X142640000Y-80165649D01*
X142642899Y-80202489D01*
X142642900Y-80202495D01*
X142688716Y-80360193D01*
X142688717Y-80360196D01*
X142772314Y-80501552D01*
X142772321Y-80501561D01*
X142888438Y-80617678D01*
X142888447Y-80617685D01*
X143029803Y-80701282D01*
X143029806Y-80701283D01*
X143187504Y-80747099D01*
X143187510Y-80747100D01*
X143224350Y-80749999D01*
X143224366Y-80750000D01*
X143284302Y-80750000D01*
X143351341Y-80769685D01*
X143397096Y-80822489D01*
X143407040Y-80891647D01*
X143378015Y-80955203D01*
X143371983Y-80961681D01*
X143012181Y-81321483D01*
X142950858Y-81354968D01*
X142881166Y-81349984D01*
X142825233Y-81308112D01*
X142800816Y-81242648D01*
X142800500Y-81233802D01*
X142800500Y-81171155D01*
X142800499Y-81171153D01*
X142791957Y-81128210D01*
X142769737Y-81016503D01*
X142769735Y-81016498D01*
X142709397Y-80870827D01*
X142709390Y-80870814D01*
X142621789Y-80739711D01*
X142621786Y-80739707D01*
X142510292Y-80628213D01*
X142510288Y-80628210D01*
X142379185Y-80540609D01*
X142379172Y-80540602D01*
X142233501Y-80480264D01*
X142233489Y-80480261D01*
X142078845Y-80449500D01*
X142078842Y-80449500D01*
X141921158Y-80449500D01*
X141921155Y-80449500D01*
X141766510Y-80480261D01*
X141766498Y-80480264D01*
X141620827Y-80540602D01*
X141620814Y-80540609D01*
X141489711Y-80628210D01*
X141489707Y-80628213D01*
X141378213Y-80739707D01*
X141378210Y-80739711D01*
X141326263Y-80817455D01*
X141272650Y-80862260D01*
X141203325Y-80870967D01*
X141140298Y-80840812D01*
X141135480Y-80836245D01*
X140260097Y-79960862D01*
X140245160Y-79933507D01*
X140228519Y-79907142D01*
X140228087Y-79902241D01*
X140226612Y-79899539D01*
X140223782Y-79872167D01*
X140223829Y-79866358D01*
X140225500Y-79850009D01*
X140225499Y-79662094D01*
X140225503Y-79661661D01*
X140235481Y-79628678D01*
X140245183Y-79595636D01*
X140245582Y-79595290D01*
X140245735Y-79594785D01*
X140271972Y-79572422D01*
X140297987Y-79549881D01*
X140298508Y-79549806D01*
X140298911Y-79549463D01*
X140333038Y-79544841D01*
X140367145Y-79539937D01*
X140368074Y-79540096D01*
X140368149Y-79540086D01*
X140368226Y-79540122D01*
X140373678Y-79541055D01*
X140404318Y-79547150D01*
X140421157Y-79550500D01*
X140421158Y-79550500D01*
X140578844Y-79550500D01*
X140578845Y-79550499D01*
X140733497Y-79519737D01*
X140879179Y-79459394D01*
X141010289Y-79371789D01*
X141010292Y-79371786D01*
X141074819Y-79307260D01*
X141136142Y-79273775D01*
X141205834Y-79278759D01*
X141250181Y-79307260D01*
X141314707Y-79371786D01*
X141314711Y-79371789D01*
X141445814Y-79459390D01*
X141445827Y-79459397D01*
X141550497Y-79502752D01*
X141591503Y-79519737D01*
X141740945Y-79549463D01*
X141746153Y-79550499D01*
X141746156Y-79550500D01*
X141746158Y-79550500D01*
X141903844Y-79550500D01*
X141903845Y-79550499D01*
X142058497Y-79519737D01*
X142204179Y-79459394D01*
X142335289Y-79371789D01*
X142446789Y-79260289D01*
X142534394Y-79129179D01*
X142545840Y-79101546D01*
X142589682Y-79047143D01*
X142655976Y-79025079D01*
X142660401Y-79025000D01*
X143316000Y-79025000D01*
X143383039Y-79044685D01*
G37*
%TD.AperFunction*%
%TD*%
D10*
%TO.C,J9*%
X150000000Y-107425000D02*
X140000000Y-107425000D01*
%TD*%
D55*
X165000000Y-60000000D02*
X165000000Y-105000000D01*
X127500000Y-57500000D02*
X162500000Y-57500000D01*
X125000000Y-105000000D02*
X125000000Y-60000000D01*
X162500000Y-107500000D02*
X127500000Y-107500000D01*
X162500000Y-57500000D02*
G75*
G02*
X165000000Y-60000000I0J-2500000D01*
G01*
X125000000Y-60000000D02*
G75*
G02*
X127500000Y-57500000I2500000J0D01*
G01*
X127500000Y-107500000D02*
G75*
G02*
X125000000Y-105000000I0J2500000D01*
G01*
X165000000Y-105000000D02*
G75*
G02*
X162500000Y-107500000I-2500000J0D01*
G01*
M02*
