%TF.GenerationSoftware,KiCad,Pcbnew,9.0.0*%
%TF.CreationDate,2025-03-29T01:57:50-05:00*%
%TF.ProjectId,dronedrivers,64726f6e-6564-4726-9976-6572732e6b69,rev?*%
%TF.SameCoordinates,Original*%
%TF.FileFunction,Legend,Top*%
%TF.FilePolarity,Positive*%
%FSLAX46Y46*%
G04 Gerber Fmt 4.6, Leading zero omitted, Abs format (unit mm)*
G04 Created by KiCad (PCBNEW 9.0.0) date 2025-03-29 01:57:50*
%MOMM*%
%LPD*%
G01*
G04 APERTURE LIST*
G04 Aperture macros list*
%AMRoundRect*
0 Rectangle with rounded corners*
0 $1 Rounding radius*
0 $2 $3 $4 $5 $6 $7 $8 $9 X,Y pos of 4 corners*
0 Add a 4 corners polygon primitive as box body*
4,1,4,$2,$3,$4,$5,$6,$7,$8,$9,$2,$3,0*
0 Add four circle primitives for the rounded corners*
1,1,$1+$1,$2,$3*
1,1,$1+$1,$4,$5*
1,1,$1+$1,$6,$7*
1,1,$1+$1,$8,$9*
0 Add four rect primitives between the rounded corners*
20,1,$1+$1,$2,$3,$4,$5,0*
20,1,$1+$1,$4,$5,$6,$7,0*
20,1,$1+$1,$6,$7,$8,$9,0*
20,1,$1+$1,$8,$9,$2,$3,0*%
%AMFreePoly0*
4,1,6,1.000000,0.000000,0.500000,-0.750000,-0.500000,-0.750000,-0.500000,0.750000,0.500000,0.750000,1.000000,0.000000,1.000000,0.000000,$1*%
%AMFreePoly1*
4,1,6,0.500000,-0.750000,-0.650000,-0.750000,-0.150000,0.000000,-0.650000,0.750000,0.500000,0.750000,0.500000,-0.750000,0.500000,-0.750000,$1*%
G04 Aperture macros list end*
%ADD10C,0.100000*%
%ADD11C,0.150000*%
%ADD12C,0.300000*%
%ADD13C,0.400000*%
%ADD14C,0.120000*%
%ADD15RoundRect,0.250000X-0.650000X1.000000X-0.650000X-1.000000X0.650000X-1.000000X0.650000X1.000000X0*%
%ADD16RoundRect,0.375000X0.375000X-0.625000X0.375000X0.625000X-0.375000X0.625000X-0.375000X-0.625000X0*%
%ADD17RoundRect,0.500000X1.400000X-0.500000X1.400000X0.500000X-1.400000X0.500000X-1.400000X-0.500000X0*%
%ADD18RoundRect,0.250000X0.262500X0.450000X-0.262500X0.450000X-0.262500X-0.450000X0.262500X-0.450000X0*%
%ADD19RoundRect,0.250000X-0.450000X0.262500X-0.450000X-0.262500X0.450000X-0.262500X0.450000X0.262500X0*%
%ADD20R,0.900000X1.700000*%
%ADD21RoundRect,0.225000X0.225000X0.375000X-0.225000X0.375000X-0.225000X-0.375000X0.225000X-0.375000X0*%
%ADD22RoundRect,0.250000X-0.250000X-0.475000X0.250000X-0.475000X0.250000X0.475000X-0.250000X0.475000X0*%
%ADD23R,1.500000X0.900000*%
%ADD24R,0.900000X1.500000*%
%ADD25C,0.600000*%
%ADD26R,3.900000X3.900000*%
%ADD27O,1.000000X1.800000*%
%ADD28O,1.000000X2.100000*%
%ADD29RoundRect,0.150000X-0.150000X-0.425000X0.150000X-0.425000X0.150000X0.425000X-0.150000X0.425000X0*%
%ADD30RoundRect,0.075000X-0.075000X-0.500000X0.075000X-0.500000X0.075000X0.500000X-0.075000X0.500000X0*%
%ADD31C,0.650000*%
%ADD32C,2.100000*%
%ADD33RoundRect,0.150000X0.150000X-0.825000X0.150000X0.825000X-0.150000X0.825000X-0.150000X-0.825000X0*%
%ADD34RoundRect,0.250000X0.475000X-0.250000X0.475000X0.250000X-0.475000X0.250000X-0.475000X-0.250000X0*%
%ADD35FreePoly0,90.000000*%
%ADD36FreePoly1,90.000000*%
%ADD37RoundRect,0.225000X0.375000X-0.225000X0.375000X0.225000X-0.375000X0.225000X-0.375000X-0.225000X0*%
%ADD38R,1.700000X1.700000*%
%ADD39O,1.700000X1.700000*%
%ADD40O,1.200000X1.750000*%
%ADD41RoundRect,0.250000X-0.350000X-0.625000X0.350000X-0.625000X0.350000X0.625000X-0.350000X0.625000X0*%
%ADD42RoundRect,0.150000X0.587500X0.150000X-0.587500X0.150000X-0.587500X-0.150000X0.587500X-0.150000X0*%
%ADD43RoundRect,0.150000X-0.587500X-0.150000X0.587500X-0.150000X0.587500X0.150000X-0.587500X0.150000X0*%
%ADD44RoundRect,0.250000X0.450000X-0.262500X0.450000X0.262500X-0.450000X0.262500X-0.450000X-0.262500X0*%
%ADD45RoundRect,0.150000X0.150000X-0.587500X0.150000X0.587500X-0.150000X0.587500X-0.150000X-0.587500X0*%
%ADD46RoundRect,0.250000X-0.262500X-0.450000X0.262500X-0.450000X0.262500X0.450000X-0.262500X0.450000X0*%
%ADD47RoundRect,0.375000X-0.375000X0.625000X-0.375000X-0.625000X0.375000X-0.625000X0.375000X0.625000X0*%
%ADD48RoundRect,0.500000X-1.400000X0.500000X-1.400000X-0.500000X1.400000X-0.500000X1.400000X0.500000X0*%
%ADD49RoundRect,0.050000X-0.225000X-0.050000X0.225000X-0.050000X0.225000X0.050000X-0.225000X0.050000X0*%
%ADD50RoundRect,0.050000X0.050000X-0.225000X0.050000X0.225000X-0.050000X0.225000X-0.050000X-0.225000X0*%
%ADD51RoundRect,0.250000X-0.475000X0.250000X-0.475000X-0.250000X0.475000X-0.250000X0.475000X0.250000X0*%
%ADD52RoundRect,0.250000X0.250000X0.475000X-0.250000X0.475000X-0.250000X-0.475000X0.250000X-0.475000X0*%
%ADD53RoundRect,0.225000X-0.225000X-0.375000X0.225000X-0.375000X0.225000X0.375000X-0.225000X0.375000X0*%
%TA.AperFunction,Profile*%
%ADD54C,0.050000*%
%TD*%
G04 APERTURE END LIST*
D10*
D11*
X177002200Y-166007200D02*
X285002200Y-166007200D01*
X285002200Y-198007200D01*
X177002200Y-198007200D01*
X177002200Y-166007200D01*
D10*
D11*
X10000000Y-10000000D02*
X287002200Y-10000000D01*
X287002200Y-200007200D01*
X10000000Y-200007200D01*
X10000000Y-10000000D01*
D10*
D11*
X12000000Y-12000000D02*
X285002200Y-12000000D01*
X285002200Y-198007200D01*
X12000000Y-198007200D01*
X12000000Y-12000000D01*
D10*
D11*
X60000000Y-12000000D02*
X60000000Y-10000000D01*
D10*
D11*
X110000000Y-12000000D02*
X110000000Y-10000000D01*
D10*
D11*
X160000000Y-12000000D02*
X160000000Y-10000000D01*
D10*
D11*
X210000000Y-12000000D02*
X210000000Y-10000000D01*
D10*
D11*
X260000000Y-12000000D02*
X260000000Y-10000000D01*
D10*
D11*
X36089160Y-11593604D02*
X35346303Y-11593604D01*
X35717731Y-11593604D02*
X35717731Y-10293604D01*
X35717731Y-10293604D02*
X35593922Y-10479319D01*
X35593922Y-10479319D02*
X35470112Y-10603128D01*
X35470112Y-10603128D02*
X35346303Y-10665033D01*
D10*
D11*
X85346303Y-10417414D02*
X85408207Y-10355509D01*
X85408207Y-10355509D02*
X85532017Y-10293604D01*
X85532017Y-10293604D02*
X85841541Y-10293604D01*
X85841541Y-10293604D02*
X85965350Y-10355509D01*
X85965350Y-10355509D02*
X86027255Y-10417414D01*
X86027255Y-10417414D02*
X86089160Y-10541223D01*
X86089160Y-10541223D02*
X86089160Y-10665033D01*
X86089160Y-10665033D02*
X86027255Y-10850747D01*
X86027255Y-10850747D02*
X85284398Y-11593604D01*
X85284398Y-11593604D02*
X86089160Y-11593604D01*
D10*
D11*
X135284398Y-10293604D02*
X136089160Y-10293604D01*
X136089160Y-10293604D02*
X135655826Y-10788842D01*
X135655826Y-10788842D02*
X135841541Y-10788842D01*
X135841541Y-10788842D02*
X135965350Y-10850747D01*
X135965350Y-10850747D02*
X136027255Y-10912652D01*
X136027255Y-10912652D02*
X136089160Y-11036461D01*
X136089160Y-11036461D02*
X136089160Y-11345985D01*
X136089160Y-11345985D02*
X136027255Y-11469795D01*
X136027255Y-11469795D02*
X135965350Y-11531700D01*
X135965350Y-11531700D02*
X135841541Y-11593604D01*
X135841541Y-11593604D02*
X135470112Y-11593604D01*
X135470112Y-11593604D02*
X135346303Y-11531700D01*
X135346303Y-11531700D02*
X135284398Y-11469795D01*
D10*
D11*
X185965350Y-10726938D02*
X185965350Y-11593604D01*
X185655826Y-10231700D02*
X185346303Y-11160271D01*
X185346303Y-11160271D02*
X186151064Y-11160271D01*
D10*
D11*
X236027255Y-10293604D02*
X235408207Y-10293604D01*
X235408207Y-10293604D02*
X235346303Y-10912652D01*
X235346303Y-10912652D02*
X235408207Y-10850747D01*
X235408207Y-10850747D02*
X235532017Y-10788842D01*
X235532017Y-10788842D02*
X235841541Y-10788842D01*
X235841541Y-10788842D02*
X235965350Y-10850747D01*
X235965350Y-10850747D02*
X236027255Y-10912652D01*
X236027255Y-10912652D02*
X236089160Y-11036461D01*
X236089160Y-11036461D02*
X236089160Y-11345985D01*
X236089160Y-11345985D02*
X236027255Y-11469795D01*
X236027255Y-11469795D02*
X235965350Y-11531700D01*
X235965350Y-11531700D02*
X235841541Y-11593604D01*
X235841541Y-11593604D02*
X235532017Y-11593604D01*
X235532017Y-11593604D02*
X235408207Y-11531700D01*
X235408207Y-11531700D02*
X235346303Y-11469795D01*
D10*
D11*
X285965350Y-10293604D02*
X285717731Y-10293604D01*
X285717731Y-10293604D02*
X285593922Y-10355509D01*
X285593922Y-10355509D02*
X285532017Y-10417414D01*
X285532017Y-10417414D02*
X285408207Y-10603128D01*
X285408207Y-10603128D02*
X285346303Y-10850747D01*
X285346303Y-10850747D02*
X285346303Y-11345985D01*
X285346303Y-11345985D02*
X285408207Y-11469795D01*
X285408207Y-11469795D02*
X285470112Y-11531700D01*
X285470112Y-11531700D02*
X285593922Y-11593604D01*
X285593922Y-11593604D02*
X285841541Y-11593604D01*
X285841541Y-11593604D02*
X285965350Y-11531700D01*
X285965350Y-11531700D02*
X286027255Y-11469795D01*
X286027255Y-11469795D02*
X286089160Y-11345985D01*
X286089160Y-11345985D02*
X286089160Y-11036461D01*
X286089160Y-11036461D02*
X286027255Y-10912652D01*
X286027255Y-10912652D02*
X285965350Y-10850747D01*
X285965350Y-10850747D02*
X285841541Y-10788842D01*
X285841541Y-10788842D02*
X285593922Y-10788842D01*
X285593922Y-10788842D02*
X285470112Y-10850747D01*
X285470112Y-10850747D02*
X285408207Y-10912652D01*
X285408207Y-10912652D02*
X285346303Y-11036461D01*
D10*
D11*
X60000000Y-198007200D02*
X60000000Y-200007200D01*
D10*
D11*
X110000000Y-198007200D02*
X110000000Y-200007200D01*
D10*
D11*
X160000000Y-198007200D02*
X160000000Y-200007200D01*
D10*
D11*
X210000000Y-198007200D02*
X210000000Y-200007200D01*
D10*
D11*
X260000000Y-198007200D02*
X260000000Y-200007200D01*
D10*
D11*
X36089160Y-199600804D02*
X35346303Y-199600804D01*
X35717731Y-199600804D02*
X35717731Y-198300804D01*
X35717731Y-198300804D02*
X35593922Y-198486519D01*
X35593922Y-198486519D02*
X35470112Y-198610328D01*
X35470112Y-198610328D02*
X35346303Y-198672233D01*
D10*
D11*
X85346303Y-198424614D02*
X85408207Y-198362709D01*
X85408207Y-198362709D02*
X85532017Y-198300804D01*
X85532017Y-198300804D02*
X85841541Y-198300804D01*
X85841541Y-198300804D02*
X85965350Y-198362709D01*
X85965350Y-198362709D02*
X86027255Y-198424614D01*
X86027255Y-198424614D02*
X86089160Y-198548423D01*
X86089160Y-198548423D02*
X86089160Y-198672233D01*
X86089160Y-198672233D02*
X86027255Y-198857947D01*
X86027255Y-198857947D02*
X85284398Y-199600804D01*
X85284398Y-199600804D02*
X86089160Y-199600804D01*
D10*
D11*
X135284398Y-198300804D02*
X136089160Y-198300804D01*
X136089160Y-198300804D02*
X135655826Y-198796042D01*
X135655826Y-198796042D02*
X135841541Y-198796042D01*
X135841541Y-198796042D02*
X135965350Y-198857947D01*
X135965350Y-198857947D02*
X136027255Y-198919852D01*
X136027255Y-198919852D02*
X136089160Y-199043661D01*
X136089160Y-199043661D02*
X136089160Y-199353185D01*
X136089160Y-199353185D02*
X136027255Y-199476995D01*
X136027255Y-199476995D02*
X135965350Y-199538900D01*
X135965350Y-199538900D02*
X135841541Y-199600804D01*
X135841541Y-199600804D02*
X135470112Y-199600804D01*
X135470112Y-199600804D02*
X135346303Y-199538900D01*
X135346303Y-199538900D02*
X135284398Y-199476995D01*
D10*
D11*
X185965350Y-198734138D02*
X185965350Y-199600804D01*
X185655826Y-198238900D02*
X185346303Y-199167471D01*
X185346303Y-199167471D02*
X186151064Y-199167471D01*
D10*
D11*
X236027255Y-198300804D02*
X235408207Y-198300804D01*
X235408207Y-198300804D02*
X235346303Y-198919852D01*
X235346303Y-198919852D02*
X235408207Y-198857947D01*
X235408207Y-198857947D02*
X235532017Y-198796042D01*
X235532017Y-198796042D02*
X235841541Y-198796042D01*
X235841541Y-198796042D02*
X235965350Y-198857947D01*
X235965350Y-198857947D02*
X236027255Y-198919852D01*
X236027255Y-198919852D02*
X236089160Y-199043661D01*
X236089160Y-199043661D02*
X236089160Y-199353185D01*
X236089160Y-199353185D02*
X236027255Y-199476995D01*
X236027255Y-199476995D02*
X235965350Y-199538900D01*
X235965350Y-199538900D02*
X235841541Y-199600804D01*
X235841541Y-199600804D02*
X235532017Y-199600804D01*
X235532017Y-199600804D02*
X235408207Y-199538900D01*
X235408207Y-199538900D02*
X235346303Y-199476995D01*
D10*
D11*
X285965350Y-198300804D02*
X285717731Y-198300804D01*
X285717731Y-198300804D02*
X285593922Y-198362709D01*
X285593922Y-198362709D02*
X285532017Y-198424614D01*
X285532017Y-198424614D02*
X285408207Y-198610328D01*
X285408207Y-198610328D02*
X285346303Y-198857947D01*
X285346303Y-198857947D02*
X285346303Y-199353185D01*
X285346303Y-199353185D02*
X285408207Y-199476995D01*
X285408207Y-199476995D02*
X285470112Y-199538900D01*
X285470112Y-199538900D02*
X285593922Y-199600804D01*
X285593922Y-199600804D02*
X285841541Y-199600804D01*
X285841541Y-199600804D02*
X285965350Y-199538900D01*
X285965350Y-199538900D02*
X286027255Y-199476995D01*
X286027255Y-199476995D02*
X286089160Y-199353185D01*
X286089160Y-199353185D02*
X286089160Y-199043661D01*
X286089160Y-199043661D02*
X286027255Y-198919852D01*
X286027255Y-198919852D02*
X285965350Y-198857947D01*
X285965350Y-198857947D02*
X285841541Y-198796042D01*
X285841541Y-198796042D02*
X285593922Y-198796042D01*
X285593922Y-198796042D02*
X285470112Y-198857947D01*
X285470112Y-198857947D02*
X285408207Y-198919852D01*
X285408207Y-198919852D02*
X285346303Y-199043661D01*
D10*
D11*
X10000000Y-60000000D02*
X12000000Y-60000000D01*
D10*
D11*
X10000000Y-110000000D02*
X12000000Y-110000000D01*
D10*
D11*
X10000000Y-160000000D02*
X12000000Y-160000000D01*
D10*
D11*
X10690476Y-35222176D02*
X11309523Y-35222176D01*
X10566666Y-35593604D02*
X10999999Y-34293604D01*
X10999999Y-34293604D02*
X11433333Y-35593604D01*
D10*
D11*
X11092857Y-84912652D02*
X11278571Y-84974557D01*
X11278571Y-84974557D02*
X11340476Y-85036461D01*
X11340476Y-85036461D02*
X11402380Y-85160271D01*
X11402380Y-85160271D02*
X11402380Y-85345985D01*
X11402380Y-85345985D02*
X11340476Y-85469795D01*
X11340476Y-85469795D02*
X11278571Y-85531700D01*
X11278571Y-85531700D02*
X11154761Y-85593604D01*
X11154761Y-85593604D02*
X10659523Y-85593604D01*
X10659523Y-85593604D02*
X10659523Y-84293604D01*
X10659523Y-84293604D02*
X11092857Y-84293604D01*
X11092857Y-84293604D02*
X11216666Y-84355509D01*
X11216666Y-84355509D02*
X11278571Y-84417414D01*
X11278571Y-84417414D02*
X11340476Y-84541223D01*
X11340476Y-84541223D02*
X11340476Y-84665033D01*
X11340476Y-84665033D02*
X11278571Y-84788842D01*
X11278571Y-84788842D02*
X11216666Y-84850747D01*
X11216666Y-84850747D02*
X11092857Y-84912652D01*
X11092857Y-84912652D02*
X10659523Y-84912652D01*
D10*
D11*
X11402380Y-135469795D02*
X11340476Y-135531700D01*
X11340476Y-135531700D02*
X11154761Y-135593604D01*
X11154761Y-135593604D02*
X11030952Y-135593604D01*
X11030952Y-135593604D02*
X10845238Y-135531700D01*
X10845238Y-135531700D02*
X10721428Y-135407890D01*
X10721428Y-135407890D02*
X10659523Y-135284080D01*
X10659523Y-135284080D02*
X10597619Y-135036461D01*
X10597619Y-135036461D02*
X10597619Y-134850747D01*
X10597619Y-134850747D02*
X10659523Y-134603128D01*
X10659523Y-134603128D02*
X10721428Y-134479319D01*
X10721428Y-134479319D02*
X10845238Y-134355509D01*
X10845238Y-134355509D02*
X11030952Y-134293604D01*
X11030952Y-134293604D02*
X11154761Y-134293604D01*
X11154761Y-134293604D02*
X11340476Y-134355509D01*
X11340476Y-134355509D02*
X11402380Y-134417414D01*
D10*
D11*
X10659523Y-185593604D02*
X10659523Y-184293604D01*
X10659523Y-184293604D02*
X10969047Y-184293604D01*
X10969047Y-184293604D02*
X11154761Y-184355509D01*
X11154761Y-184355509D02*
X11278571Y-184479319D01*
X11278571Y-184479319D02*
X11340476Y-184603128D01*
X11340476Y-184603128D02*
X11402380Y-184850747D01*
X11402380Y-184850747D02*
X11402380Y-185036461D01*
X11402380Y-185036461D02*
X11340476Y-185284080D01*
X11340476Y-185284080D02*
X11278571Y-185407890D01*
X11278571Y-185407890D02*
X11154761Y-185531700D01*
X11154761Y-185531700D02*
X10969047Y-185593604D01*
X10969047Y-185593604D02*
X10659523Y-185593604D01*
D10*
D11*
X287002200Y-60000000D02*
X285002200Y-60000000D01*
D10*
D11*
X287002200Y-110000000D02*
X285002200Y-110000000D01*
D10*
D11*
X287002200Y-160000000D02*
X285002200Y-160000000D01*
D10*
D11*
X285692676Y-35222176D02*
X286311723Y-35222176D01*
X285568866Y-35593604D02*
X286002199Y-34293604D01*
X286002199Y-34293604D02*
X286435533Y-35593604D01*
D10*
D11*
X286095057Y-84912652D02*
X286280771Y-84974557D01*
X286280771Y-84974557D02*
X286342676Y-85036461D01*
X286342676Y-85036461D02*
X286404580Y-85160271D01*
X286404580Y-85160271D02*
X286404580Y-85345985D01*
X286404580Y-85345985D02*
X286342676Y-85469795D01*
X286342676Y-85469795D02*
X286280771Y-85531700D01*
X286280771Y-85531700D02*
X286156961Y-85593604D01*
X286156961Y-85593604D02*
X285661723Y-85593604D01*
X285661723Y-85593604D02*
X285661723Y-84293604D01*
X285661723Y-84293604D02*
X286095057Y-84293604D01*
X286095057Y-84293604D02*
X286218866Y-84355509D01*
X286218866Y-84355509D02*
X286280771Y-84417414D01*
X286280771Y-84417414D02*
X286342676Y-84541223D01*
X286342676Y-84541223D02*
X286342676Y-84665033D01*
X286342676Y-84665033D02*
X286280771Y-84788842D01*
X286280771Y-84788842D02*
X286218866Y-84850747D01*
X286218866Y-84850747D02*
X286095057Y-84912652D01*
X286095057Y-84912652D02*
X285661723Y-84912652D01*
D10*
D11*
X286404580Y-135469795D02*
X286342676Y-135531700D01*
X286342676Y-135531700D02*
X286156961Y-135593604D01*
X286156961Y-135593604D02*
X286033152Y-135593604D01*
X286033152Y-135593604D02*
X285847438Y-135531700D01*
X285847438Y-135531700D02*
X285723628Y-135407890D01*
X285723628Y-135407890D02*
X285661723Y-135284080D01*
X285661723Y-135284080D02*
X285599819Y-135036461D01*
X285599819Y-135036461D02*
X285599819Y-134850747D01*
X285599819Y-134850747D02*
X285661723Y-134603128D01*
X285661723Y-134603128D02*
X285723628Y-134479319D01*
X285723628Y-134479319D02*
X285847438Y-134355509D01*
X285847438Y-134355509D02*
X286033152Y-134293604D01*
X286033152Y-134293604D02*
X286156961Y-134293604D01*
X286156961Y-134293604D02*
X286342676Y-134355509D01*
X286342676Y-134355509D02*
X286404580Y-134417414D01*
D10*
D11*
X285661723Y-185593604D02*
X285661723Y-184293604D01*
X285661723Y-184293604D02*
X285971247Y-184293604D01*
X285971247Y-184293604D02*
X286156961Y-184355509D01*
X286156961Y-184355509D02*
X286280771Y-184479319D01*
X286280771Y-184479319D02*
X286342676Y-184603128D01*
X286342676Y-184603128D02*
X286404580Y-184850747D01*
X286404580Y-184850747D02*
X286404580Y-185036461D01*
X286404580Y-185036461D02*
X286342676Y-185284080D01*
X286342676Y-185284080D02*
X286280771Y-185407890D01*
X286280771Y-185407890D02*
X286156961Y-185531700D01*
X286156961Y-185531700D02*
X285971247Y-185593604D01*
X285971247Y-185593604D02*
X285661723Y-185593604D01*
D10*
D11*
X200458026Y-193793328D02*
X200458026Y-192293328D01*
X200458026Y-192293328D02*
X200815169Y-192293328D01*
X200815169Y-192293328D02*
X201029455Y-192364757D01*
X201029455Y-192364757D02*
X201172312Y-192507614D01*
X201172312Y-192507614D02*
X201243741Y-192650471D01*
X201243741Y-192650471D02*
X201315169Y-192936185D01*
X201315169Y-192936185D02*
X201315169Y-193150471D01*
X201315169Y-193150471D02*
X201243741Y-193436185D01*
X201243741Y-193436185D02*
X201172312Y-193579042D01*
X201172312Y-193579042D02*
X201029455Y-193721900D01*
X201029455Y-193721900D02*
X200815169Y-193793328D01*
X200815169Y-193793328D02*
X200458026Y-193793328D01*
X202600884Y-193793328D02*
X202600884Y-193007614D01*
X202600884Y-193007614D02*
X202529455Y-192864757D01*
X202529455Y-192864757D02*
X202386598Y-192793328D01*
X202386598Y-192793328D02*
X202100884Y-192793328D01*
X202100884Y-192793328D02*
X201958026Y-192864757D01*
X202600884Y-193721900D02*
X202458026Y-193793328D01*
X202458026Y-193793328D02*
X202100884Y-193793328D01*
X202100884Y-193793328D02*
X201958026Y-193721900D01*
X201958026Y-193721900D02*
X201886598Y-193579042D01*
X201886598Y-193579042D02*
X201886598Y-193436185D01*
X201886598Y-193436185D02*
X201958026Y-193293328D01*
X201958026Y-193293328D02*
X202100884Y-193221900D01*
X202100884Y-193221900D02*
X202458026Y-193221900D01*
X202458026Y-193221900D02*
X202600884Y-193150471D01*
X203100884Y-192793328D02*
X203672312Y-192793328D01*
X203315169Y-192293328D02*
X203315169Y-193579042D01*
X203315169Y-193579042D02*
X203386598Y-193721900D01*
X203386598Y-193721900D02*
X203529455Y-193793328D01*
X203529455Y-193793328D02*
X203672312Y-193793328D01*
X204743741Y-193721900D02*
X204600884Y-193793328D01*
X204600884Y-193793328D02*
X204315170Y-193793328D01*
X204315170Y-193793328D02*
X204172312Y-193721900D01*
X204172312Y-193721900D02*
X204100884Y-193579042D01*
X204100884Y-193579042D02*
X204100884Y-193007614D01*
X204100884Y-193007614D02*
X204172312Y-192864757D01*
X204172312Y-192864757D02*
X204315170Y-192793328D01*
X204315170Y-192793328D02*
X204600884Y-192793328D01*
X204600884Y-192793328D02*
X204743741Y-192864757D01*
X204743741Y-192864757D02*
X204815170Y-193007614D01*
X204815170Y-193007614D02*
X204815170Y-193150471D01*
X204815170Y-193150471D02*
X204100884Y-193293328D01*
X205458026Y-193650471D02*
X205529455Y-193721900D01*
X205529455Y-193721900D02*
X205458026Y-193793328D01*
X205458026Y-193793328D02*
X205386598Y-193721900D01*
X205386598Y-193721900D02*
X205458026Y-193650471D01*
X205458026Y-193650471D02*
X205458026Y-193793328D01*
X205458026Y-192864757D02*
X205529455Y-192936185D01*
X205529455Y-192936185D02*
X205458026Y-193007614D01*
X205458026Y-193007614D02*
X205386598Y-192936185D01*
X205386598Y-192936185D02*
X205458026Y-192864757D01*
X205458026Y-192864757D02*
X205458026Y-193007614D01*
D10*
D11*
X177002200Y-194507200D02*
X285002200Y-194507200D01*
D10*
D11*
X178458026Y-196593328D02*
X178458026Y-195093328D01*
X179315169Y-196593328D02*
X178672312Y-195736185D01*
X179315169Y-195093328D02*
X178458026Y-195950471D01*
X179958026Y-196593328D02*
X179958026Y-195593328D01*
X179958026Y-195093328D02*
X179886598Y-195164757D01*
X179886598Y-195164757D02*
X179958026Y-195236185D01*
X179958026Y-195236185D02*
X180029455Y-195164757D01*
X180029455Y-195164757D02*
X179958026Y-195093328D01*
X179958026Y-195093328D02*
X179958026Y-195236185D01*
X181529455Y-196450471D02*
X181458027Y-196521900D01*
X181458027Y-196521900D02*
X181243741Y-196593328D01*
X181243741Y-196593328D02*
X181100884Y-196593328D01*
X181100884Y-196593328D02*
X180886598Y-196521900D01*
X180886598Y-196521900D02*
X180743741Y-196379042D01*
X180743741Y-196379042D02*
X180672312Y-196236185D01*
X180672312Y-196236185D02*
X180600884Y-195950471D01*
X180600884Y-195950471D02*
X180600884Y-195736185D01*
X180600884Y-195736185D02*
X180672312Y-195450471D01*
X180672312Y-195450471D02*
X180743741Y-195307614D01*
X180743741Y-195307614D02*
X180886598Y-195164757D01*
X180886598Y-195164757D02*
X181100884Y-195093328D01*
X181100884Y-195093328D02*
X181243741Y-195093328D01*
X181243741Y-195093328D02*
X181458027Y-195164757D01*
X181458027Y-195164757D02*
X181529455Y-195236185D01*
X182815170Y-196593328D02*
X182815170Y-195807614D01*
X182815170Y-195807614D02*
X182743741Y-195664757D01*
X182743741Y-195664757D02*
X182600884Y-195593328D01*
X182600884Y-195593328D02*
X182315170Y-195593328D01*
X182315170Y-195593328D02*
X182172312Y-195664757D01*
X182815170Y-196521900D02*
X182672312Y-196593328D01*
X182672312Y-196593328D02*
X182315170Y-196593328D01*
X182315170Y-196593328D02*
X182172312Y-196521900D01*
X182172312Y-196521900D02*
X182100884Y-196379042D01*
X182100884Y-196379042D02*
X182100884Y-196236185D01*
X182100884Y-196236185D02*
X182172312Y-196093328D01*
X182172312Y-196093328D02*
X182315170Y-196021900D01*
X182315170Y-196021900D02*
X182672312Y-196021900D01*
X182672312Y-196021900D02*
X182815170Y-195950471D01*
X184172313Y-196593328D02*
X184172313Y-195093328D01*
X184172313Y-196521900D02*
X184029455Y-196593328D01*
X184029455Y-196593328D02*
X183743741Y-196593328D01*
X183743741Y-196593328D02*
X183600884Y-196521900D01*
X183600884Y-196521900D02*
X183529455Y-196450471D01*
X183529455Y-196450471D02*
X183458027Y-196307614D01*
X183458027Y-196307614D02*
X183458027Y-195879042D01*
X183458027Y-195879042D02*
X183529455Y-195736185D01*
X183529455Y-195736185D02*
X183600884Y-195664757D01*
X183600884Y-195664757D02*
X183743741Y-195593328D01*
X183743741Y-195593328D02*
X184029455Y-195593328D01*
X184029455Y-195593328D02*
X184172313Y-195664757D01*
X186029455Y-195807614D02*
X186529455Y-195807614D01*
X186743741Y-196593328D02*
X186029455Y-196593328D01*
X186029455Y-196593328D02*
X186029455Y-195093328D01*
X186029455Y-195093328D02*
X186743741Y-195093328D01*
X187386598Y-196450471D02*
X187458027Y-196521900D01*
X187458027Y-196521900D02*
X187386598Y-196593328D01*
X187386598Y-196593328D02*
X187315170Y-196521900D01*
X187315170Y-196521900D02*
X187386598Y-196450471D01*
X187386598Y-196450471D02*
X187386598Y-196593328D01*
X188100884Y-196593328D02*
X188100884Y-195093328D01*
X188100884Y-195093328D02*
X188458027Y-195093328D01*
X188458027Y-195093328D02*
X188672313Y-195164757D01*
X188672313Y-195164757D02*
X188815170Y-195307614D01*
X188815170Y-195307614D02*
X188886599Y-195450471D01*
X188886599Y-195450471D02*
X188958027Y-195736185D01*
X188958027Y-195736185D02*
X188958027Y-195950471D01*
X188958027Y-195950471D02*
X188886599Y-196236185D01*
X188886599Y-196236185D02*
X188815170Y-196379042D01*
X188815170Y-196379042D02*
X188672313Y-196521900D01*
X188672313Y-196521900D02*
X188458027Y-196593328D01*
X188458027Y-196593328D02*
X188100884Y-196593328D01*
X189600884Y-196450471D02*
X189672313Y-196521900D01*
X189672313Y-196521900D02*
X189600884Y-196593328D01*
X189600884Y-196593328D02*
X189529456Y-196521900D01*
X189529456Y-196521900D02*
X189600884Y-196450471D01*
X189600884Y-196450471D02*
X189600884Y-196593328D01*
X190243742Y-196164757D02*
X190958028Y-196164757D01*
X190100885Y-196593328D02*
X190600885Y-195093328D01*
X190600885Y-195093328D02*
X191100885Y-196593328D01*
X191600884Y-196450471D02*
X191672313Y-196521900D01*
X191672313Y-196521900D02*
X191600884Y-196593328D01*
X191600884Y-196593328D02*
X191529456Y-196521900D01*
X191529456Y-196521900D02*
X191600884Y-196450471D01*
X191600884Y-196450471D02*
X191600884Y-196593328D01*
X193529456Y-196593328D02*
X193815170Y-196593328D01*
X193815170Y-196593328D02*
X193958027Y-196521900D01*
X193958027Y-196521900D02*
X194029456Y-196450471D01*
X194029456Y-196450471D02*
X194172313Y-196236185D01*
X194172313Y-196236185D02*
X194243742Y-195950471D01*
X194243742Y-195950471D02*
X194243742Y-195379042D01*
X194243742Y-195379042D02*
X194172313Y-195236185D01*
X194172313Y-195236185D02*
X194100885Y-195164757D01*
X194100885Y-195164757D02*
X193958027Y-195093328D01*
X193958027Y-195093328D02*
X193672313Y-195093328D01*
X193672313Y-195093328D02*
X193529456Y-195164757D01*
X193529456Y-195164757D02*
X193458027Y-195236185D01*
X193458027Y-195236185D02*
X193386599Y-195379042D01*
X193386599Y-195379042D02*
X193386599Y-195736185D01*
X193386599Y-195736185D02*
X193458027Y-195879042D01*
X193458027Y-195879042D02*
X193529456Y-195950471D01*
X193529456Y-195950471D02*
X193672313Y-196021900D01*
X193672313Y-196021900D02*
X193958027Y-196021900D01*
X193958027Y-196021900D02*
X194100885Y-195950471D01*
X194100885Y-195950471D02*
X194172313Y-195879042D01*
X194172313Y-195879042D02*
X194243742Y-195736185D01*
X194886598Y-196450471D02*
X194958027Y-196521900D01*
X194958027Y-196521900D02*
X194886598Y-196593328D01*
X194886598Y-196593328D02*
X194815170Y-196521900D01*
X194815170Y-196521900D02*
X194886598Y-196450471D01*
X194886598Y-196450471D02*
X194886598Y-196593328D01*
X195886599Y-195093328D02*
X196029456Y-195093328D01*
X196029456Y-195093328D02*
X196172313Y-195164757D01*
X196172313Y-195164757D02*
X196243742Y-195236185D01*
X196243742Y-195236185D02*
X196315170Y-195379042D01*
X196315170Y-195379042D02*
X196386599Y-195664757D01*
X196386599Y-195664757D02*
X196386599Y-196021900D01*
X196386599Y-196021900D02*
X196315170Y-196307614D01*
X196315170Y-196307614D02*
X196243742Y-196450471D01*
X196243742Y-196450471D02*
X196172313Y-196521900D01*
X196172313Y-196521900D02*
X196029456Y-196593328D01*
X196029456Y-196593328D02*
X195886599Y-196593328D01*
X195886599Y-196593328D02*
X195743742Y-196521900D01*
X195743742Y-196521900D02*
X195672313Y-196450471D01*
X195672313Y-196450471D02*
X195600884Y-196307614D01*
X195600884Y-196307614D02*
X195529456Y-196021900D01*
X195529456Y-196021900D02*
X195529456Y-195664757D01*
X195529456Y-195664757D02*
X195600884Y-195379042D01*
X195600884Y-195379042D02*
X195672313Y-195236185D01*
X195672313Y-195236185D02*
X195743742Y-195164757D01*
X195743742Y-195164757D02*
X195886599Y-195093328D01*
X197029455Y-196450471D02*
X197100884Y-196521900D01*
X197100884Y-196521900D02*
X197029455Y-196593328D01*
X197029455Y-196593328D02*
X196958027Y-196521900D01*
X196958027Y-196521900D02*
X197029455Y-196450471D01*
X197029455Y-196450471D02*
X197029455Y-196593328D01*
X198029456Y-195093328D02*
X198172313Y-195093328D01*
X198172313Y-195093328D02*
X198315170Y-195164757D01*
X198315170Y-195164757D02*
X198386599Y-195236185D01*
X198386599Y-195236185D02*
X198458027Y-195379042D01*
X198458027Y-195379042D02*
X198529456Y-195664757D01*
X198529456Y-195664757D02*
X198529456Y-196021900D01*
X198529456Y-196021900D02*
X198458027Y-196307614D01*
X198458027Y-196307614D02*
X198386599Y-196450471D01*
X198386599Y-196450471D02*
X198315170Y-196521900D01*
X198315170Y-196521900D02*
X198172313Y-196593328D01*
X198172313Y-196593328D02*
X198029456Y-196593328D01*
X198029456Y-196593328D02*
X197886599Y-196521900D01*
X197886599Y-196521900D02*
X197815170Y-196450471D01*
X197815170Y-196450471D02*
X197743741Y-196307614D01*
X197743741Y-196307614D02*
X197672313Y-196021900D01*
X197672313Y-196021900D02*
X197672313Y-195664757D01*
X197672313Y-195664757D02*
X197743741Y-195379042D01*
X197743741Y-195379042D02*
X197815170Y-195236185D01*
X197815170Y-195236185D02*
X197886599Y-195164757D01*
X197886599Y-195164757D02*
X198029456Y-195093328D01*
D10*
D11*
X177002200Y-191507200D02*
X285002200Y-191507200D01*
D10*
D12*
X264413853Y-193785528D02*
X263913853Y-193071242D01*
X263556710Y-193785528D02*
X263556710Y-192285528D01*
X263556710Y-192285528D02*
X264128139Y-192285528D01*
X264128139Y-192285528D02*
X264270996Y-192356957D01*
X264270996Y-192356957D02*
X264342425Y-192428385D01*
X264342425Y-192428385D02*
X264413853Y-192571242D01*
X264413853Y-192571242D02*
X264413853Y-192785528D01*
X264413853Y-192785528D02*
X264342425Y-192928385D01*
X264342425Y-192928385D02*
X264270996Y-192999814D01*
X264270996Y-192999814D02*
X264128139Y-193071242D01*
X264128139Y-193071242D02*
X263556710Y-193071242D01*
X265628139Y-193714100D02*
X265485282Y-193785528D01*
X265485282Y-193785528D02*
X265199568Y-193785528D01*
X265199568Y-193785528D02*
X265056710Y-193714100D01*
X265056710Y-193714100D02*
X264985282Y-193571242D01*
X264985282Y-193571242D02*
X264985282Y-192999814D01*
X264985282Y-192999814D02*
X265056710Y-192856957D01*
X265056710Y-192856957D02*
X265199568Y-192785528D01*
X265199568Y-192785528D02*
X265485282Y-192785528D01*
X265485282Y-192785528D02*
X265628139Y-192856957D01*
X265628139Y-192856957D02*
X265699568Y-192999814D01*
X265699568Y-192999814D02*
X265699568Y-193142671D01*
X265699568Y-193142671D02*
X264985282Y-193285528D01*
X266199567Y-192785528D02*
X266556710Y-193785528D01*
X266556710Y-193785528D02*
X266913853Y-192785528D01*
X267485281Y-193642671D02*
X267556710Y-193714100D01*
X267556710Y-193714100D02*
X267485281Y-193785528D01*
X267485281Y-193785528D02*
X267413853Y-193714100D01*
X267413853Y-193714100D02*
X267485281Y-193642671D01*
X267485281Y-193642671D02*
X267485281Y-193785528D01*
X267485281Y-192856957D02*
X267556710Y-192928385D01*
X267556710Y-192928385D02*
X267485281Y-192999814D01*
X267485281Y-192999814D02*
X267413853Y-192928385D01*
X267413853Y-192928385D02*
X267485281Y-192856957D01*
X267485281Y-192856957D02*
X267485281Y-192999814D01*
D10*
D11*
X178386598Y-193721900D02*
X178600884Y-193793328D01*
X178600884Y-193793328D02*
X178958026Y-193793328D01*
X178958026Y-193793328D02*
X179100884Y-193721900D01*
X179100884Y-193721900D02*
X179172312Y-193650471D01*
X179172312Y-193650471D02*
X179243741Y-193507614D01*
X179243741Y-193507614D02*
X179243741Y-193364757D01*
X179243741Y-193364757D02*
X179172312Y-193221900D01*
X179172312Y-193221900D02*
X179100884Y-193150471D01*
X179100884Y-193150471D02*
X178958026Y-193079042D01*
X178958026Y-193079042D02*
X178672312Y-193007614D01*
X178672312Y-193007614D02*
X178529455Y-192936185D01*
X178529455Y-192936185D02*
X178458026Y-192864757D01*
X178458026Y-192864757D02*
X178386598Y-192721900D01*
X178386598Y-192721900D02*
X178386598Y-192579042D01*
X178386598Y-192579042D02*
X178458026Y-192436185D01*
X178458026Y-192436185D02*
X178529455Y-192364757D01*
X178529455Y-192364757D02*
X178672312Y-192293328D01*
X178672312Y-192293328D02*
X179029455Y-192293328D01*
X179029455Y-192293328D02*
X179243741Y-192364757D01*
X179886597Y-193793328D02*
X179886597Y-192793328D01*
X179886597Y-192293328D02*
X179815169Y-192364757D01*
X179815169Y-192364757D02*
X179886597Y-192436185D01*
X179886597Y-192436185D02*
X179958026Y-192364757D01*
X179958026Y-192364757D02*
X179886597Y-192293328D01*
X179886597Y-192293328D02*
X179886597Y-192436185D01*
X180458026Y-192793328D02*
X181243741Y-192793328D01*
X181243741Y-192793328D02*
X180458026Y-193793328D01*
X180458026Y-193793328D02*
X181243741Y-193793328D01*
X182386598Y-193721900D02*
X182243741Y-193793328D01*
X182243741Y-193793328D02*
X181958027Y-193793328D01*
X181958027Y-193793328D02*
X181815169Y-193721900D01*
X181815169Y-193721900D02*
X181743741Y-193579042D01*
X181743741Y-193579042D02*
X181743741Y-193007614D01*
X181743741Y-193007614D02*
X181815169Y-192864757D01*
X181815169Y-192864757D02*
X181958027Y-192793328D01*
X181958027Y-192793328D02*
X182243741Y-192793328D01*
X182243741Y-192793328D02*
X182386598Y-192864757D01*
X182386598Y-192864757D02*
X182458027Y-193007614D01*
X182458027Y-193007614D02*
X182458027Y-193150471D01*
X182458027Y-193150471D02*
X181743741Y-193293328D01*
X183100883Y-193650471D02*
X183172312Y-193721900D01*
X183172312Y-193721900D02*
X183100883Y-193793328D01*
X183100883Y-193793328D02*
X183029455Y-193721900D01*
X183029455Y-193721900D02*
X183100883Y-193650471D01*
X183100883Y-193650471D02*
X183100883Y-193793328D01*
X183100883Y-192864757D02*
X183172312Y-192936185D01*
X183172312Y-192936185D02*
X183100883Y-193007614D01*
X183100883Y-193007614D02*
X183029455Y-192936185D01*
X183029455Y-192936185D02*
X183100883Y-192864757D01*
X183100883Y-192864757D02*
X183100883Y-193007614D01*
X184886598Y-193364757D02*
X185600884Y-193364757D01*
X184743741Y-193793328D02*
X185243741Y-192293328D01*
X185243741Y-192293328D02*
X185743741Y-193793328D01*
X186886598Y-192793328D02*
X186886598Y-193793328D01*
X186529455Y-192221900D02*
X186172312Y-193293328D01*
X186172312Y-193293328D02*
X187100883Y-193293328D01*
D10*
D11*
X263458026Y-196593328D02*
X263458026Y-195093328D01*
X264815170Y-196593328D02*
X264815170Y-195093328D01*
X264815170Y-196521900D02*
X264672312Y-196593328D01*
X264672312Y-196593328D02*
X264386598Y-196593328D01*
X264386598Y-196593328D02*
X264243741Y-196521900D01*
X264243741Y-196521900D02*
X264172312Y-196450471D01*
X264172312Y-196450471D02*
X264100884Y-196307614D01*
X264100884Y-196307614D02*
X264100884Y-195879042D01*
X264100884Y-195879042D02*
X264172312Y-195736185D01*
X264172312Y-195736185D02*
X264243741Y-195664757D01*
X264243741Y-195664757D02*
X264386598Y-195593328D01*
X264386598Y-195593328D02*
X264672312Y-195593328D01*
X264672312Y-195593328D02*
X264815170Y-195664757D01*
X265529455Y-196450471D02*
X265600884Y-196521900D01*
X265600884Y-196521900D02*
X265529455Y-196593328D01*
X265529455Y-196593328D02*
X265458027Y-196521900D01*
X265458027Y-196521900D02*
X265529455Y-196450471D01*
X265529455Y-196450471D02*
X265529455Y-196593328D01*
X265529455Y-195664757D02*
X265600884Y-195736185D01*
X265600884Y-195736185D02*
X265529455Y-195807614D01*
X265529455Y-195807614D02*
X265458027Y-195736185D01*
X265458027Y-195736185D02*
X265529455Y-195664757D01*
X265529455Y-195664757D02*
X265529455Y-195807614D01*
X267243741Y-195093328D02*
X268243741Y-195093328D01*
X268243741Y-195093328D02*
X267600884Y-196593328D01*
X269886598Y-195021900D02*
X268600884Y-196950471D01*
X271172313Y-196593328D02*
X270315170Y-196593328D01*
X270743741Y-196593328D02*
X270743741Y-195093328D01*
X270743741Y-195093328D02*
X270600884Y-195307614D01*
X270600884Y-195307614D02*
X270458027Y-195450471D01*
X270458027Y-195450471D02*
X270315170Y-195521900D01*
X272600884Y-196593328D02*
X271743741Y-196593328D01*
X272172312Y-196593328D02*
X272172312Y-195093328D01*
X272172312Y-195093328D02*
X272029455Y-195307614D01*
X272029455Y-195307614D02*
X271886598Y-195450471D01*
X271886598Y-195450471D02*
X271743741Y-195521900D01*
D10*
D11*
X177002200Y-187507200D02*
X285002200Y-187507200D01*
D10*
D13*
X178693928Y-188211638D02*
X179836785Y-188211638D01*
X179015357Y-190211638D02*
X179265357Y-188211638D01*
X180253452Y-190211638D02*
X180420119Y-188878304D01*
X180503452Y-188211638D02*
X180396309Y-188306876D01*
X180396309Y-188306876D02*
X180479643Y-188402114D01*
X180479643Y-188402114D02*
X180586786Y-188306876D01*
X180586786Y-188306876D02*
X180503452Y-188211638D01*
X180503452Y-188211638D02*
X180479643Y-188402114D01*
X181086786Y-188878304D02*
X181848690Y-188878304D01*
X181455833Y-188211638D02*
X181241548Y-189925923D01*
X181241548Y-189925923D02*
X181312976Y-190116400D01*
X181312976Y-190116400D02*
X181491548Y-190211638D01*
X181491548Y-190211638D02*
X181682024Y-190211638D01*
X182634405Y-190211638D02*
X182455833Y-190116400D01*
X182455833Y-190116400D02*
X182384405Y-189925923D01*
X182384405Y-189925923D02*
X182598690Y-188211638D01*
X184170119Y-190116400D02*
X183967738Y-190211638D01*
X183967738Y-190211638D02*
X183586785Y-190211638D01*
X183586785Y-190211638D02*
X183408214Y-190116400D01*
X183408214Y-190116400D02*
X183336785Y-189925923D01*
X183336785Y-189925923D02*
X183432024Y-189164019D01*
X183432024Y-189164019D02*
X183551071Y-188973542D01*
X183551071Y-188973542D02*
X183753452Y-188878304D01*
X183753452Y-188878304D02*
X184134404Y-188878304D01*
X184134404Y-188878304D02*
X184312976Y-188973542D01*
X184312976Y-188973542D02*
X184384404Y-189164019D01*
X184384404Y-189164019D02*
X184360595Y-189354495D01*
X184360595Y-189354495D02*
X183384404Y-189544971D01*
X185134405Y-190021161D02*
X185217738Y-190116400D01*
X185217738Y-190116400D02*
X185110595Y-190211638D01*
X185110595Y-190211638D02*
X185027262Y-190116400D01*
X185027262Y-190116400D02*
X185134405Y-190021161D01*
X185134405Y-190021161D02*
X185110595Y-190211638D01*
X185265357Y-188973542D02*
X185348690Y-189068780D01*
X185348690Y-189068780D02*
X185241548Y-189164019D01*
X185241548Y-189164019D02*
X185158214Y-189068780D01*
X185158214Y-189068780D02*
X185265357Y-188973542D01*
X185265357Y-188973542D02*
X185241548Y-189164019D01*
D10*
D11*
X178958026Y-185607614D02*
X178458026Y-185607614D01*
X178458026Y-186393328D02*
X178458026Y-184893328D01*
X178458026Y-184893328D02*
X179172312Y-184893328D01*
X179743740Y-186393328D02*
X179743740Y-185393328D01*
X179743740Y-184893328D02*
X179672312Y-184964757D01*
X179672312Y-184964757D02*
X179743740Y-185036185D01*
X179743740Y-185036185D02*
X179815169Y-184964757D01*
X179815169Y-184964757D02*
X179743740Y-184893328D01*
X179743740Y-184893328D02*
X179743740Y-185036185D01*
X180672312Y-186393328D02*
X180529455Y-186321900D01*
X180529455Y-186321900D02*
X180458026Y-186179042D01*
X180458026Y-186179042D02*
X180458026Y-184893328D01*
X181815169Y-186321900D02*
X181672312Y-186393328D01*
X181672312Y-186393328D02*
X181386598Y-186393328D01*
X181386598Y-186393328D02*
X181243740Y-186321900D01*
X181243740Y-186321900D02*
X181172312Y-186179042D01*
X181172312Y-186179042D02*
X181172312Y-185607614D01*
X181172312Y-185607614D02*
X181243740Y-185464757D01*
X181243740Y-185464757D02*
X181386598Y-185393328D01*
X181386598Y-185393328D02*
X181672312Y-185393328D01*
X181672312Y-185393328D02*
X181815169Y-185464757D01*
X181815169Y-185464757D02*
X181886598Y-185607614D01*
X181886598Y-185607614D02*
X181886598Y-185750471D01*
X181886598Y-185750471D02*
X181172312Y-185893328D01*
X182529454Y-186250471D02*
X182600883Y-186321900D01*
X182600883Y-186321900D02*
X182529454Y-186393328D01*
X182529454Y-186393328D02*
X182458026Y-186321900D01*
X182458026Y-186321900D02*
X182529454Y-186250471D01*
X182529454Y-186250471D02*
X182529454Y-186393328D01*
X182529454Y-185464757D02*
X182600883Y-185536185D01*
X182600883Y-185536185D02*
X182529454Y-185607614D01*
X182529454Y-185607614D02*
X182458026Y-185536185D01*
X182458026Y-185536185D02*
X182529454Y-185464757D01*
X182529454Y-185464757D02*
X182529454Y-185607614D01*
X185029455Y-186393328D02*
X185029455Y-184893328D01*
X185029455Y-186321900D02*
X184886597Y-186393328D01*
X184886597Y-186393328D02*
X184600883Y-186393328D01*
X184600883Y-186393328D02*
X184458026Y-186321900D01*
X184458026Y-186321900D02*
X184386597Y-186250471D01*
X184386597Y-186250471D02*
X184315169Y-186107614D01*
X184315169Y-186107614D02*
X184315169Y-185679042D01*
X184315169Y-185679042D02*
X184386597Y-185536185D01*
X184386597Y-185536185D02*
X184458026Y-185464757D01*
X184458026Y-185464757D02*
X184600883Y-185393328D01*
X184600883Y-185393328D02*
X184886597Y-185393328D01*
X184886597Y-185393328D02*
X185029455Y-185464757D01*
X185743740Y-186393328D02*
X185743740Y-185393328D01*
X185743740Y-185679042D02*
X185815169Y-185536185D01*
X185815169Y-185536185D02*
X185886598Y-185464757D01*
X185886598Y-185464757D02*
X186029455Y-185393328D01*
X186029455Y-185393328D02*
X186172312Y-185393328D01*
X186886597Y-186393328D02*
X186743740Y-186321900D01*
X186743740Y-186321900D02*
X186672311Y-186250471D01*
X186672311Y-186250471D02*
X186600883Y-186107614D01*
X186600883Y-186107614D02*
X186600883Y-185679042D01*
X186600883Y-185679042D02*
X186672311Y-185536185D01*
X186672311Y-185536185D02*
X186743740Y-185464757D01*
X186743740Y-185464757D02*
X186886597Y-185393328D01*
X186886597Y-185393328D02*
X187100883Y-185393328D01*
X187100883Y-185393328D02*
X187243740Y-185464757D01*
X187243740Y-185464757D02*
X187315169Y-185536185D01*
X187315169Y-185536185D02*
X187386597Y-185679042D01*
X187386597Y-185679042D02*
X187386597Y-186107614D01*
X187386597Y-186107614D02*
X187315169Y-186250471D01*
X187315169Y-186250471D02*
X187243740Y-186321900D01*
X187243740Y-186321900D02*
X187100883Y-186393328D01*
X187100883Y-186393328D02*
X186886597Y-186393328D01*
X188029454Y-185393328D02*
X188029454Y-186393328D01*
X188029454Y-185536185D02*
X188100883Y-185464757D01*
X188100883Y-185464757D02*
X188243740Y-185393328D01*
X188243740Y-185393328D02*
X188458026Y-185393328D01*
X188458026Y-185393328D02*
X188600883Y-185464757D01*
X188600883Y-185464757D02*
X188672312Y-185607614D01*
X188672312Y-185607614D02*
X188672312Y-186393328D01*
X189958026Y-186321900D02*
X189815169Y-186393328D01*
X189815169Y-186393328D02*
X189529455Y-186393328D01*
X189529455Y-186393328D02*
X189386597Y-186321900D01*
X189386597Y-186321900D02*
X189315169Y-186179042D01*
X189315169Y-186179042D02*
X189315169Y-185607614D01*
X189315169Y-185607614D02*
X189386597Y-185464757D01*
X189386597Y-185464757D02*
X189529455Y-185393328D01*
X189529455Y-185393328D02*
X189815169Y-185393328D01*
X189815169Y-185393328D02*
X189958026Y-185464757D01*
X189958026Y-185464757D02*
X190029455Y-185607614D01*
X190029455Y-185607614D02*
X190029455Y-185750471D01*
X190029455Y-185750471D02*
X189315169Y-185893328D01*
X191315169Y-186393328D02*
X191315169Y-184893328D01*
X191315169Y-186321900D02*
X191172311Y-186393328D01*
X191172311Y-186393328D02*
X190886597Y-186393328D01*
X190886597Y-186393328D02*
X190743740Y-186321900D01*
X190743740Y-186321900D02*
X190672311Y-186250471D01*
X190672311Y-186250471D02*
X190600883Y-186107614D01*
X190600883Y-186107614D02*
X190600883Y-185679042D01*
X190600883Y-185679042D02*
X190672311Y-185536185D01*
X190672311Y-185536185D02*
X190743740Y-185464757D01*
X190743740Y-185464757D02*
X190886597Y-185393328D01*
X190886597Y-185393328D02*
X191172311Y-185393328D01*
X191172311Y-185393328D02*
X191315169Y-185464757D01*
X192029454Y-186393328D02*
X192029454Y-185393328D01*
X192029454Y-185679042D02*
X192100883Y-185536185D01*
X192100883Y-185536185D02*
X192172312Y-185464757D01*
X192172312Y-185464757D02*
X192315169Y-185393328D01*
X192315169Y-185393328D02*
X192458026Y-185393328D01*
X192958025Y-186393328D02*
X192958025Y-185393328D01*
X192958025Y-184893328D02*
X192886597Y-184964757D01*
X192886597Y-184964757D02*
X192958025Y-185036185D01*
X192958025Y-185036185D02*
X193029454Y-184964757D01*
X193029454Y-184964757D02*
X192958025Y-184893328D01*
X192958025Y-184893328D02*
X192958025Y-185036185D01*
X193529454Y-185393328D02*
X193886597Y-186393328D01*
X193886597Y-186393328D02*
X194243740Y-185393328D01*
X195386597Y-186321900D02*
X195243740Y-186393328D01*
X195243740Y-186393328D02*
X194958026Y-186393328D01*
X194958026Y-186393328D02*
X194815168Y-186321900D01*
X194815168Y-186321900D02*
X194743740Y-186179042D01*
X194743740Y-186179042D02*
X194743740Y-185607614D01*
X194743740Y-185607614D02*
X194815168Y-185464757D01*
X194815168Y-185464757D02*
X194958026Y-185393328D01*
X194958026Y-185393328D02*
X195243740Y-185393328D01*
X195243740Y-185393328D02*
X195386597Y-185464757D01*
X195386597Y-185464757D02*
X195458026Y-185607614D01*
X195458026Y-185607614D02*
X195458026Y-185750471D01*
X195458026Y-185750471D02*
X194743740Y-185893328D01*
X196100882Y-186393328D02*
X196100882Y-185393328D01*
X196100882Y-185679042D02*
X196172311Y-185536185D01*
X196172311Y-185536185D02*
X196243740Y-185464757D01*
X196243740Y-185464757D02*
X196386597Y-185393328D01*
X196386597Y-185393328D02*
X196529454Y-185393328D01*
X196958025Y-186321900D02*
X197100882Y-186393328D01*
X197100882Y-186393328D02*
X197386596Y-186393328D01*
X197386596Y-186393328D02*
X197529453Y-186321900D01*
X197529453Y-186321900D02*
X197600882Y-186179042D01*
X197600882Y-186179042D02*
X197600882Y-186107614D01*
X197600882Y-186107614D02*
X197529453Y-185964757D01*
X197529453Y-185964757D02*
X197386596Y-185893328D01*
X197386596Y-185893328D02*
X197172311Y-185893328D01*
X197172311Y-185893328D02*
X197029453Y-185821900D01*
X197029453Y-185821900D02*
X196958025Y-185679042D01*
X196958025Y-185679042D02*
X196958025Y-185607614D01*
X196958025Y-185607614D02*
X197029453Y-185464757D01*
X197029453Y-185464757D02*
X197172311Y-185393328D01*
X197172311Y-185393328D02*
X197386596Y-185393328D01*
X197386596Y-185393328D02*
X197529453Y-185464757D01*
X198243739Y-186250471D02*
X198315168Y-186321900D01*
X198315168Y-186321900D02*
X198243739Y-186393328D01*
X198243739Y-186393328D02*
X198172311Y-186321900D01*
X198172311Y-186321900D02*
X198243739Y-186250471D01*
X198243739Y-186250471D02*
X198243739Y-186393328D01*
X198958025Y-186393328D02*
X198958025Y-184893328D01*
X199100883Y-185821900D02*
X199529454Y-186393328D01*
X199529454Y-185393328D02*
X198958025Y-185964757D01*
X200172311Y-186393328D02*
X200172311Y-185393328D01*
X200172311Y-184893328D02*
X200100883Y-184964757D01*
X200100883Y-184964757D02*
X200172311Y-185036185D01*
X200172311Y-185036185D02*
X200243740Y-184964757D01*
X200243740Y-184964757D02*
X200172311Y-184893328D01*
X200172311Y-184893328D02*
X200172311Y-185036185D01*
X201529455Y-186321900D02*
X201386597Y-186393328D01*
X201386597Y-186393328D02*
X201100883Y-186393328D01*
X201100883Y-186393328D02*
X200958026Y-186321900D01*
X200958026Y-186321900D02*
X200886597Y-186250471D01*
X200886597Y-186250471D02*
X200815169Y-186107614D01*
X200815169Y-186107614D02*
X200815169Y-185679042D01*
X200815169Y-185679042D02*
X200886597Y-185536185D01*
X200886597Y-185536185D02*
X200958026Y-185464757D01*
X200958026Y-185464757D02*
X201100883Y-185393328D01*
X201100883Y-185393328D02*
X201386597Y-185393328D01*
X201386597Y-185393328D02*
X201529455Y-185464757D01*
X202815169Y-186393328D02*
X202815169Y-185607614D01*
X202815169Y-185607614D02*
X202743740Y-185464757D01*
X202743740Y-185464757D02*
X202600883Y-185393328D01*
X202600883Y-185393328D02*
X202315169Y-185393328D01*
X202315169Y-185393328D02*
X202172311Y-185464757D01*
X202815169Y-186321900D02*
X202672311Y-186393328D01*
X202672311Y-186393328D02*
X202315169Y-186393328D01*
X202315169Y-186393328D02*
X202172311Y-186321900D01*
X202172311Y-186321900D02*
X202100883Y-186179042D01*
X202100883Y-186179042D02*
X202100883Y-186036185D01*
X202100883Y-186036185D02*
X202172311Y-185893328D01*
X202172311Y-185893328D02*
X202315169Y-185821900D01*
X202315169Y-185821900D02*
X202672311Y-185821900D01*
X202672311Y-185821900D02*
X202815169Y-185750471D01*
X204172312Y-186393328D02*
X204172312Y-184893328D01*
X204172312Y-186321900D02*
X204029454Y-186393328D01*
X204029454Y-186393328D02*
X203743740Y-186393328D01*
X203743740Y-186393328D02*
X203600883Y-186321900D01*
X203600883Y-186321900D02*
X203529454Y-186250471D01*
X203529454Y-186250471D02*
X203458026Y-186107614D01*
X203458026Y-186107614D02*
X203458026Y-185679042D01*
X203458026Y-185679042D02*
X203529454Y-185536185D01*
X203529454Y-185536185D02*
X203600883Y-185464757D01*
X203600883Y-185464757D02*
X203743740Y-185393328D01*
X203743740Y-185393328D02*
X204029454Y-185393328D01*
X204029454Y-185393328D02*
X204172312Y-185464757D01*
X204529455Y-186536185D02*
X205672312Y-186536185D01*
X206029454Y-185393328D02*
X206029454Y-186893328D01*
X206029454Y-185464757D02*
X206172312Y-185393328D01*
X206172312Y-185393328D02*
X206458026Y-185393328D01*
X206458026Y-185393328D02*
X206600883Y-185464757D01*
X206600883Y-185464757D02*
X206672312Y-185536185D01*
X206672312Y-185536185D02*
X206743740Y-185679042D01*
X206743740Y-185679042D02*
X206743740Y-186107614D01*
X206743740Y-186107614D02*
X206672312Y-186250471D01*
X206672312Y-186250471D02*
X206600883Y-186321900D01*
X206600883Y-186321900D02*
X206458026Y-186393328D01*
X206458026Y-186393328D02*
X206172312Y-186393328D01*
X206172312Y-186393328D02*
X206029454Y-186321900D01*
X208029455Y-186321900D02*
X207886597Y-186393328D01*
X207886597Y-186393328D02*
X207600883Y-186393328D01*
X207600883Y-186393328D02*
X207458026Y-186321900D01*
X207458026Y-186321900D02*
X207386597Y-186250471D01*
X207386597Y-186250471D02*
X207315169Y-186107614D01*
X207315169Y-186107614D02*
X207315169Y-185679042D01*
X207315169Y-185679042D02*
X207386597Y-185536185D01*
X207386597Y-185536185D02*
X207458026Y-185464757D01*
X207458026Y-185464757D02*
X207600883Y-185393328D01*
X207600883Y-185393328D02*
X207886597Y-185393328D01*
X207886597Y-185393328D02*
X208029455Y-185464757D01*
X208672311Y-186393328D02*
X208672311Y-184893328D01*
X208672311Y-185464757D02*
X208815169Y-185393328D01*
X208815169Y-185393328D02*
X209100883Y-185393328D01*
X209100883Y-185393328D02*
X209243740Y-185464757D01*
X209243740Y-185464757D02*
X209315169Y-185536185D01*
X209315169Y-185536185D02*
X209386597Y-185679042D01*
X209386597Y-185679042D02*
X209386597Y-186107614D01*
X209386597Y-186107614D02*
X209315169Y-186250471D01*
X209315169Y-186250471D02*
X209243740Y-186321900D01*
X209243740Y-186321900D02*
X209100883Y-186393328D01*
X209100883Y-186393328D02*
X208815169Y-186393328D01*
X208815169Y-186393328D02*
X208672311Y-186321900D01*
D10*
D11*
X177002200Y-181507200D02*
X285002200Y-181507200D01*
D10*
D11*
X178386598Y-183621900D02*
X178600884Y-183693328D01*
X178600884Y-183693328D02*
X178958026Y-183693328D01*
X178958026Y-183693328D02*
X179100884Y-183621900D01*
X179100884Y-183621900D02*
X179172312Y-183550471D01*
X179172312Y-183550471D02*
X179243741Y-183407614D01*
X179243741Y-183407614D02*
X179243741Y-183264757D01*
X179243741Y-183264757D02*
X179172312Y-183121900D01*
X179172312Y-183121900D02*
X179100884Y-183050471D01*
X179100884Y-183050471D02*
X178958026Y-182979042D01*
X178958026Y-182979042D02*
X178672312Y-182907614D01*
X178672312Y-182907614D02*
X178529455Y-182836185D01*
X178529455Y-182836185D02*
X178458026Y-182764757D01*
X178458026Y-182764757D02*
X178386598Y-182621900D01*
X178386598Y-182621900D02*
X178386598Y-182479042D01*
X178386598Y-182479042D02*
X178458026Y-182336185D01*
X178458026Y-182336185D02*
X178529455Y-182264757D01*
X178529455Y-182264757D02*
X178672312Y-182193328D01*
X178672312Y-182193328D02*
X179029455Y-182193328D01*
X179029455Y-182193328D02*
X179243741Y-182264757D01*
X179886597Y-183693328D02*
X179886597Y-182193328D01*
X180529455Y-183693328D02*
X180529455Y-182907614D01*
X180529455Y-182907614D02*
X180458026Y-182764757D01*
X180458026Y-182764757D02*
X180315169Y-182693328D01*
X180315169Y-182693328D02*
X180100883Y-182693328D01*
X180100883Y-182693328D02*
X179958026Y-182764757D01*
X179958026Y-182764757D02*
X179886597Y-182836185D01*
X181815169Y-183621900D02*
X181672312Y-183693328D01*
X181672312Y-183693328D02*
X181386598Y-183693328D01*
X181386598Y-183693328D02*
X181243740Y-183621900D01*
X181243740Y-183621900D02*
X181172312Y-183479042D01*
X181172312Y-183479042D02*
X181172312Y-182907614D01*
X181172312Y-182907614D02*
X181243740Y-182764757D01*
X181243740Y-182764757D02*
X181386598Y-182693328D01*
X181386598Y-182693328D02*
X181672312Y-182693328D01*
X181672312Y-182693328D02*
X181815169Y-182764757D01*
X181815169Y-182764757D02*
X181886598Y-182907614D01*
X181886598Y-182907614D02*
X181886598Y-183050471D01*
X181886598Y-183050471D02*
X181172312Y-183193328D01*
X183100883Y-183621900D02*
X182958026Y-183693328D01*
X182958026Y-183693328D02*
X182672312Y-183693328D01*
X182672312Y-183693328D02*
X182529454Y-183621900D01*
X182529454Y-183621900D02*
X182458026Y-183479042D01*
X182458026Y-183479042D02*
X182458026Y-182907614D01*
X182458026Y-182907614D02*
X182529454Y-182764757D01*
X182529454Y-182764757D02*
X182672312Y-182693328D01*
X182672312Y-182693328D02*
X182958026Y-182693328D01*
X182958026Y-182693328D02*
X183100883Y-182764757D01*
X183100883Y-182764757D02*
X183172312Y-182907614D01*
X183172312Y-182907614D02*
X183172312Y-183050471D01*
X183172312Y-183050471D02*
X182458026Y-183193328D01*
X183600883Y-182693328D02*
X184172311Y-182693328D01*
X183815168Y-182193328D02*
X183815168Y-183479042D01*
X183815168Y-183479042D02*
X183886597Y-183621900D01*
X183886597Y-183621900D02*
X184029454Y-183693328D01*
X184029454Y-183693328D02*
X184172311Y-183693328D01*
X184672311Y-183550471D02*
X184743740Y-183621900D01*
X184743740Y-183621900D02*
X184672311Y-183693328D01*
X184672311Y-183693328D02*
X184600883Y-183621900D01*
X184600883Y-183621900D02*
X184672311Y-183550471D01*
X184672311Y-183550471D02*
X184672311Y-183693328D01*
X184672311Y-182764757D02*
X184743740Y-182836185D01*
X184743740Y-182836185D02*
X184672311Y-182907614D01*
X184672311Y-182907614D02*
X184600883Y-182836185D01*
X184600883Y-182836185D02*
X184672311Y-182764757D01*
X184672311Y-182764757D02*
X184672311Y-182907614D01*
D10*
D11*
X197002200Y-191507200D02*
X197002200Y-194507200D01*
D10*
D11*
X261002200Y-191507200D02*
X261002200Y-198007200D01*
X130704819Y-98738094D02*
X129704819Y-98738094D01*
X129704819Y-98738094D02*
X129704819Y-98499999D01*
X129704819Y-98499999D02*
X129752438Y-98357142D01*
X129752438Y-98357142D02*
X129847676Y-98261904D01*
X129847676Y-98261904D02*
X129942914Y-98214285D01*
X129942914Y-98214285D02*
X130133390Y-98166666D01*
X130133390Y-98166666D02*
X130276247Y-98166666D01*
X130276247Y-98166666D02*
X130466723Y-98214285D01*
X130466723Y-98214285D02*
X130561961Y-98261904D01*
X130561961Y-98261904D02*
X130657200Y-98357142D01*
X130657200Y-98357142D02*
X130704819Y-98499999D01*
X130704819Y-98499999D02*
X130704819Y-98738094D01*
X129800057Y-97785713D02*
X129752438Y-97738094D01*
X129752438Y-97738094D02*
X129704819Y-97642856D01*
X129704819Y-97642856D02*
X129704819Y-97404761D01*
X129704819Y-97404761D02*
X129752438Y-97309523D01*
X129752438Y-97309523D02*
X129800057Y-97261904D01*
X129800057Y-97261904D02*
X129895295Y-97214285D01*
X129895295Y-97214285D02*
X129990533Y-97214285D01*
X129990533Y-97214285D02*
X130133390Y-97261904D01*
X130133390Y-97261904D02*
X130704819Y-97833332D01*
X130704819Y-97833332D02*
X130704819Y-97214285D01*
X128704819Y-96761904D02*
X129514342Y-96761904D01*
X129514342Y-96761904D02*
X129609580Y-96714285D01*
X129609580Y-96714285D02*
X129657200Y-96666666D01*
X129657200Y-96666666D02*
X129704819Y-96571428D01*
X129704819Y-96571428D02*
X129704819Y-96380952D01*
X129704819Y-96380952D02*
X129657200Y-96285714D01*
X129657200Y-96285714D02*
X129609580Y-96238095D01*
X129609580Y-96238095D02*
X129514342Y-96190476D01*
X129514342Y-96190476D02*
X128704819Y-96190476D01*
X128704819Y-95285714D02*
X128704819Y-95476190D01*
X128704819Y-95476190D02*
X128752438Y-95571428D01*
X128752438Y-95571428D02*
X128800057Y-95619047D01*
X128800057Y-95619047D02*
X128942914Y-95714285D01*
X128942914Y-95714285D02*
X129133390Y-95761904D01*
X129133390Y-95761904D02*
X129514342Y-95761904D01*
X129514342Y-95761904D02*
X129609580Y-95714285D01*
X129609580Y-95714285D02*
X129657200Y-95666666D01*
X129657200Y-95666666D02*
X129704819Y-95571428D01*
X129704819Y-95571428D02*
X129704819Y-95380952D01*
X129704819Y-95380952D02*
X129657200Y-95285714D01*
X129657200Y-95285714D02*
X129609580Y-95238095D01*
X129609580Y-95238095D02*
X129514342Y-95190476D01*
X129514342Y-95190476D02*
X129276247Y-95190476D01*
X129276247Y-95190476D02*
X129181009Y-95238095D01*
X129181009Y-95238095D02*
X129133390Y-95285714D01*
X129133390Y-95285714D02*
X129085771Y-95380952D01*
X129085771Y-95380952D02*
X129085771Y-95571428D01*
X129085771Y-95571428D02*
X129133390Y-95666666D01*
X129133390Y-95666666D02*
X129181009Y-95714285D01*
X129181009Y-95714285D02*
X129276247Y-95761904D01*
X154245833Y-103529819D02*
X153912500Y-103053628D01*
X153674405Y-103529819D02*
X153674405Y-102529819D01*
X153674405Y-102529819D02*
X154055357Y-102529819D01*
X154055357Y-102529819D02*
X154150595Y-102577438D01*
X154150595Y-102577438D02*
X154198214Y-102625057D01*
X154198214Y-102625057D02*
X154245833Y-102720295D01*
X154245833Y-102720295D02*
X154245833Y-102863152D01*
X154245833Y-102863152D02*
X154198214Y-102958390D01*
X154198214Y-102958390D02*
X154150595Y-103006009D01*
X154150595Y-103006009D02*
X154055357Y-103053628D01*
X154055357Y-103053628D02*
X153674405Y-103053628D01*
X154579167Y-102529819D02*
X155198214Y-102529819D01*
X155198214Y-102529819D02*
X154864881Y-102910771D01*
X154864881Y-102910771D02*
X155007738Y-102910771D01*
X155007738Y-102910771D02*
X155102976Y-102958390D01*
X155102976Y-102958390D02*
X155150595Y-103006009D01*
X155150595Y-103006009D02*
X155198214Y-103101247D01*
X155198214Y-103101247D02*
X155198214Y-103339342D01*
X155198214Y-103339342D02*
X155150595Y-103434580D01*
X155150595Y-103434580D02*
X155102976Y-103482200D01*
X155102976Y-103482200D02*
X155007738Y-103529819D01*
X155007738Y-103529819D02*
X154722024Y-103529819D01*
X154722024Y-103529819D02*
X154626786Y-103482200D01*
X154626786Y-103482200D02*
X154579167Y-103434580D01*
X153604819Y-100916666D02*
X153128628Y-101249999D01*
X153604819Y-101488094D02*
X152604819Y-101488094D01*
X152604819Y-101488094D02*
X152604819Y-101107142D01*
X152604819Y-101107142D02*
X152652438Y-101011904D01*
X152652438Y-101011904D02*
X152700057Y-100964285D01*
X152700057Y-100964285D02*
X152795295Y-100916666D01*
X152795295Y-100916666D02*
X152938152Y-100916666D01*
X152938152Y-100916666D02*
X153033390Y-100964285D01*
X153033390Y-100964285D02*
X153081009Y-101011904D01*
X153081009Y-101011904D02*
X153128628Y-101107142D01*
X153128628Y-101107142D02*
X153128628Y-101488094D01*
X153033390Y-100345237D02*
X152985771Y-100440475D01*
X152985771Y-100440475D02*
X152938152Y-100488094D01*
X152938152Y-100488094D02*
X152842914Y-100535713D01*
X152842914Y-100535713D02*
X152795295Y-100535713D01*
X152795295Y-100535713D02*
X152700057Y-100488094D01*
X152700057Y-100488094D02*
X152652438Y-100440475D01*
X152652438Y-100440475D02*
X152604819Y-100345237D01*
X152604819Y-100345237D02*
X152604819Y-100154761D01*
X152604819Y-100154761D02*
X152652438Y-100059523D01*
X152652438Y-100059523D02*
X152700057Y-100011904D01*
X152700057Y-100011904D02*
X152795295Y-99964285D01*
X152795295Y-99964285D02*
X152842914Y-99964285D01*
X152842914Y-99964285D02*
X152938152Y-100011904D01*
X152938152Y-100011904D02*
X152985771Y-100059523D01*
X152985771Y-100059523D02*
X153033390Y-100154761D01*
X153033390Y-100154761D02*
X153033390Y-100345237D01*
X153033390Y-100345237D02*
X153081009Y-100440475D01*
X153081009Y-100440475D02*
X153128628Y-100488094D01*
X153128628Y-100488094D02*
X153223866Y-100535713D01*
X153223866Y-100535713D02*
X153414342Y-100535713D01*
X153414342Y-100535713D02*
X153509580Y-100488094D01*
X153509580Y-100488094D02*
X153557200Y-100440475D01*
X153557200Y-100440475D02*
X153604819Y-100345237D01*
X153604819Y-100345237D02*
X153604819Y-100154761D01*
X153604819Y-100154761D02*
X153557200Y-100059523D01*
X153557200Y-100059523D02*
X153509580Y-100011904D01*
X153509580Y-100011904D02*
X153414342Y-99964285D01*
X153414342Y-99964285D02*
X153223866Y-99964285D01*
X153223866Y-99964285D02*
X153128628Y-100011904D01*
X153128628Y-100011904D02*
X153081009Y-100059523D01*
X153081009Y-100059523D02*
X153033390Y-100154761D01*
X152166667Y-102882200D02*
X152309524Y-102929819D01*
X152309524Y-102929819D02*
X152547619Y-102929819D01*
X152547619Y-102929819D02*
X152642857Y-102882200D01*
X152642857Y-102882200D02*
X152690476Y-102834580D01*
X152690476Y-102834580D02*
X152738095Y-102739342D01*
X152738095Y-102739342D02*
X152738095Y-102644104D01*
X152738095Y-102644104D02*
X152690476Y-102548866D01*
X152690476Y-102548866D02*
X152642857Y-102501247D01*
X152642857Y-102501247D02*
X152547619Y-102453628D01*
X152547619Y-102453628D02*
X152357143Y-102406009D01*
X152357143Y-102406009D02*
X152261905Y-102358390D01*
X152261905Y-102358390D02*
X152214286Y-102310771D01*
X152214286Y-102310771D02*
X152166667Y-102215533D01*
X152166667Y-102215533D02*
X152166667Y-102120295D01*
X152166667Y-102120295D02*
X152214286Y-102025057D01*
X152214286Y-102025057D02*
X152261905Y-101977438D01*
X152261905Y-101977438D02*
X152357143Y-101929819D01*
X152357143Y-101929819D02*
X152595238Y-101929819D01*
X152595238Y-101929819D02*
X152738095Y-101977438D01*
X153071429Y-101929819D02*
X153309524Y-102929819D01*
X153309524Y-102929819D02*
X153500000Y-102215533D01*
X153500000Y-102215533D02*
X153690476Y-102929819D01*
X153690476Y-102929819D02*
X153928572Y-101929819D01*
X154261905Y-102025057D02*
X154309524Y-101977438D01*
X154309524Y-101977438D02*
X154404762Y-101929819D01*
X154404762Y-101929819D02*
X154642857Y-101929819D01*
X154642857Y-101929819D02*
X154738095Y-101977438D01*
X154738095Y-101977438D02*
X154785714Y-102025057D01*
X154785714Y-102025057D02*
X154833333Y-102120295D01*
X154833333Y-102120295D02*
X154833333Y-102215533D01*
X154833333Y-102215533D02*
X154785714Y-102358390D01*
X154785714Y-102358390D02*
X154214286Y-102929819D01*
X154214286Y-102929819D02*
X154833333Y-102929819D01*
X140604819Y-100916666D02*
X140128628Y-101249999D01*
X140604819Y-101488094D02*
X139604819Y-101488094D01*
X139604819Y-101488094D02*
X139604819Y-101107142D01*
X139604819Y-101107142D02*
X139652438Y-101011904D01*
X139652438Y-101011904D02*
X139700057Y-100964285D01*
X139700057Y-100964285D02*
X139795295Y-100916666D01*
X139795295Y-100916666D02*
X139938152Y-100916666D01*
X139938152Y-100916666D02*
X140033390Y-100964285D01*
X140033390Y-100964285D02*
X140081009Y-101011904D01*
X140081009Y-101011904D02*
X140128628Y-101107142D01*
X140128628Y-101107142D02*
X140128628Y-101488094D01*
X139604819Y-100583332D02*
X139604819Y-99916666D01*
X139604819Y-99916666D02*
X140604819Y-100345237D01*
X135166667Y-107882200D02*
X135309524Y-107929819D01*
X135309524Y-107929819D02*
X135547619Y-107929819D01*
X135547619Y-107929819D02*
X135642857Y-107882200D01*
X135642857Y-107882200D02*
X135690476Y-107834580D01*
X135690476Y-107834580D02*
X135738095Y-107739342D01*
X135738095Y-107739342D02*
X135738095Y-107644104D01*
X135738095Y-107644104D02*
X135690476Y-107548866D01*
X135690476Y-107548866D02*
X135642857Y-107501247D01*
X135642857Y-107501247D02*
X135547619Y-107453628D01*
X135547619Y-107453628D02*
X135357143Y-107406009D01*
X135357143Y-107406009D02*
X135261905Y-107358390D01*
X135261905Y-107358390D02*
X135214286Y-107310771D01*
X135214286Y-107310771D02*
X135166667Y-107215533D01*
X135166667Y-107215533D02*
X135166667Y-107120295D01*
X135166667Y-107120295D02*
X135214286Y-107025057D01*
X135214286Y-107025057D02*
X135261905Y-106977438D01*
X135261905Y-106977438D02*
X135357143Y-106929819D01*
X135357143Y-106929819D02*
X135595238Y-106929819D01*
X135595238Y-106929819D02*
X135738095Y-106977438D01*
X136071429Y-106929819D02*
X136309524Y-107929819D01*
X136309524Y-107929819D02*
X136500000Y-107215533D01*
X136500000Y-107215533D02*
X136690476Y-107929819D01*
X136690476Y-107929819D02*
X136928572Y-106929819D01*
X137833333Y-107929819D02*
X137261905Y-107929819D01*
X137547619Y-107929819D02*
X137547619Y-106929819D01*
X137547619Y-106929819D02*
X137452381Y-107072676D01*
X137452381Y-107072676D02*
X137357143Y-107167914D01*
X137357143Y-107167914D02*
X137261905Y-107215533D01*
X159886869Y-72204819D02*
X159886869Y-71204819D01*
X159886869Y-71204819D02*
X160124964Y-71204819D01*
X160124964Y-71204819D02*
X160267821Y-71252438D01*
X160267821Y-71252438D02*
X160363059Y-71347676D01*
X160363059Y-71347676D02*
X160410678Y-71442914D01*
X160410678Y-71442914D02*
X160458297Y-71633390D01*
X160458297Y-71633390D02*
X160458297Y-71776247D01*
X160458297Y-71776247D02*
X160410678Y-71966723D01*
X160410678Y-71966723D02*
X160363059Y-72061961D01*
X160363059Y-72061961D02*
X160267821Y-72157200D01*
X160267821Y-72157200D02*
X160124964Y-72204819D01*
X160124964Y-72204819D02*
X159886869Y-72204819D01*
X161363059Y-71204819D02*
X160886869Y-71204819D01*
X160886869Y-71204819D02*
X160839250Y-71681009D01*
X160839250Y-71681009D02*
X160886869Y-71633390D01*
X160886869Y-71633390D02*
X160982107Y-71585771D01*
X160982107Y-71585771D02*
X161220202Y-71585771D01*
X161220202Y-71585771D02*
X161315440Y-71633390D01*
X161315440Y-71633390D02*
X161363059Y-71681009D01*
X161363059Y-71681009D02*
X161410678Y-71776247D01*
X161410678Y-71776247D02*
X161410678Y-72014342D01*
X161410678Y-72014342D02*
X161363059Y-72109580D01*
X161363059Y-72109580D02*
X161315440Y-72157200D01*
X161315440Y-72157200D02*
X161220202Y-72204819D01*
X161220202Y-72204819D02*
X160982107Y-72204819D01*
X160982107Y-72204819D02*
X160886869Y-72157200D01*
X160886869Y-72157200D02*
X160839250Y-72109580D01*
X132083333Y-102429580D02*
X132035714Y-102477200D01*
X132035714Y-102477200D02*
X131892857Y-102524819D01*
X131892857Y-102524819D02*
X131797619Y-102524819D01*
X131797619Y-102524819D02*
X131654762Y-102477200D01*
X131654762Y-102477200D02*
X131559524Y-102381961D01*
X131559524Y-102381961D02*
X131511905Y-102286723D01*
X131511905Y-102286723D02*
X131464286Y-102096247D01*
X131464286Y-102096247D02*
X131464286Y-101953390D01*
X131464286Y-101953390D02*
X131511905Y-101762914D01*
X131511905Y-101762914D02*
X131559524Y-101667676D01*
X131559524Y-101667676D02*
X131654762Y-101572438D01*
X131654762Y-101572438D02*
X131797619Y-101524819D01*
X131797619Y-101524819D02*
X131892857Y-101524819D01*
X131892857Y-101524819D02*
X132035714Y-101572438D01*
X132035714Y-101572438D02*
X132083333Y-101620057D01*
X132654762Y-101953390D02*
X132559524Y-101905771D01*
X132559524Y-101905771D02*
X132511905Y-101858152D01*
X132511905Y-101858152D02*
X132464286Y-101762914D01*
X132464286Y-101762914D02*
X132464286Y-101715295D01*
X132464286Y-101715295D02*
X132511905Y-101620057D01*
X132511905Y-101620057D02*
X132559524Y-101572438D01*
X132559524Y-101572438D02*
X132654762Y-101524819D01*
X132654762Y-101524819D02*
X132845238Y-101524819D01*
X132845238Y-101524819D02*
X132940476Y-101572438D01*
X132940476Y-101572438D02*
X132988095Y-101620057D01*
X132988095Y-101620057D02*
X133035714Y-101715295D01*
X133035714Y-101715295D02*
X133035714Y-101762914D01*
X133035714Y-101762914D02*
X132988095Y-101858152D01*
X132988095Y-101858152D02*
X132940476Y-101905771D01*
X132940476Y-101905771D02*
X132845238Y-101953390D01*
X132845238Y-101953390D02*
X132654762Y-101953390D01*
X132654762Y-101953390D02*
X132559524Y-102001009D01*
X132559524Y-102001009D02*
X132511905Y-102048628D01*
X132511905Y-102048628D02*
X132464286Y-102143866D01*
X132464286Y-102143866D02*
X132464286Y-102334342D01*
X132464286Y-102334342D02*
X132511905Y-102429580D01*
X132511905Y-102429580D02*
X132559524Y-102477200D01*
X132559524Y-102477200D02*
X132654762Y-102524819D01*
X132654762Y-102524819D02*
X132845238Y-102524819D01*
X132845238Y-102524819D02*
X132940476Y-102477200D01*
X132940476Y-102477200D02*
X132988095Y-102429580D01*
X132988095Y-102429580D02*
X133035714Y-102334342D01*
X133035714Y-102334342D02*
X133035714Y-102143866D01*
X133035714Y-102143866D02*
X132988095Y-102048628D01*
X132988095Y-102048628D02*
X132940476Y-102001009D01*
X132940476Y-102001009D02*
X132845238Y-101953390D01*
X131607142Y-104429580D02*
X131559523Y-104477200D01*
X131559523Y-104477200D02*
X131416666Y-104524819D01*
X131416666Y-104524819D02*
X131321428Y-104524819D01*
X131321428Y-104524819D02*
X131178571Y-104477200D01*
X131178571Y-104477200D02*
X131083333Y-104381961D01*
X131083333Y-104381961D02*
X131035714Y-104286723D01*
X131035714Y-104286723D02*
X130988095Y-104096247D01*
X130988095Y-104096247D02*
X130988095Y-103953390D01*
X130988095Y-103953390D02*
X131035714Y-103762914D01*
X131035714Y-103762914D02*
X131083333Y-103667676D01*
X131083333Y-103667676D02*
X131178571Y-103572438D01*
X131178571Y-103572438D02*
X131321428Y-103524819D01*
X131321428Y-103524819D02*
X131416666Y-103524819D01*
X131416666Y-103524819D02*
X131559523Y-103572438D01*
X131559523Y-103572438D02*
X131607142Y-103620057D01*
X132559523Y-104524819D02*
X131988095Y-104524819D01*
X132273809Y-104524819D02*
X132273809Y-103524819D01*
X132273809Y-103524819D02*
X132178571Y-103667676D01*
X132178571Y-103667676D02*
X132083333Y-103762914D01*
X132083333Y-103762914D02*
X131988095Y-103810533D01*
X132892857Y-103524819D02*
X133511904Y-103524819D01*
X133511904Y-103524819D02*
X133178571Y-103905771D01*
X133178571Y-103905771D02*
X133321428Y-103905771D01*
X133321428Y-103905771D02*
X133416666Y-103953390D01*
X133416666Y-103953390D02*
X133464285Y-104001009D01*
X133464285Y-104001009D02*
X133511904Y-104096247D01*
X133511904Y-104096247D02*
X133511904Y-104334342D01*
X133511904Y-104334342D02*
X133464285Y-104429580D01*
X133464285Y-104429580D02*
X133416666Y-104477200D01*
X133416666Y-104477200D02*
X133321428Y-104524819D01*
X133321428Y-104524819D02*
X133035714Y-104524819D01*
X133035714Y-104524819D02*
X132940476Y-104477200D01*
X132940476Y-104477200D02*
X132892857Y-104429580D01*
X133954819Y-76351904D02*
X134764342Y-76351904D01*
X134764342Y-76351904D02*
X134859580Y-76304285D01*
X134859580Y-76304285D02*
X134907200Y-76256666D01*
X134907200Y-76256666D02*
X134954819Y-76161428D01*
X134954819Y-76161428D02*
X134954819Y-75970952D01*
X134954819Y-75970952D02*
X134907200Y-75875714D01*
X134907200Y-75875714D02*
X134859580Y-75828095D01*
X134859580Y-75828095D02*
X134764342Y-75780476D01*
X134764342Y-75780476D02*
X133954819Y-75780476D01*
X134954819Y-74780476D02*
X134954819Y-75351904D01*
X134954819Y-75066190D02*
X133954819Y-75066190D01*
X133954819Y-75066190D02*
X134097676Y-75161428D01*
X134097676Y-75161428D02*
X134192914Y-75256666D01*
X134192914Y-75256666D02*
X134240533Y-75351904D01*
X144666666Y-97704819D02*
X144666666Y-98419104D01*
X144666666Y-98419104D02*
X144619047Y-98561961D01*
X144619047Y-98561961D02*
X144523809Y-98657200D01*
X144523809Y-98657200D02*
X144380952Y-98704819D01*
X144380952Y-98704819D02*
X144285714Y-98704819D01*
X145190476Y-98704819D02*
X145380952Y-98704819D01*
X145380952Y-98704819D02*
X145476190Y-98657200D01*
X145476190Y-98657200D02*
X145523809Y-98609580D01*
X145523809Y-98609580D02*
X145619047Y-98466723D01*
X145619047Y-98466723D02*
X145666666Y-98276247D01*
X145666666Y-98276247D02*
X145666666Y-97895295D01*
X145666666Y-97895295D02*
X145619047Y-97800057D01*
X145619047Y-97800057D02*
X145571428Y-97752438D01*
X145571428Y-97752438D02*
X145476190Y-97704819D01*
X145476190Y-97704819D02*
X145285714Y-97704819D01*
X145285714Y-97704819D02*
X145190476Y-97752438D01*
X145190476Y-97752438D02*
X145142857Y-97800057D01*
X145142857Y-97800057D02*
X145095238Y-97895295D01*
X145095238Y-97895295D02*
X145095238Y-98133390D01*
X145095238Y-98133390D02*
X145142857Y-98228628D01*
X145142857Y-98228628D02*
X145190476Y-98276247D01*
X145190476Y-98276247D02*
X145285714Y-98323866D01*
X145285714Y-98323866D02*
X145476190Y-98323866D01*
X145476190Y-98323866D02*
X145571428Y-98276247D01*
X145571428Y-98276247D02*
X145619047Y-98228628D01*
X145619047Y-98228628D02*
X145666666Y-98133390D01*
X161738095Y-102254819D02*
X161738095Y-101254819D01*
X161738095Y-101731009D02*
X162309523Y-101731009D01*
X162309523Y-102254819D02*
X162309523Y-101254819D01*
X163214285Y-101588152D02*
X163214285Y-102254819D01*
X162976190Y-101207200D02*
X162738095Y-101921485D01*
X162738095Y-101921485D02*
X163357142Y-101921485D01*
X126738095Y-102254819D02*
X126738095Y-101254819D01*
X126738095Y-101731009D02*
X127309523Y-101731009D01*
X127309523Y-102254819D02*
X127309523Y-101254819D01*
X127690476Y-101254819D02*
X128309523Y-101254819D01*
X128309523Y-101254819D02*
X127976190Y-101635771D01*
X127976190Y-101635771D02*
X128119047Y-101635771D01*
X128119047Y-101635771D02*
X128214285Y-101683390D01*
X128214285Y-101683390D02*
X128261904Y-101731009D01*
X128261904Y-101731009D02*
X128309523Y-101826247D01*
X128309523Y-101826247D02*
X128309523Y-102064342D01*
X128309523Y-102064342D02*
X128261904Y-102159580D01*
X128261904Y-102159580D02*
X128214285Y-102207200D01*
X128214285Y-102207200D02*
X128119047Y-102254819D01*
X128119047Y-102254819D02*
X127833333Y-102254819D01*
X127833333Y-102254819D02*
X127738095Y-102207200D01*
X127738095Y-102207200D02*
X127690476Y-102159580D01*
X161738095Y-57254819D02*
X161738095Y-56254819D01*
X161738095Y-56731009D02*
X162309523Y-56731009D01*
X162309523Y-57254819D02*
X162309523Y-56254819D01*
X162738095Y-56350057D02*
X162785714Y-56302438D01*
X162785714Y-56302438D02*
X162880952Y-56254819D01*
X162880952Y-56254819D02*
X163119047Y-56254819D01*
X163119047Y-56254819D02*
X163214285Y-56302438D01*
X163214285Y-56302438D02*
X163261904Y-56350057D01*
X163261904Y-56350057D02*
X163309523Y-56445295D01*
X163309523Y-56445295D02*
X163309523Y-56540533D01*
X163309523Y-56540533D02*
X163261904Y-56683390D01*
X163261904Y-56683390D02*
X162690476Y-57254819D01*
X162690476Y-57254819D02*
X163309523Y-57254819D01*
X126738095Y-57254819D02*
X126738095Y-56254819D01*
X126738095Y-56731009D02*
X127309523Y-56731009D01*
X127309523Y-57254819D02*
X127309523Y-56254819D01*
X128309523Y-57254819D02*
X127738095Y-57254819D01*
X128023809Y-57254819D02*
X128023809Y-56254819D01*
X128023809Y-56254819D02*
X127928571Y-56397676D01*
X127928571Y-56397676D02*
X127833333Y-56492914D01*
X127833333Y-56492914D02*
X127738095Y-56540533D01*
X141424819Y-82511904D02*
X142234342Y-82511904D01*
X142234342Y-82511904D02*
X142329580Y-82464285D01*
X142329580Y-82464285D02*
X142377200Y-82416666D01*
X142377200Y-82416666D02*
X142424819Y-82321428D01*
X142424819Y-82321428D02*
X142424819Y-82130952D01*
X142424819Y-82130952D02*
X142377200Y-82035714D01*
X142377200Y-82035714D02*
X142329580Y-81988095D01*
X142329580Y-81988095D02*
X142234342Y-81940476D01*
X142234342Y-81940476D02*
X141424819Y-81940476D01*
X141424819Y-81559523D02*
X141424819Y-80940476D01*
X141424819Y-80940476D02*
X141805771Y-81273809D01*
X141805771Y-81273809D02*
X141805771Y-81130952D01*
X141805771Y-81130952D02*
X141853390Y-81035714D01*
X141853390Y-81035714D02*
X141901009Y-80988095D01*
X141901009Y-80988095D02*
X141996247Y-80940476D01*
X141996247Y-80940476D02*
X142234342Y-80940476D01*
X142234342Y-80940476D02*
X142329580Y-80988095D01*
X142329580Y-80988095D02*
X142377200Y-81035714D01*
X142377200Y-81035714D02*
X142424819Y-81130952D01*
X142424819Y-81130952D02*
X142424819Y-81416666D01*
X142424819Y-81416666D02*
X142377200Y-81511904D01*
X142377200Y-81511904D02*
X142329580Y-81559523D01*
X137679580Y-81142857D02*
X137727200Y-81190476D01*
X137727200Y-81190476D02*
X137774819Y-81333333D01*
X137774819Y-81333333D02*
X137774819Y-81428571D01*
X137774819Y-81428571D02*
X137727200Y-81571428D01*
X137727200Y-81571428D02*
X137631961Y-81666666D01*
X137631961Y-81666666D02*
X137536723Y-81714285D01*
X137536723Y-81714285D02*
X137346247Y-81761904D01*
X137346247Y-81761904D02*
X137203390Y-81761904D01*
X137203390Y-81761904D02*
X137012914Y-81714285D01*
X137012914Y-81714285D02*
X136917676Y-81666666D01*
X136917676Y-81666666D02*
X136822438Y-81571428D01*
X136822438Y-81571428D02*
X136774819Y-81428571D01*
X136774819Y-81428571D02*
X136774819Y-81333333D01*
X136774819Y-81333333D02*
X136822438Y-81190476D01*
X136822438Y-81190476D02*
X136870057Y-81142857D01*
X137774819Y-80190476D02*
X137774819Y-80761904D01*
X137774819Y-80476190D02*
X136774819Y-80476190D01*
X136774819Y-80476190D02*
X136917676Y-80571428D01*
X136917676Y-80571428D02*
X137012914Y-80666666D01*
X137012914Y-80666666D02*
X137060533Y-80761904D01*
X136774819Y-79285714D02*
X136774819Y-79761904D01*
X136774819Y-79761904D02*
X137251009Y-79809523D01*
X137251009Y-79809523D02*
X137203390Y-79761904D01*
X137203390Y-79761904D02*
X137155771Y-79666666D01*
X137155771Y-79666666D02*
X137155771Y-79428571D01*
X137155771Y-79428571D02*
X137203390Y-79333333D01*
X137203390Y-79333333D02*
X137251009Y-79285714D01*
X137251009Y-79285714D02*
X137346247Y-79238095D01*
X137346247Y-79238095D02*
X137584342Y-79238095D01*
X137584342Y-79238095D02*
X137679580Y-79285714D01*
X137679580Y-79285714D02*
X137727200Y-79333333D01*
X137727200Y-79333333D02*
X137774819Y-79428571D01*
X137774819Y-79428571D02*
X137774819Y-79666666D01*
X137774819Y-79666666D02*
X137727200Y-79761904D01*
X137727200Y-79761904D02*
X137679580Y-79809523D01*
X125654819Y-88608333D02*
X126369104Y-88608333D01*
X126369104Y-88608333D02*
X126511961Y-88655952D01*
X126511961Y-88655952D02*
X126607200Y-88751190D01*
X126607200Y-88751190D02*
X126654819Y-88894047D01*
X126654819Y-88894047D02*
X126654819Y-88989285D01*
X125988152Y-87703571D02*
X126654819Y-87703571D01*
X125607200Y-87941666D02*
X126321485Y-88179761D01*
X126321485Y-88179761D02*
X126321485Y-87560714D01*
X159629783Y-67058333D02*
X160344068Y-67058333D01*
X160344068Y-67058333D02*
X160486925Y-67105952D01*
X160486925Y-67105952D02*
X160582164Y-67201190D01*
X160582164Y-67201190D02*
X160629783Y-67344047D01*
X160629783Y-67344047D02*
X160629783Y-67439285D01*
X159629783Y-66153571D02*
X159629783Y-66344047D01*
X159629783Y-66344047D02*
X159677402Y-66439285D01*
X159677402Y-66439285D02*
X159725021Y-66486904D01*
X159725021Y-66486904D02*
X159867878Y-66582142D01*
X159867878Y-66582142D02*
X160058354Y-66629761D01*
X160058354Y-66629761D02*
X160439306Y-66629761D01*
X160439306Y-66629761D02*
X160534544Y-66582142D01*
X160534544Y-66582142D02*
X160582164Y-66534523D01*
X160582164Y-66534523D02*
X160629783Y-66439285D01*
X160629783Y-66439285D02*
X160629783Y-66248809D01*
X160629783Y-66248809D02*
X160582164Y-66153571D01*
X160582164Y-66153571D02*
X160534544Y-66105952D01*
X160534544Y-66105952D02*
X160439306Y-66058333D01*
X160439306Y-66058333D02*
X160201211Y-66058333D01*
X160201211Y-66058333D02*
X160105973Y-66105952D01*
X160105973Y-66105952D02*
X160058354Y-66153571D01*
X160058354Y-66153571D02*
X160010735Y-66248809D01*
X160010735Y-66248809D02*
X160010735Y-66439285D01*
X160010735Y-66439285D02*
X160058354Y-66534523D01*
X160058354Y-66534523D02*
X160105973Y-66582142D01*
X160105973Y-66582142D02*
X160201211Y-66629761D01*
X159629783Y-88583333D02*
X160344068Y-88583333D01*
X160344068Y-88583333D02*
X160486925Y-88630952D01*
X160486925Y-88630952D02*
X160582164Y-88726190D01*
X160582164Y-88726190D02*
X160629783Y-88869047D01*
X160629783Y-88869047D02*
X160629783Y-88964285D01*
X159629783Y-87630952D02*
X159629783Y-88107142D01*
X159629783Y-88107142D02*
X160105973Y-88154761D01*
X160105973Y-88154761D02*
X160058354Y-88107142D01*
X160058354Y-88107142D02*
X160010735Y-88011904D01*
X160010735Y-88011904D02*
X160010735Y-87773809D01*
X160010735Y-87773809D02*
X160058354Y-87678571D01*
X160058354Y-87678571D02*
X160105973Y-87630952D01*
X160105973Y-87630952D02*
X160201211Y-87583333D01*
X160201211Y-87583333D02*
X160439306Y-87583333D01*
X160439306Y-87583333D02*
X160534544Y-87630952D01*
X160534544Y-87630952D02*
X160582164Y-87678571D01*
X160582164Y-87678571D02*
X160629783Y-87773809D01*
X160629783Y-87773809D02*
X160629783Y-88011904D01*
X160629783Y-88011904D02*
X160582164Y-88107142D01*
X160582164Y-88107142D02*
X160534544Y-88154761D01*
X125129783Y-67058333D02*
X125844068Y-67058333D01*
X125844068Y-67058333D02*
X125986925Y-67105952D01*
X125986925Y-67105952D02*
X126082164Y-67201190D01*
X126082164Y-67201190D02*
X126129783Y-67344047D01*
X126129783Y-67344047D02*
X126129783Y-67439285D01*
X126129783Y-66058333D02*
X126129783Y-66629761D01*
X126129783Y-66344047D02*
X125129783Y-66344047D01*
X125129783Y-66344047D02*
X125272640Y-66439285D01*
X125272640Y-66439285D02*
X125367878Y-66534523D01*
X125367878Y-66534523D02*
X125415497Y-66629761D01*
X128954819Y-88988094D02*
X127954819Y-88988094D01*
X127954819Y-88988094D02*
X127954819Y-88749999D01*
X127954819Y-88749999D02*
X128002438Y-88607142D01*
X128002438Y-88607142D02*
X128097676Y-88511904D01*
X128097676Y-88511904D02*
X128192914Y-88464285D01*
X128192914Y-88464285D02*
X128383390Y-88416666D01*
X128383390Y-88416666D02*
X128526247Y-88416666D01*
X128526247Y-88416666D02*
X128716723Y-88464285D01*
X128716723Y-88464285D02*
X128811961Y-88511904D01*
X128811961Y-88511904D02*
X128907200Y-88607142D01*
X128907200Y-88607142D02*
X128954819Y-88749999D01*
X128954819Y-88749999D02*
X128954819Y-88988094D01*
X127954819Y-88083332D02*
X127954819Y-87464285D01*
X127954819Y-87464285D02*
X128335771Y-87797618D01*
X128335771Y-87797618D02*
X128335771Y-87654761D01*
X128335771Y-87654761D02*
X128383390Y-87559523D01*
X128383390Y-87559523D02*
X128431009Y-87511904D01*
X128431009Y-87511904D02*
X128526247Y-87464285D01*
X128526247Y-87464285D02*
X128764342Y-87464285D01*
X128764342Y-87464285D02*
X128859580Y-87511904D01*
X128859580Y-87511904D02*
X128907200Y-87559523D01*
X128907200Y-87559523D02*
X128954819Y-87654761D01*
X128954819Y-87654761D02*
X128954819Y-87940475D01*
X128954819Y-87940475D02*
X128907200Y-88035713D01*
X128907200Y-88035713D02*
X128859580Y-88083332D01*
X157929783Y-89063094D02*
X156929783Y-89063094D01*
X156929783Y-89063094D02*
X156929783Y-88824999D01*
X156929783Y-88824999D02*
X156977402Y-88682142D01*
X156977402Y-88682142D02*
X157072640Y-88586904D01*
X157072640Y-88586904D02*
X157167878Y-88539285D01*
X157167878Y-88539285D02*
X157358354Y-88491666D01*
X157358354Y-88491666D02*
X157501211Y-88491666D01*
X157501211Y-88491666D02*
X157691687Y-88539285D01*
X157691687Y-88539285D02*
X157786925Y-88586904D01*
X157786925Y-88586904D02*
X157882164Y-88682142D01*
X157882164Y-88682142D02*
X157929783Y-88824999D01*
X157929783Y-88824999D02*
X157929783Y-89063094D01*
X157263116Y-87634523D02*
X157929783Y-87634523D01*
X156882164Y-87872618D02*
X157596449Y-88110713D01*
X157596449Y-88110713D02*
X157596449Y-87491666D01*
X160284819Y-93083333D02*
X160999104Y-93083333D01*
X160999104Y-93083333D02*
X161141961Y-93130952D01*
X161141961Y-93130952D02*
X161237200Y-93226190D01*
X161237200Y-93226190D02*
X161284819Y-93369047D01*
X161284819Y-93369047D02*
X161284819Y-93464285D01*
X160284819Y-92702380D02*
X160284819Y-92083333D01*
X160284819Y-92083333D02*
X160665771Y-92416666D01*
X160665771Y-92416666D02*
X160665771Y-92273809D01*
X160665771Y-92273809D02*
X160713390Y-92178571D01*
X160713390Y-92178571D02*
X160761009Y-92130952D01*
X160761009Y-92130952D02*
X160856247Y-92083333D01*
X160856247Y-92083333D02*
X161094342Y-92083333D01*
X161094342Y-92083333D02*
X161189580Y-92130952D01*
X161189580Y-92130952D02*
X161237200Y-92178571D01*
X161237200Y-92178571D02*
X161284819Y-92273809D01*
X161284819Y-92273809D02*
X161284819Y-92559523D01*
X161284819Y-92559523D02*
X161237200Y-92654761D01*
X161237200Y-92654761D02*
X161189580Y-92702380D01*
X144666666Y-92004819D02*
X144666666Y-92719104D01*
X144666666Y-92719104D02*
X144619047Y-92861961D01*
X144619047Y-92861961D02*
X144523809Y-92957200D01*
X144523809Y-92957200D02*
X144380952Y-93004819D01*
X144380952Y-93004819D02*
X144285714Y-93004819D01*
X145095238Y-92100057D02*
X145142857Y-92052438D01*
X145142857Y-92052438D02*
X145238095Y-92004819D01*
X145238095Y-92004819D02*
X145476190Y-92004819D01*
X145476190Y-92004819D02*
X145571428Y-92052438D01*
X145571428Y-92052438D02*
X145619047Y-92100057D01*
X145619047Y-92100057D02*
X145666666Y-92195295D01*
X145666666Y-92195295D02*
X145666666Y-92290533D01*
X145666666Y-92290533D02*
X145619047Y-92433390D01*
X145619047Y-92433390D02*
X145047619Y-93004819D01*
X145047619Y-93004819D02*
X145666666Y-93004819D01*
X130567225Y-68950057D02*
X130471987Y-68902438D01*
X130471987Y-68902438D02*
X130376749Y-68807200D01*
X130376749Y-68807200D02*
X130233892Y-68664342D01*
X130233892Y-68664342D02*
X130138654Y-68616723D01*
X130138654Y-68616723D02*
X130043416Y-68616723D01*
X130091035Y-68854819D02*
X129995797Y-68807200D01*
X129995797Y-68807200D02*
X129900559Y-68711961D01*
X129900559Y-68711961D02*
X129852940Y-68521485D01*
X129852940Y-68521485D02*
X129852940Y-68188152D01*
X129852940Y-68188152D02*
X129900559Y-67997676D01*
X129900559Y-67997676D02*
X129995797Y-67902438D01*
X129995797Y-67902438D02*
X130091035Y-67854819D01*
X130091035Y-67854819D02*
X130281511Y-67854819D01*
X130281511Y-67854819D02*
X130376749Y-67902438D01*
X130376749Y-67902438D02*
X130471987Y-67997676D01*
X130471987Y-67997676D02*
X130519606Y-68188152D01*
X130519606Y-68188152D02*
X130519606Y-68521485D01*
X130519606Y-68521485D02*
X130471987Y-68711961D01*
X130471987Y-68711961D02*
X130376749Y-68807200D01*
X130376749Y-68807200D02*
X130281511Y-68854819D01*
X130281511Y-68854819D02*
X130091035Y-68854819D01*
X131471987Y-68854819D02*
X130900559Y-68854819D01*
X131186273Y-68854819D02*
X131186273Y-67854819D01*
X131186273Y-67854819D02*
X131091035Y-67997676D01*
X131091035Y-67997676D02*
X130995797Y-68092914D01*
X130995797Y-68092914D02*
X130900559Y-68140533D01*
X158692225Y-64150057D02*
X158596987Y-64102438D01*
X158596987Y-64102438D02*
X158501749Y-64007200D01*
X158501749Y-64007200D02*
X158358892Y-63864342D01*
X158358892Y-63864342D02*
X158263654Y-63816723D01*
X158263654Y-63816723D02*
X158168416Y-63816723D01*
X158216035Y-64054819D02*
X158120797Y-64007200D01*
X158120797Y-64007200D02*
X158025559Y-63911961D01*
X158025559Y-63911961D02*
X157977940Y-63721485D01*
X157977940Y-63721485D02*
X157977940Y-63388152D01*
X157977940Y-63388152D02*
X158025559Y-63197676D01*
X158025559Y-63197676D02*
X158120797Y-63102438D01*
X158120797Y-63102438D02*
X158216035Y-63054819D01*
X158216035Y-63054819D02*
X158406511Y-63054819D01*
X158406511Y-63054819D02*
X158501749Y-63102438D01*
X158501749Y-63102438D02*
X158596987Y-63197676D01*
X158596987Y-63197676D02*
X158644606Y-63388152D01*
X158644606Y-63388152D02*
X158644606Y-63721485D01*
X158644606Y-63721485D02*
X158596987Y-63911961D01*
X158596987Y-63911961D02*
X158501749Y-64007200D01*
X158501749Y-64007200D02*
X158406511Y-64054819D01*
X158406511Y-64054819D02*
X158216035Y-64054819D01*
X159549368Y-63054819D02*
X159073178Y-63054819D01*
X159073178Y-63054819D02*
X159025559Y-63531009D01*
X159025559Y-63531009D02*
X159073178Y-63483390D01*
X159073178Y-63483390D02*
X159168416Y-63435771D01*
X159168416Y-63435771D02*
X159406511Y-63435771D01*
X159406511Y-63435771D02*
X159501749Y-63483390D01*
X159501749Y-63483390D02*
X159549368Y-63531009D01*
X159549368Y-63531009D02*
X159596987Y-63626247D01*
X159596987Y-63626247D02*
X159596987Y-63864342D01*
X159596987Y-63864342D02*
X159549368Y-63959580D01*
X159549368Y-63959580D02*
X159501749Y-64007200D01*
X159501749Y-64007200D02*
X159406511Y-64054819D01*
X159406511Y-64054819D02*
X159168416Y-64054819D01*
X159168416Y-64054819D02*
X159073178Y-64007200D01*
X159073178Y-64007200D02*
X159025559Y-63959580D01*
X134329783Y-69916666D02*
X133853592Y-70249999D01*
X134329783Y-70488094D02*
X133329783Y-70488094D01*
X133329783Y-70488094D02*
X133329783Y-70107142D01*
X133329783Y-70107142D02*
X133377402Y-70011904D01*
X133377402Y-70011904D02*
X133425021Y-69964285D01*
X133425021Y-69964285D02*
X133520259Y-69916666D01*
X133520259Y-69916666D02*
X133663116Y-69916666D01*
X133663116Y-69916666D02*
X133758354Y-69964285D01*
X133758354Y-69964285D02*
X133805973Y-70011904D01*
X133805973Y-70011904D02*
X133853592Y-70107142D01*
X133853592Y-70107142D02*
X133853592Y-70488094D01*
X133425021Y-69535713D02*
X133377402Y-69488094D01*
X133377402Y-69488094D02*
X133329783Y-69392856D01*
X133329783Y-69392856D02*
X133329783Y-69154761D01*
X133329783Y-69154761D02*
X133377402Y-69059523D01*
X133377402Y-69059523D02*
X133425021Y-69011904D01*
X133425021Y-69011904D02*
X133520259Y-68964285D01*
X133520259Y-68964285D02*
X133615497Y-68964285D01*
X133615497Y-68964285D02*
X133758354Y-69011904D01*
X133758354Y-69011904D02*
X134329783Y-69583332D01*
X134329783Y-69583332D02*
X134329783Y-68964285D01*
X130804819Y-84329166D02*
X130328628Y-84662499D01*
X130804819Y-84900594D02*
X129804819Y-84900594D01*
X129804819Y-84900594D02*
X129804819Y-84519642D01*
X129804819Y-84519642D02*
X129852438Y-84424404D01*
X129852438Y-84424404D02*
X129900057Y-84376785D01*
X129900057Y-84376785D02*
X129995295Y-84329166D01*
X129995295Y-84329166D02*
X130138152Y-84329166D01*
X130138152Y-84329166D02*
X130233390Y-84376785D01*
X130233390Y-84376785D02*
X130281009Y-84424404D01*
X130281009Y-84424404D02*
X130328628Y-84519642D01*
X130328628Y-84519642D02*
X130328628Y-84900594D01*
X130138152Y-83472023D02*
X130804819Y-83472023D01*
X129757200Y-83710118D02*
X130471485Y-83948213D01*
X130471485Y-83948213D02*
X130471485Y-83329166D01*
X160079783Y-84304166D02*
X159603592Y-84637499D01*
X160079783Y-84875594D02*
X159079783Y-84875594D01*
X159079783Y-84875594D02*
X159079783Y-84494642D01*
X159079783Y-84494642D02*
X159127402Y-84399404D01*
X159127402Y-84399404D02*
X159175021Y-84351785D01*
X159175021Y-84351785D02*
X159270259Y-84304166D01*
X159270259Y-84304166D02*
X159413116Y-84304166D01*
X159413116Y-84304166D02*
X159508354Y-84351785D01*
X159508354Y-84351785D02*
X159555973Y-84399404D01*
X159555973Y-84399404D02*
X159603592Y-84494642D01*
X159603592Y-84494642D02*
X159603592Y-84875594D01*
X159079783Y-83399404D02*
X159079783Y-83875594D01*
X159079783Y-83875594D02*
X159555973Y-83923213D01*
X159555973Y-83923213D02*
X159508354Y-83875594D01*
X159508354Y-83875594D02*
X159460735Y-83780356D01*
X159460735Y-83780356D02*
X159460735Y-83542261D01*
X159460735Y-83542261D02*
X159508354Y-83447023D01*
X159508354Y-83447023D02*
X159555973Y-83399404D01*
X159555973Y-83399404D02*
X159651211Y-83351785D01*
X159651211Y-83351785D02*
X159889306Y-83351785D01*
X159889306Y-83351785D02*
X159984544Y-83399404D01*
X159984544Y-83399404D02*
X160032164Y-83447023D01*
X160032164Y-83447023D02*
X160079783Y-83542261D01*
X160079783Y-83542261D02*
X160079783Y-83780356D01*
X160079783Y-83780356D02*
X160032164Y-83875594D01*
X160032164Y-83875594D02*
X159984544Y-83923213D01*
X160334819Y-96833333D02*
X161049104Y-96833333D01*
X161049104Y-96833333D02*
X161191961Y-96880952D01*
X161191961Y-96880952D02*
X161287200Y-96976190D01*
X161287200Y-96976190D02*
X161334819Y-97119047D01*
X161334819Y-97119047D02*
X161334819Y-97214285D01*
X160763390Y-96214285D02*
X160715771Y-96309523D01*
X160715771Y-96309523D02*
X160668152Y-96357142D01*
X160668152Y-96357142D02*
X160572914Y-96404761D01*
X160572914Y-96404761D02*
X160525295Y-96404761D01*
X160525295Y-96404761D02*
X160430057Y-96357142D01*
X160430057Y-96357142D02*
X160382438Y-96309523D01*
X160382438Y-96309523D02*
X160334819Y-96214285D01*
X160334819Y-96214285D02*
X160334819Y-96023809D01*
X160334819Y-96023809D02*
X160382438Y-95928571D01*
X160382438Y-95928571D02*
X160430057Y-95880952D01*
X160430057Y-95880952D02*
X160525295Y-95833333D01*
X160525295Y-95833333D02*
X160572914Y-95833333D01*
X160572914Y-95833333D02*
X160668152Y-95880952D01*
X160668152Y-95880952D02*
X160715771Y-95928571D01*
X160715771Y-95928571D02*
X160763390Y-96023809D01*
X160763390Y-96023809D02*
X160763390Y-96214285D01*
X160763390Y-96214285D02*
X160811009Y-96309523D01*
X160811009Y-96309523D02*
X160858628Y-96357142D01*
X160858628Y-96357142D02*
X160953866Y-96404761D01*
X160953866Y-96404761D02*
X161144342Y-96404761D01*
X161144342Y-96404761D02*
X161239580Y-96357142D01*
X161239580Y-96357142D02*
X161287200Y-96309523D01*
X161287200Y-96309523D02*
X161334819Y-96214285D01*
X161334819Y-96214285D02*
X161334819Y-96023809D01*
X161334819Y-96023809D02*
X161287200Y-95928571D01*
X161287200Y-95928571D02*
X161239580Y-95880952D01*
X161239580Y-95880952D02*
X161144342Y-95833333D01*
X161144342Y-95833333D02*
X160953866Y-95833333D01*
X160953866Y-95833333D02*
X160858628Y-95880952D01*
X160858628Y-95880952D02*
X160811009Y-95928571D01*
X160811009Y-95928571D02*
X160763390Y-96023809D01*
X137400057Y-96845238D02*
X137352438Y-96940476D01*
X137352438Y-96940476D02*
X137257200Y-97035714D01*
X137257200Y-97035714D02*
X137114342Y-97178571D01*
X137114342Y-97178571D02*
X137066723Y-97273809D01*
X137066723Y-97273809D02*
X137066723Y-97369047D01*
X137304819Y-97321428D02*
X137257200Y-97416666D01*
X137257200Y-97416666D02*
X137161961Y-97511904D01*
X137161961Y-97511904D02*
X136971485Y-97559523D01*
X136971485Y-97559523D02*
X136638152Y-97559523D01*
X136638152Y-97559523D02*
X136447676Y-97511904D01*
X136447676Y-97511904D02*
X136352438Y-97416666D01*
X136352438Y-97416666D02*
X136304819Y-97321428D01*
X136304819Y-97321428D02*
X136304819Y-97130952D01*
X136304819Y-97130952D02*
X136352438Y-97035714D01*
X136352438Y-97035714D02*
X136447676Y-96940476D01*
X136447676Y-96940476D02*
X136638152Y-96892857D01*
X136638152Y-96892857D02*
X136971485Y-96892857D01*
X136971485Y-96892857D02*
X137161961Y-96940476D01*
X137161961Y-96940476D02*
X137257200Y-97035714D01*
X137257200Y-97035714D02*
X137304819Y-97130952D01*
X137304819Y-97130952D02*
X137304819Y-97321428D01*
X136400057Y-96511904D02*
X136352438Y-96464285D01*
X136352438Y-96464285D02*
X136304819Y-96369047D01*
X136304819Y-96369047D02*
X136304819Y-96130952D01*
X136304819Y-96130952D02*
X136352438Y-96035714D01*
X136352438Y-96035714D02*
X136400057Y-95988095D01*
X136400057Y-95988095D02*
X136495295Y-95940476D01*
X136495295Y-95940476D02*
X136590533Y-95940476D01*
X136590533Y-95940476D02*
X136733390Y-95988095D01*
X136733390Y-95988095D02*
X137304819Y-96559523D01*
X137304819Y-96559523D02*
X137304819Y-95940476D01*
X128842261Y-86950057D02*
X128747023Y-86902438D01*
X128747023Y-86902438D02*
X128651785Y-86807200D01*
X128651785Y-86807200D02*
X128508928Y-86664342D01*
X128508928Y-86664342D02*
X128413690Y-86616723D01*
X128413690Y-86616723D02*
X128318452Y-86616723D01*
X128366071Y-86854819D02*
X128270833Y-86807200D01*
X128270833Y-86807200D02*
X128175595Y-86711961D01*
X128175595Y-86711961D02*
X128127976Y-86521485D01*
X128127976Y-86521485D02*
X128127976Y-86188152D01*
X128127976Y-86188152D02*
X128175595Y-85997676D01*
X128175595Y-85997676D02*
X128270833Y-85902438D01*
X128270833Y-85902438D02*
X128366071Y-85854819D01*
X128366071Y-85854819D02*
X128556547Y-85854819D01*
X128556547Y-85854819D02*
X128651785Y-85902438D01*
X128651785Y-85902438D02*
X128747023Y-85997676D01*
X128747023Y-85997676D02*
X128794642Y-86188152D01*
X128794642Y-86188152D02*
X128794642Y-86521485D01*
X128794642Y-86521485D02*
X128747023Y-86711961D01*
X128747023Y-86711961D02*
X128651785Y-86807200D01*
X128651785Y-86807200D02*
X128556547Y-86854819D01*
X128556547Y-86854819D02*
X128366071Y-86854819D01*
X129127976Y-85854819D02*
X129747023Y-85854819D01*
X129747023Y-85854819D02*
X129413690Y-86235771D01*
X129413690Y-86235771D02*
X129556547Y-86235771D01*
X129556547Y-86235771D02*
X129651785Y-86283390D01*
X129651785Y-86283390D02*
X129699404Y-86331009D01*
X129699404Y-86331009D02*
X129747023Y-86426247D01*
X129747023Y-86426247D02*
X129747023Y-86664342D01*
X129747023Y-86664342D02*
X129699404Y-86759580D01*
X129699404Y-86759580D02*
X129651785Y-86807200D01*
X129651785Y-86807200D02*
X129556547Y-86854819D01*
X129556547Y-86854819D02*
X129270833Y-86854819D01*
X129270833Y-86854819D02*
X129175595Y-86807200D01*
X129175595Y-86807200D02*
X129127976Y-86759580D01*
X160942225Y-82125057D02*
X160846987Y-82077438D01*
X160846987Y-82077438D02*
X160751749Y-81982200D01*
X160751749Y-81982200D02*
X160608892Y-81839342D01*
X160608892Y-81839342D02*
X160513654Y-81791723D01*
X160513654Y-81791723D02*
X160418416Y-81791723D01*
X160466035Y-82029819D02*
X160370797Y-81982200D01*
X160370797Y-81982200D02*
X160275559Y-81886961D01*
X160275559Y-81886961D02*
X160227940Y-81696485D01*
X160227940Y-81696485D02*
X160227940Y-81363152D01*
X160227940Y-81363152D02*
X160275559Y-81172676D01*
X160275559Y-81172676D02*
X160370797Y-81077438D01*
X160370797Y-81077438D02*
X160466035Y-81029819D01*
X160466035Y-81029819D02*
X160656511Y-81029819D01*
X160656511Y-81029819D02*
X160751749Y-81077438D01*
X160751749Y-81077438D02*
X160846987Y-81172676D01*
X160846987Y-81172676D02*
X160894606Y-81363152D01*
X160894606Y-81363152D02*
X160894606Y-81696485D01*
X160894606Y-81696485D02*
X160846987Y-81886961D01*
X160846987Y-81886961D02*
X160751749Y-81982200D01*
X160751749Y-81982200D02*
X160656511Y-82029819D01*
X160656511Y-82029819D02*
X160466035Y-82029819D01*
X161751749Y-81363152D02*
X161751749Y-82029819D01*
X161513654Y-80982200D02*
X161275559Y-81696485D01*
X161275559Y-81696485D02*
X161894606Y-81696485D01*
X130833333Y-62054819D02*
X130500000Y-61578628D01*
X130261905Y-62054819D02*
X130261905Y-61054819D01*
X130261905Y-61054819D02*
X130642857Y-61054819D01*
X130642857Y-61054819D02*
X130738095Y-61102438D01*
X130738095Y-61102438D02*
X130785714Y-61150057D01*
X130785714Y-61150057D02*
X130833333Y-61245295D01*
X130833333Y-61245295D02*
X130833333Y-61388152D01*
X130833333Y-61388152D02*
X130785714Y-61483390D01*
X130785714Y-61483390D02*
X130738095Y-61531009D01*
X130738095Y-61531009D02*
X130642857Y-61578628D01*
X130642857Y-61578628D02*
X130261905Y-61578628D01*
X131785714Y-62054819D02*
X131214286Y-62054819D01*
X131500000Y-62054819D02*
X131500000Y-61054819D01*
X131500000Y-61054819D02*
X131404762Y-61197676D01*
X131404762Y-61197676D02*
X131309524Y-61292914D01*
X131309524Y-61292914D02*
X131214286Y-61340533D01*
X142954819Y-87511904D02*
X143764342Y-87511904D01*
X143764342Y-87511904D02*
X143859580Y-87464285D01*
X143859580Y-87464285D02*
X143907200Y-87416666D01*
X143907200Y-87416666D02*
X143954819Y-87321428D01*
X143954819Y-87321428D02*
X143954819Y-87130952D01*
X143954819Y-87130952D02*
X143907200Y-87035714D01*
X143907200Y-87035714D02*
X143859580Y-86988095D01*
X143859580Y-86988095D02*
X143764342Y-86940476D01*
X143764342Y-86940476D02*
X142954819Y-86940476D01*
X142954819Y-85988095D02*
X142954819Y-86464285D01*
X142954819Y-86464285D02*
X143431009Y-86511904D01*
X143431009Y-86511904D02*
X143383390Y-86464285D01*
X143383390Y-86464285D02*
X143335771Y-86369047D01*
X143335771Y-86369047D02*
X143335771Y-86130952D01*
X143335771Y-86130952D02*
X143383390Y-86035714D01*
X143383390Y-86035714D02*
X143431009Y-85988095D01*
X143431009Y-85988095D02*
X143526247Y-85940476D01*
X143526247Y-85940476D02*
X143764342Y-85940476D01*
X143764342Y-85940476D02*
X143859580Y-85988095D01*
X143859580Y-85988095D02*
X143907200Y-86035714D01*
X143907200Y-86035714D02*
X143954819Y-86130952D01*
X143954819Y-86130952D02*
X143954819Y-86369047D01*
X143954819Y-86369047D02*
X143907200Y-86464285D01*
X143907200Y-86464285D02*
X143859580Y-86511904D01*
X159329783Y-69916666D02*
X158853592Y-70249999D01*
X159329783Y-70488094D02*
X158329783Y-70488094D01*
X158329783Y-70488094D02*
X158329783Y-70107142D01*
X158329783Y-70107142D02*
X158377402Y-70011904D01*
X158377402Y-70011904D02*
X158425021Y-69964285D01*
X158425021Y-69964285D02*
X158520259Y-69916666D01*
X158520259Y-69916666D02*
X158663116Y-69916666D01*
X158663116Y-69916666D02*
X158758354Y-69964285D01*
X158758354Y-69964285D02*
X158805973Y-70011904D01*
X158805973Y-70011904D02*
X158853592Y-70107142D01*
X158853592Y-70107142D02*
X158853592Y-70488094D01*
X158329783Y-69059523D02*
X158329783Y-69249999D01*
X158329783Y-69249999D02*
X158377402Y-69345237D01*
X158377402Y-69345237D02*
X158425021Y-69392856D01*
X158425021Y-69392856D02*
X158567878Y-69488094D01*
X158567878Y-69488094D02*
X158758354Y-69535713D01*
X158758354Y-69535713D02*
X159139306Y-69535713D01*
X159139306Y-69535713D02*
X159234544Y-69488094D01*
X159234544Y-69488094D02*
X159282164Y-69440475D01*
X159282164Y-69440475D02*
X159329783Y-69345237D01*
X159329783Y-69345237D02*
X159329783Y-69154761D01*
X159329783Y-69154761D02*
X159282164Y-69059523D01*
X159282164Y-69059523D02*
X159234544Y-69011904D01*
X159234544Y-69011904D02*
X159139306Y-68964285D01*
X159139306Y-68964285D02*
X158901211Y-68964285D01*
X158901211Y-68964285D02*
X158805973Y-69011904D01*
X158805973Y-69011904D02*
X158758354Y-69059523D01*
X158758354Y-69059523D02*
X158710735Y-69154761D01*
X158710735Y-69154761D02*
X158710735Y-69345237D01*
X158710735Y-69345237D02*
X158758354Y-69440475D01*
X158758354Y-69440475D02*
X158805973Y-69488094D01*
X158805973Y-69488094D02*
X158901211Y-69535713D01*
X144238095Y-84454819D02*
X144238095Y-85264342D01*
X144238095Y-85264342D02*
X144285714Y-85359580D01*
X144285714Y-85359580D02*
X144333333Y-85407200D01*
X144333333Y-85407200D02*
X144428571Y-85454819D01*
X144428571Y-85454819D02*
X144619047Y-85454819D01*
X144619047Y-85454819D02*
X144714285Y-85407200D01*
X144714285Y-85407200D02*
X144761904Y-85359580D01*
X144761904Y-85359580D02*
X144809523Y-85264342D01*
X144809523Y-85264342D02*
X144809523Y-84454819D01*
X145714285Y-84788152D02*
X145714285Y-85454819D01*
X145476190Y-84407200D02*
X145238095Y-85121485D01*
X145238095Y-85121485D02*
X145857142Y-85121485D01*
X130179580Y-59666666D02*
X130227200Y-59714285D01*
X130227200Y-59714285D02*
X130274819Y-59857142D01*
X130274819Y-59857142D02*
X130274819Y-59952380D01*
X130274819Y-59952380D02*
X130227200Y-60095237D01*
X130227200Y-60095237D02*
X130131961Y-60190475D01*
X130131961Y-60190475D02*
X130036723Y-60238094D01*
X130036723Y-60238094D02*
X129846247Y-60285713D01*
X129846247Y-60285713D02*
X129703390Y-60285713D01*
X129703390Y-60285713D02*
X129512914Y-60238094D01*
X129512914Y-60238094D02*
X129417676Y-60190475D01*
X129417676Y-60190475D02*
X129322438Y-60095237D01*
X129322438Y-60095237D02*
X129274819Y-59952380D01*
X129274819Y-59952380D02*
X129274819Y-59857142D01*
X129274819Y-59857142D02*
X129322438Y-59714285D01*
X129322438Y-59714285D02*
X129370057Y-59666666D01*
X130274819Y-58714285D02*
X130274819Y-59285713D01*
X130274819Y-58999999D02*
X129274819Y-58999999D01*
X129274819Y-58999999D02*
X129417676Y-59095237D01*
X129417676Y-59095237D02*
X129512914Y-59190475D01*
X129512914Y-59190475D02*
X129560533Y-59285713D01*
X135789580Y-63166666D02*
X135837200Y-63214285D01*
X135837200Y-63214285D02*
X135884819Y-63357142D01*
X135884819Y-63357142D02*
X135884819Y-63452380D01*
X135884819Y-63452380D02*
X135837200Y-63595237D01*
X135837200Y-63595237D02*
X135741961Y-63690475D01*
X135741961Y-63690475D02*
X135646723Y-63738094D01*
X135646723Y-63738094D02*
X135456247Y-63785713D01*
X135456247Y-63785713D02*
X135313390Y-63785713D01*
X135313390Y-63785713D02*
X135122914Y-63738094D01*
X135122914Y-63738094D02*
X135027676Y-63690475D01*
X135027676Y-63690475D02*
X134932438Y-63595237D01*
X134932438Y-63595237D02*
X134884819Y-63452380D01*
X134884819Y-63452380D02*
X134884819Y-63357142D01*
X134884819Y-63357142D02*
X134932438Y-63214285D01*
X134932438Y-63214285D02*
X134980057Y-63166666D01*
X135218152Y-62309523D02*
X135884819Y-62309523D01*
X134837200Y-62547618D02*
X135551485Y-62785713D01*
X135551485Y-62785713D02*
X135551485Y-62166666D01*
X128608297Y-70779580D02*
X128560678Y-70827200D01*
X128560678Y-70827200D02*
X128417821Y-70874819D01*
X128417821Y-70874819D02*
X128322583Y-70874819D01*
X128322583Y-70874819D02*
X128179726Y-70827200D01*
X128179726Y-70827200D02*
X128084488Y-70731961D01*
X128084488Y-70731961D02*
X128036869Y-70636723D01*
X128036869Y-70636723D02*
X127989250Y-70446247D01*
X127989250Y-70446247D02*
X127989250Y-70303390D01*
X127989250Y-70303390D02*
X128036869Y-70112914D01*
X128036869Y-70112914D02*
X128084488Y-70017676D01*
X128084488Y-70017676D02*
X128179726Y-69922438D01*
X128179726Y-69922438D02*
X128322583Y-69874819D01*
X128322583Y-69874819D02*
X128417821Y-69874819D01*
X128417821Y-69874819D02*
X128560678Y-69922438D01*
X128560678Y-69922438D02*
X128608297Y-69970057D01*
X129084488Y-70874819D02*
X129274964Y-70874819D01*
X129274964Y-70874819D02*
X129370202Y-70827200D01*
X129370202Y-70827200D02*
X129417821Y-70779580D01*
X129417821Y-70779580D02*
X129513059Y-70636723D01*
X129513059Y-70636723D02*
X129560678Y-70446247D01*
X129560678Y-70446247D02*
X129560678Y-70065295D01*
X129560678Y-70065295D02*
X129513059Y-69970057D01*
X129513059Y-69970057D02*
X129465440Y-69922438D01*
X129465440Y-69922438D02*
X129370202Y-69874819D01*
X129370202Y-69874819D02*
X129179726Y-69874819D01*
X129179726Y-69874819D02*
X129084488Y-69922438D01*
X129084488Y-69922438D02*
X129036869Y-69970057D01*
X129036869Y-69970057D02*
X128989250Y-70065295D01*
X128989250Y-70065295D02*
X128989250Y-70303390D01*
X128989250Y-70303390D02*
X129036869Y-70398628D01*
X129036869Y-70398628D02*
X129084488Y-70446247D01*
X129084488Y-70446247D02*
X129179726Y-70493866D01*
X129179726Y-70493866D02*
X129370202Y-70493866D01*
X129370202Y-70493866D02*
X129465440Y-70446247D01*
X129465440Y-70446247D02*
X129513059Y-70398628D01*
X129513059Y-70398628D02*
X129560678Y-70303390D01*
X160082106Y-74039580D02*
X160034487Y-74087200D01*
X160034487Y-74087200D02*
X159891630Y-74134819D01*
X159891630Y-74134819D02*
X159796392Y-74134819D01*
X159796392Y-74134819D02*
X159653535Y-74087200D01*
X159653535Y-74087200D02*
X159558297Y-73991961D01*
X159558297Y-73991961D02*
X159510678Y-73896723D01*
X159510678Y-73896723D02*
X159463059Y-73706247D01*
X159463059Y-73706247D02*
X159463059Y-73563390D01*
X159463059Y-73563390D02*
X159510678Y-73372914D01*
X159510678Y-73372914D02*
X159558297Y-73277676D01*
X159558297Y-73277676D02*
X159653535Y-73182438D01*
X159653535Y-73182438D02*
X159796392Y-73134819D01*
X159796392Y-73134819D02*
X159891630Y-73134819D01*
X159891630Y-73134819D02*
X160034487Y-73182438D01*
X160034487Y-73182438D02*
X160082106Y-73230057D01*
X161034487Y-74134819D02*
X160463059Y-74134819D01*
X160748773Y-74134819D02*
X160748773Y-73134819D01*
X160748773Y-73134819D02*
X160653535Y-73277676D01*
X160653535Y-73277676D02*
X160558297Y-73372914D01*
X160558297Y-73372914D02*
X160463059Y-73420533D01*
X161415440Y-73230057D02*
X161463059Y-73182438D01*
X161463059Y-73182438D02*
X161558297Y-73134819D01*
X161558297Y-73134819D02*
X161796392Y-73134819D01*
X161796392Y-73134819D02*
X161891630Y-73182438D01*
X161891630Y-73182438D02*
X161939249Y-73230057D01*
X161939249Y-73230057D02*
X161986868Y-73325295D01*
X161986868Y-73325295D02*
X161986868Y-73420533D01*
X161986868Y-73420533D02*
X161939249Y-73563390D01*
X161939249Y-73563390D02*
X161367821Y-74134819D01*
X161367821Y-74134819D02*
X161986868Y-74134819D01*
X132583333Y-74789580D02*
X132535714Y-74837200D01*
X132535714Y-74837200D02*
X132392857Y-74884819D01*
X132392857Y-74884819D02*
X132297619Y-74884819D01*
X132297619Y-74884819D02*
X132154762Y-74837200D01*
X132154762Y-74837200D02*
X132059524Y-74741961D01*
X132059524Y-74741961D02*
X132011905Y-74646723D01*
X132011905Y-74646723D02*
X131964286Y-74456247D01*
X131964286Y-74456247D02*
X131964286Y-74313390D01*
X131964286Y-74313390D02*
X132011905Y-74122914D01*
X132011905Y-74122914D02*
X132059524Y-74027676D01*
X132059524Y-74027676D02*
X132154762Y-73932438D01*
X132154762Y-73932438D02*
X132297619Y-73884819D01*
X132297619Y-73884819D02*
X132392857Y-73884819D01*
X132392857Y-73884819D02*
X132535714Y-73932438D01*
X132535714Y-73932438D02*
X132583333Y-73980057D01*
X133488095Y-73884819D02*
X133011905Y-73884819D01*
X133011905Y-73884819D02*
X132964286Y-74361009D01*
X132964286Y-74361009D02*
X133011905Y-74313390D01*
X133011905Y-74313390D02*
X133107143Y-74265771D01*
X133107143Y-74265771D02*
X133345238Y-74265771D01*
X133345238Y-74265771D02*
X133440476Y-74313390D01*
X133440476Y-74313390D02*
X133488095Y-74361009D01*
X133488095Y-74361009D02*
X133535714Y-74456247D01*
X133535714Y-74456247D02*
X133535714Y-74694342D01*
X133535714Y-74694342D02*
X133488095Y-74789580D01*
X133488095Y-74789580D02*
X133440476Y-74837200D01*
X133440476Y-74837200D02*
X133345238Y-74884819D01*
X133345238Y-74884819D02*
X133107143Y-74884819D01*
X133107143Y-74884819D02*
X133011905Y-74837200D01*
X133011905Y-74837200D02*
X132964286Y-74789580D01*
X132583333Y-79289580D02*
X132535714Y-79337200D01*
X132535714Y-79337200D02*
X132392857Y-79384819D01*
X132392857Y-79384819D02*
X132297619Y-79384819D01*
X132297619Y-79384819D02*
X132154762Y-79337200D01*
X132154762Y-79337200D02*
X132059524Y-79241961D01*
X132059524Y-79241961D02*
X132011905Y-79146723D01*
X132011905Y-79146723D02*
X131964286Y-78956247D01*
X131964286Y-78956247D02*
X131964286Y-78813390D01*
X131964286Y-78813390D02*
X132011905Y-78622914D01*
X132011905Y-78622914D02*
X132059524Y-78527676D01*
X132059524Y-78527676D02*
X132154762Y-78432438D01*
X132154762Y-78432438D02*
X132297619Y-78384819D01*
X132297619Y-78384819D02*
X132392857Y-78384819D01*
X132392857Y-78384819D02*
X132535714Y-78432438D01*
X132535714Y-78432438D02*
X132583333Y-78480057D01*
X133440476Y-78384819D02*
X133250000Y-78384819D01*
X133250000Y-78384819D02*
X133154762Y-78432438D01*
X133154762Y-78432438D02*
X133107143Y-78480057D01*
X133107143Y-78480057D02*
X133011905Y-78622914D01*
X133011905Y-78622914D02*
X132964286Y-78813390D01*
X132964286Y-78813390D02*
X132964286Y-79194342D01*
X132964286Y-79194342D02*
X133011905Y-79289580D01*
X133011905Y-79289580D02*
X133059524Y-79337200D01*
X133059524Y-79337200D02*
X133154762Y-79384819D01*
X133154762Y-79384819D02*
X133345238Y-79384819D01*
X133345238Y-79384819D02*
X133440476Y-79337200D01*
X133440476Y-79337200D02*
X133488095Y-79289580D01*
X133488095Y-79289580D02*
X133535714Y-79194342D01*
X133535714Y-79194342D02*
X133535714Y-78956247D01*
X133535714Y-78956247D02*
X133488095Y-78861009D01*
X133488095Y-78861009D02*
X133440476Y-78813390D01*
X133440476Y-78813390D02*
X133345238Y-78765771D01*
X133345238Y-78765771D02*
X133154762Y-78765771D01*
X133154762Y-78765771D02*
X133059524Y-78813390D01*
X133059524Y-78813390D02*
X133011905Y-78861009D01*
X133011905Y-78861009D02*
X132964286Y-78956247D01*
X146833333Y-90429580D02*
X146785714Y-90477200D01*
X146785714Y-90477200D02*
X146642857Y-90524819D01*
X146642857Y-90524819D02*
X146547619Y-90524819D01*
X146547619Y-90524819D02*
X146404762Y-90477200D01*
X146404762Y-90477200D02*
X146309524Y-90381961D01*
X146309524Y-90381961D02*
X146261905Y-90286723D01*
X146261905Y-90286723D02*
X146214286Y-90096247D01*
X146214286Y-90096247D02*
X146214286Y-89953390D01*
X146214286Y-89953390D02*
X146261905Y-89762914D01*
X146261905Y-89762914D02*
X146309524Y-89667676D01*
X146309524Y-89667676D02*
X146404762Y-89572438D01*
X146404762Y-89572438D02*
X146547619Y-89524819D01*
X146547619Y-89524819D02*
X146642857Y-89524819D01*
X146642857Y-89524819D02*
X146785714Y-89572438D01*
X146785714Y-89572438D02*
X146833333Y-89620057D01*
X147166667Y-89524819D02*
X147785714Y-89524819D01*
X147785714Y-89524819D02*
X147452381Y-89905771D01*
X147452381Y-89905771D02*
X147595238Y-89905771D01*
X147595238Y-89905771D02*
X147690476Y-89953390D01*
X147690476Y-89953390D02*
X147738095Y-90001009D01*
X147738095Y-90001009D02*
X147785714Y-90096247D01*
X147785714Y-90096247D02*
X147785714Y-90334342D01*
X147785714Y-90334342D02*
X147738095Y-90429580D01*
X147738095Y-90429580D02*
X147690476Y-90477200D01*
X147690476Y-90477200D02*
X147595238Y-90524819D01*
X147595238Y-90524819D02*
X147309524Y-90524819D01*
X147309524Y-90524819D02*
X147214286Y-90477200D01*
X147214286Y-90477200D02*
X147166667Y-90429580D01*
X135383333Y-100104580D02*
X135335714Y-100152200D01*
X135335714Y-100152200D02*
X135192857Y-100199819D01*
X135192857Y-100199819D02*
X135097619Y-100199819D01*
X135097619Y-100199819D02*
X134954762Y-100152200D01*
X134954762Y-100152200D02*
X134859524Y-100056961D01*
X134859524Y-100056961D02*
X134811905Y-99961723D01*
X134811905Y-99961723D02*
X134764286Y-99771247D01*
X134764286Y-99771247D02*
X134764286Y-99628390D01*
X134764286Y-99628390D02*
X134811905Y-99437914D01*
X134811905Y-99437914D02*
X134859524Y-99342676D01*
X134859524Y-99342676D02*
X134954762Y-99247438D01*
X134954762Y-99247438D02*
X135097619Y-99199819D01*
X135097619Y-99199819D02*
X135192857Y-99199819D01*
X135192857Y-99199819D02*
X135335714Y-99247438D01*
X135335714Y-99247438D02*
X135383333Y-99295057D01*
X135716667Y-99199819D02*
X136383333Y-99199819D01*
X136383333Y-99199819D02*
X135954762Y-100199819D01*
X132429580Y-59666666D02*
X132477200Y-59714285D01*
X132477200Y-59714285D02*
X132524819Y-59857142D01*
X132524819Y-59857142D02*
X132524819Y-59952380D01*
X132524819Y-59952380D02*
X132477200Y-60095237D01*
X132477200Y-60095237D02*
X132381961Y-60190475D01*
X132381961Y-60190475D02*
X132286723Y-60238094D01*
X132286723Y-60238094D02*
X132096247Y-60285713D01*
X132096247Y-60285713D02*
X131953390Y-60285713D01*
X131953390Y-60285713D02*
X131762914Y-60238094D01*
X131762914Y-60238094D02*
X131667676Y-60190475D01*
X131667676Y-60190475D02*
X131572438Y-60095237D01*
X131572438Y-60095237D02*
X131524819Y-59952380D01*
X131524819Y-59952380D02*
X131524819Y-59857142D01*
X131524819Y-59857142D02*
X131572438Y-59714285D01*
X131572438Y-59714285D02*
X131620057Y-59666666D01*
X131620057Y-59285713D02*
X131572438Y-59238094D01*
X131572438Y-59238094D02*
X131524819Y-59142856D01*
X131524819Y-59142856D02*
X131524819Y-58904761D01*
X131524819Y-58904761D02*
X131572438Y-58809523D01*
X131572438Y-58809523D02*
X131620057Y-58761904D01*
X131620057Y-58761904D02*
X131715295Y-58714285D01*
X131715295Y-58714285D02*
X131810533Y-58714285D01*
X131810533Y-58714285D02*
X131953390Y-58761904D01*
X131953390Y-58761904D02*
X132524819Y-59333332D01*
X132524819Y-59333332D02*
X132524819Y-58714285D01*
X155904544Y-89117857D02*
X155952164Y-89165476D01*
X155952164Y-89165476D02*
X155999783Y-89308333D01*
X155999783Y-89308333D02*
X155999783Y-89403571D01*
X155999783Y-89403571D02*
X155952164Y-89546428D01*
X155952164Y-89546428D02*
X155856925Y-89641666D01*
X155856925Y-89641666D02*
X155761687Y-89689285D01*
X155761687Y-89689285D02*
X155571211Y-89736904D01*
X155571211Y-89736904D02*
X155428354Y-89736904D01*
X155428354Y-89736904D02*
X155237878Y-89689285D01*
X155237878Y-89689285D02*
X155142640Y-89641666D01*
X155142640Y-89641666D02*
X155047402Y-89546428D01*
X155047402Y-89546428D02*
X154999783Y-89403571D01*
X154999783Y-89403571D02*
X154999783Y-89308333D01*
X154999783Y-89308333D02*
X155047402Y-89165476D01*
X155047402Y-89165476D02*
X155095021Y-89117857D01*
X155999783Y-88165476D02*
X155999783Y-88736904D01*
X155999783Y-88451190D02*
X154999783Y-88451190D01*
X154999783Y-88451190D02*
X155142640Y-88546428D01*
X155142640Y-88546428D02*
X155237878Y-88641666D01*
X155237878Y-88641666D02*
X155285497Y-88736904D01*
X155999783Y-87213095D02*
X155999783Y-87784523D01*
X155999783Y-87498809D02*
X154999783Y-87498809D01*
X154999783Y-87498809D02*
X155142640Y-87594047D01*
X155142640Y-87594047D02*
X155237878Y-87689285D01*
X155237878Y-87689285D02*
X155285497Y-87784523D01*
X131429580Y-88892857D02*
X131477200Y-88940476D01*
X131477200Y-88940476D02*
X131524819Y-89083333D01*
X131524819Y-89083333D02*
X131524819Y-89178571D01*
X131524819Y-89178571D02*
X131477200Y-89321428D01*
X131477200Y-89321428D02*
X131381961Y-89416666D01*
X131381961Y-89416666D02*
X131286723Y-89464285D01*
X131286723Y-89464285D02*
X131096247Y-89511904D01*
X131096247Y-89511904D02*
X130953390Y-89511904D01*
X130953390Y-89511904D02*
X130762914Y-89464285D01*
X130762914Y-89464285D02*
X130667676Y-89416666D01*
X130667676Y-89416666D02*
X130572438Y-89321428D01*
X130572438Y-89321428D02*
X130524819Y-89178571D01*
X130524819Y-89178571D02*
X130524819Y-89083333D01*
X130524819Y-89083333D02*
X130572438Y-88940476D01*
X130572438Y-88940476D02*
X130620057Y-88892857D01*
X131524819Y-87940476D02*
X131524819Y-88511904D01*
X131524819Y-88226190D02*
X130524819Y-88226190D01*
X130524819Y-88226190D02*
X130667676Y-88321428D01*
X130667676Y-88321428D02*
X130762914Y-88416666D01*
X130762914Y-88416666D02*
X130810533Y-88511904D01*
X130524819Y-87321428D02*
X130524819Y-87226190D01*
X130524819Y-87226190D02*
X130572438Y-87130952D01*
X130572438Y-87130952D02*
X130620057Y-87083333D01*
X130620057Y-87083333D02*
X130715295Y-87035714D01*
X130715295Y-87035714D02*
X130905771Y-86988095D01*
X130905771Y-86988095D02*
X131143866Y-86988095D01*
X131143866Y-86988095D02*
X131334342Y-87035714D01*
X131334342Y-87035714D02*
X131429580Y-87083333D01*
X131429580Y-87083333D02*
X131477200Y-87130952D01*
X131477200Y-87130952D02*
X131524819Y-87226190D01*
X131524819Y-87226190D02*
X131524819Y-87321428D01*
X131524819Y-87321428D02*
X131477200Y-87416666D01*
X131477200Y-87416666D02*
X131429580Y-87464285D01*
X131429580Y-87464285D02*
X131334342Y-87511904D01*
X131334342Y-87511904D02*
X131143866Y-87559523D01*
X131143866Y-87559523D02*
X130905771Y-87559523D01*
X130905771Y-87559523D02*
X130715295Y-87511904D01*
X130715295Y-87511904D02*
X130620057Y-87464285D01*
X130620057Y-87464285D02*
X130572438Y-87416666D01*
X130572438Y-87416666D02*
X130524819Y-87321428D01*
X146929580Y-88892857D02*
X146977200Y-88940476D01*
X146977200Y-88940476D02*
X147024819Y-89083333D01*
X147024819Y-89083333D02*
X147024819Y-89178571D01*
X147024819Y-89178571D02*
X146977200Y-89321428D01*
X146977200Y-89321428D02*
X146881961Y-89416666D01*
X146881961Y-89416666D02*
X146786723Y-89464285D01*
X146786723Y-89464285D02*
X146596247Y-89511904D01*
X146596247Y-89511904D02*
X146453390Y-89511904D01*
X146453390Y-89511904D02*
X146262914Y-89464285D01*
X146262914Y-89464285D02*
X146167676Y-89416666D01*
X146167676Y-89416666D02*
X146072438Y-89321428D01*
X146072438Y-89321428D02*
X146024819Y-89178571D01*
X146024819Y-89178571D02*
X146024819Y-89083333D01*
X146024819Y-89083333D02*
X146072438Y-88940476D01*
X146072438Y-88940476D02*
X146120057Y-88892857D01*
X147024819Y-87940476D02*
X147024819Y-88511904D01*
X147024819Y-88226190D02*
X146024819Y-88226190D01*
X146024819Y-88226190D02*
X146167676Y-88321428D01*
X146167676Y-88321428D02*
X146262914Y-88416666D01*
X146262914Y-88416666D02*
X146310533Y-88511904D01*
X146024819Y-87083333D02*
X146024819Y-87273809D01*
X146024819Y-87273809D02*
X146072438Y-87369047D01*
X146072438Y-87369047D02*
X146120057Y-87416666D01*
X146120057Y-87416666D02*
X146262914Y-87511904D01*
X146262914Y-87511904D02*
X146453390Y-87559523D01*
X146453390Y-87559523D02*
X146834342Y-87559523D01*
X146834342Y-87559523D02*
X146929580Y-87511904D01*
X146929580Y-87511904D02*
X146977200Y-87464285D01*
X146977200Y-87464285D02*
X147024819Y-87369047D01*
X147024819Y-87369047D02*
X147024819Y-87178571D01*
X147024819Y-87178571D02*
X146977200Y-87083333D01*
X146977200Y-87083333D02*
X146929580Y-87035714D01*
X146929580Y-87035714D02*
X146834342Y-86988095D01*
X146834342Y-86988095D02*
X146596247Y-86988095D01*
X146596247Y-86988095D02*
X146501009Y-87035714D01*
X146501009Y-87035714D02*
X146453390Y-87083333D01*
X146453390Y-87083333D02*
X146405771Y-87178571D01*
X146405771Y-87178571D02*
X146405771Y-87369047D01*
X146405771Y-87369047D02*
X146453390Y-87464285D01*
X146453390Y-87464285D02*
X146501009Y-87511904D01*
X146501009Y-87511904D02*
X146596247Y-87559523D01*
X135429580Y-81142857D02*
X135477200Y-81190476D01*
X135477200Y-81190476D02*
X135524819Y-81333333D01*
X135524819Y-81333333D02*
X135524819Y-81428571D01*
X135524819Y-81428571D02*
X135477200Y-81571428D01*
X135477200Y-81571428D02*
X135381961Y-81666666D01*
X135381961Y-81666666D02*
X135286723Y-81714285D01*
X135286723Y-81714285D02*
X135096247Y-81761904D01*
X135096247Y-81761904D02*
X134953390Y-81761904D01*
X134953390Y-81761904D02*
X134762914Y-81714285D01*
X134762914Y-81714285D02*
X134667676Y-81666666D01*
X134667676Y-81666666D02*
X134572438Y-81571428D01*
X134572438Y-81571428D02*
X134524819Y-81428571D01*
X134524819Y-81428571D02*
X134524819Y-81333333D01*
X134524819Y-81333333D02*
X134572438Y-81190476D01*
X134572438Y-81190476D02*
X134620057Y-81142857D01*
X135524819Y-80190476D02*
X135524819Y-80761904D01*
X135524819Y-80476190D02*
X134524819Y-80476190D01*
X134524819Y-80476190D02*
X134667676Y-80571428D01*
X134667676Y-80571428D02*
X134762914Y-80666666D01*
X134762914Y-80666666D02*
X134810533Y-80761904D01*
X134858152Y-79333333D02*
X135524819Y-79333333D01*
X134477200Y-79571428D02*
X135191485Y-79809523D01*
X135191485Y-79809523D02*
X135191485Y-79190476D01*
X128136869Y-68304819D02*
X128136869Y-67304819D01*
X128136869Y-67304819D02*
X128374964Y-67304819D01*
X128374964Y-67304819D02*
X128517821Y-67352438D01*
X128517821Y-67352438D02*
X128613059Y-67447676D01*
X128613059Y-67447676D02*
X128660678Y-67542914D01*
X128660678Y-67542914D02*
X128708297Y-67733390D01*
X128708297Y-67733390D02*
X128708297Y-67876247D01*
X128708297Y-67876247D02*
X128660678Y-68066723D01*
X128660678Y-68066723D02*
X128613059Y-68161961D01*
X128613059Y-68161961D02*
X128517821Y-68257200D01*
X128517821Y-68257200D02*
X128374964Y-68304819D01*
X128374964Y-68304819D02*
X128136869Y-68304819D01*
X129660678Y-68304819D02*
X129089250Y-68304819D01*
X129374964Y-68304819D02*
X129374964Y-67304819D01*
X129374964Y-67304819D02*
X129279726Y-67447676D01*
X129279726Y-67447676D02*
X129184488Y-67542914D01*
X129184488Y-67542914D02*
X129089250Y-67590533D01*
X142407142Y-94289580D02*
X142359523Y-94337200D01*
X142359523Y-94337200D02*
X142216666Y-94384819D01*
X142216666Y-94384819D02*
X142121428Y-94384819D01*
X142121428Y-94384819D02*
X141978571Y-94337200D01*
X141978571Y-94337200D02*
X141883333Y-94241961D01*
X141883333Y-94241961D02*
X141835714Y-94146723D01*
X141835714Y-94146723D02*
X141788095Y-93956247D01*
X141788095Y-93956247D02*
X141788095Y-93813390D01*
X141788095Y-93813390D02*
X141835714Y-93622914D01*
X141835714Y-93622914D02*
X141883333Y-93527676D01*
X141883333Y-93527676D02*
X141978571Y-93432438D01*
X141978571Y-93432438D02*
X142121428Y-93384819D01*
X142121428Y-93384819D02*
X142216666Y-93384819D01*
X142216666Y-93384819D02*
X142359523Y-93432438D01*
X142359523Y-93432438D02*
X142407142Y-93480057D01*
X143359523Y-94384819D02*
X142788095Y-94384819D01*
X143073809Y-94384819D02*
X143073809Y-93384819D01*
X143073809Y-93384819D02*
X142978571Y-93527676D01*
X142978571Y-93527676D02*
X142883333Y-93622914D01*
X142883333Y-93622914D02*
X142788095Y-93670533D01*
X143692857Y-93384819D02*
X144359523Y-93384819D01*
X144359523Y-93384819D02*
X143930952Y-94384819D01*
D14*
%TO.C,D2*%
X126100000Y-94490000D02*
X126100000Y-100000000D01*
X129400000Y-94490000D02*
X129400000Y-100000000D01*
X129400000Y-94490000D02*
X126100000Y-94490000D01*
%TO.C,U6*%
X130340000Y-97850000D02*
X130340000Y-94090000D01*
X137160000Y-97850000D02*
X137160000Y-94090000D01*
X130340000Y-94090000D02*
X131600000Y-94090000D01*
X137160000Y-94090000D02*
X135900000Y-94090000D01*
X130440000Y-99130000D02*
X130110000Y-99370000D01*
X130110000Y-98890000D01*
X130440000Y-99130000D01*
G36*
X130440000Y-99130000D02*
G01*
X130110000Y-99370000D01*
X130110000Y-98890000D01*
X130440000Y-99130000D01*
G37*
%TO.C,R3*%
X154639564Y-100690000D02*
X154185436Y-100690000D01*
X154639564Y-102160000D02*
X154185436Y-102160000D01*
%TO.C,R8*%
X150765000Y-100522936D02*
X150765000Y-100977064D01*
X152235000Y-100522936D02*
X152235000Y-100977064D01*
%TO.C,SW2*%
X151850000Y-103575000D02*
X155150000Y-103575000D01*
X151850000Y-103875000D02*
X151850000Y-103575000D01*
X151850000Y-106075000D02*
X151850000Y-106375000D01*
X151850000Y-106375000D02*
X155150000Y-106375000D01*
X155150000Y-103575000D02*
X155150000Y-103875000D01*
X155150000Y-106375000D02*
X155150000Y-106075000D01*
%TO.C,R7*%
X137765000Y-100522936D02*
X137765000Y-100977064D01*
X139235000Y-100522936D02*
X139235000Y-100977064D01*
%TO.C,SW1*%
X138150000Y-106375000D02*
X134850000Y-106375000D01*
X138150000Y-106075000D02*
X138150000Y-106375000D01*
X138150000Y-103875000D02*
X138150000Y-103575000D01*
X138150000Y-103575000D02*
X134850000Y-103575000D01*
X134850000Y-106375000D02*
X134850000Y-106075000D01*
X134850000Y-103575000D02*
X134850000Y-103875000D01*
%TO.C,D5*%
X162984964Y-70750000D02*
X162984964Y-68750000D01*
X162984964Y-70750000D02*
X158974964Y-70750000D01*
X162984964Y-68750000D02*
X158974964Y-68750000D01*
%TO.C,C8*%
X131988748Y-104485000D02*
X132511252Y-104485000D01*
X131988748Y-103015000D02*
X132511252Y-103015000D01*
%TO.C,C13*%
X131988748Y-106485000D02*
X132511252Y-106485000D01*
X131988748Y-105015000D02*
X132511252Y-105015000D01*
%TO.C,U1*%
X135800000Y-51290000D02*
X135800000Y-57490000D01*
X135800000Y-51290000D02*
X154200000Y-51290000D01*
X135800000Y-76140000D02*
X135800000Y-77140000D01*
X135800000Y-77140000D02*
X137300000Y-77140000D01*
X154200000Y-51290000D02*
X154200000Y-57490000D01*
X154200000Y-77140000D02*
X152700000Y-77140000D01*
X154200000Y-77140000D02*
X154200000Y-76140000D01*
X135800000Y-58165000D02*
X135300000Y-58165000D01*
X135800000Y-57665000D01*
X135800000Y-58165000D01*
G36*
X135800000Y-58165000D02*
G01*
X135300000Y-58165000D01*
X135800000Y-57665000D01*
X135800000Y-58165000D01*
G37*
%TO.C,J9*%
X149670000Y-103650000D02*
X149670000Y-101950000D01*
X140330000Y-103650000D02*
X140330000Y-101950000D01*
%TO.C,U3*%
X142815000Y-81750000D02*
X142815000Y-83700000D01*
X142815000Y-81750000D02*
X142815000Y-79800000D01*
X151685000Y-81750000D02*
X151685000Y-83700000D01*
X151685000Y-81750000D02*
X151685000Y-79800000D01*
X142880000Y-84450000D02*
X142550000Y-84690000D01*
X142550000Y-84210000D01*
X142880000Y-84450000D01*
G36*
X142880000Y-84450000D02*
G01*
X142550000Y-84690000D01*
X142550000Y-84210000D01*
X142880000Y-84450000D01*
G37*
%TO.C,C15*%
X138265000Y-80761252D02*
X138265000Y-80238748D01*
X139735000Y-80761252D02*
X139735000Y-80238748D01*
%TO.C,J4*%
X127000000Y-89675000D02*
X127000000Y-86875000D01*
X129000000Y-89675000D02*
X127000000Y-89675000D01*
X127000000Y-86875000D02*
X129000000Y-86875000D01*
X129000000Y-86875000D02*
X129000000Y-89675000D01*
%TO.C,J6*%
X162974964Y-65325000D02*
X162974964Y-68125000D01*
X160974964Y-65325000D02*
X162974964Y-65325000D01*
X162974964Y-68125000D02*
X160974964Y-68125000D01*
X160974964Y-68125000D02*
X160974964Y-65325000D01*
%TO.C,J5*%
X160974964Y-89650000D02*
X160974964Y-86850000D01*
X162974964Y-89650000D02*
X160974964Y-89650000D01*
X160974964Y-86850000D02*
X162974964Y-86850000D01*
X162974964Y-86850000D02*
X162974964Y-89650000D01*
%TO.C,J1*%
X128474964Y-65325000D02*
X128474964Y-68125000D01*
X126474964Y-65325000D02*
X128474964Y-65325000D01*
X128474964Y-68125000D02*
X126474964Y-68125000D01*
X126474964Y-68125000D02*
X126474964Y-65325000D01*
%TO.C,D3*%
X131500000Y-90610000D02*
X131500000Y-86600000D01*
X129500000Y-90610000D02*
X129500000Y-86600000D01*
X129500000Y-90610000D02*
X131500000Y-90610000D01*
%TO.C,D4*%
X160474964Y-90685000D02*
X160474964Y-86675000D01*
X158474964Y-90685000D02*
X158474964Y-86675000D01*
X158474964Y-90685000D02*
X160474964Y-90685000D01*
%TO.C,J3*%
X159830000Y-91420000D02*
X159830000Y-92750000D01*
X158500000Y-91420000D02*
X159830000Y-91420000D01*
X157230000Y-91420000D02*
X149550000Y-91420000D01*
X157230000Y-91420000D02*
X157230000Y-94080000D01*
X149550000Y-91420000D02*
X149550000Y-94080000D01*
X157230000Y-94080000D02*
X149550000Y-94080000D01*
%TO.C,J2*%
X148060000Y-98360000D02*
X148060000Y-93640000D01*
X148060000Y-96250000D02*
X147450000Y-96250000D01*
X148060000Y-94950000D02*
X147450000Y-94950000D01*
X148060000Y-93640000D02*
X141940000Y-93640000D01*
X147450000Y-97750000D02*
X147450000Y-94250000D01*
X147450000Y-94250000D02*
X145500000Y-94250000D01*
X145500000Y-94250000D02*
X145500000Y-93640000D01*
X145100000Y-97250000D02*
X145100000Y-97750000D01*
X145000000Y-97750000D02*
X145000000Y-97250000D01*
X144900000Y-97750000D02*
X144900000Y-97250000D01*
X144900000Y-97250000D02*
X145100000Y-97250000D01*
X144500000Y-94250000D02*
X142550000Y-94250000D01*
X144500000Y-93640000D02*
X144500000Y-94250000D01*
X143700000Y-93640000D02*
X143700000Y-93440000D01*
X143700000Y-93540000D02*
X143400000Y-93540000D01*
X143700000Y-93440000D02*
X143400000Y-93440000D01*
X143400000Y-93440000D02*
X143400000Y-93640000D01*
X142890000Y-93340000D02*
X141640000Y-93340000D01*
X142550000Y-97750000D02*
X147450000Y-97750000D01*
X142550000Y-94250000D02*
X142550000Y-97750000D01*
X141940000Y-98360000D02*
X148060000Y-98360000D01*
X141940000Y-96250000D02*
X142550000Y-96250000D01*
X141940000Y-94950000D02*
X142550000Y-94950000D01*
X141940000Y-93640000D02*
X141940000Y-98360000D01*
X141640000Y-93340000D02*
X141640000Y-94590000D01*
%TO.C,Q1*%
X130662464Y-67560000D02*
X131312464Y-67560000D01*
X130662464Y-67560000D02*
X130012464Y-67560000D01*
X130662464Y-64440000D02*
X131312464Y-64440000D01*
X130662464Y-64440000D02*
X130012464Y-64440000D01*
X132064964Y-67840000D02*
X131584964Y-67840000D01*
X131824964Y-67510000D01*
X132064964Y-67840000D01*
G36*
X132064964Y-67840000D02*
G01*
X131584964Y-67840000D01*
X131824964Y-67510000D01*
X132064964Y-67840000D01*
G37*
%TO.C,Q5*%
X157624964Y-64490000D02*
X157384964Y-64160000D01*
X157864964Y-64160000D01*
X157624964Y-64490000D01*
G36*
X157624964Y-64490000D02*
G01*
X157384964Y-64160000D01*
X157864964Y-64160000D01*
X157624964Y-64490000D01*
G37*
X158787464Y-67560000D02*
X159437464Y-67560000D01*
X158787464Y-67560000D02*
X158137464Y-67560000D01*
X158787464Y-64440000D02*
X159437464Y-64440000D01*
X158787464Y-64440000D02*
X158137464Y-64440000D01*
%TO.C,R2*%
X131489964Y-69522936D02*
X131489964Y-69977064D01*
X132959964Y-69522936D02*
X132959964Y-69977064D01*
%TO.C,R4*%
X132735000Y-84389564D02*
X132735000Y-83935436D01*
X131265000Y-84389564D02*
X131265000Y-83935436D01*
%TO.C,R5*%
X157239964Y-83910436D02*
X157239964Y-84364564D01*
X158709964Y-83910436D02*
X158709964Y-84364564D01*
%TO.C,J8*%
X159880000Y-95170000D02*
X159880000Y-96500000D01*
X158550000Y-95170000D02*
X159880000Y-95170000D01*
X157280000Y-95170000D02*
X149600000Y-95170000D01*
X157280000Y-95170000D02*
X157280000Y-97830000D01*
X149600000Y-95170000D02*
X149600000Y-97830000D01*
X157280000Y-97830000D02*
X149600000Y-97830000D01*
%TO.C,Q2*%
X137690000Y-96750000D02*
X137690000Y-97400000D01*
X137690000Y-96750000D02*
X137690000Y-96100000D01*
X140810000Y-96750000D02*
X140810000Y-97400000D01*
X140810000Y-96750000D02*
X140810000Y-96100000D01*
X137740000Y-97912500D02*
X137410000Y-98152500D01*
X137410000Y-97672500D01*
X137740000Y-97912500D01*
G36*
X137740000Y-97912500D02*
G01*
X137410000Y-98152500D01*
X137410000Y-97672500D01*
X137740000Y-97912500D01*
G37*
%TO.C,Q3*%
X130340000Y-85840000D02*
X129860000Y-85840000D01*
X130100000Y-85510000D01*
X130340000Y-85840000D01*
G36*
X130340000Y-85840000D02*
G01*
X129860000Y-85840000D01*
X130100000Y-85510000D01*
X130340000Y-85840000D01*
G37*
X128937500Y-82440000D02*
X128287500Y-82440000D01*
X128937500Y-82440000D02*
X129587500Y-82440000D01*
X128937500Y-85560000D02*
X128287500Y-85560000D01*
X128937500Y-85560000D02*
X129587500Y-85560000D01*
%TO.C,Q4*%
X159874964Y-82465000D02*
X159634964Y-82135000D01*
X160114964Y-82135000D01*
X159874964Y-82465000D01*
G36*
X159874964Y-82465000D02*
G01*
X159634964Y-82135000D01*
X160114964Y-82135000D01*
X159874964Y-82465000D01*
G37*
X161037464Y-85535000D02*
X161687464Y-85535000D01*
X161037464Y-85535000D02*
X160387464Y-85535000D01*
X161037464Y-82415000D02*
X161687464Y-82415000D01*
X161037464Y-82415000D02*
X160387464Y-82415000D01*
%TO.C,R1*%
X130772936Y-62515000D02*
X131227064Y-62515000D01*
X130772936Y-63985000D02*
X131227064Y-63985000D01*
%TO.C,U5*%
X142410000Y-84900000D02*
X142410000Y-88660000D01*
X135590000Y-84900000D02*
X135590000Y-88660000D01*
X142410000Y-88660000D02*
X141150000Y-88660000D01*
X135590000Y-88660000D02*
X136850000Y-88660000D01*
X142640000Y-83860000D02*
X142310000Y-83620000D01*
X142640000Y-83380000D01*
X142640000Y-83860000D01*
G36*
X142640000Y-83860000D02*
G01*
X142310000Y-83620000D01*
X142640000Y-83380000D01*
X142640000Y-83860000D01*
G37*
%TO.C,R6*%
X156489964Y-69522936D02*
X156489964Y-69977064D01*
X157959964Y-69522936D02*
X157959964Y-69977064D01*
%TO.C,U4*%
X143400000Y-89850000D02*
X143400000Y-89600000D01*
X143400000Y-89850000D02*
X143650000Y-89850000D01*
X146600000Y-86650000D02*
X146350000Y-86650000D01*
X146600000Y-86650000D02*
X146600000Y-86900000D01*
X146600000Y-89850000D02*
X146350000Y-89850000D01*
X146600000Y-89850000D02*
X146600000Y-89600000D01*
X143400000Y-86650000D02*
X143160000Y-86320000D01*
X143640000Y-86320000D01*
X143400000Y-86650000D01*
G36*
X143400000Y-86650000D02*
G01*
X143160000Y-86320000D01*
X143640000Y-86320000D01*
X143400000Y-86650000D01*
G37*
%TO.C,C1*%
X132235000Y-59761252D02*
X132235000Y-59238748D01*
X130765000Y-59761252D02*
X130765000Y-59238748D01*
%TO.C,C4*%
X134485000Y-62738748D02*
X134485000Y-63261252D01*
X133015000Y-62738748D02*
X133015000Y-63261252D01*
%TO.C,C9*%
X128513712Y-72835000D02*
X129036216Y-72835000D01*
X128513712Y-71365000D02*
X129036216Y-71365000D01*
%TO.C,C12*%
X160986216Y-71265000D02*
X160463712Y-71265000D01*
X160986216Y-72735000D02*
X160463712Y-72735000D01*
%TO.C,C5*%
X133011252Y-73485000D02*
X132488748Y-73485000D01*
X133011252Y-72015000D02*
X132488748Y-72015000D01*
%TO.C,C6*%
X133011252Y-77985000D02*
X132488748Y-77985000D01*
X133011252Y-76515000D02*
X132488748Y-76515000D01*
%TO.C,C3*%
X146738748Y-92485000D02*
X147261252Y-92485000D01*
X146738748Y-91015000D02*
X147261252Y-91015000D01*
%TO.C,C7*%
X135288748Y-102160000D02*
X135811252Y-102160000D01*
X135288748Y-100690000D02*
X135811252Y-100690000D01*
%TO.C,C2*%
X134485000Y-59761252D02*
X134485000Y-59238748D01*
X133015000Y-59761252D02*
X133015000Y-59238748D01*
%TO.C,C11*%
X157959964Y-88736252D02*
X157959964Y-88213748D01*
X156489964Y-88736252D02*
X156489964Y-88213748D01*
%TO.C,C10*%
X133485000Y-88511252D02*
X133485000Y-87988748D01*
X132015000Y-88511252D02*
X132015000Y-87988748D01*
%TO.C,C16*%
X147515000Y-88511252D02*
X147515000Y-87988748D01*
X148985000Y-88511252D02*
X148985000Y-87988748D01*
%TO.C,C14*%
X136015000Y-80761252D02*
X136015000Y-80238748D01*
X137485000Y-80761252D02*
X137485000Y-80238748D01*
%TO.C,D1*%
X126514964Y-68850000D02*
X126514964Y-70850000D01*
X126514964Y-68850000D02*
X130524964Y-68850000D01*
X126514964Y-70850000D02*
X130524964Y-70850000D01*
%TO.C,C17*%
X143311252Y-91515000D02*
X142788748Y-91515000D01*
X143311252Y-92985000D02*
X142788748Y-92985000D01*
%TD*%
%LPC*%
%TO.C,J4*%
G36*
X127250000Y-89500000D02*
G01*
X128750000Y-89500000D01*
X128750000Y-87050000D01*
X127250000Y-87050000D01*
X127250000Y-89500000D01*
G37*
%TO.C,J6*%
G36*
X161224964Y-67950000D02*
G01*
X162724964Y-67950000D01*
X162724964Y-65500000D01*
X161224964Y-65500000D01*
X161224964Y-67950000D01*
G37*
%TO.C,J5*%
G36*
X161224964Y-89475000D02*
G01*
X162724964Y-89475000D01*
X162724964Y-87025000D01*
X161224964Y-87025000D01*
X161224964Y-89475000D01*
G37*
%TO.C,J1*%
G36*
X126724964Y-67950000D02*
G01*
X128224964Y-67950000D01*
X128224964Y-65500000D01*
X126724964Y-65500000D01*
X126724964Y-67950000D01*
G37*
%TD*%
D15*
%TO.C,D2*%
X127750000Y-100000000D03*
X127750000Y-96000000D03*
%TD*%
D16*
%TO.C,U6*%
X131450000Y-99150000D03*
X133750000Y-99150000D03*
D17*
X133750000Y-92850000D03*
D16*
X136050000Y-99150000D03*
%TD*%
D18*
%TO.C,R3*%
X153500000Y-101425000D03*
X155325000Y-101425000D03*
%TD*%
D19*
%TO.C,R8*%
X151500000Y-101662500D03*
X151500000Y-99837500D03*
%TD*%
D20*
%TO.C,SW2*%
X151800000Y-104975000D03*
X155200000Y-104975000D03*
%TD*%
D19*
%TO.C,R7*%
X138500000Y-101662500D03*
X138500000Y-99837500D03*
%TD*%
D20*
%TO.C,SW1*%
X138200000Y-104975000D03*
X134800000Y-104975000D03*
%TD*%
D21*
%TO.C,D5*%
X162274964Y-69750000D03*
X158974964Y-69750000D03*
%TD*%
D22*
%TO.C,C8*%
X133200000Y-103750000D03*
X131300000Y-103750000D03*
%TD*%
%TO.C,C13*%
X133200000Y-105750000D03*
X131300000Y-105750000D03*
%TD*%
D23*
%TO.C,U1*%
X136250000Y-58930000D03*
X136250000Y-60200000D03*
X136250000Y-61470000D03*
X136250000Y-62740000D03*
X136250000Y-64010000D03*
X136250000Y-65280000D03*
X136250000Y-66550000D03*
X136250000Y-67820000D03*
X136250000Y-69090000D03*
X136250000Y-70360000D03*
X136250000Y-71630000D03*
X136250000Y-72900000D03*
X136250000Y-74170000D03*
X136250000Y-75440000D03*
D24*
X138015000Y-76690000D03*
X139285000Y-76690000D03*
X140555000Y-76690000D03*
X141825000Y-76690000D03*
X143095000Y-76690000D03*
X144365000Y-76690000D03*
X145635000Y-76690000D03*
X146905000Y-76690000D03*
X148175000Y-76690000D03*
X149445000Y-76690000D03*
X150715000Y-76690000D03*
X151985000Y-76690000D03*
D23*
X153750000Y-75440000D03*
X153750000Y-74170000D03*
X153750000Y-72900000D03*
X153750000Y-71630000D03*
X153750000Y-70360000D03*
X153750000Y-69090000D03*
X153750000Y-67820000D03*
X153750000Y-66550000D03*
X153750000Y-65280000D03*
X153750000Y-64010000D03*
X153750000Y-62740000D03*
X153750000Y-61470000D03*
X153750000Y-60200000D03*
X153750000Y-58930000D03*
D25*
X142100000Y-65950000D03*
X142100000Y-67350000D03*
X142800000Y-65250000D03*
X142800000Y-66650000D03*
X142800000Y-68050000D03*
X143500000Y-65950000D03*
D26*
X143500000Y-66650000D03*
D25*
X143500000Y-67350000D03*
X144200000Y-65250000D03*
X144200000Y-66650000D03*
X144200000Y-68050000D03*
X144900000Y-65950000D03*
X144900000Y-67350000D03*
%TD*%
D27*
%TO.C,J9*%
X149320000Y-104825000D03*
D28*
X149320000Y-100645000D03*
D27*
X140680000Y-104825000D03*
D28*
X140680000Y-100645000D03*
D29*
X141800000Y-100070000D03*
X142600000Y-100070000D03*
D30*
X143250000Y-100070000D03*
X144250000Y-100070000D03*
X145750000Y-100070000D03*
X146750000Y-100070000D03*
D29*
X147400000Y-100070000D03*
X148200000Y-100070000D03*
X148200000Y-100070000D03*
X147400000Y-100070000D03*
D30*
X146250000Y-100070000D03*
X145250000Y-100070000D03*
X144750000Y-100070000D03*
X143750000Y-100070000D03*
D29*
X142600000Y-100070000D03*
X141800000Y-100070000D03*
D31*
X147890000Y-101145000D03*
X142110000Y-101145000D03*
%TD*%
D32*
%TO.C,H4*%
X162500000Y-105000000D03*
%TD*%
%TO.C,H3*%
X127500000Y-105000000D03*
%TD*%
%TO.C,H2*%
X162500000Y-60000000D03*
%TD*%
%TO.C,H1*%
X127500000Y-60000000D03*
%TD*%
D33*
%TO.C,U3*%
X143440000Y-84225000D03*
X144710000Y-84225000D03*
X145980000Y-84225000D03*
X147250000Y-84225000D03*
X148520000Y-84225000D03*
X149790000Y-84225000D03*
X151060000Y-84225000D03*
X151060000Y-79275000D03*
X149790000Y-79275000D03*
X148520000Y-79275000D03*
X147250000Y-79275000D03*
X145980000Y-79275000D03*
X144710000Y-79275000D03*
X143440000Y-79275000D03*
%TD*%
D34*
%TO.C,C15*%
X139000000Y-81450000D03*
X139000000Y-79550000D03*
%TD*%
D35*
%TO.C,J4*%
X128000000Y-89000000D03*
D36*
X128000000Y-87550000D03*
%TD*%
%TO.C,J6*%
X161974964Y-66000000D03*
D35*
X161974964Y-67450000D03*
%TD*%
%TO.C,J5*%
X161974964Y-88975000D03*
D36*
X161974964Y-87525000D03*
%TD*%
%TO.C,J1*%
X127474964Y-66000000D03*
D35*
X127474964Y-67450000D03*
%TD*%
D37*
%TO.C,D3*%
X130500000Y-86600000D03*
X130500000Y-89900000D03*
%TD*%
%TO.C,D4*%
X159474964Y-86675000D03*
X159474964Y-89975000D03*
%TD*%
D38*
%TO.C,J3*%
X158500000Y-92750000D03*
D39*
X155960000Y-92750000D03*
X153420000Y-92750000D03*
X150880000Y-92750000D03*
%TD*%
D40*
%TO.C,J2*%
X146000000Y-95450000D03*
D41*
X144000000Y-95450000D03*
%TD*%
D42*
%TO.C,Q1*%
X131599964Y-66950000D03*
X131599964Y-65050000D03*
X129724964Y-66000000D03*
%TD*%
D43*
%TO.C,Q5*%
X159724964Y-66000000D03*
X157849964Y-66950000D03*
X157849964Y-65050000D03*
%TD*%
D19*
%TO.C,R2*%
X132224964Y-70662500D03*
X132224964Y-68837500D03*
%TD*%
D44*
%TO.C,R4*%
X132000000Y-83250000D03*
X132000000Y-85075000D03*
%TD*%
D19*
%TO.C,R5*%
X157974964Y-85050000D03*
X157974964Y-83225000D03*
%TD*%
D38*
%TO.C,J8*%
X158550000Y-96500000D03*
D39*
X156010000Y-96500000D03*
X153470000Y-96500000D03*
X150930000Y-96500000D03*
%TD*%
D45*
%TO.C,Q2*%
X138300000Y-97687500D03*
X140200000Y-97687500D03*
X139250000Y-95812500D03*
%TD*%
D42*
%TO.C,Q3*%
X128000000Y-84000000D03*
X129875000Y-83050000D03*
X129875000Y-84950000D03*
%TD*%
D43*
%TO.C,Q4*%
X161974964Y-83975000D03*
X160099964Y-84925000D03*
X160099964Y-83025000D03*
%TD*%
D46*
%TO.C,R1*%
X130087500Y-63250000D03*
X131912500Y-63250000D03*
%TD*%
D47*
%TO.C,U5*%
X141300000Y-83600000D03*
X139000000Y-83600000D03*
D48*
X139000000Y-89900000D03*
D47*
X136700000Y-83600000D03*
%TD*%
D19*
%TO.C,R6*%
X157224964Y-70662500D03*
X157224964Y-68837500D03*
%TD*%
D49*
%TO.C,U4*%
X143500000Y-87250000D03*
X143500000Y-87650000D03*
X143500000Y-88050000D03*
X143500000Y-88450000D03*
X143500000Y-88850000D03*
X143500000Y-89250000D03*
D50*
X144000000Y-89750000D03*
X144400000Y-89750000D03*
X144800000Y-89750000D03*
X145200000Y-89750000D03*
X145600000Y-89750000D03*
X146000000Y-89750000D03*
D49*
X146500000Y-89250000D03*
X146500000Y-88850000D03*
X146500000Y-88450000D03*
X146500000Y-88050000D03*
X146500000Y-87650000D03*
X146500000Y-87250000D03*
D50*
X146000000Y-86750000D03*
X145600000Y-86750000D03*
X145200000Y-86750000D03*
X144800000Y-86750000D03*
X144400000Y-86750000D03*
X144000000Y-86750000D03*
%TD*%
D34*
%TO.C,C1*%
X131500000Y-58550000D03*
X131500000Y-60450000D03*
%TD*%
D51*
%TO.C,C4*%
X133750000Y-62050000D03*
X133750000Y-63950000D03*
%TD*%
D22*
%TO.C,C9*%
X129724964Y-72100000D03*
X127824964Y-72100000D03*
%TD*%
D52*
%TO.C,C12*%
X159774964Y-72000000D03*
X161674964Y-72000000D03*
%TD*%
%TO.C,C5*%
X133700000Y-72750000D03*
X131800000Y-72750000D03*
%TD*%
%TO.C,C6*%
X133700000Y-77250000D03*
X131800000Y-77250000D03*
%TD*%
D22*
%TO.C,C3*%
X147950000Y-91750000D03*
X146050000Y-91750000D03*
%TD*%
%TO.C,C7*%
X136500000Y-101425000D03*
X134600000Y-101425000D03*
%TD*%
D34*
%TO.C,C2*%
X133750000Y-58550000D03*
X133750000Y-60450000D03*
%TD*%
%TO.C,C11*%
X157224964Y-87525000D03*
X157224964Y-89425000D03*
%TD*%
%TO.C,C10*%
X132750000Y-87300000D03*
X132750000Y-89200000D03*
%TD*%
%TO.C,C16*%
X148250000Y-89200000D03*
X148250000Y-87300000D03*
%TD*%
%TO.C,C14*%
X136750000Y-81450000D03*
X136750000Y-79550000D03*
%TD*%
D53*
%TO.C,D1*%
X127224964Y-69850000D03*
X130524964Y-69850000D03*
%TD*%
D52*
%TO.C,C17*%
X142100000Y-92250000D03*
X144000000Y-92250000D03*
%TD*%
%LPD*%
D10*
%TO.C,J9*%
X150000000Y-107425000D02*
X140000000Y-107425000D01*
%TD*%
D54*
X165000000Y-60000000D02*
X165000000Y-105000000D01*
X127500000Y-57500000D02*
X162500000Y-57500000D01*
X125000000Y-105000000D02*
X125000000Y-60000000D01*
X162500000Y-107500000D02*
X127500000Y-107500000D01*
X162500000Y-57500000D02*
G75*
G02*
X165000000Y-60000000I0J-2500000D01*
G01*
X125000000Y-60000000D02*
G75*
G02*
X127500000Y-57500000I2500000J0D01*
G01*
X127500000Y-107500000D02*
G75*
G02*
X125000000Y-105000000I0J2500000D01*
G01*
X165000000Y-105000000D02*
G75*
G02*
X162500000Y-107500000I-2500000J0D01*
G01*
M02*
