%TF.GenerationSoftware,KiCad,Pcbnew,9.0.0*%
%TF.CreationDate,2025-03-29T01:57:50-05:00*%
%TF.ProjectId,dronedrivers,64726f6e-6564-4726-9976-6572732e6b69,rev?*%
%TF.SameCoordinates,Original*%
%TF.FileFunction,Soldermask,Top*%
%TF.FilePolarity,Negative*%
%FSLAX46Y46*%
G04 Gerber Fmt 4.6, Leading zero omitted, Abs format (unit mm)*
G04 Created by KiCad (PCBNEW 9.0.0) date 2025-03-29 01:57:50*
%MOMM*%
%LPD*%
G01*
G04 APERTURE LIST*
G04 Aperture macros list*
%AMRoundRect*
0 Rectangle with rounded corners*
0 $1 Rounding radius*
0 $2 $3 $4 $5 $6 $7 $8 $9 X,Y pos of 4 corners*
0 Add a 4 corners polygon primitive as box body*
4,1,4,$2,$3,$4,$5,$6,$7,$8,$9,$2,$3,0*
0 Add four circle primitives for the rounded corners*
1,1,$1+$1,$2,$3*
1,1,$1+$1,$4,$5*
1,1,$1+$1,$6,$7*
1,1,$1+$1,$8,$9*
0 Add four rect primitives between the rounded corners*
20,1,$1+$1,$2,$3,$4,$5,0*
20,1,$1+$1,$4,$5,$6,$7,0*
20,1,$1+$1,$6,$7,$8,$9,0*
20,1,$1+$1,$8,$9,$2,$3,0*%
%AMFreePoly0*
4,1,6,1.000000,0.000000,0.500000,-0.750000,-0.500000,-0.750000,-0.500000,0.750000,0.500000,0.750000,1.000000,0.000000,1.000000,0.000000,$1*%
%AMFreePoly1*
4,1,6,0.500000,-0.750000,-0.650000,-0.750000,-0.150000,0.000000,-0.650000,0.750000,0.500000,0.750000,0.500000,-0.750000,0.500000,-0.750000,$1*%
G04 Aperture macros list end*
%ADD10C,0.100000*%
%ADD11C,0.150000*%
%ADD12C,0.300000*%
%ADD13C,0.400000*%
%ADD14RoundRect,0.250000X-0.650000X1.000000X-0.650000X-1.000000X0.650000X-1.000000X0.650000X1.000000X0*%
%ADD15RoundRect,0.375000X0.375000X-0.625000X0.375000X0.625000X-0.375000X0.625000X-0.375000X-0.625000X0*%
%ADD16RoundRect,0.500000X1.400000X-0.500000X1.400000X0.500000X-1.400000X0.500000X-1.400000X-0.500000X0*%
%ADD17RoundRect,0.250000X0.262500X0.450000X-0.262500X0.450000X-0.262500X-0.450000X0.262500X-0.450000X0*%
%ADD18RoundRect,0.250000X-0.450000X0.262500X-0.450000X-0.262500X0.450000X-0.262500X0.450000X0.262500X0*%
%ADD19R,0.900000X1.700000*%
%ADD20RoundRect,0.225000X0.225000X0.375000X-0.225000X0.375000X-0.225000X-0.375000X0.225000X-0.375000X0*%
%ADD21RoundRect,0.250000X-0.250000X-0.475000X0.250000X-0.475000X0.250000X0.475000X-0.250000X0.475000X0*%
%ADD22R,1.500000X0.900000*%
%ADD23R,0.900000X1.500000*%
%ADD24C,0.600000*%
%ADD25R,3.900000X3.900000*%
%ADD26O,1.000000X1.800000*%
%ADD27O,1.000000X2.100000*%
%ADD28RoundRect,0.150000X-0.150000X-0.425000X0.150000X-0.425000X0.150000X0.425000X-0.150000X0.425000X0*%
%ADD29RoundRect,0.075000X-0.075000X-0.500000X0.075000X-0.500000X0.075000X0.500000X-0.075000X0.500000X0*%
%ADD30C,0.650000*%
%ADD31C,2.100000*%
%ADD32RoundRect,0.150000X0.150000X-0.825000X0.150000X0.825000X-0.150000X0.825000X-0.150000X-0.825000X0*%
%ADD33RoundRect,0.250000X0.475000X-0.250000X0.475000X0.250000X-0.475000X0.250000X-0.475000X-0.250000X0*%
%ADD34FreePoly0,90.000000*%
%ADD35FreePoly1,90.000000*%
%ADD36RoundRect,0.225000X0.375000X-0.225000X0.375000X0.225000X-0.375000X0.225000X-0.375000X-0.225000X0*%
%ADD37R,1.700000X1.700000*%
%ADD38O,1.700000X1.700000*%
%ADD39O,1.200000X1.750000*%
%ADD40RoundRect,0.250000X-0.350000X-0.625000X0.350000X-0.625000X0.350000X0.625000X-0.350000X0.625000X0*%
%ADD41RoundRect,0.150000X0.587500X0.150000X-0.587500X0.150000X-0.587500X-0.150000X0.587500X-0.150000X0*%
%ADD42RoundRect,0.150000X-0.587500X-0.150000X0.587500X-0.150000X0.587500X0.150000X-0.587500X0.150000X0*%
%ADD43RoundRect,0.250000X0.450000X-0.262500X0.450000X0.262500X-0.450000X0.262500X-0.450000X-0.262500X0*%
%ADD44RoundRect,0.150000X0.150000X-0.587500X0.150000X0.587500X-0.150000X0.587500X-0.150000X-0.587500X0*%
%ADD45RoundRect,0.250000X-0.262500X-0.450000X0.262500X-0.450000X0.262500X0.450000X-0.262500X0.450000X0*%
%ADD46RoundRect,0.375000X-0.375000X0.625000X-0.375000X-0.625000X0.375000X-0.625000X0.375000X0.625000X0*%
%ADD47RoundRect,0.500000X-1.400000X0.500000X-1.400000X-0.500000X1.400000X-0.500000X1.400000X0.500000X0*%
%ADD48RoundRect,0.050000X-0.225000X-0.050000X0.225000X-0.050000X0.225000X0.050000X-0.225000X0.050000X0*%
%ADD49RoundRect,0.050000X0.050000X-0.225000X0.050000X0.225000X-0.050000X0.225000X-0.050000X-0.225000X0*%
%ADD50RoundRect,0.250000X-0.475000X0.250000X-0.475000X-0.250000X0.475000X-0.250000X0.475000X0.250000X0*%
%ADD51RoundRect,0.250000X0.250000X0.475000X-0.250000X0.475000X-0.250000X-0.475000X0.250000X-0.475000X0*%
%ADD52RoundRect,0.225000X-0.225000X-0.375000X0.225000X-0.375000X0.225000X0.375000X-0.225000X0.375000X0*%
%TA.AperFunction,Profile*%
%ADD53C,0.050000*%
%TD*%
G04 APERTURE END LIST*
D10*
D11*
X177002200Y-166007200D02*
X285002200Y-166007200D01*
X285002200Y-198007200D01*
X177002200Y-198007200D01*
X177002200Y-166007200D01*
D10*
D11*
X10000000Y-10000000D02*
X287002200Y-10000000D01*
X287002200Y-200007200D01*
X10000000Y-200007200D01*
X10000000Y-10000000D01*
D10*
D11*
X12000000Y-12000000D02*
X285002200Y-12000000D01*
X285002200Y-198007200D01*
X12000000Y-198007200D01*
X12000000Y-12000000D01*
D10*
D11*
X60000000Y-12000000D02*
X60000000Y-10000000D01*
D10*
D11*
X110000000Y-12000000D02*
X110000000Y-10000000D01*
D10*
D11*
X160000000Y-12000000D02*
X160000000Y-10000000D01*
D10*
D11*
X210000000Y-12000000D02*
X210000000Y-10000000D01*
D10*
D11*
X260000000Y-12000000D02*
X260000000Y-10000000D01*
D10*
D11*
X36089160Y-11593604D02*
X35346303Y-11593604D01*
X35717731Y-11593604D02*
X35717731Y-10293604D01*
X35717731Y-10293604D02*
X35593922Y-10479319D01*
X35593922Y-10479319D02*
X35470112Y-10603128D01*
X35470112Y-10603128D02*
X35346303Y-10665033D01*
D10*
D11*
X85346303Y-10417414D02*
X85408207Y-10355509D01*
X85408207Y-10355509D02*
X85532017Y-10293604D01*
X85532017Y-10293604D02*
X85841541Y-10293604D01*
X85841541Y-10293604D02*
X85965350Y-10355509D01*
X85965350Y-10355509D02*
X86027255Y-10417414D01*
X86027255Y-10417414D02*
X86089160Y-10541223D01*
X86089160Y-10541223D02*
X86089160Y-10665033D01*
X86089160Y-10665033D02*
X86027255Y-10850747D01*
X86027255Y-10850747D02*
X85284398Y-11593604D01*
X85284398Y-11593604D02*
X86089160Y-11593604D01*
D10*
D11*
X135284398Y-10293604D02*
X136089160Y-10293604D01*
X136089160Y-10293604D02*
X135655826Y-10788842D01*
X135655826Y-10788842D02*
X135841541Y-10788842D01*
X135841541Y-10788842D02*
X135965350Y-10850747D01*
X135965350Y-10850747D02*
X136027255Y-10912652D01*
X136027255Y-10912652D02*
X136089160Y-11036461D01*
X136089160Y-11036461D02*
X136089160Y-11345985D01*
X136089160Y-11345985D02*
X136027255Y-11469795D01*
X136027255Y-11469795D02*
X135965350Y-11531700D01*
X135965350Y-11531700D02*
X135841541Y-11593604D01*
X135841541Y-11593604D02*
X135470112Y-11593604D01*
X135470112Y-11593604D02*
X135346303Y-11531700D01*
X135346303Y-11531700D02*
X135284398Y-11469795D01*
D10*
D11*
X185965350Y-10726938D02*
X185965350Y-11593604D01*
X185655826Y-10231700D02*
X185346303Y-11160271D01*
X185346303Y-11160271D02*
X186151064Y-11160271D01*
D10*
D11*
X236027255Y-10293604D02*
X235408207Y-10293604D01*
X235408207Y-10293604D02*
X235346303Y-10912652D01*
X235346303Y-10912652D02*
X235408207Y-10850747D01*
X235408207Y-10850747D02*
X235532017Y-10788842D01*
X235532017Y-10788842D02*
X235841541Y-10788842D01*
X235841541Y-10788842D02*
X235965350Y-10850747D01*
X235965350Y-10850747D02*
X236027255Y-10912652D01*
X236027255Y-10912652D02*
X236089160Y-11036461D01*
X236089160Y-11036461D02*
X236089160Y-11345985D01*
X236089160Y-11345985D02*
X236027255Y-11469795D01*
X236027255Y-11469795D02*
X235965350Y-11531700D01*
X235965350Y-11531700D02*
X235841541Y-11593604D01*
X235841541Y-11593604D02*
X235532017Y-11593604D01*
X235532017Y-11593604D02*
X235408207Y-11531700D01*
X235408207Y-11531700D02*
X235346303Y-11469795D01*
D10*
D11*
X285965350Y-10293604D02*
X285717731Y-10293604D01*
X285717731Y-10293604D02*
X285593922Y-10355509D01*
X285593922Y-10355509D02*
X285532017Y-10417414D01*
X285532017Y-10417414D02*
X285408207Y-10603128D01*
X285408207Y-10603128D02*
X285346303Y-10850747D01*
X285346303Y-10850747D02*
X285346303Y-11345985D01*
X285346303Y-11345985D02*
X285408207Y-11469795D01*
X285408207Y-11469795D02*
X285470112Y-11531700D01*
X285470112Y-11531700D02*
X285593922Y-11593604D01*
X285593922Y-11593604D02*
X285841541Y-11593604D01*
X285841541Y-11593604D02*
X285965350Y-11531700D01*
X285965350Y-11531700D02*
X286027255Y-11469795D01*
X286027255Y-11469795D02*
X286089160Y-11345985D01*
X286089160Y-11345985D02*
X286089160Y-11036461D01*
X286089160Y-11036461D02*
X286027255Y-10912652D01*
X286027255Y-10912652D02*
X285965350Y-10850747D01*
X285965350Y-10850747D02*
X285841541Y-10788842D01*
X285841541Y-10788842D02*
X285593922Y-10788842D01*
X285593922Y-10788842D02*
X285470112Y-10850747D01*
X285470112Y-10850747D02*
X285408207Y-10912652D01*
X285408207Y-10912652D02*
X285346303Y-11036461D01*
D10*
D11*
X60000000Y-198007200D02*
X60000000Y-200007200D01*
D10*
D11*
X110000000Y-198007200D02*
X110000000Y-200007200D01*
D10*
D11*
X160000000Y-198007200D02*
X160000000Y-200007200D01*
D10*
D11*
X210000000Y-198007200D02*
X210000000Y-200007200D01*
D10*
D11*
X260000000Y-198007200D02*
X260000000Y-200007200D01*
D10*
D11*
X36089160Y-199600804D02*
X35346303Y-199600804D01*
X35717731Y-199600804D02*
X35717731Y-198300804D01*
X35717731Y-198300804D02*
X35593922Y-198486519D01*
X35593922Y-198486519D02*
X35470112Y-198610328D01*
X35470112Y-198610328D02*
X35346303Y-198672233D01*
D10*
D11*
X85346303Y-198424614D02*
X85408207Y-198362709D01*
X85408207Y-198362709D02*
X85532017Y-198300804D01*
X85532017Y-198300804D02*
X85841541Y-198300804D01*
X85841541Y-198300804D02*
X85965350Y-198362709D01*
X85965350Y-198362709D02*
X86027255Y-198424614D01*
X86027255Y-198424614D02*
X86089160Y-198548423D01*
X86089160Y-198548423D02*
X86089160Y-198672233D01*
X86089160Y-198672233D02*
X86027255Y-198857947D01*
X86027255Y-198857947D02*
X85284398Y-199600804D01*
X85284398Y-199600804D02*
X86089160Y-199600804D01*
D10*
D11*
X135284398Y-198300804D02*
X136089160Y-198300804D01*
X136089160Y-198300804D02*
X135655826Y-198796042D01*
X135655826Y-198796042D02*
X135841541Y-198796042D01*
X135841541Y-198796042D02*
X135965350Y-198857947D01*
X135965350Y-198857947D02*
X136027255Y-198919852D01*
X136027255Y-198919852D02*
X136089160Y-199043661D01*
X136089160Y-199043661D02*
X136089160Y-199353185D01*
X136089160Y-199353185D02*
X136027255Y-199476995D01*
X136027255Y-199476995D02*
X135965350Y-199538900D01*
X135965350Y-199538900D02*
X135841541Y-199600804D01*
X135841541Y-199600804D02*
X135470112Y-199600804D01*
X135470112Y-199600804D02*
X135346303Y-199538900D01*
X135346303Y-199538900D02*
X135284398Y-199476995D01*
D10*
D11*
X185965350Y-198734138D02*
X185965350Y-199600804D01*
X185655826Y-198238900D02*
X185346303Y-199167471D01*
X185346303Y-199167471D02*
X186151064Y-199167471D01*
D10*
D11*
X236027255Y-198300804D02*
X235408207Y-198300804D01*
X235408207Y-198300804D02*
X235346303Y-198919852D01*
X235346303Y-198919852D02*
X235408207Y-198857947D01*
X235408207Y-198857947D02*
X235532017Y-198796042D01*
X235532017Y-198796042D02*
X235841541Y-198796042D01*
X235841541Y-198796042D02*
X235965350Y-198857947D01*
X235965350Y-198857947D02*
X236027255Y-198919852D01*
X236027255Y-198919852D02*
X236089160Y-199043661D01*
X236089160Y-199043661D02*
X236089160Y-199353185D01*
X236089160Y-199353185D02*
X236027255Y-199476995D01*
X236027255Y-199476995D02*
X235965350Y-199538900D01*
X235965350Y-199538900D02*
X235841541Y-199600804D01*
X235841541Y-199600804D02*
X235532017Y-199600804D01*
X235532017Y-199600804D02*
X235408207Y-199538900D01*
X235408207Y-199538900D02*
X235346303Y-199476995D01*
D10*
D11*
X285965350Y-198300804D02*
X285717731Y-198300804D01*
X285717731Y-198300804D02*
X285593922Y-198362709D01*
X285593922Y-198362709D02*
X285532017Y-198424614D01*
X285532017Y-198424614D02*
X285408207Y-198610328D01*
X285408207Y-198610328D02*
X285346303Y-198857947D01*
X285346303Y-198857947D02*
X285346303Y-199353185D01*
X285346303Y-199353185D02*
X285408207Y-199476995D01*
X285408207Y-199476995D02*
X285470112Y-199538900D01*
X285470112Y-199538900D02*
X285593922Y-199600804D01*
X285593922Y-199600804D02*
X285841541Y-199600804D01*
X285841541Y-199600804D02*
X285965350Y-199538900D01*
X285965350Y-199538900D02*
X286027255Y-199476995D01*
X286027255Y-199476995D02*
X286089160Y-199353185D01*
X286089160Y-199353185D02*
X286089160Y-199043661D01*
X286089160Y-199043661D02*
X286027255Y-198919852D01*
X286027255Y-198919852D02*
X285965350Y-198857947D01*
X285965350Y-198857947D02*
X285841541Y-198796042D01*
X285841541Y-198796042D02*
X285593922Y-198796042D01*
X285593922Y-198796042D02*
X285470112Y-198857947D01*
X285470112Y-198857947D02*
X285408207Y-198919852D01*
X285408207Y-198919852D02*
X285346303Y-199043661D01*
D10*
D11*
X10000000Y-60000000D02*
X12000000Y-60000000D01*
D10*
D11*
X10000000Y-110000000D02*
X12000000Y-110000000D01*
D10*
D11*
X10000000Y-160000000D02*
X12000000Y-160000000D01*
D10*
D11*
X10690476Y-35222176D02*
X11309523Y-35222176D01*
X10566666Y-35593604D02*
X10999999Y-34293604D01*
X10999999Y-34293604D02*
X11433333Y-35593604D01*
D10*
D11*
X11092857Y-84912652D02*
X11278571Y-84974557D01*
X11278571Y-84974557D02*
X11340476Y-85036461D01*
X11340476Y-85036461D02*
X11402380Y-85160271D01*
X11402380Y-85160271D02*
X11402380Y-85345985D01*
X11402380Y-85345985D02*
X11340476Y-85469795D01*
X11340476Y-85469795D02*
X11278571Y-85531700D01*
X11278571Y-85531700D02*
X11154761Y-85593604D01*
X11154761Y-85593604D02*
X10659523Y-85593604D01*
X10659523Y-85593604D02*
X10659523Y-84293604D01*
X10659523Y-84293604D02*
X11092857Y-84293604D01*
X11092857Y-84293604D02*
X11216666Y-84355509D01*
X11216666Y-84355509D02*
X11278571Y-84417414D01*
X11278571Y-84417414D02*
X11340476Y-84541223D01*
X11340476Y-84541223D02*
X11340476Y-84665033D01*
X11340476Y-84665033D02*
X11278571Y-84788842D01*
X11278571Y-84788842D02*
X11216666Y-84850747D01*
X11216666Y-84850747D02*
X11092857Y-84912652D01*
X11092857Y-84912652D02*
X10659523Y-84912652D01*
D10*
D11*
X11402380Y-135469795D02*
X11340476Y-135531700D01*
X11340476Y-135531700D02*
X11154761Y-135593604D01*
X11154761Y-135593604D02*
X11030952Y-135593604D01*
X11030952Y-135593604D02*
X10845238Y-135531700D01*
X10845238Y-135531700D02*
X10721428Y-135407890D01*
X10721428Y-135407890D02*
X10659523Y-135284080D01*
X10659523Y-135284080D02*
X10597619Y-135036461D01*
X10597619Y-135036461D02*
X10597619Y-134850747D01*
X10597619Y-134850747D02*
X10659523Y-134603128D01*
X10659523Y-134603128D02*
X10721428Y-134479319D01*
X10721428Y-134479319D02*
X10845238Y-134355509D01*
X10845238Y-134355509D02*
X11030952Y-134293604D01*
X11030952Y-134293604D02*
X11154761Y-134293604D01*
X11154761Y-134293604D02*
X11340476Y-134355509D01*
X11340476Y-134355509D02*
X11402380Y-134417414D01*
D10*
D11*
X10659523Y-185593604D02*
X10659523Y-184293604D01*
X10659523Y-184293604D02*
X10969047Y-184293604D01*
X10969047Y-184293604D02*
X11154761Y-184355509D01*
X11154761Y-184355509D02*
X11278571Y-184479319D01*
X11278571Y-184479319D02*
X11340476Y-184603128D01*
X11340476Y-184603128D02*
X11402380Y-184850747D01*
X11402380Y-184850747D02*
X11402380Y-185036461D01*
X11402380Y-185036461D02*
X11340476Y-185284080D01*
X11340476Y-185284080D02*
X11278571Y-185407890D01*
X11278571Y-185407890D02*
X11154761Y-185531700D01*
X11154761Y-185531700D02*
X10969047Y-185593604D01*
X10969047Y-185593604D02*
X10659523Y-185593604D01*
D10*
D11*
X287002200Y-60000000D02*
X285002200Y-60000000D01*
D10*
D11*
X287002200Y-110000000D02*
X285002200Y-110000000D01*
D10*
D11*
X287002200Y-160000000D02*
X285002200Y-160000000D01*
D10*
D11*
X285692676Y-35222176D02*
X286311723Y-35222176D01*
X285568866Y-35593604D02*
X286002199Y-34293604D01*
X286002199Y-34293604D02*
X286435533Y-35593604D01*
D10*
D11*
X286095057Y-84912652D02*
X286280771Y-84974557D01*
X286280771Y-84974557D02*
X286342676Y-85036461D01*
X286342676Y-85036461D02*
X286404580Y-85160271D01*
X286404580Y-85160271D02*
X286404580Y-85345985D01*
X286404580Y-85345985D02*
X286342676Y-85469795D01*
X286342676Y-85469795D02*
X286280771Y-85531700D01*
X286280771Y-85531700D02*
X286156961Y-85593604D01*
X286156961Y-85593604D02*
X285661723Y-85593604D01*
X285661723Y-85593604D02*
X285661723Y-84293604D01*
X285661723Y-84293604D02*
X286095057Y-84293604D01*
X286095057Y-84293604D02*
X286218866Y-84355509D01*
X286218866Y-84355509D02*
X286280771Y-84417414D01*
X286280771Y-84417414D02*
X286342676Y-84541223D01*
X286342676Y-84541223D02*
X286342676Y-84665033D01*
X286342676Y-84665033D02*
X286280771Y-84788842D01*
X286280771Y-84788842D02*
X286218866Y-84850747D01*
X286218866Y-84850747D02*
X286095057Y-84912652D01*
X286095057Y-84912652D02*
X285661723Y-84912652D01*
D10*
D11*
X286404580Y-135469795D02*
X286342676Y-135531700D01*
X286342676Y-135531700D02*
X286156961Y-135593604D01*
X286156961Y-135593604D02*
X286033152Y-135593604D01*
X286033152Y-135593604D02*
X285847438Y-135531700D01*
X285847438Y-135531700D02*
X285723628Y-135407890D01*
X285723628Y-135407890D02*
X285661723Y-135284080D01*
X285661723Y-135284080D02*
X285599819Y-135036461D01*
X285599819Y-135036461D02*
X285599819Y-134850747D01*
X285599819Y-134850747D02*
X285661723Y-134603128D01*
X285661723Y-134603128D02*
X285723628Y-134479319D01*
X285723628Y-134479319D02*
X285847438Y-134355509D01*
X285847438Y-134355509D02*
X286033152Y-134293604D01*
X286033152Y-134293604D02*
X286156961Y-134293604D01*
X286156961Y-134293604D02*
X286342676Y-134355509D01*
X286342676Y-134355509D02*
X286404580Y-134417414D01*
D10*
D11*
X285661723Y-185593604D02*
X285661723Y-184293604D01*
X285661723Y-184293604D02*
X285971247Y-184293604D01*
X285971247Y-184293604D02*
X286156961Y-184355509D01*
X286156961Y-184355509D02*
X286280771Y-184479319D01*
X286280771Y-184479319D02*
X286342676Y-184603128D01*
X286342676Y-184603128D02*
X286404580Y-184850747D01*
X286404580Y-184850747D02*
X286404580Y-185036461D01*
X286404580Y-185036461D02*
X286342676Y-185284080D01*
X286342676Y-185284080D02*
X286280771Y-185407890D01*
X286280771Y-185407890D02*
X286156961Y-185531700D01*
X286156961Y-185531700D02*
X285971247Y-185593604D01*
X285971247Y-185593604D02*
X285661723Y-185593604D01*
D10*
D11*
X200458026Y-193793328D02*
X200458026Y-192293328D01*
X200458026Y-192293328D02*
X200815169Y-192293328D01*
X200815169Y-192293328D02*
X201029455Y-192364757D01*
X201029455Y-192364757D02*
X201172312Y-192507614D01*
X201172312Y-192507614D02*
X201243741Y-192650471D01*
X201243741Y-192650471D02*
X201315169Y-192936185D01*
X201315169Y-192936185D02*
X201315169Y-193150471D01*
X201315169Y-193150471D02*
X201243741Y-193436185D01*
X201243741Y-193436185D02*
X201172312Y-193579042D01*
X201172312Y-193579042D02*
X201029455Y-193721900D01*
X201029455Y-193721900D02*
X200815169Y-193793328D01*
X200815169Y-193793328D02*
X200458026Y-193793328D01*
X202600884Y-193793328D02*
X202600884Y-193007614D01*
X202600884Y-193007614D02*
X202529455Y-192864757D01*
X202529455Y-192864757D02*
X202386598Y-192793328D01*
X202386598Y-192793328D02*
X202100884Y-192793328D01*
X202100884Y-192793328D02*
X201958026Y-192864757D01*
X202600884Y-193721900D02*
X202458026Y-193793328D01*
X202458026Y-193793328D02*
X202100884Y-193793328D01*
X202100884Y-193793328D02*
X201958026Y-193721900D01*
X201958026Y-193721900D02*
X201886598Y-193579042D01*
X201886598Y-193579042D02*
X201886598Y-193436185D01*
X201886598Y-193436185D02*
X201958026Y-193293328D01*
X201958026Y-193293328D02*
X202100884Y-193221900D01*
X202100884Y-193221900D02*
X202458026Y-193221900D01*
X202458026Y-193221900D02*
X202600884Y-193150471D01*
X203100884Y-192793328D02*
X203672312Y-192793328D01*
X203315169Y-192293328D02*
X203315169Y-193579042D01*
X203315169Y-193579042D02*
X203386598Y-193721900D01*
X203386598Y-193721900D02*
X203529455Y-193793328D01*
X203529455Y-193793328D02*
X203672312Y-193793328D01*
X204743741Y-193721900D02*
X204600884Y-193793328D01*
X204600884Y-193793328D02*
X204315170Y-193793328D01*
X204315170Y-193793328D02*
X204172312Y-193721900D01*
X204172312Y-193721900D02*
X204100884Y-193579042D01*
X204100884Y-193579042D02*
X204100884Y-193007614D01*
X204100884Y-193007614D02*
X204172312Y-192864757D01*
X204172312Y-192864757D02*
X204315170Y-192793328D01*
X204315170Y-192793328D02*
X204600884Y-192793328D01*
X204600884Y-192793328D02*
X204743741Y-192864757D01*
X204743741Y-192864757D02*
X204815170Y-193007614D01*
X204815170Y-193007614D02*
X204815170Y-193150471D01*
X204815170Y-193150471D02*
X204100884Y-193293328D01*
X205458026Y-193650471D02*
X205529455Y-193721900D01*
X205529455Y-193721900D02*
X205458026Y-193793328D01*
X205458026Y-193793328D02*
X205386598Y-193721900D01*
X205386598Y-193721900D02*
X205458026Y-193650471D01*
X205458026Y-193650471D02*
X205458026Y-193793328D01*
X205458026Y-192864757D02*
X205529455Y-192936185D01*
X205529455Y-192936185D02*
X205458026Y-193007614D01*
X205458026Y-193007614D02*
X205386598Y-192936185D01*
X205386598Y-192936185D02*
X205458026Y-192864757D01*
X205458026Y-192864757D02*
X205458026Y-193007614D01*
D10*
D11*
X177002200Y-194507200D02*
X285002200Y-194507200D01*
D10*
D11*
X178458026Y-196593328D02*
X178458026Y-195093328D01*
X179315169Y-196593328D02*
X178672312Y-195736185D01*
X179315169Y-195093328D02*
X178458026Y-195950471D01*
X179958026Y-196593328D02*
X179958026Y-195593328D01*
X179958026Y-195093328D02*
X179886598Y-195164757D01*
X179886598Y-195164757D02*
X179958026Y-195236185D01*
X179958026Y-195236185D02*
X180029455Y-195164757D01*
X180029455Y-195164757D02*
X179958026Y-195093328D01*
X179958026Y-195093328D02*
X179958026Y-195236185D01*
X181529455Y-196450471D02*
X181458027Y-196521900D01*
X181458027Y-196521900D02*
X181243741Y-196593328D01*
X181243741Y-196593328D02*
X181100884Y-196593328D01*
X181100884Y-196593328D02*
X180886598Y-196521900D01*
X180886598Y-196521900D02*
X180743741Y-196379042D01*
X180743741Y-196379042D02*
X180672312Y-196236185D01*
X180672312Y-196236185D02*
X180600884Y-195950471D01*
X180600884Y-195950471D02*
X180600884Y-195736185D01*
X180600884Y-195736185D02*
X180672312Y-195450471D01*
X180672312Y-195450471D02*
X180743741Y-195307614D01*
X180743741Y-195307614D02*
X180886598Y-195164757D01*
X180886598Y-195164757D02*
X181100884Y-195093328D01*
X181100884Y-195093328D02*
X181243741Y-195093328D01*
X181243741Y-195093328D02*
X181458027Y-195164757D01*
X181458027Y-195164757D02*
X181529455Y-195236185D01*
X182815170Y-196593328D02*
X182815170Y-195807614D01*
X182815170Y-195807614D02*
X182743741Y-195664757D01*
X182743741Y-195664757D02*
X182600884Y-195593328D01*
X182600884Y-195593328D02*
X182315170Y-195593328D01*
X182315170Y-195593328D02*
X182172312Y-195664757D01*
X182815170Y-196521900D02*
X182672312Y-196593328D01*
X182672312Y-196593328D02*
X182315170Y-196593328D01*
X182315170Y-196593328D02*
X182172312Y-196521900D01*
X182172312Y-196521900D02*
X182100884Y-196379042D01*
X182100884Y-196379042D02*
X182100884Y-196236185D01*
X182100884Y-196236185D02*
X182172312Y-196093328D01*
X182172312Y-196093328D02*
X182315170Y-196021900D01*
X182315170Y-196021900D02*
X182672312Y-196021900D01*
X182672312Y-196021900D02*
X182815170Y-195950471D01*
X184172313Y-196593328D02*
X184172313Y-195093328D01*
X184172313Y-196521900D02*
X184029455Y-196593328D01*
X184029455Y-196593328D02*
X183743741Y-196593328D01*
X183743741Y-196593328D02*
X183600884Y-196521900D01*
X183600884Y-196521900D02*
X183529455Y-196450471D01*
X183529455Y-196450471D02*
X183458027Y-196307614D01*
X183458027Y-196307614D02*
X183458027Y-195879042D01*
X183458027Y-195879042D02*
X183529455Y-195736185D01*
X183529455Y-195736185D02*
X183600884Y-195664757D01*
X183600884Y-195664757D02*
X183743741Y-195593328D01*
X183743741Y-195593328D02*
X184029455Y-195593328D01*
X184029455Y-195593328D02*
X184172313Y-195664757D01*
X186029455Y-195807614D02*
X186529455Y-195807614D01*
X186743741Y-196593328D02*
X186029455Y-196593328D01*
X186029455Y-196593328D02*
X186029455Y-195093328D01*
X186029455Y-195093328D02*
X186743741Y-195093328D01*
X187386598Y-196450471D02*
X187458027Y-196521900D01*
X187458027Y-196521900D02*
X187386598Y-196593328D01*
X187386598Y-196593328D02*
X187315170Y-196521900D01*
X187315170Y-196521900D02*
X187386598Y-196450471D01*
X187386598Y-196450471D02*
X187386598Y-196593328D01*
X188100884Y-196593328D02*
X188100884Y-195093328D01*
X188100884Y-195093328D02*
X188458027Y-195093328D01*
X188458027Y-195093328D02*
X188672313Y-195164757D01*
X188672313Y-195164757D02*
X188815170Y-195307614D01*
X188815170Y-195307614D02*
X188886599Y-195450471D01*
X188886599Y-195450471D02*
X188958027Y-195736185D01*
X188958027Y-195736185D02*
X188958027Y-195950471D01*
X188958027Y-195950471D02*
X188886599Y-196236185D01*
X188886599Y-196236185D02*
X188815170Y-196379042D01*
X188815170Y-196379042D02*
X188672313Y-196521900D01*
X188672313Y-196521900D02*
X188458027Y-196593328D01*
X188458027Y-196593328D02*
X188100884Y-196593328D01*
X189600884Y-196450471D02*
X189672313Y-196521900D01*
X189672313Y-196521900D02*
X189600884Y-196593328D01*
X189600884Y-196593328D02*
X189529456Y-196521900D01*
X189529456Y-196521900D02*
X189600884Y-196450471D01*
X189600884Y-196450471D02*
X189600884Y-196593328D01*
X190243742Y-196164757D02*
X190958028Y-196164757D01*
X190100885Y-196593328D02*
X190600885Y-195093328D01*
X190600885Y-195093328D02*
X191100885Y-196593328D01*
X191600884Y-196450471D02*
X191672313Y-196521900D01*
X191672313Y-196521900D02*
X191600884Y-196593328D01*
X191600884Y-196593328D02*
X191529456Y-196521900D01*
X191529456Y-196521900D02*
X191600884Y-196450471D01*
X191600884Y-196450471D02*
X191600884Y-196593328D01*
X193529456Y-196593328D02*
X193815170Y-196593328D01*
X193815170Y-196593328D02*
X193958027Y-196521900D01*
X193958027Y-196521900D02*
X194029456Y-196450471D01*
X194029456Y-196450471D02*
X194172313Y-196236185D01*
X194172313Y-196236185D02*
X194243742Y-195950471D01*
X194243742Y-195950471D02*
X194243742Y-195379042D01*
X194243742Y-195379042D02*
X194172313Y-195236185D01*
X194172313Y-195236185D02*
X194100885Y-195164757D01*
X194100885Y-195164757D02*
X193958027Y-195093328D01*
X193958027Y-195093328D02*
X193672313Y-195093328D01*
X193672313Y-195093328D02*
X193529456Y-195164757D01*
X193529456Y-195164757D02*
X193458027Y-195236185D01*
X193458027Y-195236185D02*
X193386599Y-195379042D01*
X193386599Y-195379042D02*
X193386599Y-195736185D01*
X193386599Y-195736185D02*
X193458027Y-195879042D01*
X193458027Y-195879042D02*
X193529456Y-195950471D01*
X193529456Y-195950471D02*
X193672313Y-196021900D01*
X193672313Y-196021900D02*
X193958027Y-196021900D01*
X193958027Y-196021900D02*
X194100885Y-195950471D01*
X194100885Y-195950471D02*
X194172313Y-195879042D01*
X194172313Y-195879042D02*
X194243742Y-195736185D01*
X194886598Y-196450471D02*
X194958027Y-196521900D01*
X194958027Y-196521900D02*
X194886598Y-196593328D01*
X194886598Y-196593328D02*
X194815170Y-196521900D01*
X194815170Y-196521900D02*
X194886598Y-196450471D01*
X194886598Y-196450471D02*
X194886598Y-196593328D01*
X195886599Y-195093328D02*
X196029456Y-195093328D01*
X196029456Y-195093328D02*
X196172313Y-195164757D01*
X196172313Y-195164757D02*
X196243742Y-195236185D01*
X196243742Y-195236185D02*
X196315170Y-195379042D01*
X196315170Y-195379042D02*
X196386599Y-195664757D01*
X196386599Y-195664757D02*
X196386599Y-196021900D01*
X196386599Y-196021900D02*
X196315170Y-196307614D01*
X196315170Y-196307614D02*
X196243742Y-196450471D01*
X196243742Y-196450471D02*
X196172313Y-196521900D01*
X196172313Y-196521900D02*
X196029456Y-196593328D01*
X196029456Y-196593328D02*
X195886599Y-196593328D01*
X195886599Y-196593328D02*
X195743742Y-196521900D01*
X195743742Y-196521900D02*
X195672313Y-196450471D01*
X195672313Y-196450471D02*
X195600884Y-196307614D01*
X195600884Y-196307614D02*
X195529456Y-196021900D01*
X195529456Y-196021900D02*
X195529456Y-195664757D01*
X195529456Y-195664757D02*
X195600884Y-195379042D01*
X195600884Y-195379042D02*
X195672313Y-195236185D01*
X195672313Y-195236185D02*
X195743742Y-195164757D01*
X195743742Y-195164757D02*
X195886599Y-195093328D01*
X197029455Y-196450471D02*
X197100884Y-196521900D01*
X197100884Y-196521900D02*
X197029455Y-196593328D01*
X197029455Y-196593328D02*
X196958027Y-196521900D01*
X196958027Y-196521900D02*
X197029455Y-196450471D01*
X197029455Y-196450471D02*
X197029455Y-196593328D01*
X198029456Y-195093328D02*
X198172313Y-195093328D01*
X198172313Y-195093328D02*
X198315170Y-195164757D01*
X198315170Y-195164757D02*
X198386599Y-195236185D01*
X198386599Y-195236185D02*
X198458027Y-195379042D01*
X198458027Y-195379042D02*
X198529456Y-195664757D01*
X198529456Y-195664757D02*
X198529456Y-196021900D01*
X198529456Y-196021900D02*
X198458027Y-196307614D01*
X198458027Y-196307614D02*
X198386599Y-196450471D01*
X198386599Y-196450471D02*
X198315170Y-196521900D01*
X198315170Y-196521900D02*
X198172313Y-196593328D01*
X198172313Y-196593328D02*
X198029456Y-196593328D01*
X198029456Y-196593328D02*
X197886599Y-196521900D01*
X197886599Y-196521900D02*
X197815170Y-196450471D01*
X197815170Y-196450471D02*
X197743741Y-196307614D01*
X197743741Y-196307614D02*
X197672313Y-196021900D01*
X197672313Y-196021900D02*
X197672313Y-195664757D01*
X197672313Y-195664757D02*
X197743741Y-195379042D01*
X197743741Y-195379042D02*
X197815170Y-195236185D01*
X197815170Y-195236185D02*
X197886599Y-195164757D01*
X197886599Y-195164757D02*
X198029456Y-195093328D01*
D10*
D11*
X177002200Y-191507200D02*
X285002200Y-191507200D01*
D10*
D12*
X264413853Y-193785528D02*
X263913853Y-193071242D01*
X263556710Y-193785528D02*
X263556710Y-192285528D01*
X263556710Y-192285528D02*
X264128139Y-192285528D01*
X264128139Y-192285528D02*
X264270996Y-192356957D01*
X264270996Y-192356957D02*
X264342425Y-192428385D01*
X264342425Y-192428385D02*
X264413853Y-192571242D01*
X264413853Y-192571242D02*
X264413853Y-192785528D01*
X264413853Y-192785528D02*
X264342425Y-192928385D01*
X264342425Y-192928385D02*
X264270996Y-192999814D01*
X264270996Y-192999814D02*
X264128139Y-193071242D01*
X264128139Y-193071242D02*
X263556710Y-193071242D01*
X265628139Y-193714100D02*
X265485282Y-193785528D01*
X265485282Y-193785528D02*
X265199568Y-193785528D01*
X265199568Y-193785528D02*
X265056710Y-193714100D01*
X265056710Y-193714100D02*
X264985282Y-193571242D01*
X264985282Y-193571242D02*
X264985282Y-192999814D01*
X264985282Y-192999814D02*
X265056710Y-192856957D01*
X265056710Y-192856957D02*
X265199568Y-192785528D01*
X265199568Y-192785528D02*
X265485282Y-192785528D01*
X265485282Y-192785528D02*
X265628139Y-192856957D01*
X265628139Y-192856957D02*
X265699568Y-192999814D01*
X265699568Y-192999814D02*
X265699568Y-193142671D01*
X265699568Y-193142671D02*
X264985282Y-193285528D01*
X266199567Y-192785528D02*
X266556710Y-193785528D01*
X266556710Y-193785528D02*
X266913853Y-192785528D01*
X267485281Y-193642671D02*
X267556710Y-193714100D01*
X267556710Y-193714100D02*
X267485281Y-193785528D01*
X267485281Y-193785528D02*
X267413853Y-193714100D01*
X267413853Y-193714100D02*
X267485281Y-193642671D01*
X267485281Y-193642671D02*
X267485281Y-193785528D01*
X267485281Y-192856957D02*
X267556710Y-192928385D01*
X267556710Y-192928385D02*
X267485281Y-192999814D01*
X267485281Y-192999814D02*
X267413853Y-192928385D01*
X267413853Y-192928385D02*
X267485281Y-192856957D01*
X267485281Y-192856957D02*
X267485281Y-192999814D01*
D10*
D11*
X178386598Y-193721900D02*
X178600884Y-193793328D01*
X178600884Y-193793328D02*
X178958026Y-193793328D01*
X178958026Y-193793328D02*
X179100884Y-193721900D01*
X179100884Y-193721900D02*
X179172312Y-193650471D01*
X179172312Y-193650471D02*
X179243741Y-193507614D01*
X179243741Y-193507614D02*
X179243741Y-193364757D01*
X179243741Y-193364757D02*
X179172312Y-193221900D01*
X179172312Y-193221900D02*
X179100884Y-193150471D01*
X179100884Y-193150471D02*
X178958026Y-193079042D01*
X178958026Y-193079042D02*
X178672312Y-193007614D01*
X178672312Y-193007614D02*
X178529455Y-192936185D01*
X178529455Y-192936185D02*
X178458026Y-192864757D01*
X178458026Y-192864757D02*
X178386598Y-192721900D01*
X178386598Y-192721900D02*
X178386598Y-192579042D01*
X178386598Y-192579042D02*
X178458026Y-192436185D01*
X178458026Y-192436185D02*
X178529455Y-192364757D01*
X178529455Y-192364757D02*
X178672312Y-192293328D01*
X178672312Y-192293328D02*
X179029455Y-192293328D01*
X179029455Y-192293328D02*
X179243741Y-192364757D01*
X179886597Y-193793328D02*
X179886597Y-192793328D01*
X179886597Y-192293328D02*
X179815169Y-192364757D01*
X179815169Y-192364757D02*
X179886597Y-192436185D01*
X179886597Y-192436185D02*
X179958026Y-192364757D01*
X179958026Y-192364757D02*
X179886597Y-192293328D01*
X179886597Y-192293328D02*
X179886597Y-192436185D01*
X180458026Y-192793328D02*
X181243741Y-192793328D01*
X181243741Y-192793328D02*
X180458026Y-193793328D01*
X180458026Y-193793328D02*
X181243741Y-193793328D01*
X182386598Y-193721900D02*
X182243741Y-193793328D01*
X182243741Y-193793328D02*
X181958027Y-193793328D01*
X181958027Y-193793328D02*
X181815169Y-193721900D01*
X181815169Y-193721900D02*
X181743741Y-193579042D01*
X181743741Y-193579042D02*
X181743741Y-193007614D01*
X181743741Y-193007614D02*
X181815169Y-192864757D01*
X181815169Y-192864757D02*
X181958027Y-192793328D01*
X181958027Y-192793328D02*
X182243741Y-192793328D01*
X182243741Y-192793328D02*
X182386598Y-192864757D01*
X182386598Y-192864757D02*
X182458027Y-193007614D01*
X182458027Y-193007614D02*
X182458027Y-193150471D01*
X182458027Y-193150471D02*
X181743741Y-193293328D01*
X183100883Y-193650471D02*
X183172312Y-193721900D01*
X183172312Y-193721900D02*
X183100883Y-193793328D01*
X183100883Y-193793328D02*
X183029455Y-193721900D01*
X183029455Y-193721900D02*
X183100883Y-193650471D01*
X183100883Y-193650471D02*
X183100883Y-193793328D01*
X183100883Y-192864757D02*
X183172312Y-192936185D01*
X183172312Y-192936185D02*
X183100883Y-193007614D01*
X183100883Y-193007614D02*
X183029455Y-192936185D01*
X183029455Y-192936185D02*
X183100883Y-192864757D01*
X183100883Y-192864757D02*
X183100883Y-193007614D01*
X184886598Y-193364757D02*
X185600884Y-193364757D01*
X184743741Y-193793328D02*
X185243741Y-192293328D01*
X185243741Y-192293328D02*
X185743741Y-193793328D01*
X186886598Y-192793328D02*
X186886598Y-193793328D01*
X186529455Y-192221900D02*
X186172312Y-193293328D01*
X186172312Y-193293328D02*
X187100883Y-193293328D01*
D10*
D11*
X263458026Y-196593328D02*
X263458026Y-195093328D01*
X264815170Y-196593328D02*
X264815170Y-195093328D01*
X264815170Y-196521900D02*
X264672312Y-196593328D01*
X264672312Y-196593328D02*
X264386598Y-196593328D01*
X264386598Y-196593328D02*
X264243741Y-196521900D01*
X264243741Y-196521900D02*
X264172312Y-196450471D01*
X264172312Y-196450471D02*
X264100884Y-196307614D01*
X264100884Y-196307614D02*
X264100884Y-195879042D01*
X264100884Y-195879042D02*
X264172312Y-195736185D01*
X264172312Y-195736185D02*
X264243741Y-195664757D01*
X264243741Y-195664757D02*
X264386598Y-195593328D01*
X264386598Y-195593328D02*
X264672312Y-195593328D01*
X264672312Y-195593328D02*
X264815170Y-195664757D01*
X265529455Y-196450471D02*
X265600884Y-196521900D01*
X265600884Y-196521900D02*
X265529455Y-196593328D01*
X265529455Y-196593328D02*
X265458027Y-196521900D01*
X265458027Y-196521900D02*
X265529455Y-196450471D01*
X265529455Y-196450471D02*
X265529455Y-196593328D01*
X265529455Y-195664757D02*
X265600884Y-195736185D01*
X265600884Y-195736185D02*
X265529455Y-195807614D01*
X265529455Y-195807614D02*
X265458027Y-195736185D01*
X265458027Y-195736185D02*
X265529455Y-195664757D01*
X265529455Y-195664757D02*
X265529455Y-195807614D01*
X267458027Y-196593328D02*
X267743741Y-196593328D01*
X267743741Y-196593328D02*
X267886598Y-196521900D01*
X267886598Y-196521900D02*
X267958027Y-196450471D01*
X267958027Y-196450471D02*
X268100884Y-196236185D01*
X268100884Y-196236185D02*
X268172313Y-195950471D01*
X268172313Y-195950471D02*
X268172313Y-195379042D01*
X268172313Y-195379042D02*
X268100884Y-195236185D01*
X268100884Y-195236185D02*
X268029456Y-195164757D01*
X268029456Y-195164757D02*
X267886598Y-195093328D01*
X267886598Y-195093328D02*
X267600884Y-195093328D01*
X267600884Y-195093328D02*
X267458027Y-195164757D01*
X267458027Y-195164757D02*
X267386598Y-195236185D01*
X267386598Y-195236185D02*
X267315170Y-195379042D01*
X267315170Y-195379042D02*
X267315170Y-195736185D01*
X267315170Y-195736185D02*
X267386598Y-195879042D01*
X267386598Y-195879042D02*
X267458027Y-195950471D01*
X267458027Y-195950471D02*
X267600884Y-196021900D01*
X267600884Y-196021900D02*
X267886598Y-196021900D01*
X267886598Y-196021900D02*
X268029456Y-195950471D01*
X268029456Y-195950471D02*
X268100884Y-195879042D01*
X268100884Y-195879042D02*
X268172313Y-195736185D01*
X269886598Y-195021900D02*
X268600884Y-196950471D01*
X271172313Y-196593328D02*
X270315170Y-196593328D01*
X270743741Y-196593328D02*
X270743741Y-195093328D01*
X270743741Y-195093328D02*
X270600884Y-195307614D01*
X270600884Y-195307614D02*
X270458027Y-195450471D01*
X270458027Y-195450471D02*
X270315170Y-195521900D01*
X272600884Y-196593328D02*
X271743741Y-196593328D01*
X272172312Y-196593328D02*
X272172312Y-195093328D01*
X272172312Y-195093328D02*
X272029455Y-195307614D01*
X272029455Y-195307614D02*
X271886598Y-195450471D01*
X271886598Y-195450471D02*
X271743741Y-195521900D01*
D10*
D11*
X177002200Y-187507200D02*
X285002200Y-187507200D01*
D10*
D13*
X178693928Y-188211638D02*
X179836785Y-188211638D01*
X179015357Y-190211638D02*
X179265357Y-188211638D01*
X180253452Y-190211638D02*
X180420119Y-188878304D01*
X180503452Y-188211638D02*
X180396309Y-188306876D01*
X180396309Y-188306876D02*
X180479643Y-188402114D01*
X180479643Y-188402114D02*
X180586786Y-188306876D01*
X180586786Y-188306876D02*
X180503452Y-188211638D01*
X180503452Y-188211638D02*
X180479643Y-188402114D01*
X181086786Y-188878304D02*
X181848690Y-188878304D01*
X181455833Y-188211638D02*
X181241548Y-189925923D01*
X181241548Y-189925923D02*
X181312976Y-190116400D01*
X181312976Y-190116400D02*
X181491548Y-190211638D01*
X181491548Y-190211638D02*
X181682024Y-190211638D01*
X182634405Y-190211638D02*
X182455833Y-190116400D01*
X182455833Y-190116400D02*
X182384405Y-189925923D01*
X182384405Y-189925923D02*
X182598690Y-188211638D01*
X184170119Y-190116400D02*
X183967738Y-190211638D01*
X183967738Y-190211638D02*
X183586785Y-190211638D01*
X183586785Y-190211638D02*
X183408214Y-190116400D01*
X183408214Y-190116400D02*
X183336785Y-189925923D01*
X183336785Y-189925923D02*
X183432024Y-189164019D01*
X183432024Y-189164019D02*
X183551071Y-188973542D01*
X183551071Y-188973542D02*
X183753452Y-188878304D01*
X183753452Y-188878304D02*
X184134404Y-188878304D01*
X184134404Y-188878304D02*
X184312976Y-188973542D01*
X184312976Y-188973542D02*
X184384404Y-189164019D01*
X184384404Y-189164019D02*
X184360595Y-189354495D01*
X184360595Y-189354495D02*
X183384404Y-189544971D01*
X185134405Y-190021161D02*
X185217738Y-190116400D01*
X185217738Y-190116400D02*
X185110595Y-190211638D01*
X185110595Y-190211638D02*
X185027262Y-190116400D01*
X185027262Y-190116400D02*
X185134405Y-190021161D01*
X185134405Y-190021161D02*
X185110595Y-190211638D01*
X185265357Y-188973542D02*
X185348690Y-189068780D01*
X185348690Y-189068780D02*
X185241548Y-189164019D01*
X185241548Y-189164019D02*
X185158214Y-189068780D01*
X185158214Y-189068780D02*
X185265357Y-188973542D01*
X185265357Y-188973542D02*
X185241548Y-189164019D01*
D10*
D11*
X178958026Y-185607614D02*
X178458026Y-185607614D01*
X178458026Y-186393328D02*
X178458026Y-184893328D01*
X178458026Y-184893328D02*
X179172312Y-184893328D01*
X179743740Y-186393328D02*
X179743740Y-185393328D01*
X179743740Y-184893328D02*
X179672312Y-184964757D01*
X179672312Y-184964757D02*
X179743740Y-185036185D01*
X179743740Y-185036185D02*
X179815169Y-184964757D01*
X179815169Y-184964757D02*
X179743740Y-184893328D01*
X179743740Y-184893328D02*
X179743740Y-185036185D01*
X180672312Y-186393328D02*
X180529455Y-186321900D01*
X180529455Y-186321900D02*
X180458026Y-186179042D01*
X180458026Y-186179042D02*
X180458026Y-184893328D01*
X181815169Y-186321900D02*
X181672312Y-186393328D01*
X181672312Y-186393328D02*
X181386598Y-186393328D01*
X181386598Y-186393328D02*
X181243740Y-186321900D01*
X181243740Y-186321900D02*
X181172312Y-186179042D01*
X181172312Y-186179042D02*
X181172312Y-185607614D01*
X181172312Y-185607614D02*
X181243740Y-185464757D01*
X181243740Y-185464757D02*
X181386598Y-185393328D01*
X181386598Y-185393328D02*
X181672312Y-185393328D01*
X181672312Y-185393328D02*
X181815169Y-185464757D01*
X181815169Y-185464757D02*
X181886598Y-185607614D01*
X181886598Y-185607614D02*
X181886598Y-185750471D01*
X181886598Y-185750471D02*
X181172312Y-185893328D01*
X182529454Y-186250471D02*
X182600883Y-186321900D01*
X182600883Y-186321900D02*
X182529454Y-186393328D01*
X182529454Y-186393328D02*
X182458026Y-186321900D01*
X182458026Y-186321900D02*
X182529454Y-186250471D01*
X182529454Y-186250471D02*
X182529454Y-186393328D01*
X182529454Y-185464757D02*
X182600883Y-185536185D01*
X182600883Y-185536185D02*
X182529454Y-185607614D01*
X182529454Y-185607614D02*
X182458026Y-185536185D01*
X182458026Y-185536185D02*
X182529454Y-185464757D01*
X182529454Y-185464757D02*
X182529454Y-185607614D01*
X185029455Y-186393328D02*
X185029455Y-184893328D01*
X185029455Y-186321900D02*
X184886597Y-186393328D01*
X184886597Y-186393328D02*
X184600883Y-186393328D01*
X184600883Y-186393328D02*
X184458026Y-186321900D01*
X184458026Y-186321900D02*
X184386597Y-186250471D01*
X184386597Y-186250471D02*
X184315169Y-186107614D01*
X184315169Y-186107614D02*
X184315169Y-185679042D01*
X184315169Y-185679042D02*
X184386597Y-185536185D01*
X184386597Y-185536185D02*
X184458026Y-185464757D01*
X184458026Y-185464757D02*
X184600883Y-185393328D01*
X184600883Y-185393328D02*
X184886597Y-185393328D01*
X184886597Y-185393328D02*
X185029455Y-185464757D01*
X185743740Y-186393328D02*
X185743740Y-185393328D01*
X185743740Y-185679042D02*
X185815169Y-185536185D01*
X185815169Y-185536185D02*
X185886598Y-185464757D01*
X185886598Y-185464757D02*
X186029455Y-185393328D01*
X186029455Y-185393328D02*
X186172312Y-185393328D01*
X186886597Y-186393328D02*
X186743740Y-186321900D01*
X186743740Y-186321900D02*
X186672311Y-186250471D01*
X186672311Y-186250471D02*
X186600883Y-186107614D01*
X186600883Y-186107614D02*
X186600883Y-185679042D01*
X186600883Y-185679042D02*
X186672311Y-185536185D01*
X186672311Y-185536185D02*
X186743740Y-185464757D01*
X186743740Y-185464757D02*
X186886597Y-185393328D01*
X186886597Y-185393328D02*
X187100883Y-185393328D01*
X187100883Y-185393328D02*
X187243740Y-185464757D01*
X187243740Y-185464757D02*
X187315169Y-185536185D01*
X187315169Y-185536185D02*
X187386597Y-185679042D01*
X187386597Y-185679042D02*
X187386597Y-186107614D01*
X187386597Y-186107614D02*
X187315169Y-186250471D01*
X187315169Y-186250471D02*
X187243740Y-186321900D01*
X187243740Y-186321900D02*
X187100883Y-186393328D01*
X187100883Y-186393328D02*
X186886597Y-186393328D01*
X188029454Y-185393328D02*
X188029454Y-186393328D01*
X188029454Y-185536185D02*
X188100883Y-185464757D01*
X188100883Y-185464757D02*
X188243740Y-185393328D01*
X188243740Y-185393328D02*
X188458026Y-185393328D01*
X188458026Y-185393328D02*
X188600883Y-185464757D01*
X188600883Y-185464757D02*
X188672312Y-185607614D01*
X188672312Y-185607614D02*
X188672312Y-186393328D01*
X189958026Y-186321900D02*
X189815169Y-186393328D01*
X189815169Y-186393328D02*
X189529455Y-186393328D01*
X189529455Y-186393328D02*
X189386597Y-186321900D01*
X189386597Y-186321900D02*
X189315169Y-186179042D01*
X189315169Y-186179042D02*
X189315169Y-185607614D01*
X189315169Y-185607614D02*
X189386597Y-185464757D01*
X189386597Y-185464757D02*
X189529455Y-185393328D01*
X189529455Y-185393328D02*
X189815169Y-185393328D01*
X189815169Y-185393328D02*
X189958026Y-185464757D01*
X189958026Y-185464757D02*
X190029455Y-185607614D01*
X190029455Y-185607614D02*
X190029455Y-185750471D01*
X190029455Y-185750471D02*
X189315169Y-185893328D01*
X191315169Y-186393328D02*
X191315169Y-184893328D01*
X191315169Y-186321900D02*
X191172311Y-186393328D01*
X191172311Y-186393328D02*
X190886597Y-186393328D01*
X190886597Y-186393328D02*
X190743740Y-186321900D01*
X190743740Y-186321900D02*
X190672311Y-186250471D01*
X190672311Y-186250471D02*
X190600883Y-186107614D01*
X190600883Y-186107614D02*
X190600883Y-185679042D01*
X190600883Y-185679042D02*
X190672311Y-185536185D01*
X190672311Y-185536185D02*
X190743740Y-185464757D01*
X190743740Y-185464757D02*
X190886597Y-185393328D01*
X190886597Y-185393328D02*
X191172311Y-185393328D01*
X191172311Y-185393328D02*
X191315169Y-185464757D01*
X192029454Y-186393328D02*
X192029454Y-185393328D01*
X192029454Y-185679042D02*
X192100883Y-185536185D01*
X192100883Y-185536185D02*
X192172312Y-185464757D01*
X192172312Y-185464757D02*
X192315169Y-185393328D01*
X192315169Y-185393328D02*
X192458026Y-185393328D01*
X192958025Y-186393328D02*
X192958025Y-185393328D01*
X192958025Y-184893328D02*
X192886597Y-184964757D01*
X192886597Y-184964757D02*
X192958025Y-185036185D01*
X192958025Y-185036185D02*
X193029454Y-184964757D01*
X193029454Y-184964757D02*
X192958025Y-184893328D01*
X192958025Y-184893328D02*
X192958025Y-185036185D01*
X193529454Y-185393328D02*
X193886597Y-186393328D01*
X193886597Y-186393328D02*
X194243740Y-185393328D01*
X195386597Y-186321900D02*
X195243740Y-186393328D01*
X195243740Y-186393328D02*
X194958026Y-186393328D01*
X194958026Y-186393328D02*
X194815168Y-186321900D01*
X194815168Y-186321900D02*
X194743740Y-186179042D01*
X194743740Y-186179042D02*
X194743740Y-185607614D01*
X194743740Y-185607614D02*
X194815168Y-185464757D01*
X194815168Y-185464757D02*
X194958026Y-185393328D01*
X194958026Y-185393328D02*
X195243740Y-185393328D01*
X195243740Y-185393328D02*
X195386597Y-185464757D01*
X195386597Y-185464757D02*
X195458026Y-185607614D01*
X195458026Y-185607614D02*
X195458026Y-185750471D01*
X195458026Y-185750471D02*
X194743740Y-185893328D01*
X196100882Y-186393328D02*
X196100882Y-185393328D01*
X196100882Y-185679042D02*
X196172311Y-185536185D01*
X196172311Y-185536185D02*
X196243740Y-185464757D01*
X196243740Y-185464757D02*
X196386597Y-185393328D01*
X196386597Y-185393328D02*
X196529454Y-185393328D01*
X196958025Y-186321900D02*
X197100882Y-186393328D01*
X197100882Y-186393328D02*
X197386596Y-186393328D01*
X197386596Y-186393328D02*
X197529453Y-186321900D01*
X197529453Y-186321900D02*
X197600882Y-186179042D01*
X197600882Y-186179042D02*
X197600882Y-186107614D01*
X197600882Y-186107614D02*
X197529453Y-185964757D01*
X197529453Y-185964757D02*
X197386596Y-185893328D01*
X197386596Y-185893328D02*
X197172311Y-185893328D01*
X197172311Y-185893328D02*
X197029453Y-185821900D01*
X197029453Y-185821900D02*
X196958025Y-185679042D01*
X196958025Y-185679042D02*
X196958025Y-185607614D01*
X196958025Y-185607614D02*
X197029453Y-185464757D01*
X197029453Y-185464757D02*
X197172311Y-185393328D01*
X197172311Y-185393328D02*
X197386596Y-185393328D01*
X197386596Y-185393328D02*
X197529453Y-185464757D01*
X198243739Y-186250471D02*
X198315168Y-186321900D01*
X198315168Y-186321900D02*
X198243739Y-186393328D01*
X198243739Y-186393328D02*
X198172311Y-186321900D01*
X198172311Y-186321900D02*
X198243739Y-186250471D01*
X198243739Y-186250471D02*
X198243739Y-186393328D01*
X198958025Y-186393328D02*
X198958025Y-184893328D01*
X199100883Y-185821900D02*
X199529454Y-186393328D01*
X199529454Y-185393328D02*
X198958025Y-185964757D01*
X200172311Y-186393328D02*
X200172311Y-185393328D01*
X200172311Y-184893328D02*
X200100883Y-184964757D01*
X200100883Y-184964757D02*
X200172311Y-185036185D01*
X200172311Y-185036185D02*
X200243740Y-184964757D01*
X200243740Y-184964757D02*
X200172311Y-184893328D01*
X200172311Y-184893328D02*
X200172311Y-185036185D01*
X201529455Y-186321900D02*
X201386597Y-186393328D01*
X201386597Y-186393328D02*
X201100883Y-186393328D01*
X201100883Y-186393328D02*
X200958026Y-186321900D01*
X200958026Y-186321900D02*
X200886597Y-186250471D01*
X200886597Y-186250471D02*
X200815169Y-186107614D01*
X200815169Y-186107614D02*
X200815169Y-185679042D01*
X200815169Y-185679042D02*
X200886597Y-185536185D01*
X200886597Y-185536185D02*
X200958026Y-185464757D01*
X200958026Y-185464757D02*
X201100883Y-185393328D01*
X201100883Y-185393328D02*
X201386597Y-185393328D01*
X201386597Y-185393328D02*
X201529455Y-185464757D01*
X202815169Y-186393328D02*
X202815169Y-185607614D01*
X202815169Y-185607614D02*
X202743740Y-185464757D01*
X202743740Y-185464757D02*
X202600883Y-185393328D01*
X202600883Y-185393328D02*
X202315169Y-185393328D01*
X202315169Y-185393328D02*
X202172311Y-185464757D01*
X202815169Y-186321900D02*
X202672311Y-186393328D01*
X202672311Y-186393328D02*
X202315169Y-186393328D01*
X202315169Y-186393328D02*
X202172311Y-186321900D01*
X202172311Y-186321900D02*
X202100883Y-186179042D01*
X202100883Y-186179042D02*
X202100883Y-186036185D01*
X202100883Y-186036185D02*
X202172311Y-185893328D01*
X202172311Y-185893328D02*
X202315169Y-185821900D01*
X202315169Y-185821900D02*
X202672311Y-185821900D01*
X202672311Y-185821900D02*
X202815169Y-185750471D01*
X204172312Y-186393328D02*
X204172312Y-184893328D01*
X204172312Y-186321900D02*
X204029454Y-186393328D01*
X204029454Y-186393328D02*
X203743740Y-186393328D01*
X203743740Y-186393328D02*
X203600883Y-186321900D01*
X203600883Y-186321900D02*
X203529454Y-186250471D01*
X203529454Y-186250471D02*
X203458026Y-186107614D01*
X203458026Y-186107614D02*
X203458026Y-185679042D01*
X203458026Y-185679042D02*
X203529454Y-185536185D01*
X203529454Y-185536185D02*
X203600883Y-185464757D01*
X203600883Y-185464757D02*
X203743740Y-185393328D01*
X203743740Y-185393328D02*
X204029454Y-185393328D01*
X204029454Y-185393328D02*
X204172312Y-185464757D01*
X204529455Y-186536185D02*
X205672312Y-186536185D01*
X206029454Y-185393328D02*
X206029454Y-186893328D01*
X206029454Y-185464757D02*
X206172312Y-185393328D01*
X206172312Y-185393328D02*
X206458026Y-185393328D01*
X206458026Y-185393328D02*
X206600883Y-185464757D01*
X206600883Y-185464757D02*
X206672312Y-185536185D01*
X206672312Y-185536185D02*
X206743740Y-185679042D01*
X206743740Y-185679042D02*
X206743740Y-186107614D01*
X206743740Y-186107614D02*
X206672312Y-186250471D01*
X206672312Y-186250471D02*
X206600883Y-186321900D01*
X206600883Y-186321900D02*
X206458026Y-186393328D01*
X206458026Y-186393328D02*
X206172312Y-186393328D01*
X206172312Y-186393328D02*
X206029454Y-186321900D01*
X208029455Y-186321900D02*
X207886597Y-186393328D01*
X207886597Y-186393328D02*
X207600883Y-186393328D01*
X207600883Y-186393328D02*
X207458026Y-186321900D01*
X207458026Y-186321900D02*
X207386597Y-186250471D01*
X207386597Y-186250471D02*
X207315169Y-186107614D01*
X207315169Y-186107614D02*
X207315169Y-185679042D01*
X207315169Y-185679042D02*
X207386597Y-185536185D01*
X207386597Y-185536185D02*
X207458026Y-185464757D01*
X207458026Y-185464757D02*
X207600883Y-185393328D01*
X207600883Y-185393328D02*
X207886597Y-185393328D01*
X207886597Y-185393328D02*
X208029455Y-185464757D01*
X208672311Y-186393328D02*
X208672311Y-184893328D01*
X208672311Y-185464757D02*
X208815169Y-185393328D01*
X208815169Y-185393328D02*
X209100883Y-185393328D01*
X209100883Y-185393328D02*
X209243740Y-185464757D01*
X209243740Y-185464757D02*
X209315169Y-185536185D01*
X209315169Y-185536185D02*
X209386597Y-185679042D01*
X209386597Y-185679042D02*
X209386597Y-186107614D01*
X209386597Y-186107614D02*
X209315169Y-186250471D01*
X209315169Y-186250471D02*
X209243740Y-186321900D01*
X209243740Y-186321900D02*
X209100883Y-186393328D01*
X209100883Y-186393328D02*
X208815169Y-186393328D01*
X208815169Y-186393328D02*
X208672311Y-186321900D01*
D10*
D11*
X177002200Y-181507200D02*
X285002200Y-181507200D01*
D10*
D11*
X178386598Y-183621900D02*
X178600884Y-183693328D01*
X178600884Y-183693328D02*
X178958026Y-183693328D01*
X178958026Y-183693328D02*
X179100884Y-183621900D01*
X179100884Y-183621900D02*
X179172312Y-183550471D01*
X179172312Y-183550471D02*
X179243741Y-183407614D01*
X179243741Y-183407614D02*
X179243741Y-183264757D01*
X179243741Y-183264757D02*
X179172312Y-183121900D01*
X179172312Y-183121900D02*
X179100884Y-183050471D01*
X179100884Y-183050471D02*
X178958026Y-182979042D01*
X178958026Y-182979042D02*
X178672312Y-182907614D01*
X178672312Y-182907614D02*
X178529455Y-182836185D01*
X178529455Y-182836185D02*
X178458026Y-182764757D01*
X178458026Y-182764757D02*
X178386598Y-182621900D01*
X178386598Y-182621900D02*
X178386598Y-182479042D01*
X178386598Y-182479042D02*
X178458026Y-182336185D01*
X178458026Y-182336185D02*
X178529455Y-182264757D01*
X178529455Y-182264757D02*
X178672312Y-182193328D01*
X178672312Y-182193328D02*
X179029455Y-182193328D01*
X179029455Y-182193328D02*
X179243741Y-182264757D01*
X179886597Y-183693328D02*
X179886597Y-182193328D01*
X180529455Y-183693328D02*
X180529455Y-182907614D01*
X180529455Y-182907614D02*
X180458026Y-182764757D01*
X180458026Y-182764757D02*
X180315169Y-182693328D01*
X180315169Y-182693328D02*
X180100883Y-182693328D01*
X180100883Y-182693328D02*
X179958026Y-182764757D01*
X179958026Y-182764757D02*
X179886597Y-182836185D01*
X181815169Y-183621900D02*
X181672312Y-183693328D01*
X181672312Y-183693328D02*
X181386598Y-183693328D01*
X181386598Y-183693328D02*
X181243740Y-183621900D01*
X181243740Y-183621900D02*
X181172312Y-183479042D01*
X181172312Y-183479042D02*
X181172312Y-182907614D01*
X181172312Y-182907614D02*
X181243740Y-182764757D01*
X181243740Y-182764757D02*
X181386598Y-182693328D01*
X181386598Y-182693328D02*
X181672312Y-182693328D01*
X181672312Y-182693328D02*
X181815169Y-182764757D01*
X181815169Y-182764757D02*
X181886598Y-182907614D01*
X181886598Y-182907614D02*
X181886598Y-183050471D01*
X181886598Y-183050471D02*
X181172312Y-183193328D01*
X183100883Y-183621900D02*
X182958026Y-183693328D01*
X182958026Y-183693328D02*
X182672312Y-183693328D01*
X182672312Y-183693328D02*
X182529454Y-183621900D01*
X182529454Y-183621900D02*
X182458026Y-183479042D01*
X182458026Y-183479042D02*
X182458026Y-182907614D01*
X182458026Y-182907614D02*
X182529454Y-182764757D01*
X182529454Y-182764757D02*
X182672312Y-182693328D01*
X182672312Y-182693328D02*
X182958026Y-182693328D01*
X182958026Y-182693328D02*
X183100883Y-182764757D01*
X183100883Y-182764757D02*
X183172312Y-182907614D01*
X183172312Y-182907614D02*
X183172312Y-183050471D01*
X183172312Y-183050471D02*
X182458026Y-183193328D01*
X183600883Y-182693328D02*
X184172311Y-182693328D01*
X183815168Y-182193328D02*
X183815168Y-183479042D01*
X183815168Y-183479042D02*
X183886597Y-183621900D01*
X183886597Y-183621900D02*
X184029454Y-183693328D01*
X184029454Y-183693328D02*
X184172311Y-183693328D01*
X184672311Y-183550471D02*
X184743740Y-183621900D01*
X184743740Y-183621900D02*
X184672311Y-183693328D01*
X184672311Y-183693328D02*
X184600883Y-183621900D01*
X184600883Y-183621900D02*
X184672311Y-183550471D01*
X184672311Y-183550471D02*
X184672311Y-183693328D01*
X184672311Y-182764757D02*
X184743740Y-182836185D01*
X184743740Y-182836185D02*
X184672311Y-182907614D01*
X184672311Y-182907614D02*
X184600883Y-182836185D01*
X184600883Y-182836185D02*
X184672311Y-182764757D01*
X184672311Y-182764757D02*
X184672311Y-182907614D01*
D10*
D11*
X197002200Y-191507200D02*
X197002200Y-194507200D01*
D10*
D11*
X261002200Y-191507200D02*
X261002200Y-198007200D01*
%TO.C,J4*%
G36*
X127250000Y-89500000D02*
G01*
X128750000Y-89500000D01*
X128750000Y-87050000D01*
X127250000Y-87050000D01*
X127250000Y-89500000D01*
G37*
%TO.C,J6*%
G36*
X161224964Y-67950000D02*
G01*
X162724964Y-67950000D01*
X162724964Y-65500000D01*
X161224964Y-65500000D01*
X161224964Y-67950000D01*
G37*
%TO.C,J5*%
G36*
X161224964Y-89475000D02*
G01*
X162724964Y-89475000D01*
X162724964Y-87025000D01*
X161224964Y-87025000D01*
X161224964Y-89475000D01*
G37*
%TO.C,J1*%
G36*
X126724964Y-67950000D02*
G01*
X128224964Y-67950000D01*
X128224964Y-65500000D01*
X126724964Y-65500000D01*
X126724964Y-67950000D01*
G37*
%TD*%
D14*
%TO.C,D2*%
X127750000Y-100000000D03*
X127750000Y-96000000D03*
%TD*%
D15*
%TO.C,U6*%
X131450000Y-99150000D03*
X133750000Y-99150000D03*
D16*
X133750000Y-92850000D03*
D15*
X136050000Y-99150000D03*
%TD*%
D17*
%TO.C,R3*%
X153500000Y-101425000D03*
X155325000Y-101425000D03*
%TD*%
D18*
%TO.C,R8*%
X151500000Y-101662500D03*
X151500000Y-99837500D03*
%TD*%
D19*
%TO.C,SW2*%
X151800000Y-104975000D03*
X155200000Y-104975000D03*
%TD*%
D18*
%TO.C,R7*%
X138500000Y-101662500D03*
X138500000Y-99837500D03*
%TD*%
D19*
%TO.C,SW1*%
X138200000Y-104975000D03*
X134800000Y-104975000D03*
%TD*%
D20*
%TO.C,D5*%
X162274964Y-69750000D03*
X158974964Y-69750000D03*
%TD*%
D21*
%TO.C,C8*%
X133200000Y-103750000D03*
X131300000Y-103750000D03*
%TD*%
%TO.C,C13*%
X133200000Y-105750000D03*
X131300000Y-105750000D03*
%TD*%
D22*
%TO.C,U1*%
X136250000Y-58930000D03*
X136250000Y-60200000D03*
X136250000Y-61470000D03*
X136250000Y-62740000D03*
X136250000Y-64010000D03*
X136250000Y-65280000D03*
X136250000Y-66550000D03*
X136250000Y-67820000D03*
X136250000Y-69090000D03*
X136250000Y-70360000D03*
X136250000Y-71630000D03*
X136250000Y-72900000D03*
X136250000Y-74170000D03*
X136250000Y-75440000D03*
D23*
X138015000Y-76690000D03*
X139285000Y-76690000D03*
X140555000Y-76690000D03*
X141825000Y-76690000D03*
X143095000Y-76690000D03*
X144365000Y-76690000D03*
X145635000Y-76690000D03*
X146905000Y-76690000D03*
X148175000Y-76690000D03*
X149445000Y-76690000D03*
X150715000Y-76690000D03*
X151985000Y-76690000D03*
D22*
X153750000Y-75440000D03*
X153750000Y-74170000D03*
X153750000Y-72900000D03*
X153750000Y-71630000D03*
X153750000Y-70360000D03*
X153750000Y-69090000D03*
X153750000Y-67820000D03*
X153750000Y-66550000D03*
X153750000Y-65280000D03*
X153750000Y-64010000D03*
X153750000Y-62740000D03*
X153750000Y-61470000D03*
X153750000Y-60200000D03*
X153750000Y-58930000D03*
D24*
X142100000Y-65950000D03*
X142100000Y-67350000D03*
X142800000Y-65250000D03*
X142800000Y-66650000D03*
X142800000Y-68050000D03*
X143500000Y-65950000D03*
D25*
X143500000Y-66650000D03*
D24*
X143500000Y-67350000D03*
X144200000Y-65250000D03*
X144200000Y-66650000D03*
X144200000Y-68050000D03*
X144900000Y-65950000D03*
X144900000Y-67350000D03*
%TD*%
D26*
%TO.C,J9*%
X149320000Y-104825000D03*
D27*
X149320000Y-100645000D03*
D26*
X140680000Y-104825000D03*
D27*
X140680000Y-100645000D03*
D28*
X141800000Y-100070000D03*
X142600000Y-100070000D03*
D29*
X143250000Y-100070000D03*
X144250000Y-100070000D03*
X145750000Y-100070000D03*
X146750000Y-100070000D03*
D28*
X147400000Y-100070000D03*
X148200000Y-100070000D03*
X148200000Y-100070000D03*
X147400000Y-100070000D03*
D29*
X146250000Y-100070000D03*
X145250000Y-100070000D03*
X144750000Y-100070000D03*
X143750000Y-100070000D03*
D28*
X142600000Y-100070000D03*
X141800000Y-100070000D03*
D30*
X147890000Y-101145000D03*
X142110000Y-101145000D03*
%TD*%
D31*
%TO.C,H4*%
X162500000Y-105000000D03*
%TD*%
%TO.C,H3*%
X127500000Y-105000000D03*
%TD*%
%TO.C,H2*%
X162500000Y-60000000D03*
%TD*%
%TO.C,H1*%
X127500000Y-60000000D03*
%TD*%
D32*
%TO.C,U3*%
X143440000Y-84225000D03*
X144710000Y-84225000D03*
X145980000Y-84225000D03*
X147250000Y-84225000D03*
X148520000Y-84225000D03*
X149790000Y-84225000D03*
X151060000Y-84225000D03*
X151060000Y-79275000D03*
X149790000Y-79275000D03*
X148520000Y-79275000D03*
X147250000Y-79275000D03*
X145980000Y-79275000D03*
X144710000Y-79275000D03*
X143440000Y-79275000D03*
%TD*%
D33*
%TO.C,C15*%
X139000000Y-81450000D03*
X139000000Y-79550000D03*
%TD*%
D34*
%TO.C,J4*%
X128000000Y-89000000D03*
D35*
X128000000Y-87550000D03*
%TD*%
%TO.C,J6*%
X161974964Y-66000000D03*
D34*
X161974964Y-67450000D03*
%TD*%
%TO.C,J5*%
X161974964Y-88975000D03*
D35*
X161974964Y-87525000D03*
%TD*%
%TO.C,J1*%
X127474964Y-66000000D03*
D34*
X127474964Y-67450000D03*
%TD*%
D36*
%TO.C,D3*%
X130500000Y-86600000D03*
X130500000Y-89900000D03*
%TD*%
%TO.C,D4*%
X159474964Y-86675000D03*
X159474964Y-89975000D03*
%TD*%
D37*
%TO.C,J3*%
X158500000Y-92750000D03*
D38*
X155960000Y-92750000D03*
X153420000Y-92750000D03*
X150880000Y-92750000D03*
%TD*%
D39*
%TO.C,J2*%
X146000000Y-95450000D03*
D40*
X144000000Y-95450000D03*
%TD*%
D41*
%TO.C,Q1*%
X131599964Y-66950000D03*
X131599964Y-65050000D03*
X129724964Y-66000000D03*
%TD*%
D42*
%TO.C,Q5*%
X159724964Y-66000000D03*
X157849964Y-66950000D03*
X157849964Y-65050000D03*
%TD*%
D18*
%TO.C,R2*%
X132224964Y-70662500D03*
X132224964Y-68837500D03*
%TD*%
D43*
%TO.C,R4*%
X132000000Y-83250000D03*
X132000000Y-85075000D03*
%TD*%
D18*
%TO.C,R5*%
X157974964Y-85050000D03*
X157974964Y-83225000D03*
%TD*%
D37*
%TO.C,J8*%
X158550000Y-96500000D03*
D38*
X156010000Y-96500000D03*
X153470000Y-96500000D03*
X150930000Y-96500000D03*
%TD*%
D44*
%TO.C,Q2*%
X138300000Y-97687500D03*
X140200000Y-97687500D03*
X139250000Y-95812500D03*
%TD*%
D41*
%TO.C,Q3*%
X128000000Y-84000000D03*
X129875000Y-83050000D03*
X129875000Y-84950000D03*
%TD*%
D42*
%TO.C,Q4*%
X161974964Y-83975000D03*
X160099964Y-84925000D03*
X160099964Y-83025000D03*
%TD*%
D45*
%TO.C,R1*%
X130087500Y-63250000D03*
X131912500Y-63250000D03*
%TD*%
D46*
%TO.C,U5*%
X141300000Y-83600000D03*
X139000000Y-83600000D03*
D47*
X139000000Y-89900000D03*
D46*
X136700000Y-83600000D03*
%TD*%
D18*
%TO.C,R6*%
X157224964Y-70662500D03*
X157224964Y-68837500D03*
%TD*%
D48*
%TO.C,U4*%
X143500000Y-87250000D03*
X143500000Y-87650000D03*
X143500000Y-88050000D03*
X143500000Y-88450000D03*
X143500000Y-88850000D03*
X143500000Y-89250000D03*
D49*
X144000000Y-89750000D03*
X144400000Y-89750000D03*
X144800000Y-89750000D03*
X145200000Y-89750000D03*
X145600000Y-89750000D03*
X146000000Y-89750000D03*
D48*
X146500000Y-89250000D03*
X146500000Y-88850000D03*
X146500000Y-88450000D03*
X146500000Y-88050000D03*
X146500000Y-87650000D03*
X146500000Y-87250000D03*
D49*
X146000000Y-86750000D03*
X145600000Y-86750000D03*
X145200000Y-86750000D03*
X144800000Y-86750000D03*
X144400000Y-86750000D03*
X144000000Y-86750000D03*
%TD*%
D33*
%TO.C,C1*%
X131500000Y-58550000D03*
X131500000Y-60450000D03*
%TD*%
D50*
%TO.C,C4*%
X133750000Y-62050000D03*
X133750000Y-63950000D03*
%TD*%
D21*
%TO.C,C9*%
X129724964Y-72100000D03*
X127824964Y-72100000D03*
%TD*%
D51*
%TO.C,C12*%
X159774964Y-72000000D03*
X161674964Y-72000000D03*
%TD*%
%TO.C,C5*%
X133700000Y-72750000D03*
X131800000Y-72750000D03*
%TD*%
%TO.C,C6*%
X133700000Y-77250000D03*
X131800000Y-77250000D03*
%TD*%
D21*
%TO.C,C3*%
X147950000Y-91750000D03*
X146050000Y-91750000D03*
%TD*%
%TO.C,C7*%
X136500000Y-101425000D03*
X134600000Y-101425000D03*
%TD*%
D33*
%TO.C,C2*%
X133750000Y-58550000D03*
X133750000Y-60450000D03*
%TD*%
%TO.C,C11*%
X157224964Y-87525000D03*
X157224964Y-89425000D03*
%TD*%
%TO.C,C10*%
X132750000Y-87300000D03*
X132750000Y-89200000D03*
%TD*%
%TO.C,C16*%
X148250000Y-89200000D03*
X148250000Y-87300000D03*
%TD*%
%TO.C,C14*%
X136750000Y-81450000D03*
X136750000Y-79550000D03*
%TD*%
D52*
%TO.C,D1*%
X127224964Y-69850000D03*
X130524964Y-69850000D03*
%TD*%
D51*
%TO.C,C17*%
X142100000Y-92250000D03*
X144000000Y-92250000D03*
%TD*%
D10*
%TO.C,J9*%
X150000000Y-107425000D02*
X140000000Y-107425000D01*
%TD*%
D53*
X165000000Y-60000000D02*
X165000000Y-105000000D01*
X127500000Y-57500000D02*
X162500000Y-57500000D01*
X125000000Y-105000000D02*
X125000000Y-60000000D01*
X162500000Y-107500000D02*
X127500000Y-107500000D01*
X162500000Y-57500000D02*
G75*
G02*
X165000000Y-60000000I0J-2500000D01*
G01*
X125000000Y-60000000D02*
G75*
G02*
X127500000Y-57500000I2500000J0D01*
G01*
X127500000Y-107500000D02*
G75*
G02*
X125000000Y-105000000I0J2500000D01*
G01*
X165000000Y-105000000D02*
G75*
G02*
X162500000Y-107500000I-2500000J0D01*
G01*
M02*
